<?xml version="1.0" encoding="utf-8" standalone="no"?>
<!DOCTYPE svg PUBLIC "-//W3C//DTD SVG 1.1//EN"
  "http://www.w3.org/Graphics/SVG/1.1/DTD/svg11.dtd">
<svg xmlns:xlink="http://www.w3.org/1999/xlink" width="371.702864pt" height="196.680367pt" viewBox="0 0 371.702864 196.680367" xmlns="http://www.w3.org/2000/svg" version="1.1">
 <metadata>
  <rdf:RDF xmlns:dc="http://purl.org/dc/elements/1.1/" xmlns:cc="http://creativecommons.org/ns#" xmlns:rdf="http://www.w3.org/1999/02/22-rdf-syntax-ns#">
   <cc:Work>
    <dc:type rdf:resource="http://purl.org/dc/dcmitype/StillImage"/>
    <dc:date>2025-05-31T18:34:39.953448</dc:date>
    <dc:format>image/svg+xml</dc:format>
    <dc:creator>
     <cc:Agent>
      <dc:title>Matplotlib v3.9.2, https://matplotlib.org/</dc:title>
     </cc:Agent>
    </dc:creator>
   </cc:Work>
  </rdf:RDF>
 </metadata>
 <defs>
  <style type="text/css">*{stroke-linejoin: round; stroke-linecap: butt}</style>
 </defs>
 <g id="figure_1">
  <g id="patch_1">
   <path d="M 0 196.680367 
L 371.702864 196.680367 
L 371.702864 0 
L 0 0 
z
" style="fill: #ffffff"/>
  </g>
  <g id="axes_1">
   <g id="patch_2">
    <path d="M 36.902864 166.32 
L 371.702864 166.32 
L 371.702864 0 
L 36.902864 0 
z
" style="fill: #ffffff"/>
   </g>
   <g id="matplotlib.axis_1">
    <g id="xtick_1">
     <g id="line2d_1">
      <defs>
       <path id="m8ddf0da03b" d="M 0 0 
L 0 3.5 
" style="stroke: #000000; stroke-width: 0.8"/>
      </defs>
      <g>
       <use xlink:href="#m8ddf0da03b" x="52.121046" y="166.32" style="stroke: #000000; stroke-width: 0.8"/>
      </g>
     </g>
     <g id="text_1">
      <!-- $\mathdefault{1}$ -->
      <g transform="translate(49.630386 180.183012) scale(0.1 -0.1)">
       <defs>
        <path id="LMRoman17-Regular-31" d="M 2458 0 
L 2458 166 
L 2266 166 
C 1715 166 1702 236 1702 467 
L 1702 4085 
C 1702 4217 1696 4224 1606 4224 
C 1357 3927 979 3833 621 3820 
C 602 3820 570 3820 563 3808 
C 557 3795 557 3782 557 3648 
C 755 3648 1088 3686 1344 3839 
L 1344 467 
C 1344 243 1331 166 781 166 
L 589 166 
L 589 0 
L 1523 12 
L 2458 0 
z
" transform="scale(0.015625)"/>
       </defs>
       <use xlink:href="#LMRoman17-Regular-31" transform="scale(0.996264)"/>
      </g>
     </g>
    </g>
    <g id="xtick_2">
     <g id="line2d_2">
      <g>
       <use xlink:href="#m8ddf0da03b" x="95.601566" y="166.32" style="stroke: #000000; stroke-width: 0.8"/>
      </g>
     </g>
     <g id="text_2">
      <!-- $\mathdefault{10}$ -->
      <g transform="translate(90.620246 180.183012) scale(0.1 -0.1)">
       <defs>
        <path id="LMRoman17-Regular-30" d="M 2688 2038 
C 2688 2430 2682 3099 2413 3613 
C 2176 4063 1798 4224 1466 4224 
C 1158 4224 768 4082 525 3620 
C 269 3137 243 2539 243 2038 
C 243 1671 250 1112 448 623 
C 723 -39 1216 -128 1466 -128 
C 1760 -128 2208 -7 2470 604 
C 2662 1048 2688 1568 2688 2038 
z
M 2278 2109 
C 2278 1691 2278 1176 2202 797 
C 2067 96 1690 -26 1466 -26 
C 1056 -26 813 328 723 816 
C 653 1196 653 1749 653 2109 
C 653 2604 653 3015 736 3407 
C 858 3954 1216 4121 1466 4121 
C 1728 4121 2067 3947 2189 3420 
C 2272 3054 2278 2623 2278 2109 
z
" transform="scale(0.015625)"/>
       </defs>
       <use xlink:href="#LMRoman17-Regular-31" transform="scale(0.996264)"/>
       <use xlink:href="#LMRoman17-Regular-30" transform="translate(45.690948 0) scale(0.996264)"/>
      </g>
     </g>
    </g>
    <g id="xtick_3">
     <g id="line2d_3">
      <g>
       <use xlink:href="#m8ddf0da03b" x="143.913254" y="166.32" style="stroke: #000000; stroke-width: 0.8"/>
      </g>
     </g>
     <g id="text_3">
      <!-- $\mathdefault{20}$ -->
      <g transform="translate(138.931934 180.183012) scale(0.1 -0.1)">
       <defs>
        <path id="LMRoman17-Regular-32" d="M 2669 990 
L 2554 990 
C 2490 537 2438 460 2413 422 
C 2381 371 1920 371 1830 371 
L 602 371 
L 1824 1596 
C 2214 1966 2669 2400 2669 3033 
C 2669 3788 2067 4224 1395 4224 
C 691 4224 262 3603 262 3027 
C 262 2777 448 2745 525 2745 
C 589 2745 781 2783 781 3007 
C 781 3206 614 3264 525 3264 
C 486 3264 448 3257 422 3244 
C 544 3788 915 4057 1306 4057 
C 1862 4057 2227 3616 2227 3033 
C 2227 2477 1901 1998 1536 1583 
L 262 147 
L 262 0 
L 2515 0 
L 2669 990 
z
" transform="scale(0.015625)"/>
       </defs>
       <use xlink:href="#LMRoman17-Regular-32" transform="scale(0.996264)"/>
       <use xlink:href="#LMRoman17-Regular-30" transform="translate(45.690948 0) scale(0.996264)"/>
      </g>
     </g>
    </g>
    <g id="xtick_4">
     <g id="line2d_4">
      <g>
       <use xlink:href="#m8ddf0da03b" x="192.224942" y="166.32" style="stroke: #000000; stroke-width: 0.8"/>
      </g>
     </g>
     <g id="text_4">
      <!-- $\mathdefault{30}$ -->
      <g transform="translate(187.243622 180.183012) scale(0.1 -0.1)">
       <defs>
        <path id="LMRoman17-Regular-33" d="M 2720 1094 
C 2720 1715 2208 2163 1600 2233 
C 2086 2335 2554 2771 2554 3353 
C 2554 3856 2048 4224 1472 4224 
C 890 4224 378 3862 378 3347 
C 378 3123 544 3084 627 3084 
C 762 3084 877 3167 877 3334 
C 877 3500 762 3584 627 3584 
C 602 3596 570 3596 544 3584 
C 730 4006 1235 4083 1459 4083 
C 1683 4083 2106 3974 2106 3360 
C 2106 3180 2080 2860 1862 2579 
C 1670 2329 1453 2316 1242 2297 
C 1210 2297 1062 2284 1037 2284 
C 992 2278 966 2272 966 2227 
C 966 2182 973 2176 1101 2176 
L 1414 2176 
C 1984 2176 2234 1673 2234 1094 
C 2234 322 1824 25 1453 25 
C 1114 25 563 193 390 691 
C 422 678 454 678 486 678 
C 640 671 755 774 755 940 
C 755 1132 614 1216 486 1216 
C 378 1216 211 1164 211 926 
C 211 334 787 -128 1466 -128 
C 2176 -128 2720 431 2720 1087 
L 2720 1094 
z
" transform="scale(0.015625)"/>
       </defs>
       <use xlink:href="#LMRoman17-Regular-33" transform="scale(0.996264)"/>
       <use xlink:href="#LMRoman17-Regular-30" transform="translate(45.690948 0) scale(0.996264)"/>
      </g>
     </g>
    </g>
    <g id="xtick_5">
     <g id="line2d_5">
      <g>
       <use xlink:href="#m8ddf0da03b" x="240.53663" y="166.32" style="stroke: #000000; stroke-width: 0.8"/>
      </g>
     </g>
     <g id="text_5">
      <!-- $\mathdefault{40}$ -->
      <g transform="translate(235.55531 180.183012) scale(0.1 -0.1)">
       <defs>
        <path id="LMRoman17-Regular-34" d="M 2803 1088 
L 2803 1254 
L 2150 1254 
L 2150 4146 
C 2150 4281 2144 4288 2029 4288 
L 128 1254 
L 128 1088 
L 1779 1088 
L 1779 460 
C 1779 230 1766 166 1318 166 
L 1197 166 
L 1197 0 
C 1402 12 1747 12 1965 12 
C 2182 12 2528 12 2733 0 
L 2733 166 
L 2611 166 
C 2163 166 2150 230 2150 460 
L 2150 1088 
L 2803 1088 
z
M 1798 1254 
L 256 1254 
L 1798 3723 
L 1798 1254 
z
" transform="scale(0.015625)"/>
       </defs>
       <use xlink:href="#LMRoman17-Regular-34" transform="scale(0.996264)"/>
       <use xlink:href="#LMRoman17-Regular-30" transform="translate(45.690948 0) scale(0.996264)"/>
      </g>
     </g>
    </g>
    <g id="xtick_6">
     <g id="line2d_6">
      <g>
       <use xlink:href="#m8ddf0da03b" x="288.848319" y="166.32" style="stroke: #000000; stroke-width: 0.8"/>
      </g>
     </g>
     <g id="text_6">
      <!-- $\mathdefault{50}$ -->
      <g transform="translate(283.866999 180.183012) scale(0.1 -0.1)">
       <defs>
        <path id="LMRoman17-Regular-35" d="M 2669 1260 
C 2669 2028 2170 2624 1549 2624 
C 1222 2624 947 2502 730 2271 
L 730 3692 
C 794 3667 1056 3584 1325 3584 
C 1920 3584 2246 3904 2432 4119 
C 2432 4183 2432 4224 2394 4224 
C 2394 4224 2374 4224 2323 4191 
C 2099 4071 1837 3974 1517 3974 
C 1325 3993 1037 4019 723 4160 
C 653 4224 634 4224 634 4224 
C 602 4192 595 4185 595 4057 
L 595 2206 
C 595 2092 595 2061 659 2061 
C 691 2061 704 2074 736 2118 
C 941 2401 1222 2521 1542 2521 
C 1766 2521 2246 2382 2246 1304 
C 2246 1103 2246 735 2054 441 
C 1894 166 1645 25 1370 25 
C 947 25 518 334 403 832 
C 429 806 480 793 506 793 
C 589 793 749 838 749 1036 
C 749 1209 627 1280 506 1280 
C 358 1280 262 1190 262 1011 
C 262 454 704 -128 1382 -128 
C 2042 -128 2669 441 2669 1267 
L 2669 1260 
z
" transform="scale(0.015625)"/>
       </defs>
       <use xlink:href="#LMRoman17-Regular-35" transform="scale(0.996264)"/>
       <use xlink:href="#LMRoman17-Regular-30" transform="translate(45.690948 0) scale(0.996264)"/>
      </g>
     </g>
    </g>
    <g id="xtick_7">
     <g id="line2d_7">
      <g>
       <use xlink:href="#m8ddf0da03b" x="337.160007" y="166.32" style="stroke: #000000; stroke-width: 0.8"/>
      </g>
     </g>
     <g id="text_7">
      <!-- $\mathdefault{60}$ -->
      <g transform="translate(332.178687 180.183012) scale(0.1 -0.1)">
       <defs>
        <path id="LMRoman17-Regular-36" d="M 2688 1305 
C 2688 2105 2170 2688 1517 2688 
C 1126 2688 838 2431 678 1983 
L 678 2201 
C 678 3712 1395 4076 1811 4076 
C 1946 4076 2272 4049 2400 3782 
C 2298 3782 2106 3782 2106 3558 
C 2106 3385 2246 3328 2336 3328 
C 2394 3328 2566 3353 2566 3571 
C 2566 3993 2246 4224 1805 4224 
C 1043 4224 243 3427 243 2006 
C 243 257 966 -128 1478 -128 
C 2099 -135 2688 422 2688 1280 
L 2688 1305 
z
M 2253 1286 
C 2253 937 2253 684 2118 431 
C 1978 171 1773 25 1478 25 
C 691 25 691 1191 691 1427 
C 691 1901 909 2585 1504 2585 
C 1613 2585 1926 2585 2138 2131 
C 2253 1862 2253 1600 2253 1280 
L 2253 1286 
z
" transform="scale(0.015625)"/>
       </defs>
       <use xlink:href="#LMRoman17-Regular-36" transform="scale(0.996264)"/>
       <use xlink:href="#LMRoman17-Regular-30" transform="translate(45.690948 0) scale(0.996264)"/>
      </g>
     </g>
    </g>
    <g id="text_8">
     <!-- Indeks $k$ -->
     <g transform="translate(182.693508 194.355771) scale(0.12 -0.12)">
      <defs>
       <path id="LMRoman17-Regular-49" d="M 1798 0 
L 1798 166 
C 1338 166 1261 166 1261 453 
L 1261 3898 
C 1261 4185 1338 4185 1798 4185 
L 1798 4352 
C 1594 4339 1267 4339 1050 4339 
C 832 4339 506 4339 301 4352 
L 301 4185 
C 762 4185 838 4185 838 3898 
L 838 453 
C 838 166 762 166 301 166 
L 301 0 
C 506 12 832 12 1050 12 
C 1267 12 1594 12 1798 0 
z
" transform="scale(0.015625)"/>
       <path id="LMRoman17-Regular-6e" d="M 3091 0 
L 3091 166 
C 2682 166 2656 192 2656 443 
L 2656 1954 
C 2656 2282 2592 2816 1837 2816 
C 1331 2816 1069 2424 973 2166 
L 966 2166 
L 966 2816 
L 211 2752 
L 211 2585 
C 589 2585 646 2546 646 2237 
L 646 443 
C 646 198 621 166 211 166 
L 211 0 
C 365 12 646 12 813 12 
C 979 12 1267 12 1421 0 
L 1421 166 
C 1011 166 986 192 986 443 
L 986 1682 
C 986 2269 1344 2713 1792 2713 
C 2266 2713 2317 2289 2317 1980 
L 2317 443 
C 2317 198 2291 166 1882 166 
L 1882 0 
C 2035 12 2317 12 2483 12 
C 2650 12 2938 12 3091 0 
z
" transform="scale(0.015625)"/>
       <path id="LMRoman17-Regular-64" d="M 3066 0 
L 3066 166 
C 2688 166 2630 204 2630 512 
L 2630 4416 
L 1869 4352 
L 1869 4185 
C 2246 4185 2304 4148 2304 3847 
L 2304 2371 
C 2278 2403 2016 2816 1498 2816 
C 845 2816 211 2228 211 1376 
C 211 529 806 -64 1434 -64 
C 1978 -64 2259 361 2291 406 
L 2291 -64 
L 3066 0 
z
M 2291 768 
C 2291 576 2176 403 2029 275 
C 1811 70 1594 38 1472 38 
C 1286 38 621 135 621 1369 
C 621 2636 1363 2713 1530 2713 
C 1824 2713 2061 2545 2208 2313 
C 2291 2177 2291 2157 2291 2041 
L 2291 768 
z
" transform="scale(0.015625)"/>
       <path id="LMRoman17-Regular-65" d="M 2464 1606 
C 2464 2251 2118 2816 1389 2816 
C 710 2816 173 2175 173 1394 
C 173 554 781 -64 1459 -64 
C 2176 -64 2458 619 2458 755 
C 2458 800 2406 800 2406 800 
C 2362 800 2355 787 2330 709 
C 2189 270 1837 51 1504 51 
C 1229 51 954 206 781 490 
C 582 819 582 1200 582 1503 
L 2438 1503 
C 2464 1523 2464 1535 2464 1600 
L 2464 1606 
z
M 2118 1593 
L 589 1600 
C 634 2511 1126 2713 1382 2713 
C 1818 2713 2112 2308 2118 1600 
L 2118 1593 
z
" transform="scale(0.015625)"/>
       <path id="LMRoman17-Regular-6b" d="M 3040 0 
L 3040 166 
C 2739 166 2669 224 2477 505 
L 1670 1689 
C 1664 1702 1632 1740 1632 1760 
L 2144 2240 
C 2509 2547 2739 2579 2906 2585 
L 2906 2752 
C 2867 2752 2848 2745 2848 2745 
L 2534 2739 
C 2355 2739 2080 2739 1907 2752 
L 1907 2585 
C 1997 2579 2061 2528 2061 2438 
C 2061 2310 1926 2188 1926 2188 
L 960 1305 
L 960 4416 
L 198 4352 
L 198 4185 
C 576 4185 634 4147 634 3841 
L 634 440 
C 634 198 608 166 198 166 
L 198 0 
C 352 12 634 12 794 12 
C 954 12 1235 12 1389 0 
L 1389 166 
C 979 166 954 191 954 440 
L 954 1140 
L 1395 1542 
L 2042 586 
C 2118 472 2182 382 2182 300 
C 2182 185 2067 166 1990 166 
L 1990 0 
C 2144 12 2419 12 2579 12 
L 3040 0 
z
" transform="scale(0.015625)"/>
       <path id="LMRoman17-Regular-73" d="M 2131 793 
C 2131 1119 1958 1292 1875 1369 
C 1683 1567 1459 1612 1190 1663 
C 838 1740 390 1830 390 2216 
C 390 2380 480 2726 1126 2726 
C 1811 2726 1850 2097 1862 1894 
C 1869 1862 1901 1855 1920 1855 
C 1978 1855 1978 1875 1978 1984 
L 1978 2688 
C 1978 2809 1971 2816 1933 2816 
C 1907 2816 1901 2809 1824 2713 
C 1805 2687 1747 2623 1728 2598 
C 1523 2809 1235 2816 1126 2816 
C 416 2816 160 2450 160 2086 
C 160 1507 813 1371 998 1333 
C 1402 1249 1542 1223 1677 1107 
C 1760 1030 1901 888 1901 656 
C 1901 386 1747 38 1158 38 
C 602 38 403 463 288 1030 
C 269 1126 269 1132 218 1132 
C 166 1132 160 1126 160 998 
L 160 76 
C 160 -39 166 -45 205 -45 
C 237 -45 243 -39 275 12 
L 448 275 
C 576 102 800 -64 1158 -64 
C 1792 -64 2131 281 2131 780 
L 2131 793 
z
" transform="scale(0.015625)"/>
       <path id="LMMathItalic12-Regular-6b" d="M 3072 918 
C 3072 950 3046 975 3008 975 
C 2950 975 2944 950 2918 847 
C 2829 513 2694 64 2368 64 
C 2240 64 2157 128 2157 372 
C 2157 494 2182 635 2208 731 
C 2234 847 2234 853 2234 930 
C 2234 1309 1894 1521 1306 1598 
C 1536 1739 1766 1990 1856 2086 
C 2221 2495 2470 2687 2765 2687 
C 2912 2687 2950 2655 2995 2624 
C 2758 2598 2669 2431 2669 2303 
C 2669 2150 2790 2099 2880 2099 
C 3053 2099 3206 2246 3206 2451 
C 3206 2634 3059 2816 2771 2816 
C 2419 2816 2131 2579 1677 2067 
C 1613 1990 1376 1746 1139 1656 
L 1798 4255 
C 1805 4281 1818 4319 1818 4351 
C 1818 4416 1741 4416 1741 4416 
L 1389 4383 
C 1280 4377 1184 4364 1069 4358 
C 915 4345 870 4339 870 4223 
C 870 4159 934 4159 998 4159 
C 1325 4159 1325 4103 1325 4040 
C 1325 4014 1325 4002 1293 3888 
L 378 250 
C 352 154 352 141 352 102 
C 352 -39 461 -64 525 -64 
C 704 -64 742 77 794 276 
C 851 513 826 423 1094 1476 
C 1555 1425 1830 1232 1830 924 
C 1830 886 1830 860 1811 764 
C 1786 667 1786 590 1786 558 
C 1786 186 2029 -64 2355 -64 
C 2650 -64 2803 205 2854 295 
C 2989 532 3072 892 3072 918 
z
" transform="scale(0.015625)"/>
      </defs>
      <use xlink:href="#LMRoman17-Regular-49" transform="scale(0.996264)"/>
      <use xlink:href="#LMRoman17-Regular-6e" transform="translate(32.638029 0) scale(0.996264)"/>
      <use xlink:href="#LMRoman17-Regular-64" transform="translate(83.535117 0) scale(0.996264)"/>
      <use xlink:href="#LMRoman17-Regular-65" transform="translate(134.432204 0) scale(0.996264)"/>
      <use xlink:href="#LMRoman17-Regular-6b" transform="translate(174.917013 0) scale(0.996264)"/>
      <use xlink:href="#LMRoman17-Regular-73" transform="translate(223.208227 0) scale(0.996264)"/>
      <use xlink:href="#LMMathItalic12-Regular-6b" transform="translate(289.087613 0) scale(0.996264)"/>
     </g>
    </g>
   </g>
   <g id="matplotlib.axis_2">
    <g id="ytick_1">
     <g id="line2d_8">
      <defs>
       <path id="m5bfbe69be9" d="M 0 0 
L -3.5 0 
" style="stroke: #000000; stroke-width: 0.8"/>
      </defs>
      <g>
       <use xlink:href="#m5bfbe69be9" x="36.902864" y="158.76" style="stroke: #000000; stroke-width: 0.8"/>
      </g>
     </g>
     <g id="text_9">
      <!-- $\mathdefault{0}$ -->
      <g transform="translate(24.921544 162.191506) scale(0.1 -0.1)">
       <use xlink:href="#LMRoman17-Regular-30" transform="scale(0.996264)"/>
      </g>
     </g>
    </g>
    <g id="ytick_2">
     <g id="line2d_9">
      <g>
       <use xlink:href="#m5bfbe69be9" x="36.902864" y="135.135" style="stroke: #000000; stroke-width: 0.8"/>
      </g>
     </g>
     <g id="text_10">
      <!-- $\mathdefault{5}$ -->
      <g transform="translate(24.921544 138.566506) scale(0.1 -0.1)">
       <use xlink:href="#LMRoman17-Regular-35" transform="scale(0.996264)"/>
      </g>
     </g>
    </g>
    <g id="ytick_3">
     <g id="line2d_10">
      <g>
       <use xlink:href="#m5bfbe69be9" x="36.902864" y="111.51" style="stroke: #000000; stroke-width: 0.8"/>
      </g>
     </g>
     <g id="text_11">
      <!-- $\mathdefault{10}$ -->
      <g transform="translate(19.940224 114.941506) scale(0.1 -0.1)">
       <use xlink:href="#LMRoman17-Regular-31" transform="scale(0.996264)"/>
       <use xlink:href="#LMRoman17-Regular-30" transform="translate(45.690948 0) scale(0.996264)"/>
      </g>
     </g>
    </g>
    <g id="ytick_4">
     <g id="line2d_11">
      <g>
       <use xlink:href="#m5bfbe69be9" x="36.902864" y="87.885" style="stroke: #000000; stroke-width: 0.8"/>
      </g>
     </g>
     <g id="text_12">
      <!-- $\mathdefault{15}$ -->
      <g transform="translate(19.940224 91.316506) scale(0.1 -0.1)">
       <use xlink:href="#LMRoman17-Regular-31" transform="scale(0.996264)"/>
       <use xlink:href="#LMRoman17-Regular-35" transform="translate(45.690948 0) scale(0.996264)"/>
      </g>
     </g>
    </g>
    <g id="ytick_5">
     <g id="line2d_12">
      <g>
       <use xlink:href="#m5bfbe69be9" x="36.902864" y="64.26" style="stroke: #000000; stroke-width: 0.8"/>
      </g>
     </g>
     <g id="text_13">
      <!-- $\mathdefault{20}$ -->
      <g transform="translate(19.940224 67.691506) scale(0.1 -0.1)">
       <use xlink:href="#LMRoman17-Regular-32" transform="scale(0.996264)"/>
       <use xlink:href="#LMRoman17-Regular-30" transform="translate(45.690948 0) scale(0.996264)"/>
      </g>
     </g>
    </g>
    <g id="ytick_6">
     <g id="line2d_13">
      <g>
       <use xlink:href="#m5bfbe69be9" x="36.902864" y="40.635" style="stroke: #000000; stroke-width: 0.8"/>
      </g>
     </g>
     <g id="text_14">
      <!-- $\mathdefault{25}$ -->
      <g transform="translate(19.940224 44.066506) scale(0.1 -0.1)">
       <use xlink:href="#LMRoman17-Regular-32" transform="scale(0.996264)"/>
       <use xlink:href="#LMRoman17-Regular-35" transform="translate(45.690948 0) scale(0.996264)"/>
      </g>
     </g>
    </g>
    <g id="ytick_7">
     <g id="line2d_14">
      <g>
       <use xlink:href="#m5bfbe69be9" x="36.902864" y="17.01" style="stroke: #000000; stroke-width: 0.8"/>
      </g>
     </g>
     <g id="text_15">
      <!-- $\mathdefault{30}$ -->
      <g transform="translate(19.940224 20.441506) scale(0.1 -0.1)">
       <use xlink:href="#LMRoman17-Regular-33" transform="scale(0.996264)"/>
       <use xlink:href="#LMRoman17-Regular-30" transform="translate(45.690948 0) scale(0.996264)"/>
      </g>
     </g>
    </g>
    <g id="text_16">
     <!-- $|\theta^*_k|$ -->
     <g transform="translate(11.955168 94.502118) rotate(-90) scale(0.16 -0.16)">
      <defs>
       <path id="LMMathSymbols10-Regular-6a" d="M 1018 -1389 
L 1018 4589 
C 1018 4678 1018 4800 890 4800 
C 762 4800 762 4678 762 4589 
L 762 -1389 
C 762 -1479 762 -1600 890 -1600 
C 1018 -1600 1018 -1479 1018 -1389 
z
" transform="scale(0.015625)"/>
       <path id="LMMathItalic12-Regular-12" d="M 2835 3201 
C 2835 3850 2630 4480 2106 4480 
C 1210 4480 256 2615 256 1214 
C 256 922 320 -64 992 -64 
C 1862 -64 2835 1755 2835 3201 
z
M 2246 2304 
L 896 2304 
C 992 2679 1126 3213 1382 3665 
C 1594 4047 1818 4352 2099 4352 
C 2310 4352 2451 4174 2451 3563 
C 2451 3334 2432 3016 2246 2304 
z
M 2202 2112 
C 2042 1488 1907 1087 1677 686 
C 1491 362 1267 63 998 63 
C 800 63 640 215 640 845 
C 640 1259 742 1691 845 2112 
L 2202 2112 
z
" transform="scale(0.015625)"/>
       <path id="LMMathSymbols10-Regular-3" d="M 2778 998 
C 2778 1049 2752 1113 2662 1158 
L 1734 1593 
L 2643 2028 
C 2701 2054 2778 2092 2778 2195 
C 2778 2297 2688 2374 2605 2374 
C 2579 2374 2547 2368 2477 2316 
L 1670 1721 
L 1760 2745 
C 1766 2828 1760 2976 1600 2976 
C 1498 2976 1414 2892 1434 2809 
L 1434 2739 
L 1523 1721 
L 717 2310 
C 634 2368 634 2374 589 2374 
C 506 2374 416 2297 416 2195 
C 416 2092 493 2054 550 2028 
L 1453 1600 
L 550 1164 
C 493 1139 416 1100 416 998 
C 416 896 506 819 589 819 
C 614 819 646 825 717 876 
L 1523 1472 
L 1434 422 
L 1434 390 
C 1414 294 1504 217 1594 217 
C 1766 217 1766 364 1760 454 
L 1670 1465 
L 2368 960 
C 2445 902 2560 819 2605 819 
C 2688 819 2778 896 2778 998 
z
" transform="scale(0.015625)"/>
      </defs>
      <use xlink:href="#LMMathSymbols10-Regular-6a" transform="scale(0.996264)"/>
      <use xlink:href="#LMMathItalic12-Regular-12" transform="translate(27.674085 0) scale(0.996264)"/>
      <use xlink:href="#LMMathSymbols10-Regular-3" transform="translate(75.843593 36.153639) scale(0.697382)"/>
      <use xlink:href="#LMMathItalic12-Regular-6b" transform="translate(73.133875 -24.62935) scale(0.697382)"/>
      <use xlink:href="#LMMathSymbols10-Regular-6a" transform="translate(111.487257 0) scale(0.996264)"/>
     </g>
    </g>
   </g>
   <g id="LineCollection_1">
    <path d="M 52.121046 158.76 
L 52.121046 158.76 
" clip-path="url(#p3ed73551cf)" style="fill: none; stroke: #dcdcdc; stroke-width: 1.5"/>
    <path d="M 56.952215 158.76 
L 56.952215 158.76 
" clip-path="url(#p3ed73551cf)" style="fill: none; stroke: #dcdcdc; stroke-width: 1.5"/>
    <path d="M 61.783384 158.76 
L 61.783384 158.76 
" clip-path="url(#p3ed73551cf)" style="fill: none; stroke: #dcdcdc; stroke-width: 1.5"/>
    <path d="M 66.614553 158.76 
L 66.614553 158.76 
" clip-path="url(#p3ed73551cf)" style="fill: none; stroke: #dcdcdc; stroke-width: 1.5"/>
    <path d="M 71.445721 158.76 
L 71.445721 158.76 
" clip-path="url(#p3ed73551cf)" style="fill: none; stroke: #dcdcdc; stroke-width: 1.5"/>
    <path d="M 76.27689 158.76 
L 76.27689 7.56 
" clip-path="url(#p3ed73551cf)" style="fill: none; stroke: #dcdcdc; stroke-width: 1.5"/>
    <path d="M 81.108059 158.76 
L 81.108059 158.76 
" clip-path="url(#p3ed73551cf)" style="fill: none; stroke: #dcdcdc; stroke-width: 1.5"/>
    <path d="M 85.939228 158.76 
L 85.939228 158.76 
" clip-path="url(#p3ed73551cf)" style="fill: none; stroke: #dcdcdc; stroke-width: 1.5"/>
    <path d="M 90.770397 158.76 
L 90.770397 158.76 
" clip-path="url(#p3ed73551cf)" style="fill: none; stroke: #dcdcdc; stroke-width: 1.5"/>
    <path d="M 95.601566 158.76 
L 95.601566 158.76 
" clip-path="url(#p3ed73551cf)" style="fill: none; stroke: #dcdcdc; stroke-width: 1.5"/>
    <path d="M 100.432734 158.76 
L 100.432734 158.76 
" clip-path="url(#p3ed73551cf)" style="fill: none; stroke: #dcdcdc; stroke-width: 1.5"/>
    <path d="M 105.263903 158.76 
L 105.263903 158.76 
" clip-path="url(#p3ed73551cf)" style="fill: none; stroke: #dcdcdc; stroke-width: 1.5"/>
    <path d="M 110.095072 158.76 
L 110.095072 83.16 
" clip-path="url(#p3ed73551cf)" style="fill: none; stroke: #dcdcdc; stroke-width: 1.5"/>
    <path d="M 114.926241 158.76 
L 114.926241 158.76 
" clip-path="url(#p3ed73551cf)" style="fill: none; stroke: #dcdcdc; stroke-width: 1.5"/>
    <path d="M 119.75741 158.76 
L 119.75741 158.76 
" clip-path="url(#p3ed73551cf)" style="fill: none; stroke: #dcdcdc; stroke-width: 1.5"/>
    <path d="M 124.588579 158.76 
L 124.588579 158.76 
" clip-path="url(#p3ed73551cf)" style="fill: none; stroke: #dcdcdc; stroke-width: 1.5"/>
    <path d="M 129.419747 158.76 
L 129.419747 158.76 
" clip-path="url(#p3ed73551cf)" style="fill: none; stroke: #dcdcdc; stroke-width: 1.5"/>
    <path d="M 134.250916 158.76 
L 134.250916 158.76 
" clip-path="url(#p3ed73551cf)" style="fill: none; stroke: #dcdcdc; stroke-width: 1.5"/>
    <path d="M 139.082085 158.76 
L 139.082085 158.76 
" clip-path="url(#p3ed73551cf)" style="fill: none; stroke: #dcdcdc; stroke-width: 1.5"/>
    <path d="M 143.913254 158.76 
L 143.913254 158.76 
" clip-path="url(#p3ed73551cf)" style="fill: none; stroke: #dcdcdc; stroke-width: 1.5"/>
    <path d="M 148.744423 158.76 
L 148.744423 158.76 
" clip-path="url(#p3ed73551cf)" style="fill: none; stroke: #dcdcdc; stroke-width: 1.5"/>
    <path d="M 153.575592 158.76 
L 153.575592 158.76 
" clip-path="url(#p3ed73551cf)" style="fill: none; stroke: #dcdcdc; stroke-width: 1.5"/>
    <path d="M 158.40676 158.76 
L 158.40676 158.76 
" clip-path="url(#p3ed73551cf)" style="fill: none; stroke: #dcdcdc; stroke-width: 1.5"/>
    <path d="M 163.237929 158.76 
L 163.237929 158.76 
" clip-path="url(#p3ed73551cf)" style="fill: none; stroke: #dcdcdc; stroke-width: 1.5"/>
    <path d="M 168.069098 158.76 
L 168.069098 158.76 
" clip-path="url(#p3ed73551cf)" style="fill: none; stroke: #dcdcdc; stroke-width: 1.5"/>
    <path d="M 172.900267 158.76 
L 172.900267 158.76 
" clip-path="url(#p3ed73551cf)" style="fill: none; stroke: #dcdcdc; stroke-width: 1.5"/>
    <path d="M 177.731436 158.76 
L 177.731436 158.76 
" clip-path="url(#p3ed73551cf)" style="fill: none; stroke: #dcdcdc; stroke-width: 1.5"/>
    <path d="M 182.562605 158.76 
L 182.562605 158.76 
" clip-path="url(#p3ed73551cf)" style="fill: none; stroke: #dcdcdc; stroke-width: 1.5"/>
    <path d="M 187.393773 158.76 
L 187.393773 158.76 
" clip-path="url(#p3ed73551cf)" style="fill: none; stroke: #dcdcdc; stroke-width: 1.5"/>
    <path d="M 192.224942 158.76 
L 192.224942 158.76 
" clip-path="url(#p3ed73551cf)" style="fill: none; stroke: #dcdcdc; stroke-width: 1.5"/>
    <path d="M 197.056111 158.76 
L 197.056111 158.76 
" clip-path="url(#p3ed73551cf)" style="fill: none; stroke: #dcdcdc; stroke-width: 1.5"/>
    <path d="M 201.88728 158.76 
L 201.88728 158.76 
" clip-path="url(#p3ed73551cf)" style="fill: none; stroke: #dcdcdc; stroke-width: 1.5"/>
    <path d="M 206.718449 158.76 
L 206.718449 158.76 
" clip-path="url(#p3ed73551cf)" style="fill: none; stroke: #dcdcdc; stroke-width: 1.5"/>
    <path d="M 211.549618 158.76 
L 211.549618 158.76 
" clip-path="url(#p3ed73551cf)" style="fill: none; stroke: #dcdcdc; stroke-width: 1.5"/>
    <path d="M 216.380786 158.76 
L 216.380786 158.76 
" clip-path="url(#p3ed73551cf)" style="fill: none; stroke: #dcdcdc; stroke-width: 1.5"/>
    <path d="M 221.211955 158.76 
L 221.211955 158.76 
" clip-path="url(#p3ed73551cf)" style="fill: none; stroke: #dcdcdc; stroke-width: 1.5"/>
    <path d="M 226.043124 158.76 
L 226.043124 158.76 
" clip-path="url(#p3ed73551cf)" style="fill: none; stroke: #dcdcdc; stroke-width: 1.5"/>
    <path d="M 230.874293 158.76 
L 230.874293 158.76 
" clip-path="url(#p3ed73551cf)" style="fill: none; stroke: #dcdcdc; stroke-width: 1.5"/>
    <path d="M 235.705462 158.76 
L 235.705462 158.76 
" clip-path="url(#p3ed73551cf)" style="fill: none; stroke: #dcdcdc; stroke-width: 1.5"/>
    <path d="M 240.53663 158.76 
L 240.53663 158.76 
" clip-path="url(#p3ed73551cf)" style="fill: none; stroke: #dcdcdc; stroke-width: 1.5"/>
    <path d="M 245.367799 158.76 
L 245.367799 158.76 
" clip-path="url(#p3ed73551cf)" style="fill: none; stroke: #dcdcdc; stroke-width: 1.5"/>
    <path d="M 250.198968 158.76 
L 250.198968 158.76 
" clip-path="url(#p3ed73551cf)" style="fill: none; stroke: #dcdcdc; stroke-width: 1.5"/>
    <path d="M 255.030137 158.76 
L 255.030137 158.76 
" clip-path="url(#p3ed73551cf)" style="fill: none; stroke: #dcdcdc; stroke-width: 1.5"/>
    <path d="M 259.861306 158.76 
L 259.861306 158.76 
" clip-path="url(#p3ed73551cf)" style="fill: none; stroke: #dcdcdc; stroke-width: 1.5"/>
    <path d="M 264.692475 158.76 
L 264.692475 158.76 
" clip-path="url(#p3ed73551cf)" style="fill: none; stroke: #dcdcdc; stroke-width: 1.5"/>
    <path d="M 269.523643 158.76 
L 269.523643 158.76 
" clip-path="url(#p3ed73551cf)" style="fill: none; stroke: #dcdcdc; stroke-width: 1.5"/>
    <path d="M 274.354812 158.76 
L 274.354812 158.76 
" clip-path="url(#p3ed73551cf)" style="fill: none; stroke: #dcdcdc; stroke-width: 1.5"/>
    <path d="M 279.185981 158.76 
L 279.185981 158.76 
" clip-path="url(#p3ed73551cf)" style="fill: none; stroke: #dcdcdc; stroke-width: 1.5"/>
    <path d="M 284.01715 158.76 
L 284.01715 158.76 
" clip-path="url(#p3ed73551cf)" style="fill: none; stroke: #dcdcdc; stroke-width: 1.5"/>
    <path d="M 288.848319 158.76 
L 288.848319 158.76 
" clip-path="url(#p3ed73551cf)" style="fill: none; stroke: #dcdcdc; stroke-width: 1.5"/>
    <path d="M 293.679488 158.76 
L 293.679488 158.76 
" clip-path="url(#p3ed73551cf)" style="fill: none; stroke: #dcdcdc; stroke-width: 1.5"/>
    <path d="M 298.510656 158.76 
L 298.510656 158.76 
" clip-path="url(#p3ed73551cf)" style="fill: none; stroke: #dcdcdc; stroke-width: 1.5"/>
    <path d="M 303.341825 158.76 
L 303.341825 83.16 
" clip-path="url(#p3ed73551cf)" style="fill: none; stroke: #dcdcdc; stroke-width: 1.5"/>
    <path d="M 308.172994 158.76 
L 308.172994 158.76 
" clip-path="url(#p3ed73551cf)" style="fill: none; stroke: #dcdcdc; stroke-width: 1.5"/>
    <path d="M 313.004163 158.76 
L 313.004163 158.76 
" clip-path="url(#p3ed73551cf)" style="fill: none; stroke: #dcdcdc; stroke-width: 1.5"/>
    <path d="M 317.835332 158.76 
L 317.835332 158.76 
" clip-path="url(#p3ed73551cf)" style="fill: none; stroke: #dcdcdc; stroke-width: 1.5"/>
    <path d="M 322.666501 158.76 
L 322.666501 158.76 
" clip-path="url(#p3ed73551cf)" style="fill: none; stroke: #dcdcdc; stroke-width: 1.5"/>
    <path d="M 327.497669 158.76 
L 327.497669 158.76 
" clip-path="url(#p3ed73551cf)" style="fill: none; stroke: #dcdcdc; stroke-width: 1.5"/>
    <path d="M 332.328838 158.76 
L 332.328838 158.76 
" clip-path="url(#p3ed73551cf)" style="fill: none; stroke: #dcdcdc; stroke-width: 1.5"/>
    <path d="M 337.160007 158.76 
L 337.160007 7.56 
" clip-path="url(#p3ed73551cf)" style="fill: none; stroke: #dcdcdc; stroke-width: 1.5"/>
    <path d="M 341.991176 158.76 
L 341.991176 158.76 
" clip-path="url(#p3ed73551cf)" style="fill: none; stroke: #dcdcdc; stroke-width: 1.5"/>
    <path d="M 346.822345 158.76 
L 346.822345 158.76 
" clip-path="url(#p3ed73551cf)" style="fill: none; stroke: #dcdcdc; stroke-width: 1.5"/>
    <path d="M 351.653514 158.76 
L 351.653514 158.76 
" clip-path="url(#p3ed73551cf)" style="fill: none; stroke: #dcdcdc; stroke-width: 1.5"/>
    <path d="M 356.484682 158.76 
L 356.484682 158.76 
" clip-path="url(#p3ed73551cf)" style="fill: none; stroke: #dcdcdc; stroke-width: 1.5"/>
   </g>
   <g id="line2d_15">
    <defs>
     <path id="m140c6ef36a" d="M 0 3 
C 0.795609 3 1.55874 2.683901 2.12132 2.12132 
C 2.683901 1.55874 3 0.795609 3 0 
C 3 -0.795609 2.683901 -1.55874 2.12132 -2.12132 
C 1.55874 -2.683901 0.795609 -3 0 -3 
C -0.795609 -3 -1.55874 -2.683901 -2.12132 -2.12132 
C -2.683901 -1.55874 -3 -0.795609 -3 0 
C -3 0.795609 -2.683901 1.55874 -2.12132 2.12132 
C -1.55874 2.683901 -0.795609 3 0 3 
z
" style="stroke: #b22222"/>
    </defs>
    <g clip-path="url(#p3ed73551cf)">
     <use xlink:href="#m140c6ef36a" x="52.121046" y="158.76" style="fill: #b22222; stroke: #b22222"/>
     <use xlink:href="#m140c6ef36a" x="56.952215" y="158.76" style="fill: #b22222; stroke: #b22222"/>
     <use xlink:href="#m140c6ef36a" x="61.783384" y="158.76" style="fill: #b22222; stroke: #b22222"/>
     <use xlink:href="#m140c6ef36a" x="66.614553" y="158.76" style="fill: #b22222; stroke: #b22222"/>
     <use xlink:href="#m140c6ef36a" x="71.445721" y="158.76" style="fill: #b22222; stroke: #b22222"/>
     <use xlink:href="#m140c6ef36a" x="76.27689" y="7.56" style="fill: #b22222; stroke: #b22222"/>
     <use xlink:href="#m140c6ef36a" x="81.108059" y="158.76" style="fill: #b22222; stroke: #b22222"/>
     <use xlink:href="#m140c6ef36a" x="85.939228" y="158.76" style="fill: #b22222; stroke: #b22222"/>
     <use xlink:href="#m140c6ef36a" x="90.770397" y="158.76" style="fill: #b22222; stroke: #b22222"/>
     <use xlink:href="#m140c6ef36a" x="95.601566" y="158.76" style="fill: #b22222; stroke: #b22222"/>
     <use xlink:href="#m140c6ef36a" x="100.432734" y="158.76" style="fill: #b22222; stroke: #b22222"/>
     <use xlink:href="#m140c6ef36a" x="105.263903" y="158.76" style="fill: #b22222; stroke: #b22222"/>
     <use xlink:href="#m140c6ef36a" x="110.095072" y="83.16" style="fill: #b22222; stroke: #b22222"/>
     <use xlink:href="#m140c6ef36a" x="114.926241" y="158.76" style="fill: #b22222; stroke: #b22222"/>
     <use xlink:href="#m140c6ef36a" x="119.75741" y="158.76" style="fill: #b22222; stroke: #b22222"/>
     <use xlink:href="#m140c6ef36a" x="124.588579" y="158.76" style="fill: #b22222; stroke: #b22222"/>
     <use xlink:href="#m140c6ef36a" x="129.419747" y="158.76" style="fill: #b22222; stroke: #b22222"/>
     <use xlink:href="#m140c6ef36a" x="134.250916" y="158.76" style="fill: #b22222; stroke: #b22222"/>
     <use xlink:href="#m140c6ef36a" x="139.082085" y="158.76" style="fill: #b22222; stroke: #b22222"/>
     <use xlink:href="#m140c6ef36a" x="143.913254" y="158.76" style="fill: #b22222; stroke: #b22222"/>
     <use xlink:href="#m140c6ef36a" x="148.744423" y="158.76" style="fill: #b22222; stroke: #b22222"/>
     <use xlink:href="#m140c6ef36a" x="153.575592" y="158.76" style="fill: #b22222; stroke: #b22222"/>
     <use xlink:href="#m140c6ef36a" x="158.40676" y="158.76" style="fill: #b22222; stroke: #b22222"/>
     <use xlink:href="#m140c6ef36a" x="163.237929" y="158.76" style="fill: #b22222; stroke: #b22222"/>
     <use xlink:href="#m140c6ef36a" x="168.069098" y="158.76" style="fill: #b22222; stroke: #b22222"/>
     <use xlink:href="#m140c6ef36a" x="172.900267" y="158.76" style="fill: #b22222; stroke: #b22222"/>
     <use xlink:href="#m140c6ef36a" x="177.731436" y="158.76" style="fill: #b22222; stroke: #b22222"/>
     <use xlink:href="#m140c6ef36a" x="182.562605" y="158.76" style="fill: #b22222; stroke: #b22222"/>
     <use xlink:href="#m140c6ef36a" x="187.393773" y="158.76" style="fill: #b22222; stroke: #b22222"/>
     <use xlink:href="#m140c6ef36a" x="192.224942" y="158.76" style="fill: #b22222; stroke: #b22222"/>
     <use xlink:href="#m140c6ef36a" x="197.056111" y="158.76" style="fill: #b22222; stroke: #b22222"/>
     <use xlink:href="#m140c6ef36a" x="201.88728" y="158.76" style="fill: #b22222; stroke: #b22222"/>
     <use xlink:href="#m140c6ef36a" x="206.718449" y="158.76" style="fill: #b22222; stroke: #b22222"/>
     <use xlink:href="#m140c6ef36a" x="211.549618" y="158.76" style="fill: #b22222; stroke: #b22222"/>
     <use xlink:href="#m140c6ef36a" x="216.380786" y="158.76" style="fill: #b22222; stroke: #b22222"/>
     <use xlink:href="#m140c6ef36a" x="221.211955" y="158.76" style="fill: #b22222; stroke: #b22222"/>
     <use xlink:href="#m140c6ef36a" x="226.043124" y="158.76" style="fill: #b22222; stroke: #b22222"/>
     <use xlink:href="#m140c6ef36a" x="230.874293" y="158.76" style="fill: #b22222; stroke: #b22222"/>
     <use xlink:href="#m140c6ef36a" x="235.705462" y="158.76" style="fill: #b22222; stroke: #b22222"/>
     <use xlink:href="#m140c6ef36a" x="240.53663" y="158.76" style="fill: #b22222; stroke: #b22222"/>
     <use xlink:href="#m140c6ef36a" x="245.367799" y="158.76" style="fill: #b22222; stroke: #b22222"/>
     <use xlink:href="#m140c6ef36a" x="250.198968" y="158.76" style="fill: #b22222; stroke: #b22222"/>
     <use xlink:href="#m140c6ef36a" x="255.030137" y="158.76" style="fill: #b22222; stroke: #b22222"/>
     <use xlink:href="#m140c6ef36a" x="259.861306" y="158.76" style="fill: #b22222; stroke: #b22222"/>
     <use xlink:href="#m140c6ef36a" x="264.692475" y="158.76" style="fill: #b22222; stroke: #b22222"/>
     <use xlink:href="#m140c6ef36a" x="269.523643" y="158.76" style="fill: #b22222; stroke: #b22222"/>
     <use xlink:href="#m140c6ef36a" x="274.354812" y="158.76" style="fill: #b22222; stroke: #b22222"/>
     <use xlink:href="#m140c6ef36a" x="279.185981" y="158.76" style="fill: #b22222; stroke: #b22222"/>
     <use xlink:href="#m140c6ef36a" x="284.01715" y="158.76" style="fill: #b22222; stroke: #b22222"/>
     <use xlink:href="#m140c6ef36a" x="288.848319" y="158.76" style="fill: #b22222; stroke: #b22222"/>
     <use xlink:href="#m140c6ef36a" x="293.679488" y="158.76" style="fill: #b22222; stroke: #b22222"/>
     <use xlink:href="#m140c6ef36a" x="298.510656" y="158.76" style="fill: #b22222; stroke: #b22222"/>
     <use xlink:href="#m140c6ef36a" x="303.341825" y="83.16" style="fill: #b22222; stroke: #b22222"/>
     <use xlink:href="#m140c6ef36a" x="308.172994" y="158.76" style="fill: #b22222; stroke: #b22222"/>
     <use xlink:href="#m140c6ef36a" x="313.004163" y="158.76" style="fill: #b22222; stroke: #b22222"/>
     <use xlink:href="#m140c6ef36a" x="317.835332" y="158.76" style="fill: #b22222; stroke: #b22222"/>
     <use xlink:href="#m140c6ef36a" x="322.666501" y="158.76" style="fill: #b22222; stroke: #b22222"/>
     <use xlink:href="#m140c6ef36a" x="327.497669" y="158.76" style="fill: #b22222; stroke: #b22222"/>
     <use xlink:href="#m140c6ef36a" x="332.328838" y="158.76" style="fill: #b22222; stroke: #b22222"/>
     <use xlink:href="#m140c6ef36a" x="337.160007" y="7.56" style="fill: #b22222; stroke: #b22222"/>
     <use xlink:href="#m140c6ef36a" x="341.991176" y="158.76" style="fill: #b22222; stroke: #b22222"/>
     <use xlink:href="#m140c6ef36a" x="346.822345" y="158.76" style="fill: #b22222; stroke: #b22222"/>
     <use xlink:href="#m140c6ef36a" x="351.653514" y="158.76" style="fill: #b22222; stroke: #b22222"/>
     <use xlink:href="#m140c6ef36a" x="356.484682" y="158.76" style="fill: #b22222; stroke: #b22222"/>
    </g>
   </g>
   <g id="line2d_16"/>
   <g id="line2d_17">
    <path d="M 36.902864 158.76 
L 371.702864 158.76 
" clip-path="url(#p3ed73551cf)" style="fill: none; stroke: #000000; stroke-width: 1.2; stroke-linecap: square"/>
   </g>
   <g id="patch_3">
    <path d="M 36.902864 166.32 
L 36.902864 0 
" style="fill: none; stroke: #000000; stroke-width: 0.8; stroke-linejoin: miter; stroke-linecap: square"/>
   </g>
   <g id="patch_4">
    <path d="M 371.702864 166.32 
L 371.702864 0 
" style="fill: none; stroke: #000000; stroke-width: 0.8; stroke-linejoin: miter; stroke-linecap: square"/>
   </g>
   <g id="patch_5">
    <path d="M 36.902864 166.32 
L 371.702864 166.32 
" style="fill: none; stroke: #000000; stroke-width: 0.8; stroke-linejoin: miter; stroke-linecap: square"/>
   </g>
   <g id="patch_6">
    <path d="M 36.902864 0 
L 371.702864 0 
" style="fill: none; stroke: #000000; stroke-width: 0.8; stroke-linejoin: miter; stroke-linecap: square"/>
   </g>
  </g>
 </g>
 <defs>
  <clipPath id="p3ed73551cf">
   <rect x="36.902864" y="0" width="334.8" height="166.32"/>
  </clipPath>
 </defs>
</svg>
