<?xml version="1.0" encoding="utf-8" standalone="no"?>
<!DOCTYPE svg PUBLIC "-//W3C//DTD SVG 1.1//EN"
  "http://www.w3.org/Graphics/SVG/1.1/DTD/svg11.dtd">
<svg xmlns:xlink="http://www.w3.org/1999/xlink" width="386.505387pt" height="254.832532pt" viewBox="0 0 386.505387 254.832532" xmlns="http://www.w3.org/2000/svg" version="1.1">
 <metadata>
  <rdf:RDF xmlns:dc="http://purl.org/dc/elements/1.1/" xmlns:cc="http://creativecommons.org/ns#" xmlns:rdf="http://www.w3.org/1999/02/22-rdf-syntax-ns#">
   <cc:Work>
    <dc:type rdf:resource="http://purl.org/dc/dcmitype/StillImage"/>
    <dc:date>2025-05-31T18:42:41.869077</dc:date>
    <dc:format>image/svg+xml</dc:format>
    <dc:creator>
     <cc:Agent>
      <dc:title>Matplotlib v3.9.2, https://matplotlib.org/</dc:title>
     </cc:Agent>
    </dc:creator>
   </cc:Work>
  </rdf:RDF>
 </metadata>
 <defs>
  <style type="text/css">*{stroke-linejoin: round; stroke-linecap: butt}</style>
 </defs>
 <g id="figure_1">
  <g id="patch_1">
   <path d="M 0 254.832532 
L 386.505387 254.832532 
L 386.505387 0 
L 0 0 
z
" style="fill: #ffffff"/>
  </g>
  <g id="axes_1">
   <g id="patch_2">
    <path d="M 51.705387 221.76 
L 386.505387 221.76 
L 386.505387 -0 
L 51.705387 -0 
z
" style="fill: #ffffff"/>
   </g>
   <g id="matplotlib.axis_1">
    <g id="xtick_1">
     <g id="line2d_1">
      <defs>
       <path id="m5c78ceb70d" d="M 0 0 
L 0 3.5 
" style="stroke: #000000; stroke-width: 0.8"/>
      </defs>
      <g>
       <use xlink:href="#m5c78ceb70d" x="66.618901" y="221.76" style="stroke: #000000; stroke-width: 0.8"/>
      </g>
     </g>
     <g id="text_1">
      <!-- $\mathdefault{0}$ -->
      <g transform="translate(63.692383 236.995596) scale(0.12 -0.12)">
       <defs>
        <path id="LMRoman17-Regular-30" d="M 2688 2038 
C 2688 2430 2682 3099 2413 3613 
C 2176 4063 1798 4224 1466 4224 
C 1158 4224 768 4082 525 3620 
C 269 3137 243 2539 243 2038 
C 243 1671 250 1112 448 623 
C 723 -39 1216 -128 1466 -128 
C 1760 -128 2208 -7 2470 604 
C 2662 1048 2688 1568 2688 2038 
z
M 2278 2109 
C 2278 1691 2278 1176 2202 797 
C 2067 96 1690 -26 1466 -26 
C 1056 -26 813 328 723 816 
C 653 1196 653 1749 653 2109 
C 653 2604 653 3015 736 3407 
C 858 3954 1216 4121 1466 4121 
C 1728 4121 2067 3947 2189 3420 
C 2272 3054 2278 2623 2278 2109 
z
" transform="scale(0.015625)"/>
       </defs>
       <use xlink:href="#LMRoman17-Regular-30" transform="scale(0.996264)"/>
      </g>
     </g>
    </g>
    <g id="xtick_2">
     <g id="line2d_2">
      <g>
       <use xlink:href="#m5c78ceb70d" x="127.552561" y="221.76" style="stroke: #000000; stroke-width: 0.8"/>
      </g>
     </g>
     <g id="text_2">
      <!-- $\mathdefault{200}$ -->
      <g transform="translate(118.773008 236.995596) scale(0.12 -0.12)">
       <defs>
        <path id="LMRoman17-Regular-32" d="M 2669 990 
L 2554 990 
C 2490 537 2438 460 2413 422 
C 2381 371 1920 371 1830 371 
L 602 371 
L 1824 1596 
C 2214 1966 2669 2400 2669 3033 
C 2669 3788 2067 4224 1395 4224 
C 691 4224 262 3603 262 3027 
C 262 2777 448 2745 525 2745 
C 589 2745 781 2783 781 3007 
C 781 3206 614 3264 525 3264 
C 486 3264 448 3257 422 3244 
C 544 3788 915 4057 1306 4057 
C 1862 4057 2227 3616 2227 3033 
C 2227 2477 1901 1998 1536 1583 
L 262 147 
L 262 0 
L 2515 0 
L 2669 990 
z
" transform="scale(0.015625)"/>
       </defs>
       <use xlink:href="#LMRoman17-Regular-32" transform="scale(0.996264)"/>
       <use xlink:href="#LMRoman17-Regular-30" transform="translate(45.690948 0) scale(0.996264)"/>
       <use xlink:href="#LMRoman17-Regular-30" transform="translate(91.381897 0) scale(0.996264)"/>
      </g>
     </g>
    </g>
    <g id="xtick_3">
     <g id="line2d_3">
      <g>
       <use xlink:href="#m5c78ceb70d" x="188.486222" y="221.76" style="stroke: #000000; stroke-width: 0.8"/>
      </g>
     </g>
     <g id="text_3">
      <!-- $\mathdefault{400}$ -->
      <g transform="translate(179.706669 236.995596) scale(0.12 -0.12)">
       <defs>
        <path id="LMRoman17-Regular-34" d="M 2803 1088 
L 2803 1254 
L 2150 1254 
L 2150 4146 
C 2150 4281 2144 4288 2029 4288 
L 128 1254 
L 128 1088 
L 1779 1088 
L 1779 460 
C 1779 230 1766 166 1318 166 
L 1197 166 
L 1197 0 
C 1402 12 1747 12 1965 12 
C 2182 12 2528 12 2733 0 
L 2733 166 
L 2611 166 
C 2163 166 2150 230 2150 460 
L 2150 1088 
L 2803 1088 
z
M 1798 1254 
L 256 1254 
L 1798 3723 
L 1798 1254 
z
" transform="scale(0.015625)"/>
       </defs>
       <use xlink:href="#LMRoman17-Regular-34" transform="scale(0.996264)"/>
       <use xlink:href="#LMRoman17-Regular-30" transform="translate(45.690948 0) scale(0.996264)"/>
       <use xlink:href="#LMRoman17-Regular-30" transform="translate(91.381897 0) scale(0.996264)"/>
      </g>
     </g>
    </g>
    <g id="xtick_4">
     <g id="line2d_4">
      <g>
       <use xlink:href="#m5c78ceb70d" x="249.419883" y="221.76" style="stroke: #000000; stroke-width: 0.8"/>
      </g>
     </g>
     <g id="text_4">
      <!-- $\mathdefault{600}$ -->
      <g transform="translate(240.64033 236.995596) scale(0.12 -0.12)">
       <defs>
        <path id="LMRoman17-Regular-36" d="M 2688 1305 
C 2688 2105 2170 2688 1517 2688 
C 1126 2688 838 2431 678 1983 
L 678 2201 
C 678 3712 1395 4076 1811 4076 
C 1946 4076 2272 4049 2400 3782 
C 2298 3782 2106 3782 2106 3558 
C 2106 3385 2246 3328 2336 3328 
C 2394 3328 2566 3353 2566 3571 
C 2566 3993 2246 4224 1805 4224 
C 1043 4224 243 3427 243 2006 
C 243 257 966 -128 1478 -128 
C 2099 -135 2688 422 2688 1280 
L 2688 1305 
z
M 2253 1286 
C 2253 937 2253 684 2118 431 
C 1978 171 1773 25 1478 25 
C 691 25 691 1191 691 1427 
C 691 1901 909 2585 1504 2585 
C 1613 2585 1926 2585 2138 2131 
C 2253 1862 2253 1600 2253 1280 
L 2253 1286 
z
" transform="scale(0.015625)"/>
       </defs>
       <use xlink:href="#LMRoman17-Regular-36" transform="scale(0.996264)"/>
       <use xlink:href="#LMRoman17-Regular-30" transform="translate(45.690948 0) scale(0.996264)"/>
       <use xlink:href="#LMRoman17-Regular-30" transform="translate(91.381897 0) scale(0.996264)"/>
      </g>
     </g>
    </g>
    <g id="xtick_5">
     <g id="line2d_5">
      <g>
       <use xlink:href="#m5c78ceb70d" x="310.353544" y="221.76" style="stroke: #000000; stroke-width: 0.8"/>
      </g>
     </g>
     <g id="text_5">
      <!-- $\mathdefault{800}$ -->
      <g transform="translate(301.57399 236.995596) scale(0.12 -0.12)">
       <defs>
        <path id="LMRoman17-Regular-38" d="M 2720 1022 
C 2720 1607 2330 1877 2074 2051 
C 1984 2115 1933 2147 1741 2289 
C 2144 2494 2554 2803 2554 3298 
C 2554 3884 1990 4224 1472 4224 
C 890 4224 378 3800 378 3215 
C 378 3054 416 2777 666 2533 
C 730 2469 998 2276 1171 2154 
C 883 2006 211 1652 211 945 
C 211 282 838 -128 1459 -128 
C 2144 -128 2720 366 2720 1022 
z
M 2336 3298 
C 2336 2700 1670 2359 1638 2359 
C 1638 2359 1626 2359 1574 2398 
L 902 2855 
C 851 2887 595 3086 595 3388 
C 595 3781 998 4076 1459 4076 
C 1965 4076 2336 3716 2336 3298 
z
M 2483 861 
C 2483 385 2010 25 1472 25 
C 890 25 448 443 448 951 
C 448 1459 838 1884 1280 2083 
L 2080 1536 
C 2176 1466 2483 1253 2483 861 
z
" transform="scale(0.015625)"/>
       </defs>
       <use xlink:href="#LMRoman17-Regular-38" transform="scale(0.996264)"/>
       <use xlink:href="#LMRoman17-Regular-30" transform="translate(45.690948 0) scale(0.996264)"/>
       <use xlink:href="#LMRoman17-Regular-30" transform="translate(91.381897 0) scale(0.996264)"/>
      </g>
     </g>
    </g>
    <g id="xtick_6">
     <g id="line2d_6">
      <g>
       <use xlink:href="#m5c78ceb70d" x="371.287205" y="221.76" style="stroke: #000000; stroke-width: 0.8"/>
      </g>
     </g>
     <g id="text_6">
      <!-- $\mathdefault{1000}$ -->
      <g transform="translate(359.581133 236.995596) scale(0.12 -0.12)">
       <defs>
        <path id="LMRoman17-Regular-31" d="M 2458 0 
L 2458 166 
L 2266 166 
C 1715 166 1702 236 1702 467 
L 1702 4085 
C 1702 4217 1696 4224 1606 4224 
C 1357 3927 979 3833 621 3820 
C 602 3820 570 3820 563 3808 
C 557 3795 557 3782 557 3648 
C 755 3648 1088 3686 1344 3839 
L 1344 467 
C 1344 243 1331 166 781 166 
L 589 166 
L 589 0 
L 1523 12 
L 2458 0 
z
" transform="scale(0.015625)"/>
       </defs>
       <use xlink:href="#LMRoman17-Regular-31" transform="scale(0.996264)"/>
       <use xlink:href="#LMRoman17-Regular-30" transform="translate(45.690948 0) scale(0.996264)"/>
       <use xlink:href="#LMRoman17-Regular-30" transform="translate(91.381897 0) scale(0.996264)"/>
       <use xlink:href="#LMRoman17-Regular-30" transform="translate(137.072845 0) scale(0.996264)"/>
      </g>
     </g>
    </g>
    <g id="text_7">
     <!-- Wymiar $d$ -->
     <g transform="translate(191.682474 252.31422) scale(0.13 -0.13)">
      <defs>
       <path id="LMRoman17-Regular-57" d="M 6048 4185 
L 6048 4352 
L 5600 4339 
C 5440 4339 5158 4339 5005 4352 
L 5005 4185 
C 5293 4178 5414 4011 5414 3852 
C 5414 3808 5408 3782 5382 3712 
L 4390 550 
L 3347 3878 
C 3328 3945 3322 3971 3322 3998 
C 3322 4185 3603 4185 3725 4185 
L 3725 4352 
C 3539 4339 3219 4339 3021 4339 
C 2861 4339 2573 4339 2426 4352 
L 2426 4185 
C 2720 4185 2797 4165 2861 4045 
C 2886 3985 2989 3647 2989 3628 
C 2989 3603 2976 3564 2970 3545 
L 2029 556 
L 986 3878 
C 954 3971 954 3998 954 3998 
C 954 4185 1235 4185 1363 4185 
L 1363 4352 
C 1178 4339 858 4339 659 4339 
C 493 4339 211 4339 58 4352 
L 58 4185 
C 442 4185 467 4147 531 3942 
L 1779 -20 
C 1811 -116 1811 -128 1869 -128 
C 1920 -128 1939 -116 1965 -26 
L 3053 3448 
L 4141 -26 
C 4166 -116 4186 -128 4237 -128 
C 4294 -128 4294 -116 4326 -20 
L 5523 3776 
C 5581 3948 5677 4172 6048 4185 
z
" transform="scale(0.015625)"/>
       <path id="LMRoman17-Regular-79" d="M 3034 2585 
L 3034 2752 
L 2630 2739 
C 2496 2739 2285 2739 2157 2752 
L 2157 2585 
C 2400 2566 2406 2386 2406 2334 
C 2406 2270 2394 2238 2362 2161 
L 1664 424 
L 902 2302 
C 870 2379 870 2431 870 2431 
C 870 2572 1018 2585 1171 2585 
L 1171 2752 
C 1018 2739 742 2739 582 2739 
C 410 2739 205 2739 64 2752 
L 64 2585 
C 410 2585 448 2553 531 2347 
L 1485 -14 
C 1197 -773 1030 -1216 627 -1216 
C 557 -1216 397 -1197 282 -1081 
C 429 -1069 493 -978 493 -869 
C 493 -760 416 -663 288 -663 
C 147 -663 77 -760 77 -876 
C 77 -1133 339 -1319 627 -1319 
C 998 -1319 1229 -959 1357 -638 
L 2496 2186 
C 2656 2579 2944 2585 3034 2585 
z
" transform="scale(0.015625)"/>
       <path id="LMRoman17-Regular-6d" d="M 4762 0 
L 4762 166 
C 4352 166 4326 192 4326 443 
L 4326 1954 
C 4326 2276 4269 2816 3507 2816 
C 3072 2816 2771 2520 2656 2173 
L 2650 2173 
C 2573 2700 2195 2816 1837 2816 
C 1331 2816 1069 2424 973 2166 
L 966 2166 
L 966 2816 
L 211 2752 
L 211 2585 
C 589 2585 646 2546 646 2237 
L 646 443 
C 646 198 621 166 211 166 
L 211 0 
C 365 12 646 12 813 12 
C 979 12 1267 12 1421 0 
L 1421 166 
C 1011 166 986 192 986 443 
L 986 1682 
C 986 2269 1344 2713 1792 2713 
C 2266 2713 2317 2289 2317 1980 
L 2317 443 
C 2317 198 2291 166 1882 166 
L 1882 0 
C 2035 12 2317 12 2483 12 
C 2650 12 2938 12 3091 0 
L 3091 166 
C 2682 166 2656 192 2656 443 
L 2656 1678 
C 2656 2269 3014 2713 3462 2713 
C 3936 2713 3987 2289 3987 1980 
L 3987 443 
C 3987 198 3962 166 3552 166 
L 3552 0 
C 3706 12 3987 12 4154 12 
C 4320 12 4608 12 4762 0 
z
" transform="scale(0.015625)"/>
       <path id="LMRoman17-Regular-69" d="M 1370 0 
L 1370 166 
C 992 166 979 205 979 436 
L 979 2816 
L 243 2752 
L 243 2585 
C 602 2585 653 2546 653 2237 
L 653 443 
C 653 198 627 166 218 166 
L 218 0 
C 371 12 646 12 806 12 
C 960 12 1222 12 1370 0 
z
M 1056 3897 
C 1056 4051 934 4160 800 4160 
C 646 4160 538 4038 538 3897 
C 538 3743 659 3635 794 3635 
C 947 3635 1056 3756 1056 3897 
z
" transform="scale(0.015625)"/>
       <path id="LMRoman17-Regular-61" d="M 2874 569 
L 2874 928 
L 2758 928 
L 2758 563 
C 2758 172 2586 121 2502 121 
C 2240 121 2240 454 2240 736 
L 2240 1657 
C 2240 2080 2240 2304 1971 2553 
C 1734 2764 1459 2828 1242 2828 
C 736 2828 371 2432 371 2009 
C 371 1772 563 1760 602 1760 
C 685 1760 832 1811 832 1990 
C 832 2150 710 2220 602 2220 
C 576 2220 544 2214 525 2208 
C 659 2611 1005 2726 1229 2726 
C 1549 2726 1901 2444 1901 1907 
L 1901 1625 
C 1523 1612 1069 1561 710 1369 
C 307 1145 192 825 192 582 
C 192 89 768 -52 1107 -52 
C 1459 -52 1786 147 1926 512 
C 1939 230 2118 -26 2400 -26 
C 2534 -26 2874 64 2874 569 
z
M 1901 889 
C 1901 332 1504 51 1152 51 
C 832 51 582 288 582 582 
C 582 774 666 1113 1037 1318 
C 1344 1491 1696 1516 1901 1529 
L 1901 889 
z
" transform="scale(0.015625)"/>
       <path id="LMRoman17-Regular-72" d="M 2131 2483 
C 2131 2687 1926 2816 1709 2816 
C 1222 2816 1011 2342 947 2118 
L 941 2118 
L 941 2816 
L 198 2752 
L 198 2585 
C 576 2585 634 2546 634 2237 
L 634 443 
C 634 198 608 166 198 166 
L 198 0 
C 352 12 646 12 813 12 
C 998 12 1325 12 1498 0 
L 1498 166 
C 1037 159 960 159 960 447 
L 960 1503 
C 960 2118 1222 2713 1702 2713 
C 1747 2713 1792 2706 1837 2684 
C 1837 2684 1696 2633 1696 2457 
C 1696 2303 1818 2239 1914 2239 
C 1990 2239 2131 2284 2131 2463 
L 2131 2483 
z
" transform="scale(0.015625)"/>
       <path id="LMMathItalic12-Regular-64" d="M 3104 912 
C 3104 944 3078 970 3040 970 
C 2982 970 2976 938 2950 842 
C 2854 465 2733 63 2470 63 
C 2285 63 2272 229 2272 357 
C 2272 382 2272 517 2317 695 
L 3219 4255 
C 3226 4281 3238 4319 3238 4351 
C 3238 4416 3162 4416 3162 4416 
C 3162 4416 2842 4390 2810 4383 
C 2701 4377 2605 4364 2490 4358 
C 2330 4345 2285 4339 2285 4223 
C 2285 4159 2336 4159 2426 4159 
C 2739 4159 2746 4103 2746 4040 
C 2746 4002 2733 3951 2726 3932 
L 2336 2394 
C 2266 2560 2093 2816 1760 2816 
C 1037 2816 256 1883 256 938 
C 256 306 627 -64 1062 -64 
C 1414 -64 1715 210 1894 421 
C 1958 44 2259 -64 2451 -64 
C 2643 -64 2797 50 2912 280 
C 3014 497 3104 887 3104 912 
z
M 1926 759 
C 1894 651 1894 638 1805 517 
C 1664 338 1382 63 1082 63 
C 819 63 672 299 672 676 
C 672 1027 870 1742 992 2011 
C 1210 2457 1510 2687 1760 2687 
C 2182 2687 2266 2164 2266 2113 
C 2266 2113 2246 2023 2240 2011 
L 1926 759 
z
" transform="scale(0.015625)"/>
      </defs>
      <use xlink:href="#LMRoman17-Regular-57" transform="scale(0.996264)"/>
      <use xlink:href="#LMRoman17-Regular-79" transform="translate(87.287768 0) scale(0.996264)"/>
      <use xlink:href="#LMRoman17-Regular-6d" transform="translate(135.578981 0) scale(0.996264)"/>
      <use xlink:href="#LMRoman17-Regular-69" transform="translate(212.50114 0) scale(0.996264)"/>
      <use xlink:href="#LMRoman17-Regular-61" transform="translate(237.373156 0) scale(0.996264)"/>
      <use xlink:href="#LMRoman17-Regular-72" transform="translate(283.064105 0) scale(0.996264)"/>
      <use xlink:href="#LMMathItalic12-Regular-64" transform="translate(348.421781 0) scale(0.996264)"/>
     </g>
    </g>
   </g>
   <g id="matplotlib.axis_2">
    <g id="ytick_1">
     <g id="line2d_7">
      <defs>
       <path id="mf432481a94" d="M 0 0 
L -3.5 0 
" style="stroke: #000000; stroke-width: 0.8"/>
      </defs>
      <g>
       <use xlink:href="#mf432481a94" x="51.705387" y="210.633309" style="stroke: #000000; stroke-width: 0.8"/>
      </g>
     </g>
     <g id="text_8">
      <!-- $\mathdefault{0}$ -->
      <g transform="translate(38.852351 214.751107) scale(0.12 -0.12)">
       <use xlink:href="#LMRoman17-Regular-30" transform="scale(0.996264)"/>
      </g>
     </g>
    </g>
    <g id="ytick_2">
     <g id="line2d_8">
      <g>
       <use xlink:href="#mf432481a94" x="51.705387" y="181.600244" style="stroke: #000000; stroke-width: 0.8"/>
      </g>
     </g>
     <g id="text_9">
      <!-- $\mathdefault{10000}$ -->
      <g transform="translate(15.440208 185.718042) scale(0.12 -0.12)">
       <use xlink:href="#LMRoman17-Regular-31" transform="scale(0.996264)"/>
       <use xlink:href="#LMRoman17-Regular-30" transform="translate(45.690948 0) scale(0.996264)"/>
       <use xlink:href="#LMRoman17-Regular-30" transform="translate(91.381897 0) scale(0.996264)"/>
       <use xlink:href="#LMRoman17-Regular-30" transform="translate(137.072845 0) scale(0.996264)"/>
       <use xlink:href="#LMRoman17-Regular-30" transform="translate(182.763793 0) scale(0.996264)"/>
      </g>
     </g>
    </g>
    <g id="ytick_3">
     <g id="line2d_9">
      <g>
       <use xlink:href="#mf432481a94" x="51.705387" y="152.567178" style="stroke: #000000; stroke-width: 0.8"/>
      </g>
     </g>
     <g id="text_10">
      <!-- $\mathdefault{20000}$ -->
      <g transform="translate(15.440208 156.684976) scale(0.12 -0.12)">
       <use xlink:href="#LMRoman17-Regular-32" transform="scale(0.996264)"/>
       <use xlink:href="#LMRoman17-Regular-30" transform="translate(45.690948 0) scale(0.996264)"/>
       <use xlink:href="#LMRoman17-Regular-30" transform="translate(91.381897 0) scale(0.996264)"/>
       <use xlink:href="#LMRoman17-Regular-30" transform="translate(137.072845 0) scale(0.996264)"/>
       <use xlink:href="#LMRoman17-Regular-30" transform="translate(182.763793 0) scale(0.996264)"/>
      </g>
     </g>
    </g>
    <g id="ytick_4">
     <g id="line2d_10">
      <g>
       <use xlink:href="#mf432481a94" x="51.705387" y="123.534113" style="stroke: #000000; stroke-width: 0.8"/>
      </g>
     </g>
     <g id="text_11">
      <!-- $\mathdefault{30000}$ -->
      <g transform="translate(15.440208 127.651911) scale(0.12 -0.12)">
       <defs>
        <path id="LMRoman17-Regular-33" d="M 2720 1094 
C 2720 1715 2208 2163 1600 2233 
C 2086 2335 2554 2771 2554 3353 
C 2554 3856 2048 4224 1472 4224 
C 890 4224 378 3862 378 3347 
C 378 3123 544 3084 627 3084 
C 762 3084 877 3167 877 3334 
C 877 3500 762 3584 627 3584 
C 602 3596 570 3596 544 3584 
C 730 4006 1235 4083 1459 4083 
C 1683 4083 2106 3974 2106 3360 
C 2106 3180 2080 2860 1862 2579 
C 1670 2329 1453 2316 1242 2297 
C 1210 2297 1062 2284 1037 2284 
C 992 2278 966 2272 966 2227 
C 966 2182 973 2176 1101 2176 
L 1414 2176 
C 1984 2176 2234 1673 2234 1094 
C 2234 322 1824 25 1453 25 
C 1114 25 563 193 390 691 
C 422 678 454 678 486 678 
C 640 671 755 774 755 940 
C 755 1132 614 1216 486 1216 
C 378 1216 211 1164 211 926 
C 211 334 787 -128 1466 -128 
C 2176 -128 2720 431 2720 1087 
L 2720 1094 
z
" transform="scale(0.015625)"/>
       </defs>
       <use xlink:href="#LMRoman17-Regular-33" transform="scale(0.996264)"/>
       <use xlink:href="#LMRoman17-Regular-30" transform="translate(45.690948 0) scale(0.996264)"/>
       <use xlink:href="#LMRoman17-Regular-30" transform="translate(91.381897 0) scale(0.996264)"/>
       <use xlink:href="#LMRoman17-Regular-30" transform="translate(137.072845 0) scale(0.996264)"/>
       <use xlink:href="#LMRoman17-Regular-30" transform="translate(182.763793 0) scale(0.996264)"/>
      </g>
     </g>
    </g>
    <g id="ytick_5">
     <g id="line2d_11">
      <g>
       <use xlink:href="#mf432481a94" x="51.705387" y="94.501048" style="stroke: #000000; stroke-width: 0.8"/>
      </g>
     </g>
     <g id="text_12">
      <!-- $\mathdefault{40000}$ -->
      <g transform="translate(15.440208 98.618846) scale(0.12 -0.12)">
       <use xlink:href="#LMRoman17-Regular-34" transform="scale(0.996264)"/>
       <use xlink:href="#LMRoman17-Regular-30" transform="translate(45.690948 0) scale(0.996264)"/>
       <use xlink:href="#LMRoman17-Regular-30" transform="translate(91.381897 0) scale(0.996264)"/>
       <use xlink:href="#LMRoman17-Regular-30" transform="translate(137.072845 0) scale(0.996264)"/>
       <use xlink:href="#LMRoman17-Regular-30" transform="translate(182.763793 0) scale(0.996264)"/>
      </g>
     </g>
    </g>
    <g id="ytick_6">
     <g id="line2d_12">
      <g>
       <use xlink:href="#mf432481a94" x="51.705387" y="65.467983" style="stroke: #000000; stroke-width: 0.8"/>
      </g>
     </g>
     <g id="text_13">
      <!-- $\mathdefault{50000}$ -->
      <g transform="translate(15.440208 69.585781) scale(0.12 -0.12)">
       <defs>
        <path id="LMRoman17-Regular-35" d="M 2669 1260 
C 2669 2028 2170 2624 1549 2624 
C 1222 2624 947 2502 730 2271 
L 730 3692 
C 794 3667 1056 3584 1325 3584 
C 1920 3584 2246 3904 2432 4119 
C 2432 4183 2432 4224 2394 4224 
C 2394 4224 2374 4224 2323 4191 
C 2099 4071 1837 3974 1517 3974 
C 1325 3993 1037 4019 723 4160 
C 653 4224 634 4224 634 4224 
C 602 4192 595 4185 595 4057 
L 595 2206 
C 595 2092 595 2061 659 2061 
C 691 2061 704 2074 736 2118 
C 941 2401 1222 2521 1542 2521 
C 1766 2521 2246 2382 2246 1304 
C 2246 1103 2246 735 2054 441 
C 1894 166 1645 25 1370 25 
C 947 25 518 334 403 832 
C 429 806 480 793 506 793 
C 589 793 749 838 749 1036 
C 749 1209 627 1280 506 1280 
C 358 1280 262 1190 262 1011 
C 262 454 704 -128 1382 -128 
C 2042 -128 2669 441 2669 1267 
L 2669 1260 
z
" transform="scale(0.015625)"/>
       </defs>
       <use xlink:href="#LMRoman17-Regular-35" transform="scale(0.996264)"/>
       <use xlink:href="#LMRoman17-Regular-30" transform="translate(45.690948 0) scale(0.996264)"/>
       <use xlink:href="#LMRoman17-Regular-30" transform="translate(91.381897 0) scale(0.996264)"/>
       <use xlink:href="#LMRoman17-Regular-30" transform="translate(137.072845 0) scale(0.996264)"/>
       <use xlink:href="#LMRoman17-Regular-30" transform="translate(182.763793 0) scale(0.996264)"/>
      </g>
     </g>
    </g>
    <g id="ytick_7">
     <g id="line2d_13">
      <g>
       <use xlink:href="#mf432481a94" x="51.705387" y="36.434918" style="stroke: #000000; stroke-width: 0.8"/>
      </g>
     </g>
     <g id="text_14">
      <!-- $\mathdefault{60000}$ -->
      <g transform="translate(15.440208 40.552716) scale(0.12 -0.12)">
       <use xlink:href="#LMRoman17-Regular-36" transform="scale(0.996264)"/>
       <use xlink:href="#LMRoman17-Regular-30" transform="translate(45.690948 0) scale(0.996264)"/>
       <use xlink:href="#LMRoman17-Regular-30" transform="translate(91.381897 0) scale(0.996264)"/>
       <use xlink:href="#LMRoman17-Regular-30" transform="translate(137.072845 0) scale(0.996264)"/>
       <use xlink:href="#LMRoman17-Regular-30" transform="translate(182.763793 0) scale(0.996264)"/>
      </g>
     </g>
    </g>
    <g id="ytick_8">
     <g id="line2d_14">
      <g>
       <use xlink:href="#mf432481a94" x="51.705387" y="7.401853" style="stroke: #000000; stroke-width: 0.8"/>
      </g>
     </g>
     <g id="text_15">
      <!-- $\mathdefault{70000}$ -->
      <g transform="translate(15.440208 11.519651) scale(0.12 -0.12)">
       <defs>
        <path id="LMRoman17-Regular-37" d="M 2886 4006 
L 2886 4147 
L 1382 4147 
C 634 4147 621 4230 595 4352 
L 480 4352 
L 294 3148 
L 410 3148 
C 429 3271 474 3601 550 3724 
C 589 3776 1062 3776 1171 3776 
L 2579 3776 
L 1869 2707 
C 1395 1989 1069 1018 1069 169 
C 1069 92 1069 -128 1299 -128 
C 1530 -128 1530 92 1530 176 
L 1530 474 
C 1530 1535 1709 2235 2003 2681 
L 2886 4006 
z
" transform="scale(0.015625)"/>
       </defs>
       <use xlink:href="#LMRoman17-Regular-37" transform="scale(0.996264)"/>
       <use xlink:href="#LMRoman17-Regular-30" transform="translate(45.690948 0) scale(0.996264)"/>
       <use xlink:href="#LMRoman17-Regular-30" transform="translate(91.381897 0) scale(0.996264)"/>
       <use xlink:href="#LMRoman17-Regular-30" transform="translate(137.072845 0) scale(0.996264)"/>
       <use xlink:href="#LMRoman17-Regular-30" transform="translate(182.763793 0) scale(0.996264)"/>
      </g>
     </g>
    </g>
    <g id="text_16">
     <!-- Wymagana wielkość próby $n$ -->
     <g transform="translate(8.921896 190.259352) rotate(-90) scale(0.13 -0.13)">
      <defs>
       <path id="LMRoman17-Regular-67" d="M 2886 2630 
C 2886 2751 2790 2880 2586 2880 
C 2330 2867 2106 2745 1926 2560 
C 1734 2751 1504 2816 1299 2816 
C 794 2816 358 2399 358 1868 
C 358 1503 570 1273 634 1209 
C 442 1004 442 742 442 710 
C 442 544 506 300 723 166 
C 390 83 128 -171 128 -487 
C 128 -944 736 -1280 1466 -1280 
C 2170 -1280 2803 -956 2803 -481 
C 2803 384 1856 384 1363 384 
C 1216 390 954 390 922 396 
C 723 428 589 605 589 827 
C 589 884 589 1024 710 1165 
C 832 1068 1043 960 1299 960 
C 1805 960 2240 1358 2240 1891 
C 2240 2058 2189 2315 1997 2515 
C 2176 2707 2438 2771 2586 2771 
C 2611 2771 2650 2771 2682 2752 
C 2656 2745 2598 2720 2598 2617 
C 2598 2540 2656 2483 2739 2483 
C 2835 2476 2886 2540 2886 2624 
L 2886 2630 
z
M 1862 1891 
C 1862 1763 1862 1068 1299 1068 
C 736 1068 736 1763 736 1891 
C 736 2020 736 2707 1299 2707 
C 1862 2707 1862 2020 1862 1891 
z
M 2547 -485 
C 2547 -835 2106 -1172 1466 -1172 
C 826 -1178 384 -839 384 -487 
C 384 -289 493 -103 634 0 
C 794 102 858 102 1293 102 
C 1818 102 2547 102 2547 -493 
L 2547 -485 
z
" transform="scale(0.015625)"/>
       <path id="LMRoman17-Regular-6e" d="M 3091 0 
L 3091 166 
C 2682 166 2656 192 2656 443 
L 2656 1954 
C 2656 2282 2592 2816 1837 2816 
C 1331 2816 1069 2424 973 2166 
L 966 2166 
L 966 2816 
L 211 2752 
L 211 2585 
C 589 2585 646 2546 646 2237 
L 646 443 
C 646 198 621 166 211 166 
L 211 0 
C 365 12 646 12 813 12 
C 979 12 1267 12 1421 0 
L 1421 166 
C 1011 166 986 192 986 443 
L 986 1682 
C 986 2269 1344 2713 1792 2713 
C 2266 2713 2317 2289 2317 1980 
L 2317 443 
C 2317 198 2291 166 1882 166 
L 1882 0 
C 2035 12 2317 12 2483 12 
C 2650 12 2938 12 3091 0 
z
" transform="scale(0.015625)"/>
       <path id="LMRoman17-Regular-77" d="M 4205 2585 
L 4205 2752 
C 4077 2745 3949 2739 3821 2739 
C 3699 2739 3424 2739 3315 2752 
L 3315 2585 
C 3514 2572 3622 2457 3622 2297 
C 3622 2252 3610 2195 3597 2150 
L 2995 409 
L 2342 2297 
C 2330 2355 2310 2406 2310 2432 
C 2310 2598 2528 2598 2630 2598 
L 2630 2752 
C 2483 2739 2214 2739 2061 2739 
C 1901 2739 1734 2739 1587 2752 
L 1587 2585 
C 1939 2585 1939 2572 2074 2169 
L 1485 454 
L 851 2303 
C 819 2399 819 2412 819 2432 
C 819 2598 1037 2598 1139 2598 
L 1139 2752 
C 986 2739 717 2739 557 2739 
C 416 2739 198 2739 64 2752 
L 64 2585 
C 346 2585 416 2565 486 2342 
L 1274 38 
C 1299 -45 1318 -64 1370 -64 
C 1414 -64 1440 -52 1472 44 
L 2131 1977 
L 2797 44 
C 2829 -52 2854 -64 2899 -64 
C 2950 -64 2970 -45 2995 38 
L 3725 2176 
C 3853 2565 4109 2578 4205 2585 
z
" transform="scale(0.015625)"/>
       <path id="LMRoman17-Regular-65" d="M 2464 1606 
C 2464 2251 2118 2816 1389 2816 
C 710 2816 173 2175 173 1394 
C 173 554 781 -64 1459 -64 
C 2176 -64 2458 619 2458 755 
C 2458 800 2406 800 2406 800 
C 2362 800 2355 787 2330 709 
C 2189 270 1837 51 1504 51 
C 1229 51 954 206 781 490 
C 582 819 582 1200 582 1503 
L 2438 1503 
C 2464 1523 2464 1535 2464 1600 
L 2464 1606 
z
M 2118 1593 
L 589 1600 
C 634 2511 1126 2713 1382 2713 
C 1818 2713 2112 2308 2118 1600 
L 2118 1593 
z
" transform="scale(0.015625)"/>
       <path id="LMRoman17-Regular-6c" d="M 1414 0 
L 1414 166 
C 1005 166 979 191 979 439 
L 979 4416 
L 218 4352 
L 218 4185 
C 595 4185 653 4147 653 3841 
L 653 440 
C 653 198 627 166 218 166 
L 218 0 
C 371 12 653 12 813 12 
C 979 12 1261 12 1414 0 
z
" transform="scale(0.015625)"/>
       <path id="LMRoman17-Regular-6b" d="M 3040 0 
L 3040 166 
C 2739 166 2669 224 2477 505 
L 1670 1689 
C 1664 1702 1632 1740 1632 1760 
L 2144 2240 
C 2509 2547 2739 2579 2906 2585 
L 2906 2752 
C 2867 2752 2848 2745 2848 2745 
L 2534 2739 
C 2355 2739 2080 2739 1907 2752 
L 1907 2585 
C 1997 2579 2061 2528 2061 2438 
C 2061 2310 1926 2188 1926 2188 
L 960 1305 
L 960 4416 
L 198 4352 
L 198 4185 
C 576 4185 634 4147 634 3841 
L 634 440 
C 634 198 608 166 198 166 
L 198 0 
C 352 12 634 12 794 12 
C 954 12 1235 12 1389 0 
L 1389 166 
C 979 166 954 191 954 440 
L 954 1140 
L 1395 1542 
L 2042 586 
C 2118 472 2182 382 2182 300 
C 2182 185 2067 166 1990 166 
L 1990 0 
C 2144 12 2419 12 2579 12 
L 3040 0 
z
" transform="scale(0.015625)"/>
       <path id="LMRoman17-Regular-6f" d="M 2758 1356 
C 2758 2176 2163 2816 1466 2816 
C 768 2816 173 2176 173 1356 
C 173 550 768 -64 1466 -64 
C 2163 -64 2758 550 2758 1356 
z
M 2349 1408 
C 2349 1158 2336 774 2163 467 
C 1984 172 1709 51 1466 51 
C 1165 51 909 230 762 480 
C 602 768 582 1126 582 1408 
C 582 1676 595 2009 762 2297 
C 890 2508 1139 2713 1466 2713 
C 1754 2713 1997 2553 2150 2329 
C 2349 2028 2349 1606 2349 1408 
z
" transform="scale(0.015625)"/>
       <path id="LMRoman17-Regular-b1" d="M 2131 793 
C 2131 1119 1958 1292 1875 1369 
C 1683 1567 1459 1612 1190 1663 
C 838 1740 390 1830 390 2216 
C 390 2380 480 2726 1126 2726 
C 1811 2726 1850 2097 1862 1894 
C 1869 1862 1901 1855 1920 1855 
C 1978 1855 1978 1875 1978 1984 
L 1978 2688 
C 1978 2809 1971 2816 1933 2816 
C 1907 2816 1901 2809 1824 2713 
C 1805 2687 1747 2623 1728 2598 
C 1523 2809 1235 2816 1126 2816 
C 416 2816 160 2450 160 2086 
C 160 1507 813 1371 998 1333 
C 1402 1249 1542 1223 1677 1107 
C 1760 1030 1901 888 1901 656 
C 1901 386 1747 38 1158 38 
C 602 38 403 463 288 1030 
C 269 1126 269 1132 218 1132 
C 166 1132 160 1126 160 998 
L 160 76 
C 160 -39 166 -45 205 -45 
C 237 -45 243 -39 275 12 
L 448 275 
C 576 102 800 -64 1158 -64 
C 1792 -64 2131 281 2131 780 
L 2131 793 
z
M 1888 4301 
C 1888 4400 1805 4480 1715 4480 
C 1638 4480 1613 4446 1549 4367 
L 826 3415 
C 781 3356 781 3343 781 3343 
L 851 3264 
L 1792 4142 
C 1869 4215 1888 4228 1888 4301 
z
" transform="scale(0.015625)"/>
       <path id="LMRoman17-Regular-a2" d="M 2458 742 
C 2458 768 2451 787 2406 787 
C 2362 787 2355 780 2330 697 
C 2163 179 1798 51 1523 51 
C 1114 51 621 428 621 1376 
C 621 2358 1094 2700 1472 2700 
C 1722 2700 2093 2582 2234 2240 
C 2112 2240 1933 2240 1933 2015 
C 1933 1836 2080 1785 2163 1785 
C 2208 1772 2394 1792 2394 2016 
C 2394 2470 1958 2816 1466 2816 
C 787 2816 211 2188 211 1369 
C 211 518 813 -64 1466 -64 
C 2259 -64 2458 672 2458 742 
z
M 2176 4301 
C 2176 4400 2093 4480 2003 4480 
C 1926 4480 1901 4446 1837 4367 
L 1114 3415 
C 1069 3356 1069 3343 1069 3343 
L 1139 3264 
L 2080 4142 
C 2157 4215 2176 4228 2176 4301 
z
" transform="scale(0.015625)"/>
       <path id="LMRoman17-Regular-70" d="M 3053 1401 
C 3053 2207 2496 2816 1837 2816 
C 1453 2816 1139 2606 960 2355 
L 960 2816 
L 198 2752 
L 198 2585 
C 576 2585 634 2547 634 2240 
L 634 -815 
C 634 -1057 608 -1088 198 -1088 
L 198 -1255 
C 352 -1242 634 -1242 800 -1242 
C 966 -1242 1254 -1242 1408 -1255 
L 1408 -1088 
C 998 -1088 973 -1063 973 -815 
L 973 382 
C 1158 109 1427 -64 1766 -64 
C 2406 -64 3053 505 3053 1389 
L 3053 1401 
z
M 2643 1382 
C 2643 642 2234 38 1728 38 
C 1498 38 1248 148 1056 454 
C 973 596 973 635 973 739 
L 973 2025 
C 973 2116 973 2252 1222 2489 
C 1254 2508 1472 2700 1792 2700 
C 2259 2700 2643 2118 2643 1388 
L 2643 1382 
z
" transform="scale(0.015625)"/>
       <path id="LMRoman17-Regular-f3" d="M 2758 1356 
C 2758 2176 2163 2816 1466 2816 
C 768 2816 173 2176 173 1356 
C 173 550 768 -64 1466 -64 
C 2163 -64 2758 550 2758 1356 
z
M 2349 1408 
C 2349 1158 2336 774 2163 467 
C 1984 172 1709 51 1466 51 
C 1165 51 909 230 762 480 
C 602 768 582 1126 582 1408 
C 582 1676 595 2009 762 2297 
C 890 2508 1139 2713 1466 2713 
C 1754 2713 1997 2553 2150 2329 
C 2349 2028 2349 1606 2349 1408 
z
M 2208 4301 
C 2208 4400 2125 4480 2035 4480 
C 1958 4480 1933 4446 1869 4367 
L 1146 3415 
C 1101 3356 1101 3343 1101 3343 
L 1171 3264 
L 2112 4142 
C 2189 4215 2208 4228 2208 4301 
z
" transform="scale(0.015625)"/>
       <path id="LMRoman17-Regular-62" d="M 3053 1382 
C 3053 2209 2477 2816 1830 2816 
C 1434 2816 1152 2603 960 2351 
L 960 4416 
L 198 4345 
L 198 4179 
C 576 4179 634 4141 634 3843 
L 634 -13 
L 749 -13 
L 934 445 
C 1120 141 1395 -64 1766 -64 
C 2406 -64 3053 503 3053 1382 
z
M 2643 1388 
C 2643 109 1888 38 1734 38 
C 1536 63 1248 140 1043 511 
C 973 633 973 646 973 761 
L 973 2028 
C 973 2143 973 2163 1062 2297 
C 1312 2681 1670 2713 1792 2713 
C 1984 2713 2643 2611 2643 1401 
L 2643 1388 
z
" transform="scale(0.015625)"/>
       <path id="LMMathItalic12-Regular-6e" d="M 3552 913 
C 3552 944 3526 970 3488 970 
C 3430 970 3424 951 3392 842 
C 3245 319 3002 63 2752 63 
C 2688 63 2586 70 2586 274 
C 2586 434 2656 625 2694 715 
C 2822 1066 3091 1781 3091 2145 
C 3091 2528 2867 2816 2381 2816 
C 1811 2816 1510 2413 1395 2254 
C 1376 2618 1114 2816 832 2816 
C 627 2816 486 2694 378 2477 
C 262 2247 173 1864 173 1838 
C 173 1813 198 1781 243 1781 
C 294 1781 301 1787 339 1934 
C 442 2324 557 2688 813 2688 
C 960 2688 1011 2586 1011 2394 
C 1011 2254 947 2004 902 1807 
L 723 1117 
L 595 593 
C 550 427 480 127 480 95 
C 480 6 550 -64 646 -64 
C 723 -64 813 -26 864 70 
C 877 102 934 325 966 453 
L 1107 1027 
L 1318 1870 
C 1331 1909 1491 2228 1728 2432 
C 1894 2586 2112 2688 2362 2688 
C 2618 2688 2707 2496 2707 2241 
C 2707 1877 2445 1149 2317 804 
C 2259 651 2227 568 2227 453 
C 2227 165 2426 -64 2733 -64 
C 3328 -64 3552 874 3552 913 
z
" transform="scale(0.015625)"/>
      </defs>
      <use xlink:href="#LMRoman17-Regular-57" transform="scale(0.996264)"/>
      <use xlink:href="#LMRoman17-Regular-79" transform="translate(87.287768 0) scale(0.996264)"/>
      <use xlink:href="#LMRoman17-Regular-6d" transform="translate(135.578981 0) scale(0.996264)"/>
      <use xlink:href="#LMRoman17-Regular-61" transform="translate(212.50114 0) scale(0.996264)"/>
      <use xlink:href="#LMRoman17-Regular-67" transform="translate(258.192089 0) scale(0.996264)"/>
      <use xlink:href="#LMRoman17-Regular-61" transform="translate(303.883037 0) scale(0.996264)"/>
      <use xlink:href="#LMRoman17-Regular-6e" transform="translate(349.573985 0) scale(0.996264)"/>
      <use xlink:href="#LMRoman17-Regular-61" transform="translate(400.471073 0) scale(0.996264)"/>
      <use xlink:href="#LMRoman17-Regular-77" transform="translate(476.23817 0) scale(0.996264)"/>
      <use xlink:href="#LMRoman17-Regular-69" transform="translate(542.747959 0) scale(0.996264)"/>
      <use xlink:href="#LMRoman17-Regular-65" transform="translate(567.619976 0) scale(0.996264)"/>
      <use xlink:href="#LMRoman17-Regular-6c" transform="translate(608.104785 0) scale(0.996264)"/>
      <use xlink:href="#LMRoman17-Regular-6b" transform="translate(632.976801 0) scale(0.996264)"/>
      <use xlink:href="#LMRoman17-Regular-6f" transform="translate(678.66556 0) scale(0.996264)"/>
      <use xlink:href="#LMRoman17-Regular-b1" transform="translate(724.356509 0) scale(0.996264)"/>
      <use xlink:href="#LMRoman17-Regular-a2" transform="translate(760.159746 0) scale(0.996264)"/>
      <use xlink:href="#LMRoman17-Regular-70" transform="translate(830.720704 0) scale(0.996264)"/>
      <use xlink:href="#LMRoman17-Regular-72" transform="translate(881.617792 0) scale(0.996264)"/>
      <use xlink:href="#LMRoman17-Regular-f3" transform="translate(916.89932 0) scale(0.996264)"/>
      <use xlink:href="#LMRoman17-Regular-62" transform="translate(962.590268 0) scale(0.996264)"/>
      <use xlink:href="#LMRoman17-Regular-79" transform="translate(1010.884902 0) scale(0.996264)"/>
      <use xlink:href="#LMMathItalic12-Regular-6e" transform="translate(1089.252264 0) scale(0.996264)"/>
     </g>
    </g>
   </g>
   <g id="line2d_15">
    <path d="M 66.923569 210.633309 
L 67.228237 190.509121 
L 67.837574 170.384934 
L 68.44691 158.613039 
L 69.056247 150.260747 
L 69.970252 141.015059 
L 70.884257 134.013385 
L 72.10293 126.716957 
L 73.321603 120.890872 
L 74.540276 116.04078 
L 76.063618 110.934135 
L 77.58696 106.59277 
L 79.414969 102.117303 
L 81.242979 98.240478 
L 83.375657 94.288143 
L 85.508335 90.809947 
L 87.945682 87.28647 
L 90.383028 84.144698 
L 93.125043 80.974308 
L 96.171726 77.815427 
L 99.218409 74.966765 
L 102.56976 72.125711 
L 106.22578 69.313864 
L 110.186468 66.546717 
L 114.451824 63.834995 
L 119.021849 61.185766 
L 124.20121 58.449326 
L 129.68524 55.808137 
L 135.778606 53.130382 
L 142.17664 50.561573 
L 149.184011 47.986628 
L 156.800719 45.424732 
L 165.026763 42.890353 
L 174.166812 40.31176 
L 183.916198 37.792407 
L 194.579588 35.2662 
L 206.156984 32.751517 
L 218.953053 30.204187 
L 232.663127 27.702185 
L 247.896542 25.15379 
L 264.34863 22.631649 
L 282.32406 20.105442 
L 301.822832 17.592907 
L 323.149613 15.072969 
L 346.304404 12.564008 
L 371.287205 10.08 
L 371.287205 10.08 
" clip-path="url(#p3ab0e7b14a)" style="fill: none; stroke: #ff0000; stroke-linecap: square"/>
   </g>
   <g id="line2d_16">
    <path d="M 66.923569 211.68 
L 67.532905 211.361039 
L 68.751579 211.115043 
L 71.493593 210.875033 
L 77.282291 210.647773 
L 89.773692 210.422655 
L 116.584503 210.199352 
L 174.166812 209.976785 
L 297.557475 209.754909 
L 371.287205 209.674467 
L 371.287205 209.674467 
" clip-path="url(#p3ab0e7b14a)" style="fill: none; stroke: #0000ff; stroke-linecap: square"/>
   </g>
   <g id="patch_3">
    <path d="M 51.705387 221.76 
L 51.705387 0 
" style="fill: none; stroke: #000000; stroke-width: 0.8; stroke-linejoin: miter; stroke-linecap: square"/>
   </g>
   <g id="patch_4">
    <path d="M 386.505387 221.76 
L 386.505387 0 
" style="fill: none; stroke: #000000; stroke-width: 0.8; stroke-linejoin: miter; stroke-linecap: square"/>
   </g>
   <g id="patch_5">
    <path d="M 51.705387 221.76 
L 386.505387 221.76 
" style="fill: none; stroke: #000000; stroke-width: 0.8; stroke-linejoin: miter; stroke-linecap: square"/>
   </g>
   <g id="patch_6">
    <path d="M 51.705387 -0 
L 386.505387 -0 
" style="fill: none; stroke: #000000; stroke-width: 0.8; stroke-linejoin: miter; stroke-linecap: square"/>
   </g>
   <g id="legend_1">
    <g id="patch_7">
     <path d="M 206.938798 135.133492 
L 377.405387 135.133492 
Q 380.005387 135.133492 380.005387 132.533492 
L 380.005387 89.226508 
Q 380.005387 86.626508 377.405387 86.626508 
L 206.938798 86.626508 
Q 204.338798 86.626508 204.338798 89.226508 
L 204.338798 132.533492 
Q 204.338798 135.133492 206.938798 135.133492 
z
" style="fill: #ffffff; opacity: 0.8; stroke: #cccccc; stroke-linejoin: miter"/>
    </g>
    <g id="line2d_17">
     <path d="M 209.538798 97.712714 
L 222.538798 97.712714 
L 235.538798 97.712714 
" style="fill: none; stroke: #ff0000; stroke-linecap: square"/>
    </g>
    <g id="text_17">
     <!-- $n = s^2 \log(d),\ s=100$ -->
     <g transform="translate(245.938798 102.262714) scale(0.13 -0.13)">
      <defs>
       <path id="LMRoman17-Regular-3d" d="M 4307 2156 
C 4307 2272 4198 2272 4090 2272 
L 512 2272 
C 403 2272 294 2272 294 2156 
C 294 2048 390 2048 486 2048 
L 4115 2048 
C 4211 2048 4307 2048 4307 2156 
z
M 4307 1043 
C 4307 1152 4211 1152 4115 1152 
L 486 1152 
C 390 1152 294 1152 294 1043 
C 294 927 403 927 512 927 
L 4090 927 
C 4198 927 4307 927 4307 1043 
z
" transform="scale(0.015625)"/>
       <path id="LMMathItalic12-Regular-73" d="M 2483 998 
C 2483 1093 2483 1271 2278 1475 
C 2118 1627 1965 1659 1619 1729 
C 1446 1767 1171 1824 1171 2111 
C 1171 2239 1286 2691 1894 2691 
C 2163 2691 2426 2592 2490 2368 
C 2208 2368 2195 2118 2195 2118 
C 2195 1983 2317 1945 2374 1945 
C 2464 1945 2643 2015 2643 2284 
C 2643 2548 2400 2816 1901 2816 
C 1062 2816 838 2169 838 1907 
C 838 1424 1312 1322 1459 1290 
C 1568 1271 1741 1233 1779 1227 
C 1862 1201 2150 1099 2150 793 
C 2150 595 1971 67 1229 67 
C 1094 67 614 86 486 447 
C 742 415 870 614 870 755 
C 870 889 781 960 653 960 
C 512 960 326 851 326 563 
C 326 178 710 -64 1222 -64 
C 2195 -64 2483 665 2483 998 
z
" transform="scale(0.015625)"/>
       <path id="LMRoman17-Regular-28" d="M 1958 -1562 
C 1958 -1562 1958 -1543 1939 -1524 
C 1645 -1223 858 -403 858 1596 
C 858 3595 1632 4409 1946 4729 
C 1946 4729 1958 4748 1958 4767 
C 1958 4787 1939 4800 1914 4800 
C 1843 4800 1299 4325 986 3621 
C 666 2910 576 2218 576 1603 
C 576 1141 621 360 1005 -467 
C 1312 -1133 1837 -1600 1914 -1600 
C 1946 -1600 1958 -1588 1958 -1562 
z
" transform="scale(0.015625)"/>
       <path id="LMRoman17-Regular-29" d="M 1683 1596 
C 1683 2057 1638 2839 1254 3665 
C 947 4332 422 4800 346 4800 
C 326 4800 301 4793 301 4761 
C 301 4761 307 4742 314 4729 
C 621 4409 1402 3595 1402 1603 
C 1402 -396 627 -1210 314 -1530 
C 307 -1543 301 -1562 301 -1562 
C 301 -1594 326 -1600 346 -1600 
C 416 -1600 960 -1126 1274 -422 
C 1594 289 1683 981 1683 1596 
z
" transform="scale(0.015625)"/>
       <path id="LMMathItalic12-Regular-3b" d="M 1248 -26 
C 1248 345 1126 620 864 620 
C 659 620 557 454 557 313 
C 557 172 653 0 870 0 
C 954 0 1024 25 1082 83 
C 1094 96 1107 96 1107 96 
C 1107 96 1120 6 1120 -26 
C 1120 -234 1082 -643 710 -1053 
C 640 -1128 640 -1153 640 -1153 
C 640 -1185 672 -1216 704 -1216 
C 755 -1216 1248 -750 1248 -26 
z
" transform="scale(0.015625)"/>
      </defs>
      <use xlink:href="#LMMathItalic12-Regular-6e" transform="scale(0.996264)"/>
      <use xlink:href="#LMRoman17-Regular-3d" transform="translate(85.904056 0) scale(0.996264)"/>
      <use xlink:href="#LMMathItalic12-Regular-73" transform="translate(185.294085 0) scale(0.996264)"/>
      <use xlink:href="#LMRoman17-Regular-32" transform="translate(231.244132 36.153639) scale(0.697382)"/>
      <use xlink:href="#LMRoman17-Regular-6c" transform="translate(280.330186 0) scale(0.996264)"/>
      <use xlink:href="#LMRoman17-Regular-6f" transform="translate(305.202202 0) scale(0.996264)"/>
      <use xlink:href="#LMRoman17-Regular-67" transform="translate(350.89315 0) scale(0.996264)"/>
      <use xlink:href="#LMRoman17-Regular-28" transform="translate(398.592437 0) scale(0.996264)"/>
      <use xlink:href="#LMMathItalic12-Regular-64" transform="translate(433.873964 0) scale(0.996264)"/>
      <use xlink:href="#LMRoman17-Regular-29" transform="translate(484.563061 0) scale(0.996264)"/>
      <use xlink:href="#LMMathItalic12-Regular-3b" transform="translate(519.844589 0) scale(0.996264)"/>
      <use xlink:href="#LMMathItalic12-Regular-73" transform="translate(593.62232 0) scale(0.996264)"/>
      <use xlink:href="#LMRoman17-Regular-3d" transform="translate(667.246377 0) scale(0.996264)"/>
      <use xlink:href="#LMRoman17-Regular-31" transform="translate(766.636405 0) scale(0.996264)"/>
      <use xlink:href="#LMRoman17-Regular-30" transform="translate(812.327353 0) scale(0.996264)"/>
      <use xlink:href="#LMRoman17-Regular-30" transform="translate(858.018302 0) scale(0.996264)"/>
     </g>
    </g>
    <g id="line2d_18">
     <path d="M 209.538798 119.654882 
L 222.538798 119.654882 
L 235.538798 119.654882 
" style="fill: none; stroke: #0000ff; stroke-linecap: square"/>
    </g>
    <g id="text_18">
     <!-- $n = s \log\left(\frac{ed}{s}\right),\ s=100$ -->
     <g transform="translate(245.938798 124.204882) scale(0.13 -0.13)">
      <defs>
       <path id="LMMathExtension10-Regular-30" d="M 5389 191 
C 5389 256 5344 256 5242 256 
C 5139 256 5126 256 5114 242 
C 5088 223 4275 -712 3629 -1999 
C 2784 -3689 2253 -5630 2016 -7960 
C 1997 -8159 1862 -9491 1862 -11008 
L 1862 -11258 
C 1869 -11328 1907 -11328 2042 -11328 
L 2394 -11328 
C 2534 -11328 2573 -11328 2573 -11239 
C 2586 -6750 3104 -3023 5344 108 
C 5389 165 5389 191 5389 191 
z
" transform="scale(0.015625)"/>
       <path id="LMMathExtension10-Regular-42" d="M 2573 -3732 
L 2573 -109 
C 2573 57 2566 64 2394 64 
L 2042 64 
C 1869 64 1862 57 1862 -109 
L 1862 -3732 
C 1862 -3898 1869 -3905 2042 -3905 
L 2394 -3905 
C 2566 -3905 2573 -3898 2573 -3732 
z
" transform="scale(0.015625)"/>
       <path id="LMMathExtension10-Regular-40" d="M 5389 -11200 
C 5389 -11200 5389 -11175 5350 -11117 
C 3219 -8159 2579 -4599 2573 229 
C 2573 320 2534 320 2394 320 
L 2042 320 
C 1907 320 1869 320 1862 249 
L 1862 -1 
C 1862 -3913 2560 -6206 2758 -6853 
C 3194 -8274 3904 -9773 4973 -11092 
C 5069 -11207 5094 -11239 5120 -11252 
C 5133 -11258 5139 -11264 5242 -11264 
C 5344 -11264 5389 -11264 5389 -11200 
z
" transform="scale(0.015625)"/>
       <path id="LMMathItalic12-Regular-65" d="M 2675 691 
C 2675 729 2637 761 2611 761 
C 2592 761 2586 754 2528 697 
C 2118 158 1510 62 1267 62 
C 902 62 710 348 710 818 
C 710 907 710 1065 806 1472 
L 1146 1472 
C 1318 1472 1754 1484 2061 1600 
C 2547 1786 2592 2159 2592 2275 
C 2592 2558 2349 2816 1926 2816 
C 1254 2816 288 2204 288 1065 
C 288 399 672 -64 1254 -64 
C 2125 -64 2675 608 2675 691 
z
M 2400 2275 
C 2400 1600 1376 1600 1107 1600 
L 838 1600 
C 1114 2590 1722 2687 1926 2687 
C 2208 2687 2400 2520 2400 2275 
z
" transform="scale(0.015625)"/>
       <path id="LMMathExtension10-Regular-31" d="M 3731 -11258 
L 3731 -11008 
C 3731 -7096 3034 -4804 2835 -4157 
C 2400 -2735 1690 -1237 621 82 
C 525 197 499 229 474 242 
C 461 249 454 256 352 256 
C 256 256 205 256 205 191 
C 205 191 205 165 288 50 
C 2515 -3062 3014 -6904 3021 -11239 
C 3021 -11328 3059 -11328 3200 -11328 
L 3552 -11328 
C 3686 -11328 3725 -11328 3731 -11258 
z
" transform="scale(0.015625)"/>
       <path id="LMMathExtension10-Regular-43" d="M 3731 -3732 
L 3731 -109 
C 3731 57 3725 64 3552 64 
L 3200 64 
C 3027 64 3021 57 3021 -109 
L 3021 -3732 
C 3021 -3898 3027 -3905 3200 -3905 
L 3552 -3905 
C 3725 -3905 3731 -3898 3731 -3732 
z
" transform="scale(0.015625)"/>
       <path id="LMMathExtension10-Regular-41" d="M 3731 -1 
L 3731 249 
C 3725 320 3686 320 3552 320 
L 3200 320 
C 3059 320 3021 320 3021 229 
C 3021 -430 3014 -1954 2848 -3548 
C 2502 -6859 1651 -9151 250 -11117 
C 205 -11175 205 -11200 205 -11200 
C 205 -11264 256 -11264 352 -11264 
C 454 -11264 467 -11264 480 -11252 
C 506 -11232 1318 -10298 1965 -9011 
C 2810 -7320 3341 -5380 3578 -3049 
C 3597 -2851 3731 -1519 3731 -1 
z
" transform="scale(0.015625)"/>
      </defs>
      <use xlink:href="#LMMathItalic12-Regular-6e" transform="scale(0.996264)"/>
      <use xlink:href="#LMRoman17-Regular-3d" transform="translate(85.904056 0) scale(0.996264)"/>
      <use xlink:href="#LMMathItalic12-Regular-73" transform="translate(185.294085 0) scale(0.996264)"/>
      <use xlink:href="#LMRoman17-Regular-6c" transform="translate(247.848537 0) scale(0.996264)"/>
      <use xlink:href="#LMRoman17-Regular-6f" transform="translate(272.720554 0) scale(0.996264)"/>
      <use xlink:href="#LMRoman17-Regular-67" transform="translate(318.411502 0) scale(0.996264)"/>
      <use xlink:href="#LMMathExtension10-Regular-30" transform="translate(382.715193 87.273372) scale(0.099626)"/>
      <use xlink:href="#LMMathExtension10-Regular-42" transform="translate(382.715193 69.738937) scale(0.099626)"/>
      <use xlink:href="#LMMathExtension10-Regular-42" transform="translate(382.715193 63.761292) scale(0.099626)"/>
      <use xlink:href="#LMMathExtension10-Regular-42" transform="translate(382.715193 57.783647) scale(0.099626)"/>
      <use xlink:href="#LMMathExtension10-Regular-42" transform="translate(382.715193 51.806002) scale(0.099626)"/>
      <use xlink:href="#LMMathExtension10-Regular-42" transform="translate(382.715193 45.828357) scale(0.099626)"/>
      <use xlink:href="#LMMathExtension10-Regular-42" transform="translate(382.715193 39.850712) scale(0.099626)"/>
      <use xlink:href="#LMMathExtension10-Regular-42" transform="translate(382.715193 33.873068) scale(0.099626)"/>
      <use xlink:href="#LMMathExtension10-Regular-42" transform="translate(382.715193 27.895423) scale(0.099626)"/>
      <use xlink:href="#LMMathExtension10-Regular-42" transform="translate(382.715193 21.917778) scale(0.099626)"/>
      <use xlink:href="#LMMathExtension10-Regular-42" transform="translate(382.715193 15.940133) scale(0.099626)"/>
      <use xlink:href="#LMMathExtension10-Regular-42" transform="translate(382.715193 9.962488) scale(0.099626)"/>
      <use xlink:href="#LMMathExtension10-Regular-42" transform="translate(382.715193 3.984843) scale(0.099626)"/>
      <use xlink:href="#LMMathExtension10-Regular-42" transform="translate(382.715193 -1.992802) scale(0.099626)"/>
      <use xlink:href="#LMMathExtension10-Regular-42" transform="translate(382.715193 -7.970447) scale(0.099626)"/>
      <use xlink:href="#LMMathExtension10-Regular-42" transform="translate(382.715193 -13.948091) scale(0.099626)"/>
      <use xlink:href="#LMMathExtension10-Regular-40" transform="translate(382.715193 -20.324221) scale(0.099626)"/>
      <use xlink:href="#LMMathItalic12-Regular-65" transform="translate(392.628032 39.226102) scale(0.697382)"/>
      <use xlink:href="#LMMathItalic12-Regular-64" transform="translate(424.276289 39.226102) scale(0.697382)"/>
      <use xlink:href="#LMMathItalic12-Regular-73" transform="translate(410.110827 -34.355253) scale(0.697382)"/>
      <use xlink:href="#LMMathExtension10-Regular-31" transform="translate(460.954009 87.273372) scale(0.099626)"/>
      <use xlink:href="#LMMathExtension10-Regular-43" transform="translate(460.954009 69.738937) scale(0.099626)"/>
      <use xlink:href="#LMMathExtension10-Regular-43" transform="translate(460.954009 63.761292) scale(0.099626)"/>
      <use xlink:href="#LMMathExtension10-Regular-43" transform="translate(460.954009 57.783647) scale(0.099626)"/>
      <use xlink:href="#LMMathExtension10-Regular-43" transform="translate(460.954009 51.806002) scale(0.099626)"/>
      <use xlink:href="#LMMathExtension10-Regular-43" transform="translate(460.954009 45.828357) scale(0.099626)"/>
      <use xlink:href="#LMMathExtension10-Regular-43" transform="translate(460.954009 39.850712) scale(0.099626)"/>
      <use xlink:href="#LMMathExtension10-Regular-43" transform="translate(460.954009 33.873068) scale(0.099626)"/>
      <use xlink:href="#LMMathExtension10-Regular-43" transform="translate(460.954009 27.895423) scale(0.099626)"/>
      <use xlink:href="#LMMathExtension10-Regular-43" transform="translate(460.954009 21.917778) scale(0.099626)"/>
      <use xlink:href="#LMMathExtension10-Regular-43" transform="translate(460.954009 15.940133) scale(0.099626)"/>
      <use xlink:href="#LMMathExtension10-Regular-43" transform="translate(460.954009 9.962488) scale(0.099626)"/>
      <use xlink:href="#LMMathExtension10-Regular-43" transform="translate(460.954009 3.984843) scale(0.099626)"/>
      <use xlink:href="#LMMathExtension10-Regular-43" transform="translate(460.954009 -1.992802) scale(0.099626)"/>
      <use xlink:href="#LMMathExtension10-Regular-43" transform="translate(460.954009 -7.970447) scale(0.099626)"/>
      <use xlink:href="#LMMathExtension10-Regular-43" transform="translate(460.954009 -13.948091) scale(0.099626)"/>
      <use xlink:href="#LMMathExtension10-Regular-41" transform="translate(460.954009 -20.324221) scale(0.099626)"/>
      <use xlink:href="#LMMathItalic12-Regular-3b" transform="translate(486.27574 0) scale(0.996264)"/>
      <use xlink:href="#LMMathItalic12-Regular-73" transform="translate(560.053471 0) scale(0.996264)"/>
      <use xlink:href="#LMRoman17-Regular-3d" transform="translate(633.677527 0) scale(0.996264)"/>
      <use xlink:href="#LMRoman17-Regular-31" transform="translate(733.067556 0) scale(0.996264)"/>
      <use xlink:href="#LMRoman17-Regular-30" transform="translate(778.758504 0) scale(0.996264)"/>
      <use xlink:href="#LMRoman17-Regular-30" transform="translate(824.449452 0) scale(0.996264)"/>
      <path d="M 392.628032 24.707366 
L 459.758495 24.707366 
L 459.758495 25.10585 
L 392.628032 25.10585 
L 392.628032 24.707366 
z
"/>
     </g>
    </g>
   </g>
  </g>
 </g>
 <defs>
  <clipPath id="p3ab0e7b14a">
   <rect x="51.705387" y="-0" width="334.8" height="221.76"/>
  </clipPath>
 </defs>
</svg>
