<?xml version="1.0" encoding="utf-8" standalone="no"?>
<!DOCTYPE svg PUBLIC "-//W3C//DTD SVG 1.1//EN"
  "http://www.w3.org/Graphics/SVG/1.1/DTD/svg11.dtd">
<svg xmlns:xlink="http://www.w3.org/1999/xlink" width="333.307952pt" height="332.64pt" viewBox="0 0 333.307952 332.64" xmlns="http://www.w3.org/2000/svg" version="1.1">
 <metadata>
  <rdf:RDF xmlns:dc="http://purl.org/dc/elements/1.1/" xmlns:cc="http://creativecommons.org/ns#" xmlns:rdf="http://www.w3.org/1999/02/22-rdf-syntax-ns#">
   <cc:Work>
    <dc:type rdf:resource="http://purl.org/dc/dcmitype/StillImage"/>
    <dc:date>2025-05-31T18:19:29.120455</dc:date>
    <dc:format>image/svg+xml</dc:format>
    <dc:creator>
     <cc:Agent>
      <dc:title>Matplotlib v3.9.2, https://matplotlib.org/</dc:title>
     </cc:Agent>
    </dc:creator>
   </cc:Work>
  </rdf:RDF>
 </metadata>
 <defs>
  <style type="text/css">*{stroke-linejoin: round; stroke-linecap: butt}</style>
 </defs>
 <g id="figure_1">
  <g id="patch_1">
   <path d="M 0 332.64 
L 333.307952 332.64 
L 333.307952 0 
L 0 0 
z
" style="fill: #ffffff"/>
  </g>
  <g id="axes_1">
   <g id="patch_2">
    <path d="M 0 332.64 
L 333.307952 332.64 
L 333.307952 -0 
L 0 -0 
z
" style="fill: #ffffff"/>
   </g>
   <g id="PolyCollection_1">
    <defs>
     <path id="m1495d804f8" d="M 15.150361 -166.32 
L 15.150361 -166.32 
L 15.75759 -166.32 
L 16.364819 -166.32 
L 16.972048 -166.320001 
L 17.579277 -166.320003 
L 18.186506 -166.320006 
L 18.793735 -166.320011 
L 19.400964 -166.320019 
L 20.008193 -166.32003 
L 20.615422 -166.320044 
L 21.222651 -166.320063 
L 21.82988 -166.320087 
L 22.437108 -166.320117 
L 23.044337 -166.320154 
L 23.651566 -166.320198 
L 24.258795 -166.32025 
L 24.866024 -166.320312 
L 25.473253 -166.320384 
L 26.080482 -166.320467 
L 26.687711 -166.320562 
L 27.29494 -166.32067 
L 27.902169 -166.320792 
L 28.509398 -166.32093 
L 29.116627 -166.321084 
L 29.723855 -166.321255 
L 30.331084 -166.321445 
L 30.938313 -166.321656 
L 31.545542 -166.321887 
L 32.152771 -166.322141 
L 32.76 -166.322419 
L 33.367229 -166.322723 
L 33.974458 -166.323053 
L 34.581687 -166.323411 
L 35.188916 -166.3238 
L 35.796145 -166.324219 
L 36.403373 -166.324672 
L 37.010602 -166.325159 
L 37.617831 -166.325682 
L 38.22506 -166.326243 
L 38.832289 -166.326845 
L 39.439518 -166.327487 
L 40.046747 -166.328173 
L 40.653976 -166.328905 
L 41.261205 -166.329684 
L 41.868434 -166.330512 
L 42.475663 -166.331391 
L 43.082892 -166.332324 
L 43.69012 -166.333313 
L 44.297349 -166.33436 
L 44.904578 -166.335467 
L 45.511807 -166.336637 
L 46.119036 -166.337871 
L 46.726265 -166.339173 
L 47.333494 -166.340545 
L 47.940723 -166.34199 
L 48.547952 -166.343509 
L 49.155181 -166.345107 
L 49.76241 -166.346785 
L 50.369639 -166.348547 
L 50.976867 -166.350396 
L 51.584096 -166.352333 
L 52.191325 -166.354364 
L 52.798554 -166.35649 
L 53.405783 -166.358714 
L 54.013012 -166.361041 
L 54.620241 -166.363474 
L 55.22747 -166.366015 
L 55.834699 -166.368669 
L 56.441928 -166.371439 
L 57.049157 -166.374329 
L 57.656386 -166.377343 
L 58.263614 -166.380484 
L 58.870843 -166.383757 
L 59.478072 -166.387165 
L 60.085301 -166.390714 
L 60.69253 -166.394406 
L 61.299759 -166.398247 
L 61.906988 -166.402241 
L 62.514217 -166.406393 
L 63.121446 -166.410707 
L 63.728675 -166.415188 
L 64.335904 -166.419842 
L 64.943133 -166.424673 
L 65.550361 -166.429686 
L 66.15759 -166.434887 
L 66.764819 -166.440282 
L 67.372048 -166.445876 
L 67.979277 -166.451674 
L 68.586506 -166.457684 
L 69.193735 -166.463909 
L 69.800964 -166.470358 
L 70.408193 -166.477036 
L 71.015422 -166.48395 
L 71.622651 -166.491107 
L 72.22988 -166.498513 
L 72.837108 -166.506175 
L 73.444337 -166.514101 
L 74.051566 -166.522298 
L 74.658795 -166.530774 
L 75.266024 -166.539536 
L 75.873253 -166.548593 
L 76.480482 -166.557952 
L 77.087711 -166.567622 
L 77.69494 -166.577613 
L 78.302169 -166.587932 
L 78.909398 -166.598588 
L 79.516627 -166.609592 
L 80.123855 -166.620952 
L 80.731084 -166.632679 
L 81.338313 -166.644783 
L 81.945542 -166.657274 
L 82.552771 -166.670163 
L 83.16 -166.68346 
L 83.767229 -166.697178 
L 84.374458 -166.711327 
L 84.981687 -166.72592 
L 85.588916 -166.740968 
L 86.196145 -166.756485 
L 86.803373 -166.772484 
L 87.410602 -166.788977 
L 88.017831 -166.805978 
L 88.62506 -166.823502 
L 89.232289 -166.841563 
L 89.839518 -166.860176 
L 90.446747 -166.879356 
L 91.053976 -166.899118 
L 91.661205 -166.91948 
L 92.268434 -166.940458 
L 92.875663 -166.96207 
L 93.482892 -166.984332 
L 94.09012 -167.007263 
L 94.697349 -167.030882 
L 95.304578 -167.055209 
L 95.911807 -167.080263 
L 96.519036 -167.106065 
L 97.126265 -167.132636 
L 97.733494 -167.159998 
L 98.340723 -167.188174 
L 98.947952 -167.217187 
L 99.555181 -167.247061 
L 100.16241 -167.277822 
L 100.769639 -167.309493 
L 101.376867 -167.342103 
L 101.984096 -167.375678 
L 102.591325 -167.410246 
L 103.198554 -167.445837 
L 103.805783 -167.482481 
L 104.413012 -167.520209 
L 105.020241 -167.559054 
L 105.62747 -167.599047 
L 106.234699 -167.640225 
L 106.841928 -167.682622 
L 107.449157 -167.726276 
L 108.056386 -167.771225 
L 108.663614 -167.817508 
L 109.270843 -167.865166 
L 109.878072 -167.914242 
L 110.485301 -167.96478 
L 111.09253 -168.016825 
L 111.699759 -168.070426 
L 112.306988 -168.12563 
L 112.914217 -168.18249 
L 113.521446 -168.241058 
L 114.128675 -168.301389 
L 114.735904 -168.36354 
L 115.343133 -168.427571 
L 115.950361 -168.493543 
L 116.55759 -168.561521 
L 117.164819 -168.631572 
L 117.772048 -168.703765 
L 118.379277 -168.778172 
L 118.986506 -168.85487 
L 119.593735 -168.933938 
L 120.200964 -169.015456 
L 120.808193 -169.099512 
L 121.415422 -169.186193 
L 122.022651 -169.275595 
L 122.62988 -169.367814 
L 123.237108 -169.462953 
L 123.844337 -169.561118 
L 124.451566 -169.662421 
L 125.058795 -169.766978 
L 125.666024 -169.874914 
L 126.273253 -169.986355 
L 126.880482 -170.101437 
L 127.487711 -170.220301 
L 128.09494 -170.343096 
L 128.702169 -170.469979 
L 129.309398 -170.601112 
L 129.916627 -170.73667 
L 130.523855 -170.876834 
L 131.131084 -171.021797 
L 131.738313 -171.171761 
L 132.345542 -171.326939 
L 132.952771 -171.487558 
L 133.56 -171.653857 
L 134.167229 -171.826089 
L 134.774458 -172.004522 
L 135.381687 -172.189441 
L 135.988916 -172.381146 
L 136.596145 -172.57996 
L 137.203373 -172.786224 
L 137.810602 -173.000301 
L 138.417831 -173.222579 
L 139.02506 -173.453473 
L 139.632289 -173.693426 
L 140.239518 -173.942911 
L 140.846747 -174.202437 
L 141.453976 -174.472551 
L 142.061205 -174.753838 
L 142.668434 -175.046932 
L 143.275663 -175.352515 
L 143.882892 -175.671324 
L 144.49012 -176.004158 
L 145.097349 -176.351883 
L 145.704578 -176.715443 
L 146.311807 -177.095863 
L 146.919036 -177.494266 
L 147.526265 -177.911879 
L 148.133494 -178.350051 
L 148.740723 -178.810267 
L 149.347952 -179.294166 
L 149.955181 -179.803563 
L 150.56241 -180.340477 
L 151.169639 -180.907158 
L 151.776867 -181.506128 
L 152.384096 -182.140222 
L 152.991325 -182.812643 
L 153.598554 -183.527029 
L 154.205783 -184.28753 
L 154.813012 -185.098914 
L 155.420241 -185.966689 
L 156.02747 -186.897269 
L 156.634699 -187.898177 
L 157.241928 -188.978317 
L 157.849157 -190.148333 
L 158.456386 -191.421091 
L 159.063614 -192.812341 
L 159.670843 -194.341651 
L 160.278072 -196.03374 
L 160.885301 -197.920478 
L 161.49253 -200.043933 
L 162.099759 -202.461275 
L 162.706988 -205.253056 
L 163.314217 -208.53812 
L 163.921446 -212.502883 
L 164.528675 -217.465853 
L 165.135904 -224.046154 
L 165.743133 -233.746244 
L 166.350361 -252.710576 
L 166.95759 -79.929424 
L 167.564819 -98.893756 
L 168.172048 -108.593846 
L 168.779277 -115.174147 
L 169.386506 -120.137117 
L 169.993735 -124.10188 
L 170.600964 -127.386944 
L 171.208193 -130.178725 
L 171.815422 -132.596067 
L 172.422651 -134.719522 
L 173.02988 -136.60626 
L 173.637108 -138.298349 
L 174.244337 -139.827659 
L 174.851566 -141.218909 
L 175.458795 -142.491667 
L 176.066024 -143.661683 
L 176.673253 -144.741823 
L 177.280482 -145.742731 
L 177.887711 -146.673311 
L 178.49494 -147.541086 
L 179.102169 -148.35247 
L 179.709398 -149.112971 
L 180.316627 -149.827357 
L 180.923855 -150.499778 
L 181.531084 -151.133872 
L 182.138313 -151.732842 
L 182.745542 -152.299523 
L 183.352771 -152.836437 
L 183.96 -153.345834 
L 184.567229 -153.829733 
L 185.174458 -154.289949 
L 185.781687 -154.728121 
L 186.388916 -155.145734 
L 186.996145 -155.544137 
L 187.603373 -155.924557 
L 188.210602 -156.288117 
L 188.817831 -156.635842 
L 189.42506 -156.968676 
L 190.032289 -157.287485 
L 190.639518 -157.593068 
L 191.246747 -157.886162 
L 191.853976 -158.167449 
L 192.461205 -158.437563 
L 193.068434 -158.697089 
L 193.675663 -158.946574 
L 194.282892 -159.186527 
L 194.89012 -159.417421 
L 195.497349 -159.639699 
L 196.104578 -159.853776 
L 196.711807 -160.06004 
L 197.319036 -160.258854 
L 197.926265 -160.450559 
L 198.533494 -160.635478 
L 199.140723 -160.813911 
L 199.747952 -160.986143 
L 200.355181 -161.152442 
L 200.96241 -161.313061 
L 201.569639 -161.468239 
L 202.176867 -161.618203 
L 202.784096 -161.763166 
L 203.391325 -161.90333 
L 203.998554 -162.038888 
L 204.605783 -162.170021 
L 205.213012 -162.296904 
L 205.820241 -162.419699 
L 206.42747 -162.538563 
L 207.034699 -162.653645 
L 207.641928 -162.765086 
L 208.249157 -162.873022 
L 208.856386 -162.977579 
L 209.463614 -163.078882 
L 210.070843 -163.177047 
L 210.678072 -163.272186 
L 211.285301 -163.364405 
L 211.89253 -163.453807 
L 212.499759 -163.540488 
L 213.106988 -163.624544 
L 213.714217 -163.706062 
L 214.321446 -163.78513 
L 214.928675 -163.861828 
L 215.535904 -163.936235 
L 216.143133 -164.008428 
L 216.750361 -164.078479 
L 217.35759 -164.146457 
L 217.964819 -164.212429 
L 218.572048 -164.27646 
L 219.179277 -164.338611 
L 219.786506 -164.398942 
L 220.393735 -164.45751 
L 221.000964 -164.51437 
L 221.608193 -164.569574 
L 222.215422 -164.623175 
L 222.822651 -164.67522 
L 223.42988 -164.725758 
L 224.037108 -164.774834 
L 224.644337 -164.822492 
L 225.251566 -164.868775 
L 225.858795 -164.913724 
L 226.466024 -164.957378 
L 227.073253 -164.999775 
L 227.680482 -165.040953 
L 228.287711 -165.080946 
L 228.89494 -165.119791 
L 229.502169 -165.157519 
L 230.109398 -165.194163 
L 230.716627 -165.229754 
L 231.323855 -165.264322 
L 231.931084 -165.297897 
L 232.538313 -165.330507 
L 233.145542 -165.362178 
L 233.752771 -165.392939 
L 234.36 -165.422813 
L 234.967229 -165.451826 
L 235.574458 -165.480002 
L 236.181687 -165.507364 
L 236.788916 -165.533935 
L 237.396145 -165.559737 
L 238.003373 -165.584791 
L 238.610602 -165.609118 
L 239.217831 -165.632737 
L 239.82506 -165.655668 
L 240.432289 -165.67793 
L 241.039518 -165.699542 
L 241.646747 -165.72052 
L 242.253976 -165.740882 
L 242.861205 -165.760644 
L 243.468434 -165.779824 
L 244.075663 -165.798437 
L 244.682892 -165.816498 
L 245.29012 -165.834022 
L 245.897349 -165.851023 
L 246.504578 -165.867516 
L 247.111807 -165.883515 
L 247.719036 -165.899032 
L 248.326265 -165.91408 
L 248.933494 -165.928673 
L 249.540723 -165.942822 
L 250.147952 -165.95654 
L 250.755181 -165.969837 
L 251.36241 -165.982726 
L 251.969639 -165.995217 
L 252.576867 -166.007321 
L 253.184096 -166.019048 
L 253.791325 -166.030408 
L 254.398554 -166.041412 
L 255.005783 -166.052068 
L 255.613012 -166.062387 
L 256.220241 -166.072378 
L 256.82747 -166.082048 
L 257.434699 -166.091407 
L 258.041928 -166.100464 
L 258.649157 -166.109226 
L 259.256386 -166.117702 
L 259.863614 -166.125899 
L 260.470843 -166.133825 
L 261.078072 -166.141487 
L 261.685301 -166.148893 
L 262.29253 -166.15605 
L 262.899759 -166.162964 
L 263.506988 -166.169642 
L 264.114217 -166.176091 
L 264.721446 -166.182316 
L 265.328675 -166.188326 
L 265.935904 -166.194124 
L 266.543133 -166.199718 
L 267.150361 -166.205113 
L 267.75759 -166.210314 
L 268.364819 -166.215327 
L 268.972048 -166.220158 
L 269.579277 -166.224812 
L 270.186506 -166.229293 
L 270.793735 -166.233607 
L 271.400964 -166.237759 
L 272.008193 -166.241753 
L 272.615422 -166.245594 
L 273.222651 -166.249286 
L 273.82988 -166.252835 
L 274.437108 -166.256243 
L 275.044337 -166.259516 
L 275.651566 -166.262657 
L 276.258795 -166.265671 
L 276.866024 -166.268561 
L 277.473253 -166.271331 
L 278.080482 -166.273985 
L 278.687711 -166.276526 
L 279.29494 -166.278959 
L 279.902169 -166.281286 
L 280.509398 -166.28351 
L 281.116627 -166.285636 
L 281.723855 -166.287667 
L 282.331084 -166.289604 
L 282.938313 -166.291453 
L 283.545542 -166.293215 
L 284.152771 -166.294893 
L 284.76 -166.296491 
L 285.367229 -166.29801 
L 285.974458 -166.299455 
L 286.581687 -166.300827 
L 287.188916 -166.302129 
L 287.796145 -166.303363 
L 288.403373 -166.304533 
L 289.010602 -166.30564 
L 289.617831 -166.306687 
L 290.22506 -166.307676 
L 290.832289 -166.308609 
L 291.439518 -166.309488 
L 292.046747 -166.310316 
L 292.653976 -166.311095 
L 293.261205 -166.311827 
L 293.868434 -166.312513 
L 294.475663 -166.313155 
L 295.082892 -166.313757 
L 295.69012 -166.314318 
L 296.297349 -166.314841 
L 296.904578 -166.315328 
L 297.511807 -166.315781 
L 298.119036 -166.3162 
L 298.726265 -166.316589 
L 299.333494 -166.316947 
L 299.940723 -166.317277 
L 300.547952 -166.317581 
L 301.155181 -166.317859 
L 301.76241 -166.318113 
L 302.369639 -166.318344 
L 302.976867 -166.318555 
L 303.584096 -166.318745 
L 304.191325 -166.318916 
L 304.798554 -166.31907 
L 305.405783 -166.319208 
L 306.013012 -166.31933 
L 306.620241 -166.319438 
L 307.22747 -166.319533 
L 307.834699 -166.319616 
L 308.441928 -166.319688 
L 309.049157 -166.31975 
L 309.656386 -166.319802 
L 310.263614 -166.319846 
L 310.870843 -166.319883 
L 311.478072 -166.319913 
L 312.085301 -166.319937 
L 312.69253 -166.319956 
L 313.299759 -166.31997 
L 313.906988 -166.319981 
L 314.514217 -166.319989 
L 315.121446 -166.319994 
L 315.728675 -166.319997 
L 316.335904 -166.319999 
L 316.943133 -166.32 
L 317.550361 -166.32 
L 318.15759 -166.32 
L 318.15759 -166.32 
L 318.15759 -166.32 
L 317.550361 -166.32 
L 316.943133 -166.32 
L 316.335904 -166.320001 
L 315.728675 -166.320003 
L 315.121446 -166.320006 
L 314.514217 -166.320011 
L 313.906988 -166.320019 
L 313.299759 -166.32003 
L 312.69253 -166.320044 
L 312.085301 -166.320063 
L 311.478072 -166.320087 
L 310.870843 -166.320117 
L 310.263614 -166.320154 
L 309.656386 -166.320198 
L 309.049157 -166.32025 
L 308.441928 -166.320312 
L 307.834699 -166.320384 
L 307.22747 -166.320467 
L 306.620241 -166.320562 
L 306.013012 -166.32067 
L 305.405783 -166.320792 
L 304.798554 -166.32093 
L 304.191325 -166.321084 
L 303.584096 -166.321255 
L 302.976867 -166.321445 
L 302.369639 -166.321656 
L 301.76241 -166.321887 
L 301.155181 -166.322141 
L 300.547952 -166.322419 
L 299.940723 -166.322723 
L 299.333494 -166.323053 
L 298.726265 -166.323411 
L 298.119036 -166.3238 
L 297.511807 -166.324219 
L 296.904578 -166.324672 
L 296.297349 -166.325159 
L 295.69012 -166.325682 
L 295.082892 -166.326243 
L 294.475663 -166.326845 
L 293.868434 -166.327487 
L 293.261205 -166.328173 
L 292.653976 -166.328905 
L 292.046747 -166.329684 
L 291.439518 -166.330512 
L 290.832289 -166.331391 
L 290.22506 -166.332324 
L 289.617831 -166.333313 
L 289.010602 -166.33436 
L 288.403373 -166.335467 
L 287.796145 -166.336637 
L 287.188916 -166.337871 
L 286.581687 -166.339173 
L 285.974458 -166.340545 
L 285.367229 -166.34199 
L 284.76 -166.343509 
L 284.152771 -166.345107 
L 283.545542 -166.346785 
L 282.938313 -166.348547 
L 282.331084 -166.350396 
L 281.723855 -166.352333 
L 281.116627 -166.354364 
L 280.509398 -166.35649 
L 279.902169 -166.358714 
L 279.29494 -166.361041 
L 278.687711 -166.363474 
L 278.080482 -166.366015 
L 277.473253 -166.368669 
L 276.866024 -166.371439 
L 276.258795 -166.374329 
L 275.651566 -166.377343 
L 275.044337 -166.380484 
L 274.437108 -166.383757 
L 273.82988 -166.387165 
L 273.222651 -166.390714 
L 272.615422 -166.394406 
L 272.008193 -166.398247 
L 271.400964 -166.402241 
L 270.793735 -166.406393 
L 270.186506 -166.410707 
L 269.579277 -166.415188 
L 268.972048 -166.419842 
L 268.364819 -166.424673 
L 267.75759 -166.429686 
L 267.150361 -166.434887 
L 266.543133 -166.440282 
L 265.935904 -166.445876 
L 265.328675 -166.451674 
L 264.721446 -166.457684 
L 264.114217 -166.463909 
L 263.506988 -166.470358 
L 262.899759 -166.477036 
L 262.29253 -166.48395 
L 261.685301 -166.491107 
L 261.078072 -166.498513 
L 260.470843 -166.506175 
L 259.863614 -166.514101 
L 259.256386 -166.522298 
L 258.649157 -166.530774 
L 258.041928 -166.539536 
L 257.434699 -166.548593 
L 256.82747 -166.557952 
L 256.220241 -166.567622 
L 255.613012 -166.577613 
L 255.005783 -166.587932 
L 254.398554 -166.598588 
L 253.791325 -166.609592 
L 253.184096 -166.620952 
L 252.576867 -166.632679 
L 251.969639 -166.644783 
L 251.36241 -166.657274 
L 250.755181 -166.670163 
L 250.147952 -166.68346 
L 249.540723 -166.697178 
L 248.933494 -166.711327 
L 248.326265 -166.72592 
L 247.719036 -166.740968 
L 247.111807 -166.756485 
L 246.504578 -166.772484 
L 245.897349 -166.788977 
L 245.29012 -166.805978 
L 244.682892 -166.823502 
L 244.075663 -166.841563 
L 243.468434 -166.860176 
L 242.861205 -166.879356 
L 242.253976 -166.899118 
L 241.646747 -166.91948 
L 241.039518 -166.940458 
L 240.432289 -166.96207 
L 239.82506 -166.984332 
L 239.217831 -167.007263 
L 238.610602 -167.030882 
L 238.003373 -167.055209 
L 237.396145 -167.080263 
L 236.788916 -167.106065 
L 236.181687 -167.132636 
L 235.574458 -167.159998 
L 234.967229 -167.188174 
L 234.36 -167.217187 
L 233.752771 -167.247061 
L 233.145542 -167.277822 
L 232.538313 -167.309493 
L 231.931084 -167.342103 
L 231.323855 -167.375678 
L 230.716627 -167.410246 
L 230.109398 -167.445837 
L 229.502169 -167.482481 
L 228.89494 -167.520209 
L 228.287711 -167.559054 
L 227.680482 -167.599047 
L 227.073253 -167.640225 
L 226.466024 -167.682622 
L 225.858795 -167.726276 
L 225.251566 -167.771225 
L 224.644337 -167.817508 
L 224.037108 -167.865166 
L 223.42988 -167.914242 
L 222.822651 -167.96478 
L 222.215422 -168.016825 
L 221.608193 -168.070426 
L 221.000964 -168.12563 
L 220.393735 -168.18249 
L 219.786506 -168.241058 
L 219.179277 -168.301389 
L 218.572048 -168.36354 
L 217.964819 -168.427571 
L 217.35759 -168.493543 
L 216.750361 -168.561521 
L 216.143133 -168.631572 
L 215.535904 -168.703765 
L 214.928675 -168.778172 
L 214.321446 -168.85487 
L 213.714217 -168.933938 
L 213.106988 -169.015456 
L 212.499759 -169.099512 
L 211.89253 -169.186193 
L 211.285301 -169.275595 
L 210.678072 -169.367814 
L 210.070843 -169.462953 
L 209.463614 -169.561118 
L 208.856386 -169.662421 
L 208.249157 -169.766978 
L 207.641928 -169.874914 
L 207.034699 -169.986355 
L 206.42747 -170.101437 
L 205.820241 -170.220301 
L 205.213012 -170.343096 
L 204.605783 -170.469979 
L 203.998554 -170.601112 
L 203.391325 -170.73667 
L 202.784096 -170.876834 
L 202.176867 -171.021797 
L 201.569639 -171.171761 
L 200.96241 -171.326939 
L 200.355181 -171.487558 
L 199.747952 -171.653857 
L 199.140723 -171.826089 
L 198.533494 -172.004522 
L 197.926265 -172.189441 
L 197.319036 -172.381146 
L 196.711807 -172.57996 
L 196.104578 -172.786224 
L 195.497349 -173.000301 
L 194.89012 -173.222579 
L 194.282892 -173.453473 
L 193.675663 -173.693426 
L 193.068434 -173.942911 
L 192.461205 -174.202437 
L 191.853976 -174.472551 
L 191.246747 -174.753838 
L 190.639518 -175.046932 
L 190.032289 -175.352515 
L 189.42506 -175.671324 
L 188.817831 -176.004158 
L 188.210602 -176.351883 
L 187.603373 -176.715443 
L 186.996145 -177.095863 
L 186.388916 -177.494266 
L 185.781687 -177.911879 
L 185.174458 -178.350051 
L 184.567229 -178.810267 
L 183.96 -179.294166 
L 183.352771 -179.803563 
L 182.745542 -180.340477 
L 182.138313 -180.907158 
L 181.531084 -181.506128 
L 180.923855 -182.140222 
L 180.316627 -182.812643 
L 179.709398 -183.527029 
L 179.102169 -184.28753 
L 178.49494 -185.098914 
L 177.887711 -185.966689 
L 177.280482 -186.897269 
L 176.673253 -187.898177 
L 176.066024 -188.978317 
L 175.458795 -190.148333 
L 174.851566 -191.421091 
L 174.244337 -192.812341 
L 173.637108 -194.341651 
L 173.02988 -196.03374 
L 172.422651 -197.920478 
L 171.815422 -200.043933 
L 171.208193 -202.461275 
L 170.600964 -205.253056 
L 169.993735 -208.53812 
L 169.386506 -212.502883 
L 168.779277 -217.465853 
L 168.172048 -224.046154 
L 167.564819 -233.746244 
L 166.95759 -252.710576 
L 166.350361 -79.929424 
L 165.743133 -98.893756 
L 165.135904 -108.593846 
L 164.528675 -115.174147 
L 163.921446 -120.137117 
L 163.314217 -124.10188 
L 162.706988 -127.386944 
L 162.099759 -130.178725 
L 161.49253 -132.596067 
L 160.885301 -134.719522 
L 160.278072 -136.60626 
L 159.670843 -138.298349 
L 159.063614 -139.827659 
L 158.456386 -141.218909 
L 157.849157 -142.491667 
L 157.241928 -143.661683 
L 156.634699 -144.741823 
L 156.02747 -145.742731 
L 155.420241 -146.673311 
L 154.813012 -147.541086 
L 154.205783 -148.35247 
L 153.598554 -149.112971 
L 152.991325 -149.827357 
L 152.384096 -150.499778 
L 151.776867 -151.133872 
L 151.169639 -151.732842 
L 150.56241 -152.299523 
L 149.955181 -152.836437 
L 149.347952 -153.345834 
L 148.740723 -153.829733 
L 148.133494 -154.289949 
L 147.526265 -154.728121 
L 146.919036 -155.145734 
L 146.311807 -155.544137 
L 145.704578 -155.924557 
L 145.097349 -156.288117 
L 144.49012 -156.635842 
L 143.882892 -156.968676 
L 143.275663 -157.287485 
L 142.668434 -157.593068 
L 142.061205 -157.886162 
L 141.453976 -158.167449 
L 140.846747 -158.437563 
L 140.239518 -158.697089 
L 139.632289 -158.946574 
L 139.02506 -159.186527 
L 138.417831 -159.417421 
L 137.810602 -159.639699 
L 137.203373 -159.853776 
L 136.596145 -160.06004 
L 135.988916 -160.258854 
L 135.381687 -160.450559 
L 134.774458 -160.635478 
L 134.167229 -160.813911 
L 133.56 -160.986143 
L 132.952771 -161.152442 
L 132.345542 -161.313061 
L 131.738313 -161.468239 
L 131.131084 -161.618203 
L 130.523855 -161.763166 
L 129.916627 -161.90333 
L 129.309398 -162.038888 
L 128.702169 -162.170021 
L 128.09494 -162.296904 
L 127.487711 -162.419699 
L 126.880482 -162.538563 
L 126.273253 -162.653645 
L 125.666024 -162.765086 
L 125.058795 -162.873022 
L 124.451566 -162.977579 
L 123.844337 -163.078882 
L 123.237108 -163.177047 
L 122.62988 -163.272186 
L 122.022651 -163.364405 
L 121.415422 -163.453807 
L 120.808193 -163.540488 
L 120.200964 -163.624544 
L 119.593735 -163.706062 
L 118.986506 -163.78513 
L 118.379277 -163.861828 
L 117.772048 -163.936235 
L 117.164819 -164.008428 
L 116.55759 -164.078479 
L 115.950361 -164.146457 
L 115.343133 -164.212429 
L 114.735904 -164.27646 
L 114.128675 -164.338611 
L 113.521446 -164.398942 
L 112.914217 -164.45751 
L 112.306988 -164.51437 
L 111.699759 -164.569574 
L 111.09253 -164.623175 
L 110.485301 -164.67522 
L 109.878072 -164.725758 
L 109.270843 -164.774834 
L 108.663614 -164.822492 
L 108.056386 -164.868775 
L 107.449157 -164.913724 
L 106.841928 -164.957378 
L 106.234699 -164.999775 
L 105.62747 -165.040953 
L 105.020241 -165.080946 
L 104.413012 -165.119791 
L 103.805783 -165.157519 
L 103.198554 -165.194163 
L 102.591325 -165.229754 
L 101.984096 -165.264322 
L 101.376867 -165.297897 
L 100.769639 -165.330507 
L 100.16241 -165.362178 
L 99.555181 -165.392939 
L 98.947952 -165.422813 
L 98.340723 -165.451826 
L 97.733494 -165.480002 
L 97.126265 -165.507364 
L 96.519036 -165.533935 
L 95.911807 -165.559737 
L 95.304578 -165.584791 
L 94.697349 -165.609118 
L 94.09012 -165.632737 
L 93.482892 -165.655668 
L 92.875663 -165.67793 
L 92.268434 -165.699542 
L 91.661205 -165.72052 
L 91.053976 -165.740882 
L 90.446747 -165.760644 
L 89.839518 -165.779824 
L 89.232289 -165.798437 
L 88.62506 -165.816498 
L 88.017831 -165.834022 
L 87.410602 -165.851023 
L 86.803373 -165.867516 
L 86.196145 -165.883515 
L 85.588916 -165.899032 
L 84.981687 -165.91408 
L 84.374458 -165.928673 
L 83.767229 -165.942822 
L 83.16 -165.95654 
L 82.552771 -165.969837 
L 81.945542 -165.982726 
L 81.338313 -165.995217 
L 80.731084 -166.007321 
L 80.123855 -166.019048 
L 79.516627 -166.030408 
L 78.909398 -166.041412 
L 78.302169 -166.052068 
L 77.69494 -166.062387 
L 77.087711 -166.072378 
L 76.480482 -166.082048 
L 75.873253 -166.091407 
L 75.266024 -166.100464 
L 74.658795 -166.109226 
L 74.051566 -166.117702 
L 73.444337 -166.125899 
L 72.837108 -166.133825 
L 72.22988 -166.141487 
L 71.622651 -166.148893 
L 71.015422 -166.15605 
L 70.408193 -166.162964 
L 69.800964 -166.169642 
L 69.193735 -166.176091 
L 68.586506 -166.182316 
L 67.979277 -166.188326 
L 67.372048 -166.194124 
L 66.764819 -166.199718 
L 66.15759 -166.205113 
L 65.550361 -166.210314 
L 64.943133 -166.215327 
L 64.335904 -166.220158 
L 63.728675 -166.224812 
L 63.121446 -166.229293 
L 62.514217 -166.233607 
L 61.906988 -166.237759 
L 61.299759 -166.241753 
L 60.69253 -166.245594 
L 60.085301 -166.249286 
L 59.478072 -166.252835 
L 58.870843 -166.256243 
L 58.263614 -166.259516 
L 57.656386 -166.262657 
L 57.049157 -166.265671 
L 56.441928 -166.268561 
L 55.834699 -166.271331 
L 55.22747 -166.273985 
L 54.620241 -166.276526 
L 54.013012 -166.278959 
L 53.405783 -166.281286 
L 52.798554 -166.28351 
L 52.191325 -166.285636 
L 51.584096 -166.287667 
L 50.976867 -166.289604 
L 50.369639 -166.291453 
L 49.76241 -166.293215 
L 49.155181 -166.294893 
L 48.547952 -166.296491 
L 47.940723 -166.29801 
L 47.333494 -166.299455 
L 46.726265 -166.300827 
L 46.119036 -166.302129 
L 45.511807 -166.303363 
L 44.904578 -166.304533 
L 44.297349 -166.30564 
L 43.69012 -166.306687 
L 43.082892 -166.307676 
L 42.475663 -166.308609 
L 41.868434 -166.309488 
L 41.261205 -166.310316 
L 40.653976 -166.311095 
L 40.046747 -166.311827 
L 39.439518 -166.312513 
L 38.832289 -166.313155 
L 38.22506 -166.313757 
L 37.617831 -166.314318 
L 37.010602 -166.314841 
L 36.403373 -166.315328 
L 35.796145 -166.315781 
L 35.188916 -166.3162 
L 34.581687 -166.316589 
L 33.974458 -166.316947 
L 33.367229 -166.317277 
L 32.76 -166.317581 
L 32.152771 -166.317859 
L 31.545542 -166.318113 
L 30.938313 -166.318344 
L 30.331084 -166.318555 
L 29.723855 -166.318745 
L 29.116627 -166.318916 
L 28.509398 -166.31907 
L 27.902169 -166.319208 
L 27.29494 -166.31933 
L 26.687711 -166.319438 
L 26.080482 -166.319533 
L 25.473253 -166.319616 
L 24.866024 -166.319688 
L 24.258795 -166.31975 
L 23.651566 -166.319802 
L 23.044337 -166.319846 
L 22.437108 -166.319883 
L 21.82988 -166.319913 
L 21.222651 -166.319937 
L 20.615422 -166.319956 
L 20.008193 -166.31997 
L 19.400964 -166.319981 
L 18.793735 -166.319989 
L 18.186506 -166.319994 
L 17.579277 -166.319997 
L 16.972048 -166.319999 
L 16.364819 -166.32 
L 15.75759 -166.32 
L 15.150361 -166.32 
z
" style="stroke: #a52a2a; stroke-opacity: 0.4"/>
    </defs>
    <g clip-path="url(#pd5581d5040)">
     <use xlink:href="#m1495d804f8" x="0" y="332.64" style="fill: #a52a2a; fill-opacity: 0.4; stroke: #a52a2a; stroke-opacity: 0.4"/>
    </g>
   </g>
   <g id="PolyCollection_2">
    <defs>
     <path id="mf85fbf5bdf" d="M 15.150361 -166.32 
L 15.150361 -166.32 
L 15.75759 -166.32061 
L 16.364819 -166.322444 
L 16.972048 -166.325509 
L 17.579277 -166.329814 
L 18.186506 -166.335365 
L 18.793735 -166.342171 
L 19.400964 -166.35024 
L 20.008193 -166.359578 
L 20.615422 -166.370194 
L 21.222651 -166.382095 
L 21.82988 -166.395291 
L 22.437108 -166.409789 
L 23.044337 -166.425597 
L 23.651566 -166.442723 
L 24.258795 -166.461177 
L 24.866024 -166.480966 
L 25.473253 -166.502099 
L 26.080482 -166.524585 
L 26.687711 -166.548433 
L 27.29494 -166.573651 
L 27.902169 -166.600248 
L 28.509398 -166.628234 
L 29.116627 -166.657617 
L 29.723855 -166.688408 
L 30.331084 -166.720614 
L 30.938313 -166.754247 
L 31.545542 -166.789314 
L 32.152771 -166.825827 
L 32.76 -166.863794 
L 33.367229 -166.903226 
L 33.974458 -166.944133 
L 34.581687 -166.986525 
L 35.188916 -167.030411 
L 35.796145 -167.075804 
L 36.403373 -167.122712 
L 37.010602 -167.171147 
L 37.617831 -167.221119 
L 38.22506 -167.272639 
L 38.832289 -167.325718 
L 39.439518 -167.380368 
L 40.046747 -167.436599 
L 40.653976 -167.494424 
L 41.261205 -167.553852 
L 41.868434 -167.614897 
L 42.475663 -167.67757 
L 43.082892 -167.741883 
L 43.69012 -167.807848 
L 44.297349 -167.875477 
L 44.904578 -167.944782 
L 45.511807 -168.015777 
L 46.119036 -168.088474 
L 46.726265 -168.162886 
L 47.333494 -168.239025 
L 47.940723 -168.316906 
L 48.547952 -168.396541 
L 49.155181 -168.477944 
L 49.76241 -168.561129 
L 50.369639 -168.64611 
L 50.976867 -168.7329 
L 51.584096 -168.821514 
L 52.191325 -168.911966 
L 52.798554 -169.004272 
L 53.405783 -169.098446 
L 54.013012 -169.194502 
L 54.620241 -169.292457 
L 55.22747 -169.392325 
L 55.834699 -169.494123 
L 56.441928 -169.597866 
L 57.049157 -169.70357 
L 57.656386 -169.811252 
L 58.263614 -169.920929 
L 58.870843 -170.032616 
L 59.478072 -170.146331 
L 60.085301 -170.262091 
L 60.69253 -170.379914 
L 61.299759 -170.499818 
L 61.906988 -170.62182 
L 62.514217 -170.745939 
L 63.121446 -170.872193 
L 63.728675 -171.000601 
L 64.335904 -171.131183 
L 64.943133 -171.263957 
L 65.550361 -171.398943 
L 66.15759 -171.536162 
L 66.764819 -171.675633 
L 67.372048 -171.817378 
L 67.979277 -171.961416 
L 68.586506 -172.10777 
L 69.193735 -172.25646 
L 69.800964 -172.407508 
L 70.408193 -172.560938 
L 71.015422 -172.716771 
L 71.622651 -172.87503 
L 72.22988 -173.035739 
L 72.837108 -173.198921 
L 73.444337 -173.3646 
L 74.051566 -173.532801 
L 74.658795 -173.703549 
L 75.266024 -173.876868 
L 75.873253 -174.052785 
L 76.480482 -174.231326 
L 77.087711 -174.412517 
L 77.69494 -174.596385 
L 78.302169 -174.782957 
L 78.909398 -174.972263 
L 79.516627 -175.164329 
L 80.123855 -175.359185 
L 80.731084 -175.55686 
L 81.338313 -175.757385 
L 81.945542 -175.960789 
L 82.552771 -176.167104 
L 83.16 -176.376361 
L 83.767229 -176.588593 
L 84.374458 -176.803832 
L 84.981687 -177.022112 
L 85.588916 -177.243466 
L 86.196145 -177.467929 
L 86.803373 -177.695537 
L 87.410602 -177.926325 
L 88.017831 -178.16033 
L 88.62506 -178.39759 
L 89.232289 -178.638142 
L 89.839518 -178.882025 
L 90.446747 -179.129279 
L 91.053976 -179.379944 
L 91.661205 -179.634061 
L 92.268434 -179.891673 
L 92.875663 -180.152822 
L 93.482892 -180.417551 
L 94.09012 -180.685907 
L 94.697349 -180.957934 
L 95.304578 -181.233678 
L 95.911807 -181.513188 
L 96.519036 -181.796512 
L 97.126265 -182.0837 
L 97.733494 -182.374802 
L 98.340723 -182.66987 
L 98.947952 -182.968958 
L 99.555181 -183.272118 
L 100.16241 -183.579408 
L 100.769639 -183.890883 
L 101.376867 -184.206602 
L 101.984096 -184.526623 
L 102.591325 -184.851008 
L 103.198554 -185.179819 
L 103.805783 -185.513119 
L 104.413012 -185.850974 
L 105.020241 -186.193451 
L 105.62747 -186.540617 
L 106.234699 -186.892544 
L 106.841928 -187.249303 
L 107.449157 -187.610968 
L 108.056386 -187.977614 
L 108.663614 -188.349319 
L 109.270843 -188.726164 
L 109.878072 -189.108229 
L 110.485301 -189.495598 
L 111.09253 -189.888359 
L 111.699759 -190.286599 
L 112.306988 -190.690409 
L 112.914217 -191.099884 
L 113.521446 -191.51512 
L 114.128675 -191.936215 
L 114.735904 -192.363271 
L 115.343133 -192.796394 
L 115.950361 -193.235691 
L 116.55759 -193.681273 
L 117.164819 -194.133256 
L 117.772048 -194.591757 
L 118.379277 -195.056899 
L 118.986506 -195.528806 
L 119.593735 -196.00761 
L 120.200964 -196.493442 
L 120.808193 -196.986443 
L 121.415422 -197.486754 
L 122.022651 -197.994524 
L 122.62988 -198.509905 
L 123.237108 -199.033055 
L 123.844337 -199.564138 
L 124.451566 -200.103323 
L 125.058795 -200.650786 
L 125.666024 -201.206708 
L 126.273253 -201.771279 
L 126.880482 -202.344693 
L 127.487711 -202.927156 
L 128.09494 -203.518877 
L 128.702169 -204.120076 
L 129.309398 -204.730982 
L 129.916627 -205.351833 
L 130.523855 -205.982875 
L 131.131084 -206.624368 
L 131.738313 -207.27658 
L 132.345542 -207.939792 
L 132.952771 -208.614297 
L 133.56 -209.300403 
L 134.167229 -209.998429 
L 134.774458 -210.708712 
L 135.381687 -211.431604 
L 135.988916 -212.167474 
L 136.596145 -212.916708 
L 137.203373 -213.679715 
L 137.810602 -214.456923 
L 138.417831 -215.248781 
L 139.02506 -216.055767 
L 139.632289 -216.87838 
L 140.239518 -217.717152 
L 140.846747 -218.572642 
L 141.453976 -219.445443 
L 142.061205 -220.336187 
L 142.668434 -221.245541 
L 143.275663 -222.174217 
L 143.882892 -223.122973 
L 144.49012 -224.092617 
L 145.097349 -225.084015 
L 145.704578 -226.098091 
L 146.311807 -227.13584 
L 146.919036 -228.198329 
L 147.526265 -229.28671 
L 148.133494 -230.402226 
L 148.740723 -231.546223 
L 149.347952 -232.720162 
L 149.955181 -233.925634 
L 150.56241 -235.164374 
L 151.169639 -236.438285 
L 151.776867 -237.749457 
L 152.384096 -239.100197 
L 152.991325 -240.493058 
L 153.598554 -241.930881 
L 154.205783 -243.416843 
L 154.813012 -244.954512 
L 155.420241 -246.547921 
L 156.02747 -248.201655 
L 156.634699 -249.920964 
L 157.241928 -251.71191 
L 157.849157 -253.581546 
L 158.456386 -255.538169 
L 159.063614 -257.591643 
L 159.670843 -259.753851 
L 160.278072 -262.039324 
L 160.885301 -264.466151 
L 161.49253 -267.057332 
L 162.099759 -269.842879 
L 162.706988 -272.863223 
L 163.314217 -276.175128 
L 163.921446 -279.862745 
L 164.528675 -284.060711 
L 165.135904 -289.010618 
L 165.743133 -295.240113 
L 166.350361 -304.562762 
L 166.95759 -28.077238 
L 167.564819 -37.399887 
L 168.172048 -43.629382 
L 168.779277 -48.579289 
L 169.386506 -52.777255 
L 169.993735 -56.464872 
L 170.600964 -59.776777 
L 171.208193 -62.797121 
L 171.815422 -65.582668 
L 172.422651 -68.173849 
L 173.02988 -70.600676 
L 173.637108 -72.886149 
L 174.244337 -75.048357 
L 174.851566 -77.101831 
L 175.458795 -79.058454 
L 176.066024 -80.92809 
L 176.673253 -82.719036 
L 177.280482 -84.438345 
L 177.887711 -86.092079 
L 178.49494 -87.685488 
L 179.102169 -89.223157 
L 179.709398 -90.709119 
L 180.316627 -92.146942 
L 180.923855 -93.539803 
L 181.531084 -94.890543 
L 182.138313 -96.201715 
L 182.745542 -97.475626 
L 183.352771 -98.714366 
L 183.96 -99.919838 
L 184.567229 -101.093777 
L 185.174458 -102.237774 
L 185.781687 -103.35329 
L 186.388916 -104.441671 
L 186.996145 -105.50416 
L 187.603373 -106.541909 
L 188.210602 -107.555985 
L 188.817831 -108.547383 
L 189.42506 -109.517027 
L 190.032289 -110.465783 
L 190.639518 -111.394459 
L 191.246747 -112.303813 
L 191.853976 -113.194557 
L 192.461205 -114.067358 
L 193.068434 -114.922848 
L 193.675663 -115.76162 
L 194.282892 -116.584233 
L 194.89012 -117.391219 
L 195.497349 -118.183077 
L 196.104578 -118.960285 
L 196.711807 -119.723292 
L 197.319036 -120.472526 
L 197.926265 -121.208396 
L 198.533494 -121.931288 
L 199.140723 -122.641571 
L 199.747952 -123.339597 
L 200.355181 -124.025703 
L 200.96241 -124.700208 
L 201.569639 -125.36342 
L 202.176867 -126.015632 
L 202.784096 -126.657125 
L 203.391325 -127.288167 
L 203.998554 -127.909018 
L 204.605783 -128.519924 
L 205.213012 -129.121123 
L 205.820241 -129.712844 
L 206.42747 -130.295307 
L 207.034699 -130.868721 
L 207.641928 -131.433292 
L 208.249157 -131.989214 
L 208.856386 -132.536677 
L 209.463614 -133.075862 
L 210.070843 -133.606945 
L 210.678072 -134.130095 
L 211.285301 -134.645476 
L 211.89253 -135.153246 
L 212.499759 -135.653557 
L 213.106988 -136.146558 
L 213.714217 -136.63239 
L 214.321446 -137.111194 
L 214.928675 -137.583101 
L 215.535904 -138.048243 
L 216.143133 -138.506744 
L 216.750361 -138.958727 
L 217.35759 -139.404309 
L 217.964819 -139.843606 
L 218.572048 -140.276729 
L 219.179277 -140.703785 
L 219.786506 -141.12488 
L 220.393735 -141.540116 
L 221.000964 -141.949591 
L 221.608193 -142.353401 
L 222.215422 -142.751641 
L 222.822651 -143.144402 
L 223.42988 -143.531771 
L 224.037108 -143.913836 
L 224.644337 -144.290681 
L 225.251566 -144.662386 
L 225.858795 -145.029032 
L 226.466024 -145.390697 
L 227.073253 -145.747456 
L 227.680482 -146.099383 
L 228.287711 -146.446549 
L 228.89494 -146.789026 
L 229.502169 -147.126881 
L 230.109398 -147.460181 
L 230.716627 -147.788992 
L 231.323855 -148.113377 
L 231.931084 -148.433398 
L 232.538313 -148.749117 
L 233.145542 -149.060592 
L 233.752771 -149.367882 
L 234.36 -149.671042 
L 234.967229 -149.97013 
L 235.574458 -150.265198 
L 236.181687 -150.5563 
L 236.788916 -150.843488 
L 237.396145 -151.126812 
L 238.003373 -151.406322 
L 238.610602 -151.682066 
L 239.217831 -151.954093 
L 239.82506 -152.222449 
L 240.432289 -152.487178 
L 241.039518 -152.748327 
L 241.646747 -153.005939 
L 242.253976 -153.260056 
L 242.861205 -153.510721 
L 243.468434 -153.757975 
L 244.075663 -154.001858 
L 244.682892 -154.24241 
L 245.29012 -154.47967 
L 245.897349 -154.713675 
L 246.504578 -154.944463 
L 247.111807 -155.172071 
L 247.719036 -155.396534 
L 248.326265 -155.617888 
L 248.933494 -155.836168 
L 249.540723 -156.051407 
L 250.147952 -156.263639 
L 250.755181 -156.472896 
L 251.36241 -156.679211 
L 251.969639 -156.882615 
L 252.576867 -157.08314 
L 253.184096 -157.280815 
L 253.791325 -157.475671 
L 254.398554 -157.667737 
L 255.005783 -157.857043 
L 255.613012 -158.043615 
L 256.220241 -158.227483 
L 256.82747 -158.408674 
L 257.434699 -158.587215 
L 258.041928 -158.763132 
L 258.649157 -158.936451 
L 259.256386 -159.107199 
L 259.863614 -159.2754 
L 260.470843 -159.441079 
L 261.078072 -159.604261 
L 261.685301 -159.76497 
L 262.29253 -159.923229 
L 262.899759 -160.079062 
L 263.506988 -160.232492 
L 264.114217 -160.38354 
L 264.721446 -160.53223 
L 265.328675 -160.678584 
L 265.935904 -160.822622 
L 266.543133 -160.964367 
L 267.150361 -161.103838 
L 267.75759 -161.241057 
L 268.364819 -161.376043 
L 268.972048 -161.508817 
L 269.579277 -161.639399 
L 270.186506 -161.767807 
L 270.793735 -161.894061 
L 271.400964 -162.01818 
L 272.008193 -162.140182 
L 272.615422 -162.260086 
L 273.222651 -162.377909 
L 273.82988 -162.493669 
L 274.437108 -162.607384 
L 275.044337 -162.719071 
L 275.651566 -162.828748 
L 276.258795 -162.93643 
L 276.866024 -163.042134 
L 277.473253 -163.145877 
L 278.080482 -163.247675 
L 278.687711 -163.347543 
L 279.29494 -163.445498 
L 279.902169 -163.541554 
L 280.509398 -163.635728 
L 281.116627 -163.728034 
L 281.723855 -163.818486 
L 282.331084 -163.9071 
L 282.938313 -163.99389 
L 283.545542 -164.078871 
L 284.152771 -164.162056 
L 284.76 -164.243459 
L 285.367229 -164.323094 
L 285.974458 -164.400975 
L 286.581687 -164.477114 
L 287.188916 -164.551526 
L 287.796145 -164.624223 
L 288.403373 -164.695218 
L 289.010602 -164.764523 
L 289.617831 -164.832152 
L 290.22506 -164.898117 
L 290.832289 -164.96243 
L 291.439518 -165.025103 
L 292.046747 -165.086148 
L 292.653976 -165.145576 
L 293.261205 -165.203401 
L 293.868434 -165.259632 
L 294.475663 -165.314282 
L 295.082892 -165.367361 
L 295.69012 -165.418881 
L 296.297349 -165.468853 
L 296.904578 -165.517288 
L 297.511807 -165.564196 
L 298.119036 -165.609589 
L 298.726265 -165.653475 
L 299.333494 -165.695867 
L 299.940723 -165.736774 
L 300.547952 -165.776206 
L 301.155181 -165.814173 
L 301.76241 -165.850686 
L 302.369639 -165.885753 
L 302.976867 -165.919386 
L 303.584096 -165.951592 
L 304.191325 -165.982383 
L 304.798554 -166.011766 
L 305.405783 -166.039752 
L 306.013012 -166.066349 
L 306.620241 -166.091567 
L 307.22747 -166.115415 
L 307.834699 -166.137901 
L 308.441928 -166.159034 
L 309.049157 -166.178823 
L 309.656386 -166.197277 
L 310.263614 -166.214403 
L 310.870843 -166.230211 
L 311.478072 -166.244709 
L 312.085301 -166.257905 
L 312.69253 -166.269806 
L 313.299759 -166.280422 
L 313.906988 -166.28976 
L 314.514217 -166.297829 
L 315.121446 -166.304635 
L 315.728675 -166.310186 
L 316.335904 -166.314491 
L 316.943133 -166.317556 
L 317.550361 -166.31939 
L 318.15759 -166.32 
L 318.15759 -166.32 
L 318.15759 -166.32 
L 317.550361 -166.32061 
L 316.943133 -166.322444 
L 316.335904 -166.325509 
L 315.728675 -166.329814 
L 315.121446 -166.335365 
L 314.514217 -166.342171 
L 313.906988 -166.35024 
L 313.299759 -166.359578 
L 312.69253 -166.370194 
L 312.085301 -166.382095 
L 311.478072 -166.395291 
L 310.870843 -166.409789 
L 310.263614 -166.425597 
L 309.656386 -166.442723 
L 309.049157 -166.461177 
L 308.441928 -166.480966 
L 307.834699 -166.502099 
L 307.22747 -166.524585 
L 306.620241 -166.548433 
L 306.013012 -166.573651 
L 305.405783 -166.600248 
L 304.798554 -166.628234 
L 304.191325 -166.657617 
L 303.584096 -166.688408 
L 302.976867 -166.720614 
L 302.369639 -166.754247 
L 301.76241 -166.789314 
L 301.155181 -166.825827 
L 300.547952 -166.863794 
L 299.940723 -166.903226 
L 299.333494 -166.944133 
L 298.726265 -166.986525 
L 298.119036 -167.030411 
L 297.511807 -167.075804 
L 296.904578 -167.122712 
L 296.297349 -167.171147 
L 295.69012 -167.221119 
L 295.082892 -167.272639 
L 294.475663 -167.325718 
L 293.868434 -167.380368 
L 293.261205 -167.436599 
L 292.653976 -167.494424 
L 292.046747 -167.553852 
L 291.439518 -167.614897 
L 290.832289 -167.67757 
L 290.22506 -167.741883 
L 289.617831 -167.807848 
L 289.010602 -167.875477 
L 288.403373 -167.944782 
L 287.796145 -168.015777 
L 287.188916 -168.088474 
L 286.581687 -168.162886 
L 285.974458 -168.239025 
L 285.367229 -168.316906 
L 284.76 -168.396541 
L 284.152771 -168.477944 
L 283.545542 -168.561129 
L 282.938313 -168.64611 
L 282.331084 -168.7329 
L 281.723855 -168.821514 
L 281.116627 -168.911966 
L 280.509398 -169.004272 
L 279.902169 -169.098446 
L 279.29494 -169.194502 
L 278.687711 -169.292457 
L 278.080482 -169.392325 
L 277.473253 -169.494123 
L 276.866024 -169.597866 
L 276.258795 -169.70357 
L 275.651566 -169.811252 
L 275.044337 -169.920929 
L 274.437108 -170.032616 
L 273.82988 -170.146331 
L 273.222651 -170.262091 
L 272.615422 -170.379914 
L 272.008193 -170.499818 
L 271.400964 -170.62182 
L 270.793735 -170.745939 
L 270.186506 -170.872193 
L 269.579277 -171.000601 
L 268.972048 -171.131183 
L 268.364819 -171.263957 
L 267.75759 -171.398943 
L 267.150361 -171.536162 
L 266.543133 -171.675633 
L 265.935904 -171.817378 
L 265.328675 -171.961416 
L 264.721446 -172.10777 
L 264.114217 -172.25646 
L 263.506988 -172.407508 
L 262.899759 -172.560938 
L 262.29253 -172.716771 
L 261.685301 -172.87503 
L 261.078072 -173.035739 
L 260.470843 -173.198921 
L 259.863614 -173.3646 
L 259.256386 -173.532801 
L 258.649157 -173.703549 
L 258.041928 -173.876868 
L 257.434699 -174.052785 
L 256.82747 -174.231326 
L 256.220241 -174.412517 
L 255.613012 -174.596385 
L 255.005783 -174.782957 
L 254.398554 -174.972263 
L 253.791325 -175.164329 
L 253.184096 -175.359185 
L 252.576867 -175.55686 
L 251.969639 -175.757385 
L 251.36241 -175.960789 
L 250.755181 -176.167104 
L 250.147952 -176.376361 
L 249.540723 -176.588593 
L 248.933494 -176.803832 
L 248.326265 -177.022112 
L 247.719036 -177.243466 
L 247.111807 -177.467929 
L 246.504578 -177.695537 
L 245.897349 -177.926325 
L 245.29012 -178.16033 
L 244.682892 -178.39759 
L 244.075663 -178.638142 
L 243.468434 -178.882025 
L 242.861205 -179.129279 
L 242.253976 -179.379944 
L 241.646747 -179.634061 
L 241.039518 -179.891673 
L 240.432289 -180.152822 
L 239.82506 -180.417551 
L 239.217831 -180.685907 
L 238.610602 -180.957934 
L 238.003373 -181.233678 
L 237.396145 -181.513188 
L 236.788916 -181.796512 
L 236.181687 -182.0837 
L 235.574458 -182.374802 
L 234.967229 -182.66987 
L 234.36 -182.968958 
L 233.752771 -183.272118 
L 233.145542 -183.579408 
L 232.538313 -183.890883 
L 231.931084 -184.206602 
L 231.323855 -184.526623 
L 230.716627 -184.851008 
L 230.109398 -185.179819 
L 229.502169 -185.513119 
L 228.89494 -185.850974 
L 228.287711 -186.193451 
L 227.680482 -186.540617 
L 227.073253 -186.892544 
L 226.466024 -187.249303 
L 225.858795 -187.610968 
L 225.251566 -187.977614 
L 224.644337 -188.349319 
L 224.037108 -188.726164 
L 223.42988 -189.108229 
L 222.822651 -189.495598 
L 222.215422 -189.888359 
L 221.608193 -190.286599 
L 221.000964 -190.690409 
L 220.393735 -191.099884 
L 219.786506 -191.51512 
L 219.179277 -191.936215 
L 218.572048 -192.363271 
L 217.964819 -192.796394 
L 217.35759 -193.235691 
L 216.750361 -193.681273 
L 216.143133 -194.133256 
L 215.535904 -194.591757 
L 214.928675 -195.056899 
L 214.321446 -195.528806 
L 213.714217 -196.00761 
L 213.106988 -196.493442 
L 212.499759 -196.986443 
L 211.89253 -197.486754 
L 211.285301 -197.994524 
L 210.678072 -198.509905 
L 210.070843 -199.033055 
L 209.463614 -199.564138 
L 208.856386 -200.103323 
L 208.249157 -200.650786 
L 207.641928 -201.206708 
L 207.034699 -201.771279 
L 206.42747 -202.344693 
L 205.820241 -202.927156 
L 205.213012 -203.518877 
L 204.605783 -204.120076 
L 203.998554 -204.730982 
L 203.391325 -205.351833 
L 202.784096 -205.982875 
L 202.176867 -206.624368 
L 201.569639 -207.27658 
L 200.96241 -207.939792 
L 200.355181 -208.614297 
L 199.747952 -209.300403 
L 199.140723 -209.998429 
L 198.533494 -210.708712 
L 197.926265 -211.431604 
L 197.319036 -212.167474 
L 196.711807 -212.916708 
L 196.104578 -213.679715 
L 195.497349 -214.456923 
L 194.89012 -215.248781 
L 194.282892 -216.055767 
L 193.675663 -216.87838 
L 193.068434 -217.717152 
L 192.461205 -218.572642 
L 191.853976 -219.445443 
L 191.246747 -220.336187 
L 190.639518 -221.245541 
L 190.032289 -222.174217 
L 189.42506 -223.122973 
L 188.817831 -224.092617 
L 188.210602 -225.084015 
L 187.603373 -226.098091 
L 186.996145 -227.13584 
L 186.388916 -228.198329 
L 185.781687 -229.28671 
L 185.174458 -230.402226 
L 184.567229 -231.546223 
L 183.96 -232.720162 
L 183.352771 -233.925634 
L 182.745542 -235.164374 
L 182.138313 -236.438285 
L 181.531084 -237.749457 
L 180.923855 -239.100197 
L 180.316627 -240.493058 
L 179.709398 -241.930881 
L 179.102169 -243.416843 
L 178.49494 -244.954512 
L 177.887711 -246.547921 
L 177.280482 -248.201655 
L 176.673253 -249.920964 
L 176.066024 -251.71191 
L 175.458795 -253.581546 
L 174.851566 -255.538169 
L 174.244337 -257.591643 
L 173.637108 -259.753851 
L 173.02988 -262.039324 
L 172.422651 -264.466151 
L 171.815422 -267.057332 
L 171.208193 -269.842879 
L 170.600964 -272.863223 
L 169.993735 -276.175128 
L 169.386506 -279.862745 
L 168.779277 -284.060711 
L 168.172048 -289.010618 
L 167.564819 -295.240113 
L 166.95759 -304.562762 
L 166.350361 -28.077238 
L 165.743133 -37.399887 
L 165.135904 -43.629382 
L 164.528675 -48.579289 
L 163.921446 -52.777255 
L 163.314217 -56.464872 
L 162.706988 -59.776777 
L 162.099759 -62.797121 
L 161.49253 -65.582668 
L 160.885301 -68.173849 
L 160.278072 -70.600676 
L 159.670843 -72.886149 
L 159.063614 -75.048357 
L 158.456386 -77.101831 
L 157.849157 -79.058454 
L 157.241928 -80.92809 
L 156.634699 -82.719036 
L 156.02747 -84.438345 
L 155.420241 -86.092079 
L 154.813012 -87.685488 
L 154.205783 -89.223157 
L 153.598554 -90.709119 
L 152.991325 -92.146942 
L 152.384096 -93.539803 
L 151.776867 -94.890543 
L 151.169639 -96.201715 
L 150.56241 -97.475626 
L 149.955181 -98.714366 
L 149.347952 -99.919838 
L 148.740723 -101.093777 
L 148.133494 -102.237774 
L 147.526265 -103.35329 
L 146.919036 -104.441671 
L 146.311807 -105.50416 
L 145.704578 -106.541909 
L 145.097349 -107.555985 
L 144.49012 -108.547383 
L 143.882892 -109.517027 
L 143.275663 -110.465783 
L 142.668434 -111.394459 
L 142.061205 -112.303813 
L 141.453976 -113.194557 
L 140.846747 -114.067358 
L 140.239518 -114.922848 
L 139.632289 -115.76162 
L 139.02506 -116.584233 
L 138.417831 -117.391219 
L 137.810602 -118.183077 
L 137.203373 -118.960285 
L 136.596145 -119.723292 
L 135.988916 -120.472526 
L 135.381687 -121.208396 
L 134.774458 -121.931288 
L 134.167229 -122.641571 
L 133.56 -123.339597 
L 132.952771 -124.025703 
L 132.345542 -124.700208 
L 131.738313 -125.36342 
L 131.131084 -126.015632 
L 130.523855 -126.657125 
L 129.916627 -127.288167 
L 129.309398 -127.909018 
L 128.702169 -128.519924 
L 128.09494 -129.121123 
L 127.487711 -129.712844 
L 126.880482 -130.295307 
L 126.273253 -130.868721 
L 125.666024 -131.433292 
L 125.058795 -131.989214 
L 124.451566 -132.536677 
L 123.844337 -133.075862 
L 123.237108 -133.606945 
L 122.62988 -134.130095 
L 122.022651 -134.645476 
L 121.415422 -135.153246 
L 120.808193 -135.653557 
L 120.200964 -136.146558 
L 119.593735 -136.63239 
L 118.986506 -137.111194 
L 118.379277 -137.583101 
L 117.772048 -138.048243 
L 117.164819 -138.506744 
L 116.55759 -138.958727 
L 115.950361 -139.404309 
L 115.343133 -139.843606 
L 114.735904 -140.276729 
L 114.128675 -140.703785 
L 113.521446 -141.12488 
L 112.914217 -141.540116 
L 112.306988 -141.949591 
L 111.699759 -142.353401 
L 111.09253 -142.751641 
L 110.485301 -143.144402 
L 109.878072 -143.531771 
L 109.270843 -143.913836 
L 108.663614 -144.290681 
L 108.056386 -144.662386 
L 107.449157 -145.029032 
L 106.841928 -145.390697 
L 106.234699 -145.747456 
L 105.62747 -146.099383 
L 105.020241 -146.446549 
L 104.413012 -146.789026 
L 103.805783 -147.126881 
L 103.198554 -147.460181 
L 102.591325 -147.788992 
L 101.984096 -148.113377 
L 101.376867 -148.433398 
L 100.769639 -148.749117 
L 100.16241 -149.060592 
L 99.555181 -149.367882 
L 98.947952 -149.671042 
L 98.340723 -149.97013 
L 97.733494 -150.265198 
L 97.126265 -150.5563 
L 96.519036 -150.843488 
L 95.911807 -151.126812 
L 95.304578 -151.406322 
L 94.697349 -151.682066 
L 94.09012 -151.954093 
L 93.482892 -152.222449 
L 92.875663 -152.487178 
L 92.268434 -152.748327 
L 91.661205 -153.005939 
L 91.053976 -153.260056 
L 90.446747 -153.510721 
L 89.839518 -153.757975 
L 89.232289 -154.001858 
L 88.62506 -154.24241 
L 88.017831 -154.47967 
L 87.410602 -154.713675 
L 86.803373 -154.944463 
L 86.196145 -155.172071 
L 85.588916 -155.396534 
L 84.981687 -155.617888 
L 84.374458 -155.836168 
L 83.767229 -156.051407 
L 83.16 -156.263639 
L 82.552771 -156.472896 
L 81.945542 -156.679211 
L 81.338313 -156.882615 
L 80.731084 -157.08314 
L 80.123855 -157.280815 
L 79.516627 -157.475671 
L 78.909398 -157.667737 
L 78.302169 -157.857043 
L 77.69494 -158.043615 
L 77.087711 -158.227483 
L 76.480482 -158.408674 
L 75.873253 -158.587215 
L 75.266024 -158.763132 
L 74.658795 -158.936451 
L 74.051566 -159.107199 
L 73.444337 -159.2754 
L 72.837108 -159.441079 
L 72.22988 -159.604261 
L 71.622651 -159.76497 
L 71.015422 -159.923229 
L 70.408193 -160.079062 
L 69.800964 -160.232492 
L 69.193735 -160.38354 
L 68.586506 -160.53223 
L 67.979277 -160.678584 
L 67.372048 -160.822622 
L 66.764819 -160.964367 
L 66.15759 -161.103838 
L 65.550361 -161.241057 
L 64.943133 -161.376043 
L 64.335904 -161.508817 
L 63.728675 -161.639399 
L 63.121446 -161.767807 
L 62.514217 -161.894061 
L 61.906988 -162.01818 
L 61.299759 -162.140182 
L 60.69253 -162.260086 
L 60.085301 -162.377909 
L 59.478072 -162.493669 
L 58.870843 -162.607384 
L 58.263614 -162.719071 
L 57.656386 -162.828748 
L 57.049157 -162.93643 
L 56.441928 -163.042134 
L 55.834699 -163.145877 
L 55.22747 -163.247675 
L 54.620241 -163.347543 
L 54.013012 -163.445498 
L 53.405783 -163.541554 
L 52.798554 -163.635728 
L 52.191325 -163.728034 
L 51.584096 -163.818486 
L 50.976867 -163.9071 
L 50.369639 -163.99389 
L 49.76241 -164.078871 
L 49.155181 -164.162056 
L 48.547952 -164.243459 
L 47.940723 -164.323094 
L 47.333494 -164.400975 
L 46.726265 -164.477114 
L 46.119036 -164.551526 
L 45.511807 -164.624223 
L 44.904578 -164.695218 
L 44.297349 -164.764523 
L 43.69012 -164.832152 
L 43.082892 -164.898117 
L 42.475663 -164.96243 
L 41.868434 -165.025103 
L 41.261205 -165.086148 
L 40.653976 -165.145576 
L 40.046747 -165.203401 
L 39.439518 -165.259632 
L 38.832289 -165.314282 
L 38.22506 -165.367361 
L 37.617831 -165.418881 
L 37.010602 -165.468853 
L 36.403373 -165.517288 
L 35.796145 -165.564196 
L 35.188916 -165.609589 
L 34.581687 -165.653475 
L 33.974458 -165.695867 
L 33.367229 -165.736774 
L 32.76 -165.776206 
L 32.152771 -165.814173 
L 31.545542 -165.850686 
L 30.938313 -165.885753 
L 30.331084 -165.919386 
L 29.723855 -165.951592 
L 29.116627 -165.982383 
L 28.509398 -166.011766 
L 27.902169 -166.039752 
L 27.29494 -166.066349 
L 26.687711 -166.091567 
L 26.080482 -166.115415 
L 25.473253 -166.137901 
L 24.866024 -166.159034 
L 24.258795 -166.178823 
L 23.651566 -166.197277 
L 23.044337 -166.214403 
L 22.437108 -166.230211 
L 21.82988 -166.244709 
L 21.222651 -166.257905 
L 20.615422 -166.269806 
L 20.008193 -166.280422 
L 19.400964 -166.28976 
L 18.793735 -166.297829 
L 18.186506 -166.304635 
L 17.579277 -166.310186 
L 16.972048 -166.314491 
L 16.364819 -166.317556 
L 15.75759 -166.31939 
L 15.150361 -166.32 
z
" style="stroke: #87cefa; stroke-opacity: 0.4"/>
    </defs>
    <g clip-path="url(#pd5581d5040)">
     <use xlink:href="#mf85fbf5bdf" x="0" y="332.64" style="fill: #87cefa; fill-opacity: 0.4; stroke: #87cefa; stroke-opacity: 0.4"/>
    </g>
   </g>
   <g id="PolyCollection_3">
    <defs>
     <path id="m30fa21a202" d="M 15.150361 -166.32 
L 15.150361 -166.32 
L 15.75759 -166.927229 
L 16.364819 -167.534458 
L 16.972048 -168.141687 
L 17.579277 -168.748916 
L 18.186506 -169.356145 
L 18.793735 -169.963373 
L 19.400964 -170.570602 
L 20.008193 -171.177831 
L 20.615422 -171.78506 
L 21.222651 -172.392289 
L 21.82988 -172.999518 
L 22.437108 -173.606747 
L 23.044337 -174.213976 
L 23.651566 -174.821205 
L 24.258795 -175.428434 
L 24.866024 -176.035663 
L 25.473253 -176.642892 
L 26.080482 -177.25012 
L 26.687711 -177.857349 
L 27.29494 -178.464578 
L 27.902169 -179.071807 
L 28.509398 -179.679036 
L 29.116627 -180.286265 
L 29.723855 -180.893494 
L 30.331084 -181.500723 
L 30.938313 -182.107952 
L 31.545542 -182.715181 
L 32.152771 -183.32241 
L 32.76 -183.929639 
L 33.367229 -184.536867 
L 33.974458 -185.144096 
L 34.581687 -185.751325 
L 35.188916 -186.358554 
L 35.796145 -186.965783 
L 36.403373 -187.573012 
L 37.010602 -188.180241 
L 37.617831 -188.78747 
L 38.22506 -189.394699 
L 38.832289 -190.001928 
L 39.439518 -190.609157 
L 40.046747 -191.216386 
L 40.653976 -191.823614 
L 41.261205 -192.430843 
L 41.868434 -193.038072 
L 42.475663 -193.645301 
L 43.082892 -194.25253 
L 43.69012 -194.859759 
L 44.297349 -195.466988 
L 44.904578 -196.074217 
L 45.511807 -196.681446 
L 46.119036 -197.288675 
L 46.726265 -197.895904 
L 47.333494 -198.503133 
L 47.940723 -199.110361 
L 48.547952 -199.71759 
L 49.155181 -200.324819 
L 49.76241 -200.932048 
L 50.369639 -201.539277 
L 50.976867 -202.146506 
L 51.584096 -202.753735 
L 52.191325 -203.360964 
L 52.798554 -203.968193 
L 53.405783 -204.575422 
L 54.013012 -205.182651 
L 54.620241 -205.78988 
L 55.22747 -206.397108 
L 55.834699 -207.004337 
L 56.441928 -207.611566 
L 57.049157 -208.218795 
L 57.656386 -208.826024 
L 58.263614 -209.433253 
L 58.870843 -210.040482 
L 59.478072 -210.647711 
L 60.085301 -211.25494 
L 60.69253 -211.862169 
L 61.299759 -212.469398 
L 61.906988 -213.076627 
L 62.514217 -213.683855 
L 63.121446 -214.291084 
L 63.728675 -214.898313 
L 64.335904 -215.505542 
L 64.943133 -216.112771 
L 65.550361 -216.72 
L 66.15759 -217.327229 
L 66.764819 -217.934458 
L 67.372048 -218.541687 
L 67.979277 -219.148916 
L 68.586506 -219.756145 
L 69.193735 -220.363373 
L 69.800964 -220.970602 
L 70.408193 -221.577831 
L 71.015422 -222.18506 
L 71.622651 -222.792289 
L 72.22988 -223.399518 
L 72.837108 -224.006747 
L 73.444337 -224.613976 
L 74.051566 -225.221205 
L 74.658795 -225.828434 
L 75.266024 -226.435663 
L 75.873253 -227.042892 
L 76.480482 -227.65012 
L 77.087711 -228.257349 
L 77.69494 -228.864578 
L 78.302169 -229.471807 
L 78.909398 -230.079036 
L 79.516627 -230.686265 
L 80.123855 -231.293494 
L 80.731084 -231.900723 
L 81.338313 -232.507952 
L 81.945542 -233.115181 
L 82.552771 -233.72241 
L 83.16 -234.329639 
L 83.767229 -234.936867 
L 84.374458 -235.544096 
L 84.981687 -236.151325 
L 85.588916 -236.758554 
L 86.196145 -237.365783 
L 86.803373 -237.973012 
L 87.410602 -238.580241 
L 88.017831 -239.18747 
L 88.62506 -239.794699 
L 89.232289 -240.401928 
L 89.839518 -241.009157 
L 90.446747 -241.616386 
L 91.053976 -242.223614 
L 91.661205 -242.830843 
L 92.268434 -243.438072 
L 92.875663 -244.045301 
L 93.482892 -244.65253 
L 94.09012 -245.259759 
L 94.697349 -245.866988 
L 95.304578 -246.474217 
L 95.911807 -247.081446 
L 96.519036 -247.688675 
L 97.126265 -248.295904 
L 97.733494 -248.903133 
L 98.340723 -249.510361 
L 98.947952 -250.11759 
L 99.555181 -250.724819 
L 100.16241 -251.332048 
L 100.769639 -251.939277 
L 101.376867 -252.546506 
L 101.984096 -253.153735 
L 102.591325 -253.760964 
L 103.198554 -254.368193 
L 103.805783 -254.975422 
L 104.413012 -255.582651 
L 105.020241 -256.18988 
L 105.62747 -256.797108 
L 106.234699 -257.404337 
L 106.841928 -258.011566 
L 107.449157 -258.618795 
L 108.056386 -259.226024 
L 108.663614 -259.833253 
L 109.270843 -260.440482 
L 109.878072 -261.047711 
L 110.485301 -261.65494 
L 111.09253 -262.262169 
L 111.699759 -262.869398 
L 112.306988 -263.476627 
L 112.914217 -264.083855 
L 113.521446 -264.691084 
L 114.128675 -265.298313 
L 114.735904 -265.905542 
L 115.343133 -266.512771 
L 115.950361 -267.12 
L 116.55759 -267.727229 
L 117.164819 -268.334458 
L 117.772048 -268.941687 
L 118.379277 -269.548916 
L 118.986506 -270.156145 
L 119.593735 -270.763373 
L 120.200964 -271.370602 
L 120.808193 -271.977831 
L 121.415422 -272.58506 
L 122.022651 -273.192289 
L 122.62988 -273.799518 
L 123.237108 -274.406747 
L 123.844337 -275.013976 
L 124.451566 -275.621205 
L 125.058795 -276.228434 
L 125.666024 -276.835663 
L 126.273253 -277.442892 
L 126.880482 -278.05012 
L 127.487711 -278.657349 
L 128.09494 -279.264578 
L 128.702169 -279.871807 
L 129.309398 -280.479036 
L 129.916627 -281.086265 
L 130.523855 -281.693494 
L 131.131084 -282.300723 
L 131.738313 -282.907952 
L 132.345542 -283.515181 
L 132.952771 -284.12241 
L 133.56 -284.729639 
L 134.167229 -285.336867 
L 134.774458 -285.944096 
L 135.381687 -286.551325 
L 135.988916 -287.158554 
L 136.596145 -287.765783 
L 137.203373 -288.373012 
L 137.810602 -288.980241 
L 138.417831 -289.58747 
L 139.02506 -290.194699 
L 139.632289 -290.801928 
L 140.239518 -291.409157 
L 140.846747 -292.016386 
L 141.453976 -292.623614 
L 142.061205 -293.230843 
L 142.668434 -293.838072 
L 143.275663 -294.445301 
L 143.882892 -295.05253 
L 144.49012 -295.659759 
L 145.097349 -296.266988 
L 145.704578 -296.874217 
L 146.311807 -297.481446 
L 146.919036 -298.088675 
L 147.526265 -298.695904 
L 148.133494 -299.303133 
L 148.740723 -299.910361 
L 149.347952 -300.51759 
L 149.955181 -301.124819 
L 150.56241 -301.732048 
L 151.169639 -302.339277 
L 151.776867 -302.946506 
L 152.384096 -303.553735 
L 152.991325 -304.160964 
L 153.598554 -304.768193 
L 154.205783 -305.375422 
L 154.813012 -305.982651 
L 155.420241 -306.58988 
L 156.02747 -307.197108 
L 156.634699 -307.804337 
L 157.241928 -308.411566 
L 157.849157 -309.018795 
L 158.456386 -309.626024 
L 159.063614 -310.233253 
L 159.670843 -310.840482 
L 160.278072 -311.447711 
L 160.885301 -312.05494 
L 161.49253 -312.662169 
L 162.099759 -313.269398 
L 162.706988 -313.876627 
L 163.314217 -314.483855 
L 163.921446 -315.091084 
L 164.528675 -315.698313 
L 165.135904 -316.305542 
L 165.743133 -316.912771 
L 166.350361 -317.52 
L 166.95759 -15.12 
L 167.564819 -15.727229 
L 168.172048 -16.334458 
L 168.779277 -16.941687 
L 169.386506 -17.548916 
L 169.993735 -18.156145 
L 170.600964 -18.763373 
L 171.208193 -19.370602 
L 171.815422 -19.977831 
L 172.422651 -20.58506 
L 173.02988 -21.192289 
L 173.637108 -21.799518 
L 174.244337 -22.406747 
L 174.851566 -23.013976 
L 175.458795 -23.621205 
L 176.066024 -24.228434 
L 176.673253 -24.835663 
L 177.280482 -25.442892 
L 177.887711 -26.05012 
L 178.49494 -26.657349 
L 179.102169 -27.264578 
L 179.709398 -27.871807 
L 180.316627 -28.479036 
L 180.923855 -29.086265 
L 181.531084 -29.693494 
L 182.138313 -30.300723 
L 182.745542 -30.907952 
L 183.352771 -31.515181 
L 183.96 -32.12241 
L 184.567229 -32.729639 
L 185.174458 -33.336867 
L 185.781687 -33.944096 
L 186.388916 -34.551325 
L 186.996145 -35.158554 
L 187.603373 -35.765783 
L 188.210602 -36.373012 
L 188.817831 -36.980241 
L 189.42506 -37.58747 
L 190.032289 -38.194699 
L 190.639518 -38.801928 
L 191.246747 -39.409157 
L 191.853976 -40.016386 
L 192.461205 -40.623614 
L 193.068434 -41.230843 
L 193.675663 -41.838072 
L 194.282892 -42.445301 
L 194.89012 -43.05253 
L 195.497349 -43.659759 
L 196.104578 -44.266988 
L 196.711807 -44.874217 
L 197.319036 -45.481446 
L 197.926265 -46.088675 
L 198.533494 -46.695904 
L 199.140723 -47.303133 
L 199.747952 -47.910361 
L 200.355181 -48.51759 
L 200.96241 -49.124819 
L 201.569639 -49.732048 
L 202.176867 -50.339277 
L 202.784096 -50.946506 
L 203.391325 -51.553735 
L 203.998554 -52.160964 
L 204.605783 -52.768193 
L 205.213012 -53.375422 
L 205.820241 -53.982651 
L 206.42747 -54.58988 
L 207.034699 -55.197108 
L 207.641928 -55.804337 
L 208.249157 -56.411566 
L 208.856386 -57.018795 
L 209.463614 -57.626024 
L 210.070843 -58.233253 
L 210.678072 -58.840482 
L 211.285301 -59.447711 
L 211.89253 -60.05494 
L 212.499759 -60.662169 
L 213.106988 -61.269398 
L 213.714217 -61.876627 
L 214.321446 -62.483855 
L 214.928675 -63.091084 
L 215.535904 -63.698313 
L 216.143133 -64.305542 
L 216.750361 -64.912771 
L 217.35759 -65.52 
L 217.964819 -66.127229 
L 218.572048 -66.734458 
L 219.179277 -67.341687 
L 219.786506 -67.948916 
L 220.393735 -68.556145 
L 221.000964 -69.163373 
L 221.608193 -69.770602 
L 222.215422 -70.377831 
L 222.822651 -70.98506 
L 223.42988 -71.592289 
L 224.037108 -72.199518 
L 224.644337 -72.806747 
L 225.251566 -73.413976 
L 225.858795 -74.021205 
L 226.466024 -74.628434 
L 227.073253 -75.235663 
L 227.680482 -75.842892 
L 228.287711 -76.45012 
L 228.89494 -77.057349 
L 229.502169 -77.664578 
L 230.109398 -78.271807 
L 230.716627 -78.879036 
L 231.323855 -79.486265 
L 231.931084 -80.093494 
L 232.538313 -80.700723 
L 233.145542 -81.307952 
L 233.752771 -81.915181 
L 234.36 -82.52241 
L 234.967229 -83.129639 
L 235.574458 -83.736867 
L 236.181687 -84.344096 
L 236.788916 -84.951325 
L 237.396145 -85.558554 
L 238.003373 -86.165783 
L 238.610602 -86.773012 
L 239.217831 -87.380241 
L 239.82506 -87.98747 
L 240.432289 -88.594699 
L 241.039518 -89.201928 
L 241.646747 -89.809157 
L 242.253976 -90.416386 
L 242.861205 -91.023614 
L 243.468434 -91.630843 
L 244.075663 -92.238072 
L 244.682892 -92.845301 
L 245.29012 -93.45253 
L 245.897349 -94.059759 
L 246.504578 -94.666988 
L 247.111807 -95.274217 
L 247.719036 -95.881446 
L 248.326265 -96.488675 
L 248.933494 -97.095904 
L 249.540723 -97.703133 
L 250.147952 -98.310361 
L 250.755181 -98.91759 
L 251.36241 -99.524819 
L 251.969639 -100.132048 
L 252.576867 -100.739277 
L 253.184096 -101.346506 
L 253.791325 -101.953735 
L 254.398554 -102.560964 
L 255.005783 -103.168193 
L 255.613012 -103.775422 
L 256.220241 -104.382651 
L 256.82747 -104.98988 
L 257.434699 -105.597108 
L 258.041928 -106.204337 
L 258.649157 -106.811566 
L 259.256386 -107.418795 
L 259.863614 -108.026024 
L 260.470843 -108.633253 
L 261.078072 -109.240482 
L 261.685301 -109.847711 
L 262.29253 -110.45494 
L 262.899759 -111.062169 
L 263.506988 -111.669398 
L 264.114217 -112.276627 
L 264.721446 -112.883855 
L 265.328675 -113.491084 
L 265.935904 -114.098313 
L 266.543133 -114.705542 
L 267.150361 -115.312771 
L 267.75759 -115.92 
L 268.364819 -116.527229 
L 268.972048 -117.134458 
L 269.579277 -117.741687 
L 270.186506 -118.348916 
L 270.793735 -118.956145 
L 271.400964 -119.563373 
L 272.008193 -120.170602 
L 272.615422 -120.777831 
L 273.222651 -121.38506 
L 273.82988 -121.992289 
L 274.437108 -122.599518 
L 275.044337 -123.206747 
L 275.651566 -123.813976 
L 276.258795 -124.421205 
L 276.866024 -125.028434 
L 277.473253 -125.635663 
L 278.080482 -126.242892 
L 278.687711 -126.85012 
L 279.29494 -127.457349 
L 279.902169 -128.064578 
L 280.509398 -128.671807 
L 281.116627 -129.279036 
L 281.723855 -129.886265 
L 282.331084 -130.493494 
L 282.938313 -131.100723 
L 283.545542 -131.707952 
L 284.152771 -132.315181 
L 284.76 -132.92241 
L 285.367229 -133.529639 
L 285.974458 -134.136867 
L 286.581687 -134.744096 
L 287.188916 -135.351325 
L 287.796145 -135.958554 
L 288.403373 -136.565783 
L 289.010602 -137.173012 
L 289.617831 -137.780241 
L 290.22506 -138.38747 
L 290.832289 -138.994699 
L 291.439518 -139.601928 
L 292.046747 -140.209157 
L 292.653976 -140.816386 
L 293.261205 -141.423614 
L 293.868434 -142.030843 
L 294.475663 -142.638072 
L 295.082892 -143.245301 
L 295.69012 -143.85253 
L 296.297349 -144.459759 
L 296.904578 -145.066988 
L 297.511807 -145.674217 
L 298.119036 -146.281446 
L 298.726265 -146.888675 
L 299.333494 -147.495904 
L 299.940723 -148.103133 
L 300.547952 -148.710361 
L 301.155181 -149.31759 
L 301.76241 -149.924819 
L 302.369639 -150.532048 
L 302.976867 -151.139277 
L 303.584096 -151.746506 
L 304.191325 -152.353735 
L 304.798554 -152.960964 
L 305.405783 -153.568193 
L 306.013012 -154.175422 
L 306.620241 -154.782651 
L 307.22747 -155.38988 
L 307.834699 -155.997108 
L 308.441928 -156.604337 
L 309.049157 -157.211566 
L 309.656386 -157.818795 
L 310.263614 -158.426024 
L 310.870843 -159.033253 
L 311.478072 -159.640482 
L 312.085301 -160.247711 
L 312.69253 -160.85494 
L 313.299759 -161.462169 
L 313.906988 -162.069398 
L 314.514217 -162.676627 
L 315.121446 -163.283855 
L 315.728675 -163.891084 
L 316.335904 -164.498313 
L 316.943133 -165.105542 
L 317.550361 -165.712771 
L 318.15759 -166.32 
L 318.15759 -166.32 
L 318.15759 -166.32 
L 317.550361 -166.927229 
L 316.943133 -167.534458 
L 316.335904 -168.141687 
L 315.728675 -168.748916 
L 315.121446 -169.356145 
L 314.514217 -169.963373 
L 313.906988 -170.570602 
L 313.299759 -171.177831 
L 312.69253 -171.78506 
L 312.085301 -172.392289 
L 311.478072 -172.999518 
L 310.870843 -173.606747 
L 310.263614 -174.213976 
L 309.656386 -174.821205 
L 309.049157 -175.428434 
L 308.441928 -176.035663 
L 307.834699 -176.642892 
L 307.22747 -177.25012 
L 306.620241 -177.857349 
L 306.013012 -178.464578 
L 305.405783 -179.071807 
L 304.798554 -179.679036 
L 304.191325 -180.286265 
L 303.584096 -180.893494 
L 302.976867 -181.500723 
L 302.369639 -182.107952 
L 301.76241 -182.715181 
L 301.155181 -183.32241 
L 300.547952 -183.929639 
L 299.940723 -184.536867 
L 299.333494 -185.144096 
L 298.726265 -185.751325 
L 298.119036 -186.358554 
L 297.511807 -186.965783 
L 296.904578 -187.573012 
L 296.297349 -188.180241 
L 295.69012 -188.78747 
L 295.082892 -189.394699 
L 294.475663 -190.001928 
L 293.868434 -190.609157 
L 293.261205 -191.216386 
L 292.653976 -191.823614 
L 292.046747 -192.430843 
L 291.439518 -193.038072 
L 290.832289 -193.645301 
L 290.22506 -194.25253 
L 289.617831 -194.859759 
L 289.010602 -195.466988 
L 288.403373 -196.074217 
L 287.796145 -196.681446 
L 287.188916 -197.288675 
L 286.581687 -197.895904 
L 285.974458 -198.503133 
L 285.367229 -199.110361 
L 284.76 -199.71759 
L 284.152771 -200.324819 
L 283.545542 -200.932048 
L 282.938313 -201.539277 
L 282.331084 -202.146506 
L 281.723855 -202.753735 
L 281.116627 -203.360964 
L 280.509398 -203.968193 
L 279.902169 -204.575422 
L 279.29494 -205.182651 
L 278.687711 -205.78988 
L 278.080482 -206.397108 
L 277.473253 -207.004337 
L 276.866024 -207.611566 
L 276.258795 -208.218795 
L 275.651566 -208.826024 
L 275.044337 -209.433253 
L 274.437108 -210.040482 
L 273.82988 -210.647711 
L 273.222651 -211.25494 
L 272.615422 -211.862169 
L 272.008193 -212.469398 
L 271.400964 -213.076627 
L 270.793735 -213.683855 
L 270.186506 -214.291084 
L 269.579277 -214.898313 
L 268.972048 -215.505542 
L 268.364819 -216.112771 
L 267.75759 -216.72 
L 267.150361 -217.327229 
L 266.543133 -217.934458 
L 265.935904 -218.541687 
L 265.328675 -219.148916 
L 264.721446 -219.756145 
L 264.114217 -220.363373 
L 263.506988 -220.970602 
L 262.899759 -221.577831 
L 262.29253 -222.18506 
L 261.685301 -222.792289 
L 261.078072 -223.399518 
L 260.470843 -224.006747 
L 259.863614 -224.613976 
L 259.256386 -225.221205 
L 258.649157 -225.828434 
L 258.041928 -226.435663 
L 257.434699 -227.042892 
L 256.82747 -227.65012 
L 256.220241 -228.257349 
L 255.613012 -228.864578 
L 255.005783 -229.471807 
L 254.398554 -230.079036 
L 253.791325 -230.686265 
L 253.184096 -231.293494 
L 252.576867 -231.900723 
L 251.969639 -232.507952 
L 251.36241 -233.115181 
L 250.755181 -233.72241 
L 250.147952 -234.329639 
L 249.540723 -234.936867 
L 248.933494 -235.544096 
L 248.326265 -236.151325 
L 247.719036 -236.758554 
L 247.111807 -237.365783 
L 246.504578 -237.973012 
L 245.897349 -238.580241 
L 245.29012 -239.18747 
L 244.682892 -239.794699 
L 244.075663 -240.401928 
L 243.468434 -241.009157 
L 242.861205 -241.616386 
L 242.253976 -242.223614 
L 241.646747 -242.830843 
L 241.039518 -243.438072 
L 240.432289 -244.045301 
L 239.82506 -244.65253 
L 239.217831 -245.259759 
L 238.610602 -245.866988 
L 238.003373 -246.474217 
L 237.396145 -247.081446 
L 236.788916 -247.688675 
L 236.181687 -248.295904 
L 235.574458 -248.903133 
L 234.967229 -249.510361 
L 234.36 -250.11759 
L 233.752771 -250.724819 
L 233.145542 -251.332048 
L 232.538313 -251.939277 
L 231.931084 -252.546506 
L 231.323855 -253.153735 
L 230.716627 -253.760964 
L 230.109398 -254.368193 
L 229.502169 -254.975422 
L 228.89494 -255.582651 
L 228.287711 -256.18988 
L 227.680482 -256.797108 
L 227.073253 -257.404337 
L 226.466024 -258.011566 
L 225.858795 -258.618795 
L 225.251566 -259.226024 
L 224.644337 -259.833253 
L 224.037108 -260.440482 
L 223.42988 -261.047711 
L 222.822651 -261.65494 
L 222.215422 -262.262169 
L 221.608193 -262.869398 
L 221.000964 -263.476627 
L 220.393735 -264.083855 
L 219.786506 -264.691084 
L 219.179277 -265.298313 
L 218.572048 -265.905542 
L 217.964819 -266.512771 
L 217.35759 -267.12 
L 216.750361 -267.727229 
L 216.143133 -268.334458 
L 215.535904 -268.941687 
L 214.928675 -269.548916 
L 214.321446 -270.156145 
L 213.714217 -270.763373 
L 213.106988 -271.370602 
L 212.499759 -271.977831 
L 211.89253 -272.58506 
L 211.285301 -273.192289 
L 210.678072 -273.799518 
L 210.070843 -274.406747 
L 209.463614 -275.013976 
L 208.856386 -275.621205 
L 208.249157 -276.228434 
L 207.641928 -276.835663 
L 207.034699 -277.442892 
L 206.42747 -278.05012 
L 205.820241 -278.657349 
L 205.213012 -279.264578 
L 204.605783 -279.871807 
L 203.998554 -280.479036 
L 203.391325 -281.086265 
L 202.784096 -281.693494 
L 202.176867 -282.300723 
L 201.569639 -282.907952 
L 200.96241 -283.515181 
L 200.355181 -284.12241 
L 199.747952 -284.729639 
L 199.140723 -285.336867 
L 198.533494 -285.944096 
L 197.926265 -286.551325 
L 197.319036 -287.158554 
L 196.711807 -287.765783 
L 196.104578 -288.373012 
L 195.497349 -288.980241 
L 194.89012 -289.58747 
L 194.282892 -290.194699 
L 193.675663 -290.801928 
L 193.068434 -291.409157 
L 192.461205 -292.016386 
L 191.853976 -292.623614 
L 191.246747 -293.230843 
L 190.639518 -293.838072 
L 190.032289 -294.445301 
L 189.42506 -295.05253 
L 188.817831 -295.659759 
L 188.210602 -296.266988 
L 187.603373 -296.874217 
L 186.996145 -297.481446 
L 186.388916 -298.088675 
L 185.781687 -298.695904 
L 185.174458 -299.303133 
L 184.567229 -299.910361 
L 183.96 -300.51759 
L 183.352771 -301.124819 
L 182.745542 -301.732048 
L 182.138313 -302.339277 
L 181.531084 -302.946506 
L 180.923855 -303.553735 
L 180.316627 -304.160964 
L 179.709398 -304.768193 
L 179.102169 -305.375422 
L 178.49494 -305.982651 
L 177.887711 -306.58988 
L 177.280482 -307.197108 
L 176.673253 -307.804337 
L 176.066024 -308.411566 
L 175.458795 -309.018795 
L 174.851566 -309.626024 
L 174.244337 -310.233253 
L 173.637108 -310.840482 
L 173.02988 -311.447711 
L 172.422651 -312.05494 
L 171.815422 -312.662169 
L 171.208193 -313.269398 
L 170.600964 -313.876627 
L 169.993735 -314.483855 
L 169.386506 -315.091084 
L 168.779277 -315.698313 
L 168.172048 -316.305542 
L 167.564819 -316.912771 
L 166.95759 -317.52 
L 166.350361 -15.12 
L 165.743133 -15.727229 
L 165.135904 -16.334458 
L 164.528675 -16.941687 
L 163.921446 -17.548916 
L 163.314217 -18.156145 
L 162.706988 -18.763373 
L 162.099759 -19.370602 
L 161.49253 -19.977831 
L 160.885301 -20.58506 
L 160.278072 -21.192289 
L 159.670843 -21.799518 
L 159.063614 -22.406747 
L 158.456386 -23.013976 
L 157.849157 -23.621205 
L 157.241928 -24.228434 
L 156.634699 -24.835663 
L 156.02747 -25.442892 
L 155.420241 -26.05012 
L 154.813012 -26.657349 
L 154.205783 -27.264578 
L 153.598554 -27.871807 
L 152.991325 -28.479036 
L 152.384096 -29.086265 
L 151.776867 -29.693494 
L 151.169639 -30.300723 
L 150.56241 -30.907952 
L 149.955181 -31.515181 
L 149.347952 -32.12241 
L 148.740723 -32.729639 
L 148.133494 -33.336867 
L 147.526265 -33.944096 
L 146.919036 -34.551325 
L 146.311807 -35.158554 
L 145.704578 -35.765783 
L 145.097349 -36.373012 
L 144.49012 -36.980241 
L 143.882892 -37.58747 
L 143.275663 -38.194699 
L 142.668434 -38.801928 
L 142.061205 -39.409157 
L 141.453976 -40.016386 
L 140.846747 -40.623614 
L 140.239518 -41.230843 
L 139.632289 -41.838072 
L 139.02506 -42.445301 
L 138.417831 -43.05253 
L 137.810602 -43.659759 
L 137.203373 -44.266988 
L 136.596145 -44.874217 
L 135.988916 -45.481446 
L 135.381687 -46.088675 
L 134.774458 -46.695904 
L 134.167229 -47.303133 
L 133.56 -47.910361 
L 132.952771 -48.51759 
L 132.345542 -49.124819 
L 131.738313 -49.732048 
L 131.131084 -50.339277 
L 130.523855 -50.946506 
L 129.916627 -51.553735 
L 129.309398 -52.160964 
L 128.702169 -52.768193 
L 128.09494 -53.375422 
L 127.487711 -53.982651 
L 126.880482 -54.58988 
L 126.273253 -55.197108 
L 125.666024 -55.804337 
L 125.058795 -56.411566 
L 124.451566 -57.018795 
L 123.844337 -57.626024 
L 123.237108 -58.233253 
L 122.62988 -58.840482 
L 122.022651 -59.447711 
L 121.415422 -60.05494 
L 120.808193 -60.662169 
L 120.200964 -61.269398 
L 119.593735 -61.876627 
L 118.986506 -62.483855 
L 118.379277 -63.091084 
L 117.772048 -63.698313 
L 117.164819 -64.305542 
L 116.55759 -64.912771 
L 115.950361 -65.52 
L 115.343133 -66.127229 
L 114.735904 -66.734458 
L 114.128675 -67.341687 
L 113.521446 -67.948916 
L 112.914217 -68.556145 
L 112.306988 -69.163373 
L 111.699759 -69.770602 
L 111.09253 -70.377831 
L 110.485301 -70.98506 
L 109.878072 -71.592289 
L 109.270843 -72.199518 
L 108.663614 -72.806747 
L 108.056386 -73.413976 
L 107.449157 -74.021205 
L 106.841928 -74.628434 
L 106.234699 -75.235663 
L 105.62747 -75.842892 
L 105.020241 -76.45012 
L 104.413012 -77.057349 
L 103.805783 -77.664578 
L 103.198554 -78.271807 
L 102.591325 -78.879036 
L 101.984096 -79.486265 
L 101.376867 -80.093494 
L 100.769639 -80.700723 
L 100.16241 -81.307952 
L 99.555181 -81.915181 
L 98.947952 -82.52241 
L 98.340723 -83.129639 
L 97.733494 -83.736867 
L 97.126265 -84.344096 
L 96.519036 -84.951325 
L 95.911807 -85.558554 
L 95.304578 -86.165783 
L 94.697349 -86.773012 
L 94.09012 -87.380241 
L 93.482892 -87.98747 
L 92.875663 -88.594699 
L 92.268434 -89.201928 
L 91.661205 -89.809157 
L 91.053976 -90.416386 
L 90.446747 -91.023614 
L 89.839518 -91.630843 
L 89.232289 -92.238072 
L 88.62506 -92.845301 
L 88.017831 -93.45253 
L 87.410602 -94.059759 
L 86.803373 -94.666988 
L 86.196145 -95.274217 
L 85.588916 -95.881446 
L 84.981687 -96.488675 
L 84.374458 -97.095904 
L 83.767229 -97.703133 
L 83.16 -98.310361 
L 82.552771 -98.91759 
L 81.945542 -99.524819 
L 81.338313 -100.132048 
L 80.731084 -100.739277 
L 80.123855 -101.346506 
L 79.516627 -101.953735 
L 78.909398 -102.560964 
L 78.302169 -103.168193 
L 77.69494 -103.775422 
L 77.087711 -104.382651 
L 76.480482 -104.98988 
L 75.873253 -105.597108 
L 75.266024 -106.204337 
L 74.658795 -106.811566 
L 74.051566 -107.418795 
L 73.444337 -108.026024 
L 72.837108 -108.633253 
L 72.22988 -109.240482 
L 71.622651 -109.847711 
L 71.015422 -110.45494 
L 70.408193 -111.062169 
L 69.800964 -111.669398 
L 69.193735 -112.276627 
L 68.586506 -112.883855 
L 67.979277 -113.491084 
L 67.372048 -114.098313 
L 66.764819 -114.705542 
L 66.15759 -115.312771 
L 65.550361 -115.92 
L 64.943133 -116.527229 
L 64.335904 -117.134458 
L 63.728675 -117.741687 
L 63.121446 -118.348916 
L 62.514217 -118.956145 
L 61.906988 -119.563373 
L 61.299759 -120.170602 
L 60.69253 -120.777831 
L 60.085301 -121.38506 
L 59.478072 -121.992289 
L 58.870843 -122.599518 
L 58.263614 -123.206747 
L 57.656386 -123.813976 
L 57.049157 -124.421205 
L 56.441928 -125.028434 
L 55.834699 -125.635663 
L 55.22747 -126.242892 
L 54.620241 -126.85012 
L 54.013012 -127.457349 
L 53.405783 -128.064578 
L 52.798554 -128.671807 
L 52.191325 -129.279036 
L 51.584096 -129.886265 
L 50.976867 -130.493494 
L 50.369639 -131.100723 
L 49.76241 -131.707952 
L 49.155181 -132.315181 
L 48.547952 -132.92241 
L 47.940723 -133.529639 
L 47.333494 -134.136867 
L 46.726265 -134.744096 
L 46.119036 -135.351325 
L 45.511807 -135.958554 
L 44.904578 -136.565783 
L 44.297349 -137.173012 
L 43.69012 -137.780241 
L 43.082892 -138.38747 
L 42.475663 -138.994699 
L 41.868434 -139.601928 
L 41.261205 -140.209157 
L 40.653976 -140.816386 
L 40.046747 -141.423614 
L 39.439518 -142.030843 
L 38.832289 -142.638072 
L 38.22506 -143.245301 
L 37.617831 -143.85253 
L 37.010602 -144.459759 
L 36.403373 -145.066988 
L 35.796145 -145.674217 
L 35.188916 -146.281446 
L 34.581687 -146.888675 
L 33.974458 -147.495904 
L 33.367229 -148.103133 
L 32.76 -148.710361 
L 32.152771 -149.31759 
L 31.545542 -149.924819 
L 30.938313 -150.532048 
L 30.331084 -151.139277 
L 29.723855 -151.746506 
L 29.116627 -152.353735 
L 28.509398 -152.960964 
L 27.902169 -153.568193 
L 27.29494 -154.175422 
L 26.687711 -154.782651 
L 26.080482 -155.38988 
L 25.473253 -155.997108 
L 24.866024 -156.604337 
L 24.258795 -157.211566 
L 23.651566 -157.818795 
L 23.044337 -158.426024 
L 22.437108 -159.033253 
L 21.82988 -159.640482 
L 21.222651 -160.247711 
L 20.615422 -160.85494 
L 20.008193 -161.462169 
L 19.400964 -162.069398 
L 18.793735 -162.676627 
L 18.186506 -163.283855 
L 17.579277 -163.891084 
L 16.972048 -164.498313 
L 16.364819 -165.105542 
L 15.75759 -165.712771 
L 15.150361 -166.32 
z
" style="stroke: #808080; stroke-opacity: 0.4"/>
    </defs>
    <g clip-path="url(#pd5581d5040)">
     <use xlink:href="#m30fa21a202" x="0" y="332.64" style="fill: #808080; fill-opacity: 0.4; stroke: #808080; stroke-opacity: 0.4"/>
    </g>
   </g>
   <g id="matplotlib.axis_1">
    <g id="xtick_1">
     <g id="text_1">
      <!-- -1 -->
      <g transform="translate(9.459954 183.005876) scale(0.14 -0.14)">
       <defs>
        <path id="CMR17-2d" d="M 1632 1254 
L 1632 1536 
L 26 1536 
L 26 1254 
L 1632 1254 
z
" transform="scale(0.015625)"/>
        <path id="CMR17-31" d="M 1702 4083 
C 1702 4217 1696 4224 1606 4224 
C 1357 3927 979 3833 621 3820 
C 602 3820 570 3820 563 3808 
C 557 3795 557 3782 557 3648 
C 755 3648 1088 3686 1344 3839 
L 1344 467 
C 1344 243 1331 166 781 166 
L 589 166 
L 589 0 
C 896 6 1216 12 1523 12 
C 1830 12 2150 6 2458 0 
L 2458 166 
L 2266 166 
C 1715 166 1702 236 1702 467 
L 1702 4083 
z
" transform="scale(0.015625)"/>
       </defs>
       <use xlink:href="#CMR17-2d" transform="scale(0.996264)"/>
       <use xlink:href="#CMR17-31" transform="translate(30.075966 0) scale(0.996264)"/>
      </g>
     </g>
    </g>
    <g id="xtick_2">
     <g id="text_2">
      <!-- 1 -->
      <g transform="translate(314.743346 183.005876) scale(0.14 -0.14)">
       <use xlink:href="#CMR17-31" transform="scale(0.996264)"/>
      </g>
     </g>
    </g>
   </g>
   <g id="matplotlib.axis_2">
    <g id="ytick_1">
     <g id="text_3">
      <!-- -1 -->
      <g transform="translate(148.273162 322.666553) scale(0.14 -0.14)">
       <use xlink:href="#CMR17-2d" transform="scale(0.996264)"/>
       <use xlink:href="#CMR17-31" transform="translate(30.075966 0) scale(0.996264)"/>
      </g>
     </g>
    </g>
    <g id="ytick_2">
     <g id="text_4">
      <!-- 1 -->
      <g transform="translate(152.825487 19.659324) scale(0.14 -0.14)">
       <use xlink:href="#CMR17-31" transform="scale(0.996264)"/>
      </g>
     </g>
    </g>
   </g>
   <g id="patch_3">
    <path d="M 166.653976 332.64 
L 166.653976 -0 
" style="fill: none; stroke: #000000; stroke-width: 0.8; stroke-linejoin: miter; stroke-linecap: square"/>
   </g>
   <g id="patch_4">
    <path d="M 0 166.32 
L 333.307952 166.32 
" style="fill: none; stroke: #000000; stroke-width: 0.8; stroke-linejoin: miter; stroke-linecap: square"/>
   </g>
   <g id="legend_1">
    <g id="patch_5">
     <path d="M 235.634516 77.730752 
L 323.157952 77.730752 
Q 326.057952 77.730752 326.057952 74.830752 
L 326.057952 10.15 
Q 326.057952 7.25 323.157952 7.25 
L 235.634516 7.25 
Q 232.734516 7.25 232.734516 10.15 
L 232.734516 74.830752 
Q 232.734516 77.730752 235.634516 77.730752 
z
" style="fill: #ffffff; opacity: 0.8; stroke: #cccccc; stroke-linejoin: miter"/>
    </g>
    <g id="patch_6">
     <path d="M 238.534516 23.884371 
L 267.534516 23.884371 
L 267.534516 13.734371 
L 238.534516 13.734371 
z
" style="fill: #a52a2a; fill-opacity: 0.4; stroke: #a52a2a; stroke-opacity: 0.4; stroke-linejoin: miter"/>
    </g>
    <g id="text_5">
     <!-- $\mathbb{B}_{0,3}(1)$ -->
     <g transform="translate(279.134516 23.884371) scale(0.145 -0.145)">
      <defs>
       <path id="MSBM10-42" d="M 896 3828 
C 896 3912 896 4075 838 4191 
L 1536 4191 
C 1453 4088 1453 3958 1453 3860 
L 1453 551 
C 1453 455 1453 326 1536 224 
L 838 224 
C 896 339 896 500 896 583 
L 896 3828 
z
M 2637 2465 
C 2848 2672 2899 3003 2899 3283 
C 2899 3731 2758 4010 2611 4166 
C 3053 4114 3507 3951 3507 3309 
C 3507 2893 3059 2556 2637 2465 
z
M 1677 3841 
C 1677 3971 1677 4042 1766 4114 
C 1792 4127 1888 4191 2042 4191 
C 2323 4191 2675 3964 2675 3283 
C 2675 2556 2310 2400 1677 2387 
L 1677 3841 
z
M 3021 2355 
C 3379 2543 3731 2867 3731 3309 
C 3731 4211 2995 4416 2214 4416 
L 275 4416 
C 160 4416 58 4416 58 4300 
C 58 4191 166 4191 269 4191 
C 653 4191 672 4127 672 3815 
L 672 596 
C 672 275 646 224 243 224 
C 173 224 58 224 58 115 
C 58 0 160 0 275 0 
L 2176 0 
C 2963 0 3974 307 3974 1199 
C 3974 1867 3488 2227 3021 2355 
z
M 1677 570 
L 1677 2163 
C 2189 2163 2406 2163 2605 2015 
C 2854 1822 2874 1405 2874 1199 
C 2874 949 2854 224 2054 224 
C 1677 224 1677 448 1677 570 
z
M 2816 301 
C 3053 570 3098 911 3098 1199 
C 3098 1643 3002 1976 2746 2188 
C 3334 2092 3750 1758 3750 1199 
C 3750 712 3366 429 2816 301 
z
" transform="scale(0.015625)"/>
       <path id="CMR17-30" d="M 2688 2038 
C 2688 2430 2682 3099 2413 3613 
C 2176 4063 1798 4224 1466 4224 
C 1158 4224 768 4082 525 3620 
C 269 3137 243 2539 243 2038 
C 243 1671 250 1112 448 623 
C 723 -39 1216 -128 1466 -128 
C 1760 -128 2208 -7 2470 604 
C 2662 1048 2688 1568 2688 2038 
z
M 1466 -26 
C 1056 -26 813 328 723 816 
C 653 1196 653 1749 653 2109 
C 653 2604 653 3015 736 3407 
C 858 3954 1216 4121 1466 4121 
C 1728 4121 2067 3947 2189 3420 
C 2272 3054 2278 2623 2278 2109 
C 2278 1691 2278 1176 2202 797 
C 2067 96 1690 -26 1466 -26 
z
" transform="scale(0.015625)"/>
       <path id="CMMI12-3b" d="M 1248 -26 
C 1248 345 1126 620 864 620 
C 659 620 557 454 557 313 
C 557 172 653 0 870 0 
C 954 0 1024 25 1082 83 
C 1094 96 1101 96 1107 96 
C 1120 96 1120 6 1120 -26 
C 1120 -233 1082 -642 710 -1051 
C 640 -1127 640 -1140 640 -1152 
C 640 -1184 672 -1216 704 -1216 
C 755 -1216 1248 -749 1248 -26 
z
" transform="scale(0.015625)"/>
       <path id="CMR17-33" d="M 1414 2176 
C 1984 2176 2234 1673 2234 1094 
C 2234 322 1824 25 1453 25 
C 1114 25 563 193 390 691 
C 422 678 454 678 486 678 
C 640 678 755 780 755 947 
C 755 1132 614 1216 486 1216 
C 378 1216 211 1164 211 927 
C 211 335 787 -128 1466 -128 
C 2176 -128 2720 432 2720 1087 
C 2720 1718 2208 2176 1600 2246 
C 2086 2347 2554 2776 2554 3353 
C 2554 3856 2048 4224 1472 4224 
C 890 4224 378 3862 378 3347 
C 378 3123 544 3084 627 3084 
C 762 3084 877 3167 877 3334 
C 877 3500 762 3584 627 3584 
C 602 3584 570 3584 544 3571 
C 730 3999 1235 4076 1459 4076 
C 1683 4076 2106 3966 2106 3347 
C 2106 3167 2080 2851 1862 2574 
C 1670 2329 1453 2316 1242 2297 
C 1210 2297 1062 2284 1037 2284 
C 992 2278 966 2272 966 2227 
C 966 2182 973 2176 1101 2176 
L 1414 2176 
z
" transform="scale(0.015625)"/>
       <path id="CMR17-28" d="M 1958 -1562 
C 1958 -1556 1958 -1543 1939 -1524 
C 1645 -1223 858 -403 858 1596 
C 858 3595 1632 4408 1946 4729 
C 1946 4735 1958 4748 1958 4767 
C 1958 4787 1939 4800 1914 4800 
C 1843 4800 1299 4325 986 3620 
C 666 2909 576 2218 576 1603 
C 576 1141 621 360 1005 -467 
C 1312 -1133 1837 -1600 1914 -1600 
C 1946 -1600 1958 -1588 1958 -1562 
z
" transform="scale(0.015625)"/>
       <path id="CMR17-29" d="M 1683 1596 
C 1683 2057 1638 2839 1254 3665 
C 947 4332 422 4800 346 4800 
C 326 4800 301 4793 301 4761 
C 301 4748 307 4742 314 4729 
C 621 4408 1402 3595 1402 1603 
C 1402 -396 627 -1210 314 -1530 
C 307 -1543 301 -1549 301 -1562 
C 301 -1594 326 -1600 346 -1600 
C 416 -1600 960 -1127 1274 -422 
C 1594 289 1683 981 1683 1596 
z
" transform="scale(0.015625)"/>
      </defs>
      <use xlink:href="#MSBM10-42" transform="scale(0.996264)"/>
      <use xlink:href="#CMR17-30" transform="translate(66.417819 -14.943915) scale(0.697382)"/>
      <use xlink:href="#CMMI12-3b" transform="translate(98.401001 -14.943915) scale(0.697382)"/>
      <use xlink:href="#CMR17-33" transform="translate(117.368933 -14.943915) scale(0.697382)"/>
      <use xlink:href="#CMR17-28" transform="translate(149.850247 0) scale(0.996264)"/>
      <use xlink:href="#CMR17-31" transform="translate(185.131015 0) scale(0.996264)"/>
      <use xlink:href="#CMR17-29" transform="translate(230.821492 0) scale(0.996264)"/>
     </g>
    </g>
    <g id="patch_7">
     <path d="M 238.534516 46.101833 
L 267.534516 46.101833 
L 267.534516 35.951833 
L 238.534516 35.951833 
z
" style="fill: #87cefa; fill-opacity: 0.4; stroke: #87cefa; stroke-opacity: 0.4; stroke-linejoin: miter"/>
    </g>
    <g id="text_6">
     <!-- $\mathbb{B}_{0,5}(1)$ -->
     <g transform="translate(279.134516 46.101833) scale(0.145 -0.145)">
      <defs>
       <path id="CMR17-35" d="M 730 3750 
C 794 3724 1056 3641 1325 3641 
C 1920 3641 2246 3961 2432 4140 
C 2432 4191 2432 4224 2394 4224 
C 2387 4224 2374 4224 2323 4198 
C 2099 4102 1837 4032 1517 4032 
C 1325 4032 1037 4055 723 4191 
C 653 4224 640 4224 634 4224 
C 602 4224 595 4217 595 4090 
L 595 2231 
C 595 2113 595 2080 659 2080 
C 691 2080 704 2093 736 2139 
C 941 2435 1222 2560 1542 2560 
C 1766 2560 2246 2415 2246 1293 
C 2246 1087 2246 716 2054 422 
C 1894 159 1645 25 1370 25 
C 947 25 518 319 403 812 
C 429 806 480 793 506 793 
C 589 793 749 838 749 1036 
C 749 1209 627 1280 506 1280 
C 358 1280 262 1190 262 1011 
C 262 454 704 -128 1382 -128 
C 2042 -128 2669 441 2669 1267 
C 2669 2054 2170 2662 1549 2662 
C 1222 2662 947 2540 730 2304 
L 730 3750 
z
" transform="scale(0.015625)"/>
      </defs>
      <use xlink:href="#MSBM10-42" transform="scale(0.996264)"/>
      <use xlink:href="#CMR17-30" transform="translate(66.417819 -14.943915) scale(0.697382)"/>
      <use xlink:href="#CMMI12-3b" transform="translate(98.401001 -14.943915) scale(0.697382)"/>
      <use xlink:href="#CMR17-35" transform="translate(117.368933 -14.943915) scale(0.697382)"/>
      <use xlink:href="#CMR17-28" transform="translate(149.850247 0) scale(0.996264)"/>
      <use xlink:href="#CMR17-31" transform="translate(185.131015 0) scale(0.996264)"/>
      <use xlink:href="#CMR17-29" transform="translate(230.821492 0) scale(0.996264)"/>
     </g>
    </g>
    <g id="patch_8">
     <path d="M 238.534516 68.319295 
L 267.534516 68.319295 
L 267.534516 58.169295 
L 238.534516 58.169295 
z
" style="fill: #808080; fill-opacity: 0.4; stroke: #808080; stroke-opacity: 0.4; stroke-linejoin: miter"/>
    </g>
    <g id="text_7">
     <!-- $\mathbb{B}_{1}(1)$ -->
     <g transform="translate(279.134516 68.319295) scale(0.145 -0.145)">
      <use xlink:href="#MSBM10-42" transform="scale(0.996264)"/>
      <use xlink:href="#CMR17-31" transform="translate(66.417819 -14.943915) scale(0.697382)"/>
      <use xlink:href="#CMR17-28" transform="translate(98.899133 0) scale(0.996264)"/>
      <use xlink:href="#CMR17-31" transform="translate(134.1799 0) scale(0.996264)"/>
      <use xlink:href="#CMR17-29" transform="translate(179.870377 0) scale(0.996264)"/>
     </g>
    </g>
   </g>
  </g>
 </g>
 <defs>
  <clipPath id="pd5581d5040">
   <rect x="0" y="-0" width="333.307952" height="332.64"/>
  </clipPath>
 </defs>
</svg>
