<?xml version="1.0" encoding="utf-8" standalone="no"?>
<!DOCTYPE svg PUBLIC "-//W3C//DTD SVG 1.1//EN"
  "http://www.w3.org/Graphics/SVG/1.1/DTD/svg11.dtd">
<svg xmlns:xlink="http://www.w3.org/1999/xlink" width="343.045316pt" height="346.809064pt" viewBox="0 0 343.045316 346.809064" xmlns="http://www.w3.org/2000/svg" version="1.1">
 <metadata>
  <rdf:RDF xmlns:dc="http://purl.org/dc/elements/1.1/" xmlns:cc="http://creativecommons.org/ns#" xmlns:rdf="http://www.w3.org/1999/02/22-rdf-syntax-ns#">
   <cc:Work>
    <dc:type rdf:resource="http://purl.org/dc/dcmitype/StillImage"/>
    <dc:date>2025-05-31T18:19:30.303802</dc:date>
    <dc:format>image/svg+xml</dc:format>
    <dc:creator>
     <cc:Agent>
      <dc:title>Matplotlib v3.9.2, https://matplotlib.org/</dc:title>
     </cc:Agent>
    </dc:creator>
   </cc:Work>
  </rdf:RDF>
 </metadata>
 <defs>
  <style type="text/css">*{stroke-linejoin: round; stroke-linecap: butt}</style>
 </defs>
 <g id="figure_1">
  <g id="patch_1">
   <path d="M 0 346.809064 
L 343.045316 346.809064 
L 343.045316 0 
L 0 0 
z
" style="fill: #ffffff"/>
  </g>
  <g id="axes_1">
   <g id="patch_2">
    <path d="M 6.503323 338.174794 
L 339.143323 338.174794 
L 339.143323 5.534794 
L 6.503323 5.534794 
z
" style="fill: #ffffff"/>
   </g>
   <g id="PolyCollection_1">
    <path d="M -106.57677 171.854794 
L -106.57677 171.854794 
L -105.456929 171.854794 
L -104.337089 171.854794 
L -103.217249 171.854792 
L -102.097409 171.854789 
L -100.977569 171.854783 
L -99.857729 171.854773 
L -98.737889 171.854759 
L -97.618049 171.854739 
L -96.498209 171.854712 
L -95.378369 171.854677 
L -94.258529 171.854633 
L -93.138689 171.854578 
L -92.018849 171.85451 
L -90.899009 171.854429 
L -89.779169 171.854332 
L -88.659329 171.854219 
L -87.539489 171.854086 
L -86.419649 171.853933 
L -85.299809 171.853758 
L -84.179969 171.853559 
L -83.060129 171.853333 
L -81.940288 171.85308 
L -80.820448 171.852796 
L -79.700608 171.85248 
L -78.580768 171.852129 
L -77.460928 171.851741 
L -76.341088 171.851314 
L -75.221248 171.850845 
L -74.101408 171.850333 
L -72.981568 171.849773 
L -71.861728 171.849164 
L -70.741888 171.848503 
L -69.622048 171.847787 
L -68.502208 171.847013 
L -67.382368 171.846179 
L -66.262528 171.84528 
L -65.142688 171.844315 
L -64.022848 171.84328 
L -62.903008 171.842172 
L -61.783168 171.840986 
L -60.663328 171.839721 
L -59.543487 171.838372 
L -58.423647 171.836936 
L -57.303807 171.835409 
L -56.183967 171.833787 
L -55.064127 171.832066 
L -53.944287 171.830242 
L -52.824447 171.828312 
L -51.704607 171.82627 
L -50.584767 171.824113 
L -49.464927 171.821837 
L -48.345087 171.819435 
L -47.225247 171.816905 
L -46.105407 171.814241 
L -44.985567 171.811439 
L -43.865727 171.808492 
L -42.745887 171.805397 
L -41.626047 171.802148 
L -40.506207 171.798739 
L -39.386367 171.795166 
L -38.266527 171.791421 
L -37.146687 171.787501 
L -36.026846 171.783398 
L -34.907006 171.779107 
L -33.787166 171.774621 
L -32.667326 171.769934 
L -31.547486 171.765039 
L -30.427646 171.759931 
L -29.307806 171.754601 
L -28.187966 171.749043 
L -27.068126 171.74325 
L -25.948286 171.737215 
L -24.828446 171.730929 
L -23.708606 171.724385 
L -22.588766 171.717576 
L -21.468926 171.710492 
L -20.349086 171.703127 
L -19.229246 171.69547 
L -18.109406 171.687514 
L -16.989566 171.67925 
L -15.869726 171.670668 
L -14.749886 171.661759 
L -13.630046 171.652513 
L -12.510205 171.642921 
L -11.390365 171.632972 
L -10.270525 171.622656 
L -9.150685 171.611963 
L -8.030845 171.600881 
L -6.911005 171.589399 
L -5.791165 171.577506 
L -4.671325 171.565191 
L -3.551485 171.55244 
L -2.431645 171.539242 
L -1.311805 171.525584 
L -0.191965 171.511454 
L 0.927875 171.496837 
L 2.047715 171.48172 
L 3.167555 171.466089 
L 4.287395 171.44993 
L 5.407235 171.433228 
L 6.527075 171.415968 
L 7.646915 171.398134 
L 8.766755 171.37971 
L 9.886595 171.36068 
L 11.006436 171.341027 
L 12.126276 171.320734 
L 13.246116 171.299784 
L 14.365956 171.278157 
L 15.485796 171.255835 
L 16.605636 171.2328 
L 17.725476 171.209031 
L 18.845316 171.184508 
L 19.965156 171.15921 
L 21.084996 171.133117 
L 22.204836 171.106205 
L 23.324676 171.078453 
L 24.444516 171.049836 
L 25.564356 171.020332 
L 26.684196 170.989916 
L 27.804036 170.958562 
L 28.923876 170.926245 
L 30.043716 170.892938 
L 31.163556 170.858612 
L 32.283396 170.823241 
L 33.403237 170.786795 
L 34.523077 170.749244 
L 35.642917 170.710556 
L 36.762757 170.670702 
L 37.882597 170.629646 
L 39.002437 170.587357 
L 40.122277 170.543799 
L 41.242117 170.498936 
L 42.361957 170.452732 
L 43.481797 170.405149 
L 44.601637 170.356147 
L 45.721477 170.305685 
L 46.841317 170.253724 
L 47.961157 170.200218 
L 49.080997 170.145125 
L 50.200837 170.088398 
L 51.320677 170.029989 
L 52.440517 169.969851 
L 53.560357 169.907933 
L 54.680197 169.844183 
L 55.800037 169.778546 
L 56.919878 169.710968 
L 58.039718 169.641391 
L 59.159558 169.569755 
L 60.279398 169.495999 
L 61.399238 169.42006 
L 62.519078 169.341872 
L 63.638918 169.261367 
L 64.758758 169.178473 
L 65.878598 169.093119 
L 66.998438 169.005229 
L 68.118278 168.914724 
L 69.238118 168.821522 
L 70.357958 168.725541 
L 71.477798 168.626692 
L 72.597638 168.524885 
L 73.717478 168.420025 
L 74.837318 168.312016 
L 75.957158 168.200755 
L 77.076998 168.086137 
L 78.196838 167.968052 
L 79.316678 167.846388 
L 80.436519 167.721024 
L 81.556359 167.591838 
L 82.676199 167.458701 
L 83.796039 167.321479 
L 84.915879 167.180034 
L 86.035719 167.03422 
L 87.155559 166.883885 
L 88.275399 166.728872 
L 89.395239 166.569015 
L 90.515079 166.404142 
L 91.634919 166.234073 
L 92.754759 166.05862 
L 93.874599 165.877586 
L 94.994439 165.690766 
L 96.114279 165.497942 
L 97.234119 165.29889 
L 98.353959 165.093372 
L 99.473799 164.88114 
L 100.593639 164.661933 
L 101.713479 164.435476 
L 102.833319 164.201482 
L 103.95316 163.959648 
L 105.073 163.709655 
L 106.19284 163.451167 
L 107.31268 163.183829 
L 108.43252 162.907269 
L 109.55236 162.621092 
L 110.6722 162.324881 
L 111.79204 162.018195 
L 112.91188 161.700569 
L 114.03172 161.371506 
L 115.15156 161.030483 
L 116.2714 160.676943 
L 117.39124 160.310294 
L 118.51108 159.929907 
L 119.63092 159.53511 
L 120.75076 159.125188 
L 121.8706 158.699378 
L 122.99044 158.256862 
L 124.11028 157.796767 
L 125.23012 157.318153 
L 126.349961 156.820015 
L 127.469801 156.30127 
L 128.589641 155.760752 
L 129.709481 155.197202 
L 130.829321 154.609261 
L 131.949161 153.995455 
L 133.069001 153.354186 
L 134.188841 152.683716 
L 135.308681 151.982152 
L 136.428521 151.247426 
L 137.548361 150.477271 
L 138.668201 149.669201 
L 139.788041 148.82048 
L 140.907881 147.928083 
L 142.027721 146.988663 
L 143.147561 145.998497 
L 144.267401 144.953434 
L 145.387241 143.848825 
L 146.507081 142.679441 
L 147.626921 141.439374 
L 148.746761 140.121918 
L 149.866602 138.719416 
L 150.986442 137.223078 
L 152.106282 135.622742 
L 153.226122 133.906584 
L 154.345962 132.060729 
L 155.465802 130.068756 
L 156.585642 127.911034 
L 157.705482 125.563838 
L 158.825322 122.998121 
L 159.945162 120.177798 
L 161.065002 117.057278 
L 162.184842 113.577792 
L 163.304682 109.661757 
L 164.424522 105.20374 
L 165.544362 100.05519 
L 166.664202 93.996938 
L 167.784042 86.685198 
L 168.903882 77.532582 
L 170.023722 65.397315 
L 171.143562 47.508595 
L 172.263402 12.534933 
L 173.383243 331.174656 
L 174.503083 296.200994 
L 175.622923 278.312273 
L 176.742763 266.177006 
L 177.862603 257.024391 
L 178.982443 249.712651 
L 180.102283 243.654398 
L 181.222123 238.505849 
L 182.341963 234.047831 
L 183.461803 230.131797 
L 184.581643 226.652311 
L 185.701483 223.53179 
L 186.821323 220.711468 
L 187.941163 218.14575 
L 189.061003 215.798554 
L 190.180843 213.640832 
L 191.300683 211.648859 
L 192.420523 209.803004 
L 193.540363 208.086846 
L 194.660203 206.486511 
L 195.780043 204.990172 
L 196.899884 203.58767 
L 198.019724 202.270214 
L 199.139564 201.030147 
L 200.259404 199.860763 
L 201.379244 198.756154 
L 202.499084 197.711091 
L 203.618924 196.720926 
L 204.738764 195.781505 
L 205.858604 194.889108 
L 206.978444 194.040387 
L 208.098284 193.232317 
L 209.218124 192.462163 
L 210.337964 191.727436 
L 211.457804 191.025872 
L 212.577644 190.355403 
L 213.697484 189.714134 
L 214.817324 189.100328 
L 215.937164 188.512386 
L 217.057004 187.948836 
L 218.176844 187.408318 
L 219.296685 186.889573 
L 220.416525 186.391435 
L 221.536365 185.912822 
L 222.656205 185.452726 
L 223.776045 185.01021 
L 224.895885 184.5844 
L 226.015725 184.174478 
L 227.135565 183.779681 
L 228.255405 183.399294 
L 229.375245 183.032645 
L 230.495085 182.679105 
L 231.614925 182.338082 
L 232.734765 182.00902 
L 233.854605 181.691393 
L 234.974445 181.384707 
L 236.094285 181.088496 
L 237.214125 180.802319 
L 238.333965 180.525759 
L 239.453805 180.258422 
L 240.573645 179.999933 
L 241.693485 179.74994 
L 242.813326 179.508106 
L 243.933166 179.274112 
L 245.053006 179.047656 
L 246.172846 178.828448 
L 247.292686 178.616216 
L 248.412526 178.410698 
L 249.532366 178.211646 
L 250.652206 178.018823 
L 251.772046 177.832002 
L 252.891886 177.650968 
L 254.011726 177.475515 
L 255.131566 177.305446 
L 256.251406 177.140574 
L 257.371246 176.980717 
L 258.491086 176.825703 
L 259.610926 176.675368 
L 260.730766 176.529554 
L 261.850606 176.388109 
L 262.970446 176.250888 
L 264.090286 176.117751 
L 265.210126 175.988564 
L 266.329967 175.863201 
L 267.449807 175.741536 
L 268.569647 175.623451 
L 269.689487 175.508834 
L 270.809327 175.397573 
L 271.929167 175.289563 
L 273.049007 175.184704 
L 274.168847 175.082896 
L 275.288687 174.984047 
L 276.408527 174.888066 
L 277.528367 174.794865 
L 278.648207 174.70436 
L 279.768047 174.616469 
L 280.887887 174.531115 
L 282.007727 174.448222 
L 283.127567 174.367716 
L 284.247407 174.289528 
L 285.367247 174.213589 
L 286.487087 174.139833 
L 287.606927 174.068198 
L 288.726767 173.99862 
L 289.846608 173.931042 
L 290.966448 173.865406 
L 292.086288 173.801655 
L 293.206128 173.739737 
L 294.325968 173.679599 
L 295.445808 173.621191 
L 296.565648 173.564463 
L 297.685488 173.50937 
L 298.805328 173.455865 
L 299.925168 173.403903 
L 301.045008 173.353442 
L 302.164848 173.30444 
L 303.284688 173.256856 
L 304.404528 173.210652 
L 305.524368 173.165789 
L 306.644208 173.122231 
L 307.764048 173.079942 
L 308.883888 173.038887 
L 310.003728 172.999032 
L 311.123568 172.960345 
L 312.243409 172.922793 
L 313.363249 172.886347 
L 314.483089 172.850976 
L 315.602929 172.816651 
L 316.722769 172.783343 
L 317.842609 172.751026 
L 318.962449 172.719672 
L 320.082289 172.689256 
L 321.202129 172.659752 
L 322.321969 172.631136 
L 323.441809 172.603383 
L 324.561649 172.576472 
L 325.681489 172.550378 
L 326.801329 172.52508 
L 327.921169 172.500557 
L 329.041009 172.476788 
L 330.160849 172.453753 
L 331.280689 172.431431 
L 332.400529 172.409805 
L 333.520369 172.388854 
L 334.640209 172.368561 
L 335.76005 172.348908 
L 336.87989 172.329879 
L 337.99973 172.311455 
L 339.11957 172.293621 
L 340.23941 172.27636 
L 341.35925 172.259658 
L 342.47909 172.243499 
L 343.59893 172.227868 
L 344.71877 172.212751 
L 345.83861 172.198135 
L 346.95845 172.184004 
L 348.07829 172.170346 
L 349.19813 172.157148 
L 350.31797 172.144398 
L 351.43781 172.132082 
L 352.55765 172.120189 
L 353.67749 172.108708 
L 354.79733 172.097626 
L 355.91717 172.086932 
L 357.03701 172.076616 
L 358.15685 172.066667 
L 359.276691 172.057075 
L 360.396531 172.04783 
L 361.516371 172.038921 
L 362.636211 172.030338 
L 363.756051 172.022074 
L 364.875891 172.014118 
L 365.995731 172.006462 
L 367.115571 171.999096 
L 368.235411 171.992013 
L 369.355251 171.985203 
L 370.475091 171.978659 
L 371.594931 171.972374 
L 372.714771 171.966338 
L 373.834611 171.960545 
L 374.954451 171.954987 
L 376.074291 171.949658 
L 377.194131 171.944549 
L 378.313971 171.939655 
L 379.433811 171.934968 
L 380.553651 171.930482 
L 381.673491 171.92619 
L 382.793332 171.922088 
L 383.913172 171.918167 
L 385.033012 171.914423 
L 386.152852 171.910849 
L 387.272692 171.90744 
L 388.392532 171.904191 
L 389.512372 171.901096 
L 390.632212 171.89815 
L 391.752052 171.895347 
L 392.871892 171.892683 
L 393.991732 171.890153 
L 395.111572 171.887752 
L 396.231412 171.885475 
L 397.351252 171.883318 
L 398.471092 171.881276 
L 399.590932 171.879346 
L 400.710772 171.877522 
L 401.830612 171.875802 
L 402.950452 171.87418 
L 404.070292 171.872652 
L 405.190133 171.871216 
L 406.309973 171.869867 
L 407.429813 171.868602 
L 408.549653 171.867417 
L 409.669493 171.866308 
L 410.789333 171.865273 
L 411.909173 171.864308 
L 413.029013 171.86341 
L 414.148853 171.862575 
L 415.268693 171.861801 
L 416.388533 171.861085 
L 417.508373 171.860424 
L 418.628213 171.859815 
L 419.748053 171.859256 
L 420.867893 171.858743 
L 421.987733 171.858274 
L 423.107573 171.857847 
L 424.227413 171.857459 
L 425.347253 171.857109 
L 426.467093 171.856792 
L 427.586933 171.856509 
L 428.706774 171.856255 
L 429.826614 171.856029 
L 430.946454 171.85583 
L 432.066294 171.855655 
L 433.186134 171.855502 
L 434.305974 171.85537 
L 435.425814 171.855256 
L 436.545654 171.855159 
L 437.665494 171.855078 
L 438.785334 171.855011 
L 439.905174 171.854955 
L 441.025014 171.854911 
L 442.144854 171.854876 
L 443.264694 171.854849 
L 444.384534 171.854829 
L 445.504374 171.854815 
L 446.624214 171.854805 
L 447.744054 171.854799 
L 448.863894 171.854796 
L 449.983734 171.854795 
L 451.103574 171.854794 
L 452.223415 171.854794 
L 452.223415 171.854794 
L 452.223415 171.854794 
L 451.103574 171.854794 
L 449.983734 171.854794 
L 448.863894 171.854792 
L 447.744054 171.854789 
L 446.624214 171.854783 
L 445.504374 171.854773 
L 444.384534 171.854759 
L 443.264694 171.854739 
L 442.144854 171.854712 
L 441.025014 171.854677 
L 439.905174 171.854633 
L 438.785334 171.854578 
L 437.665494 171.85451 
L 436.545654 171.854429 
L 435.425814 171.854332 
L 434.305974 171.854219 
L 433.186134 171.854086 
L 432.066294 171.853933 
L 430.946454 171.853758 
L 429.826614 171.853559 
L 428.706774 171.853333 
L 427.586933 171.85308 
L 426.467093 171.852796 
L 425.347253 171.85248 
L 424.227413 171.852129 
L 423.107573 171.851741 
L 421.987733 171.851314 
L 420.867893 171.850845 
L 419.748053 171.850333 
L 418.628213 171.849773 
L 417.508373 171.849164 
L 416.388533 171.848503 
L 415.268693 171.847787 
L 414.148853 171.847013 
L 413.029013 171.846179 
L 411.909173 171.84528 
L 410.789333 171.844315 
L 409.669493 171.84328 
L 408.549653 171.842172 
L 407.429813 171.840986 
L 406.309973 171.839721 
L 405.190133 171.838372 
L 404.070292 171.836936 
L 402.950452 171.835409 
L 401.830612 171.833787 
L 400.710772 171.832066 
L 399.590932 171.830242 
L 398.471092 171.828312 
L 397.351252 171.82627 
L 396.231412 171.824113 
L 395.111572 171.821837 
L 393.991732 171.819435 
L 392.871892 171.816905 
L 391.752052 171.814241 
L 390.632212 171.811439 
L 389.512372 171.808492 
L 388.392532 171.805397 
L 387.272692 171.802148 
L 386.152852 171.798739 
L 385.033012 171.795166 
L 383.913172 171.791421 
L 382.793332 171.787501 
L 381.673491 171.783398 
L 380.553651 171.779107 
L 379.433811 171.774621 
L 378.313971 171.769934 
L 377.194131 171.765039 
L 376.074291 171.759931 
L 374.954451 171.754601 
L 373.834611 171.749043 
L 372.714771 171.74325 
L 371.594931 171.737215 
L 370.475091 171.730929 
L 369.355251 171.724385 
L 368.235411 171.717576 
L 367.115571 171.710492 
L 365.995731 171.703127 
L 364.875891 171.69547 
L 363.756051 171.687514 
L 362.636211 171.67925 
L 361.516371 171.670668 
L 360.396531 171.661759 
L 359.276691 171.652513 
L 358.15685 171.642921 
L 357.03701 171.632972 
L 355.91717 171.622656 
L 354.79733 171.611963 
L 353.67749 171.600881 
L 352.55765 171.589399 
L 351.43781 171.577506 
L 350.31797 171.565191 
L 349.19813 171.55244 
L 348.07829 171.539242 
L 346.95845 171.525584 
L 345.83861 171.511454 
L 344.71877 171.496837 
L 343.59893 171.48172 
L 342.47909 171.466089 
L 341.35925 171.44993 
L 340.23941 171.433228 
L 339.11957 171.415968 
L 337.99973 171.398134 
L 336.87989 171.37971 
L 335.76005 171.36068 
L 334.640209 171.341027 
L 333.520369 171.320734 
L 332.400529 171.299784 
L 331.280689 171.278157 
L 330.160849 171.255835 
L 329.041009 171.2328 
L 327.921169 171.209031 
L 326.801329 171.184508 
L 325.681489 171.15921 
L 324.561649 171.133117 
L 323.441809 171.106205 
L 322.321969 171.078453 
L 321.202129 171.049836 
L 320.082289 171.020332 
L 318.962449 170.989916 
L 317.842609 170.958562 
L 316.722769 170.926245 
L 315.602929 170.892938 
L 314.483089 170.858612 
L 313.363249 170.823241 
L 312.243409 170.786795 
L 311.123568 170.749244 
L 310.003728 170.710556 
L 308.883888 170.670702 
L 307.764048 170.629646 
L 306.644208 170.587357 
L 305.524368 170.543799 
L 304.404528 170.498936 
L 303.284688 170.452732 
L 302.164848 170.405149 
L 301.045008 170.356147 
L 299.925168 170.305685 
L 298.805328 170.253724 
L 297.685488 170.200218 
L 296.565648 170.145125 
L 295.445808 170.088398 
L 294.325968 170.029989 
L 293.206128 169.969851 
L 292.086288 169.907933 
L 290.966448 169.844183 
L 289.846608 169.778546 
L 288.726767 169.710968 
L 287.606927 169.641391 
L 286.487087 169.569755 
L 285.367247 169.495999 
L 284.247407 169.42006 
L 283.127567 169.341872 
L 282.007727 169.261367 
L 280.887887 169.178473 
L 279.768047 169.093119 
L 278.648207 169.005229 
L 277.528367 168.914724 
L 276.408527 168.821522 
L 275.288687 168.725541 
L 274.168847 168.626692 
L 273.049007 168.524885 
L 271.929167 168.420025 
L 270.809327 168.312016 
L 269.689487 168.200755 
L 268.569647 168.086137 
L 267.449807 167.968052 
L 266.329967 167.846388 
L 265.210126 167.721024 
L 264.090286 167.591838 
L 262.970446 167.458701 
L 261.850606 167.321479 
L 260.730766 167.180034 
L 259.610926 167.03422 
L 258.491086 166.883885 
L 257.371246 166.728872 
L 256.251406 166.569015 
L 255.131566 166.404142 
L 254.011726 166.234073 
L 252.891886 166.05862 
L 251.772046 165.877586 
L 250.652206 165.690766 
L 249.532366 165.497942 
L 248.412526 165.29889 
L 247.292686 165.093372 
L 246.172846 164.88114 
L 245.053006 164.661933 
L 243.933166 164.435476 
L 242.813326 164.201482 
L 241.693485 163.959648 
L 240.573645 163.709655 
L 239.453805 163.451167 
L 238.333965 163.183829 
L 237.214125 162.907269 
L 236.094285 162.621092 
L 234.974445 162.324881 
L 233.854605 162.018195 
L 232.734765 161.700569 
L 231.614925 161.371506 
L 230.495085 161.030483 
L 229.375245 160.676943 
L 228.255405 160.310294 
L 227.135565 159.929907 
L 226.015725 159.53511 
L 224.895885 159.125188 
L 223.776045 158.699378 
L 222.656205 158.256862 
L 221.536365 157.796767 
L 220.416525 157.318153 
L 219.296685 156.820015 
L 218.176844 156.30127 
L 217.057004 155.760752 
L 215.937164 155.197202 
L 214.817324 154.609261 
L 213.697484 153.995455 
L 212.577644 153.354186 
L 211.457804 152.683716 
L 210.337964 151.982152 
L 209.218124 151.247426 
L 208.098284 150.477271 
L 206.978444 149.669201 
L 205.858604 148.82048 
L 204.738764 147.928083 
L 203.618924 146.988663 
L 202.499084 145.998497 
L 201.379244 144.953434 
L 200.259404 143.848825 
L 199.139564 142.679441 
L 198.019724 141.439374 
L 196.899884 140.121918 
L 195.780043 138.719416 
L 194.660203 137.223078 
L 193.540363 135.622742 
L 192.420523 133.906584 
L 191.300683 132.060729 
L 190.180843 130.068756 
L 189.061003 127.911034 
L 187.941163 125.563838 
L 186.821323 122.998121 
L 185.701483 120.177798 
L 184.581643 117.057278 
L 183.461803 113.577792 
L 182.341963 109.661757 
L 181.222123 105.20374 
L 180.102283 100.05519 
L 178.982443 93.996938 
L 177.862603 86.685198 
L 176.742763 77.532582 
L 175.622923 65.397315 
L 174.503083 47.508595 
L 173.383243 12.534933 
L 172.263402 331.174656 
L 171.143562 296.200994 
L 170.023722 278.312273 
L 168.903882 266.177006 
L 167.784042 257.024391 
L 166.664202 249.712651 
L 165.544362 243.654398 
L 164.424522 238.505849 
L 163.304682 234.047831 
L 162.184842 230.131797 
L 161.065002 226.652311 
L 159.945162 223.53179 
L 158.825322 220.711468 
L 157.705482 218.14575 
L 156.585642 215.798554 
L 155.465802 213.640832 
L 154.345962 211.648859 
L 153.226122 209.803004 
L 152.106282 208.086846 
L 150.986442 206.486511 
L 149.866602 204.990172 
L 148.746761 203.58767 
L 147.626921 202.270214 
L 146.507081 201.030147 
L 145.387241 199.860763 
L 144.267401 198.756154 
L 143.147561 197.711091 
L 142.027721 196.720926 
L 140.907881 195.781505 
L 139.788041 194.889108 
L 138.668201 194.040387 
L 137.548361 193.232317 
L 136.428521 192.462163 
L 135.308681 191.727436 
L 134.188841 191.025872 
L 133.069001 190.355403 
L 131.949161 189.714134 
L 130.829321 189.100328 
L 129.709481 188.512386 
L 128.589641 187.948836 
L 127.469801 187.408318 
L 126.349961 186.889573 
L 125.23012 186.391435 
L 124.11028 185.912822 
L 122.99044 185.452726 
L 121.8706 185.01021 
L 120.75076 184.5844 
L 119.63092 184.174478 
L 118.51108 183.779681 
L 117.39124 183.399294 
L 116.2714 183.032645 
L 115.15156 182.679105 
L 114.03172 182.338082 
L 112.91188 182.00902 
L 111.79204 181.691393 
L 110.6722 181.384707 
L 109.55236 181.088496 
L 108.43252 180.802319 
L 107.31268 180.525759 
L 106.19284 180.258422 
L 105.073 179.999933 
L 103.95316 179.74994 
L 102.833319 179.508106 
L 101.713479 179.274112 
L 100.593639 179.047656 
L 99.473799 178.828448 
L 98.353959 178.616216 
L 97.234119 178.410698 
L 96.114279 178.211646 
L 94.994439 178.018823 
L 93.874599 177.832002 
L 92.754759 177.650968 
L 91.634919 177.475515 
L 90.515079 177.305446 
L 89.395239 177.140574 
L 88.275399 176.980717 
L 87.155559 176.825703 
L 86.035719 176.675368 
L 84.915879 176.529554 
L 83.796039 176.388109 
L 82.676199 176.250888 
L 81.556359 176.117751 
L 80.436519 175.988564 
L 79.316678 175.863201 
L 78.196838 175.741536 
L 77.076998 175.623451 
L 75.957158 175.508834 
L 74.837318 175.397573 
L 73.717478 175.289563 
L 72.597638 175.184704 
L 71.477798 175.082896 
L 70.357958 174.984047 
L 69.238118 174.888066 
L 68.118278 174.794865 
L 66.998438 174.70436 
L 65.878598 174.616469 
L 64.758758 174.531115 
L 63.638918 174.448222 
L 62.519078 174.367716 
L 61.399238 174.289528 
L 60.279398 174.213589 
L 59.159558 174.139833 
L 58.039718 174.068198 
L 56.919878 173.99862 
L 55.800037 173.931042 
L 54.680197 173.865406 
L 53.560357 173.801655 
L 52.440517 173.739737 
L 51.320677 173.679599 
L 50.200837 173.621191 
L 49.080997 173.564463 
L 47.961157 173.50937 
L 46.841317 173.455865 
L 45.721477 173.403903 
L 44.601637 173.353442 
L 43.481797 173.30444 
L 42.361957 173.256856 
L 41.242117 173.210652 
L 40.122277 173.165789 
L 39.002437 173.122231 
L 37.882597 173.079942 
L 36.762757 173.038887 
L 35.642917 172.999032 
L 34.523077 172.960345 
L 33.403237 172.922793 
L 32.283396 172.886347 
L 31.163556 172.850976 
L 30.043716 172.816651 
L 28.923876 172.783343 
L 27.804036 172.751026 
L 26.684196 172.719672 
L 25.564356 172.689256 
L 24.444516 172.659752 
L 23.324676 172.631136 
L 22.204836 172.603383 
L 21.084996 172.576472 
L 19.965156 172.550378 
L 18.845316 172.52508 
L 17.725476 172.500557 
L 16.605636 172.476788 
L 15.485796 172.453753 
L 14.365956 172.431431 
L 13.246116 172.409805 
L 12.126276 172.388854 
L 11.006436 172.368561 
L 9.886595 172.348908 
L 8.766755 172.329879 
L 7.646915 172.311455 
L 6.527075 172.293621 
L 5.407235 172.27636 
L 4.287395 172.259658 
L 3.167555 172.243499 
L 2.047715 172.227868 
L 0.927875 172.212751 
L -0.191965 172.198135 
L -1.311805 172.184004 
L -2.431645 172.170346 
L -3.551485 172.157148 
L -4.671325 172.144398 
L -5.791165 172.132082 
L -6.911005 172.120189 
L -8.030845 172.108708 
L -9.150685 172.097626 
L -10.270525 172.086932 
L -11.390365 172.076616 
L -12.510205 172.066667 
L -13.630046 172.057075 
L -14.749886 172.04783 
L -15.869726 172.038921 
L -16.989566 172.030338 
L -18.109406 172.022074 
L -19.229246 172.014118 
L -20.349086 172.006462 
L -21.468926 171.999096 
L -22.588766 171.992013 
L -23.708606 171.985203 
L -24.828446 171.978659 
L -25.948286 171.972374 
L -27.068126 171.966338 
L -28.187966 171.960545 
L -29.307806 171.954987 
L -30.427646 171.949658 
L -31.547486 171.944549 
L -32.667326 171.939655 
L -33.787166 171.934968 
L -34.907006 171.930482 
L -36.026846 171.92619 
L -37.146687 171.922088 
L -38.266527 171.918167 
L -39.386367 171.914423 
L -40.506207 171.910849 
L -41.626047 171.90744 
L -42.745887 171.904191 
L -43.865727 171.901096 
L -44.985567 171.89815 
L -46.105407 171.895347 
L -47.225247 171.892683 
L -48.345087 171.890153 
L -49.464927 171.887752 
L -50.584767 171.885475 
L -51.704607 171.883318 
L -52.824447 171.881276 
L -53.944287 171.879346 
L -55.064127 171.877522 
L -56.183967 171.875802 
L -57.303807 171.87418 
L -58.423647 171.872652 
L -59.543487 171.871216 
L -60.663328 171.869867 
L -61.783168 171.868602 
L -62.903008 171.867417 
L -64.022848 171.866308 
L -65.142688 171.865273 
L -66.262528 171.864308 
L -67.382368 171.86341 
L -68.502208 171.862575 
L -69.622048 171.861801 
L -70.741888 171.861085 
L -71.861728 171.860424 
L -72.981568 171.859815 
L -74.101408 171.859256 
L -75.221248 171.858743 
L -76.341088 171.858274 
L -77.460928 171.857847 
L -78.580768 171.857459 
L -79.700608 171.857109 
L -80.820448 171.856792 
L -81.940288 171.856509 
L -83.060129 171.856255 
L -84.179969 171.856029 
L -85.299809 171.85583 
L -86.419649 171.855655 
L -87.539489 171.855502 
L -88.659329 171.85537 
L -89.779169 171.855256 
L -90.899009 171.855159 
L -92.018849 171.855078 
L -93.138689 171.855011 
L -94.258529 171.854955 
L -95.378369 171.854911 
L -96.498209 171.854876 
L -97.618049 171.854849 
L -98.737889 171.854829 
L -99.857729 171.854815 
L -100.977569 171.854805 
L -102.097409 171.854799 
L -103.217249 171.854796 
L -104.337089 171.854795 
L -105.456929 171.854794 
L -106.57677 171.854794 
z
" clip-path="url(#p767fbced8c)" style="fill: #a52a2a; fill-opacity: 0.4; stroke: #a52a2a; stroke-opacity: 0.4"/>
   </g>
   <g id="PolyCollection_2">
    <defs>
     <path id="meb1a81f8ca" d="M 61.943323 -174.95427 
L 61.943323 -174.95427 
L 62.387731 -174.954717 
L 62.83214 -174.956059 
L 63.276549 -174.958302 
L 63.720958 -174.961453 
L 64.165367 -174.965516 
L 64.609775 -174.970497 
L 65.054184 -174.976402 
L 65.498593 -174.983236 
L 65.943002 -174.991005 
L 66.387411 -174.999716 
L 66.831819 -175.009373 
L 67.276228 -175.019983 
L 67.720637 -175.031553 
L 68.165046 -175.044087 
L 68.609455 -175.057593 
L 69.053864 -175.072076 
L 69.498272 -175.087542 
L 69.942681 -175.103999 
L 70.38709 -175.121452 
L 70.831499 -175.139908 
L 71.275908 -175.159374 
L 71.720316 -175.179856 
L 72.164725 -175.20136 
L 72.609134 -175.223895 
L 73.053543 -175.247465 
L 73.497952 -175.27208 
L 73.942361 -175.297744 
L 74.386769 -175.324467 
L 74.831178 -175.352254 
L 75.275587 -175.381112 
L 75.719996 -175.411051 
L 76.164405 -175.442076 
L 76.608813 -175.474195 
L 77.053222 -175.507416 
L 77.497631 -175.541746 
L 77.94204 -175.577194 
L 78.386449 -175.613766 
L 78.830858 -175.651472 
L 79.275266 -175.690319 
L 79.719675 -175.730315 
L 80.164084 -175.771469 
L 80.608493 -175.813788 
L 81.052902 -175.857282 
L 81.49731 -175.901959 
L 81.941719 -175.947827 
L 82.386128 -175.994895 
L 82.830537 -176.043172 
L 83.274946 -176.092667 
L 83.719355 -176.14339 
L 84.163763 -176.195348 
L 84.608172 -176.248552 
L 85.052581 -176.303012 
L 85.49699 -176.358735 
L 85.941399 -176.415734 
L 86.385807 -176.474016 
L 86.830216 -176.533592 
L 87.274625 -176.594472 
L 87.719034 -176.656666 
L 88.163443 -176.720184 
L 88.607852 -176.785038 
L 89.05226 -176.851237 
L 89.496669 -176.918792 
L 89.941078 -176.987714 
L 90.385487 -177.058014 
L 90.829896 -177.129704 
L 91.274304 -177.202794 
L 91.718713 -177.277296 
L 92.163122 -177.353222 
L 92.607531 -177.430583 
L 93.05194 -177.509391 
L 93.496349 -177.589659 
L 93.940757 -177.671399 
L 94.385166 -177.754623 
L 94.829575 -177.839344 
L 95.273984 -177.925574 
L 95.718393 -178.013327 
L 96.162801 -178.102616 
L 96.60721 -178.193454 
L 97.051619 -178.285855 
L 97.496028 -178.379833 
L 97.940437 -178.4754 
L 98.384846 -178.572573 
L 98.829254 -178.671365 
L 99.273663 -178.77179 
L 99.718072 -178.873864 
L 100.162481 -178.977602 
L 100.60689 -179.083018 
L 101.051298 -179.190129 
L 101.495707 -179.29895 
L 101.940116 -179.409497 
L 102.384525 -179.521786 
L 102.828934 -179.635835 
L 103.273343 -179.751659 
L 103.717751 -179.869276 
L 104.16216 -179.988703 
L 104.606569 -180.109958 
L 105.050978 -180.233058 
L 105.495387 -180.358022 
L 105.939795 -180.484868 
L 106.384204 -180.613615 
L 106.828613 -180.744283 
L 107.273022 -180.87689 
L 107.717431 -181.011456 
L 108.16184 -181.148002 
L 108.606248 -181.286547 
L 109.050657 -181.427114 
L 109.495066 -181.569722 
L 109.939475 -181.714393 
L 110.383884 -181.86115 
L 110.828292 -182.010014 
L 111.272701 -182.161009 
L 111.71711 -182.314156 
L 112.161519 -182.469481 
L 112.605928 -182.627007 
L 113.050337 -182.786758 
L 113.494745 -182.948759 
L 113.939154 -183.113035 
L 114.383563 -183.279613 
L 114.827972 -183.448519 
L 115.272381 -183.619779 
L 115.716789 -183.79342 
L 116.161198 -183.969472 
L 116.605607 -184.147961 
L 117.050016 -184.328917 
L 117.494425 -184.512369 
L 117.938834 -184.698349 
L 118.383242 -184.886885 
L 118.827651 -185.078011 
L 119.27206 -185.271757 
L 119.716469 -185.468157 
L 120.160878 -185.667243 
L 120.605286 -185.869051 
L 121.049695 -186.073614 
L 121.494104 -186.280968 
L 121.938513 -186.491151 
L 122.382922 -186.704198 
L 122.827331 -186.920147 
L 123.271739 -187.139038 
L 123.716148 -187.360911 
L 124.160557 -187.585805 
L 124.604966 -187.813762 
L 125.049375 -188.044825 
L 125.493783 -188.279037 
L 125.938192 -188.516443 
L 126.382601 -188.757088 
L 126.82701 -189.001018 
L 127.271419 -189.248282 
L 127.715828 -189.498928 
L 128.160236 -189.753007 
L 128.604645 -190.010569 
L 129.049054 -190.271668 
L 129.493463 -190.536357 
L 129.937872 -190.804692 
L 130.38228 -191.07673 
L 130.826689 -191.352529 
L 131.271098 -191.632148 
L 131.715507 -191.91565 
L 132.159916 -192.203097 
L 132.604325 -192.494555 
L 133.048733 -192.790089 
L 133.493142 -193.089769 
L 133.937551 -193.393665 
L 134.38196 -193.701849 
L 134.826369 -194.014396 
L 135.270777 -194.331382 
L 135.715186 -194.652888 
L 136.159595 -194.978994 
L 136.604004 -195.309784 
L 137.048413 -195.645344 
L 137.492821 -195.985764 
L 137.93723 -196.331136 
L 138.381639 -196.681555 
L 138.826048 -197.037118 
L 139.270457 -197.397928 
L 139.714866 -197.764087 
L 140.159274 -198.135705 
L 140.603683 -198.512894 
L 141.048092 -198.895769 
L 141.492501 -199.284449 
L 141.93691 -199.679059 
L 142.381318 -200.079727 
L 142.825727 -200.486586 
L 143.270136 -200.899775 
L 143.714545 -201.319437 
L 144.158954 -201.74572 
L 144.603363 -202.178779 
L 145.047771 -202.618775 
L 145.49218 -203.065875 
L 145.936589 -203.520253 
L 146.380998 -203.98209 
L 146.825407 -204.451575 
L 147.269815 -204.928905 
L 147.714224 -205.414286 
L 148.158633 -205.907932 
L 148.603042 -206.410068 
L 149.047451 -206.920928 
L 149.49186 -207.440759 
L 149.936268 -207.969817 
L 150.380677 -208.508373 
L 150.825086 -209.056711 
L 151.269495 -209.615128 
L 151.713904 -210.183938 
L 152.158312 -210.763471 
L 152.602721 -211.354074 
L 153.04713 -211.956115 
L 153.491539 -212.569981 
L 153.935948 -213.196083 
L 154.380357 -213.834855 
L 154.824765 -214.486758 
L 155.269174 -215.152282 
L 155.713583 -215.831946 
L 156.157992 -216.526306 
L 156.602401 -217.235953 
L 157.046809 -217.961521 
L 157.491218 -218.703687 
L 157.935627 -219.463178 
L 158.380036 -220.240775 
L 158.824445 -221.037322 
L 159.268854 -221.853727 
L 159.713262 -222.690977 
L 160.157671 -223.550141 
L 160.60208 -224.432382 
L 161.046489 -225.338971 
L 161.490898 -226.2713 
L 161.935306 -227.230899 
L 162.379715 -228.219457 
L 162.824124 -229.238841 
L 163.268533 -230.291132 
L 163.712942 -231.378653 
L 164.157351 -232.504018 
L 164.601759 -233.670176 
L 165.046168 -234.880483 
L 165.490577 -236.138784 
L 165.934986 -237.449512 
L 166.379395 -238.817831 
L 166.823803 -240.249812 
L 167.268212 -241.752676 
L 167.712621 -243.335117 
L 168.15703 -245.007771 
L 168.601439 -246.783878 
L 169.045848 -248.68027 
L 169.490256 -250.71891 
L 169.934665 -252.929391 
L 170.379074 -255.353254 
L 170.823483 -258.052087 
L 171.267892 -261.124426 
L 171.7123 -264.747083 
L 172.156709 -269.306225 
L 172.601118 -276.129134 
L 173.045527 -73.779407 
L 173.489936 -80.602316 
L 173.934345 -85.161458 
L 174.378753 -88.784115 
L 174.823162 -91.856454 
L 175.267571 -94.555287 
L 175.71198 -96.97915 
L 176.156389 -99.189631 
L 176.600797 -101.228271 
L 177.045206 -103.124663 
L 177.489615 -104.900769 
L 177.934024 -106.573424 
L 178.378433 -108.155865 
L 178.822842 -109.658728 
L 179.26725 -111.09071 
L 179.711659 -112.459029 
L 180.156068 -113.769757 
L 180.600477 -115.028057 
L 181.044886 -116.238365 
L 181.489294 -117.404523 
L 181.933703 -118.529887 
L 182.378112 -119.617409 
L 182.822521 -120.6697 
L 183.26693 -121.689084 
L 183.711339 -122.677641 
L 184.155747 -123.637241 
L 184.600156 -124.56957 
L 185.044565 -125.476159 
L 185.488974 -126.3584 
L 185.933383 -127.217563 
L 186.377791 -128.054813 
L 186.8222 -128.871219 
L 187.266609 -129.667766 
L 187.711018 -130.445363 
L 188.155427 -131.204854 
L 188.599836 -131.947019 
L 189.044244 -132.672587 
L 189.488653 -133.382235 
L 189.933062 -134.076595 
L 190.377471 -134.756259 
L 190.82188 -135.421782 
L 191.266288 -136.073685 
L 191.710697 -136.712457 
L 192.155106 -137.338559 
L 192.599515 -137.952426 
L 193.043924 -138.554467 
L 193.488333 -139.14507 
L 193.932741 -139.724603 
L 194.37715 -140.293413 
L 194.821559 -140.85183 
L 195.265968 -141.400167 
L 195.710377 -141.938724 
L 196.154785 -142.467782 
L 196.599194 -142.987612 
L 197.043603 -143.498473 
L 197.488012 -144.000608 
L 197.932421 -144.494255 
L 198.37683 -144.979635 
L 198.821238 -145.456966 
L 199.265647 -145.926451 
L 199.710056 -146.388288 
L 200.154465 -146.842666 
L 200.598874 -147.289766 
L 201.043282 -147.729762 
L 201.487691 -148.162821 
L 201.9321 -148.589104 
L 202.376509 -149.008765 
L 202.820918 -149.421954 
L 203.265327 -149.828814 
L 203.709735 -150.229482 
L 204.154144 -150.624092 
L 204.598553 -151.012772 
L 205.042962 -151.395647 
L 205.487371 -151.772835 
L 205.931779 -152.144454 
L 206.376188 -152.510613 
L 206.820597 -152.871422 
L 207.265006 -153.226986 
L 207.709415 -153.577404 
L 208.153824 -153.922776 
L 208.598232 -154.263197 
L 209.042641 -154.598757 
L 209.48705 -154.929547 
L 209.931459 -155.255653 
L 210.375868 -155.577158 
L 210.820276 -155.894145 
L 211.264685 -156.206692 
L 211.709094 -156.514876 
L 212.153503 -156.818772 
L 212.597912 -157.118452 
L 213.04232 -157.413986 
L 213.486729 -157.705443 
L 213.931138 -157.992891 
L 214.375547 -158.276392 
L 214.819956 -158.556012 
L 215.264365 -158.831811 
L 215.708773 -159.103848 
L 216.153182 -159.372183 
L 216.597591 -159.636873 
L 217.042 -159.897972 
L 217.486409 -160.155534 
L 217.930817 -160.409613 
L 218.375226 -160.660259 
L 218.819635 -160.907523 
L 219.264044 -161.151453 
L 219.708453 -161.392098 
L 220.152862 -161.629503 
L 220.59727 -161.863715 
L 221.041679 -162.094778 
L 221.486088 -162.322736 
L 221.930497 -162.54763 
L 222.374906 -162.769502 
L 222.819314 -162.988393 
L 223.263723 -163.204343 
L 223.708132 -163.41739 
L 224.152541 -163.627572 
L 224.59695 -163.834927 
L 225.041359 -164.03949 
L 225.485767 -164.241298 
L 225.930176 -164.440384 
L 226.374585 -164.636784 
L 226.818994 -164.83053 
L 227.263403 -165.021655 
L 227.707811 -165.210192 
L 228.15222 -165.396171 
L 228.596629 -165.579624 
L 229.041038 -165.76058 
L 229.485447 -165.939069 
L 229.929856 -166.11512 
L 230.374264 -166.288762 
L 230.818673 -166.460022 
L 231.263082 -166.628927 
L 231.707491 -166.795505 
L 232.1519 -166.959782 
L 232.596308 -167.121783 
L 233.040717 -167.281534 
L 233.485126 -167.43906 
L 233.929535 -167.594384 
L 234.373944 -167.747532 
L 234.818353 -167.898527 
L 235.262761 -168.047391 
L 235.70717 -168.194148 
L 236.151579 -168.338819 
L 236.595988 -168.481427 
L 237.040397 -168.621993 
L 237.484805 -168.760539 
L 237.929214 -168.897085 
L 238.373623 -169.031651 
L 238.818032 -169.164258 
L 239.262441 -169.294925 
L 239.70685 -169.423673 
L 240.151258 -169.550519 
L 240.595667 -169.675483 
L 241.040076 -169.798583 
L 241.484485 -169.919838 
L 241.928894 -170.039265 
L 242.373302 -170.156882 
L 242.817711 -170.272706 
L 243.26212 -170.386754 
L 243.706529 -170.499044 
L 244.150938 -170.609591 
L 244.595347 -170.718412 
L 245.039755 -170.825523 
L 245.484164 -170.930939 
L 245.928573 -171.034676 
L 246.372982 -171.13675 
L 246.817391 -171.237176 
L 247.261799 -171.335968 
L 247.706208 -171.43314 
L 248.150617 -171.528708 
L 248.595026 -171.622686 
L 249.039435 -171.715086 
L 249.483844 -171.805925 
L 249.928252 -171.895213 
L 250.372661 -171.982967 
L 250.81707 -172.069197 
L 251.261479 -172.153918 
L 251.705888 -172.237142 
L 252.150296 -172.318881 
L 252.594705 -172.399149 
L 253.039114 -172.477958 
L 253.483523 -172.555319 
L 253.927932 -172.631245 
L 254.372341 -172.705747 
L 254.816749 -172.778837 
L 255.261158 -172.850526 
L 255.705567 -172.920827 
L 256.149976 -172.989749 
L 256.594385 -173.057304 
L 257.038793 -173.123503 
L 257.483202 -173.188357 
L 257.927611 -173.251875 
L 258.37202 -173.314069 
L 258.816429 -173.374949 
L 259.260838 -173.434525 
L 259.705246 -173.492807 
L 260.149655 -173.549805 
L 260.594064 -173.605529 
L 261.038473 -173.659988 
L 261.482882 -173.713192 
L 261.92729 -173.765151 
L 262.371699 -173.815873 
L 262.816108 -173.865369 
L 263.260517 -173.913646 
L 263.704926 -173.960714 
L 264.149335 -174.006582 
L 264.593743 -174.051259 
L 265.038152 -174.094752 
L 265.482561 -174.137072 
L 265.92697 -174.178225 
L 266.371379 -174.218222 
L 266.815787 -174.257068 
L 267.260196 -174.294774 
L 267.704605 -174.331347 
L 268.149014 -174.366795 
L 268.593423 -174.401125 
L 269.037832 -174.434346 
L 269.48224 -174.466465 
L 269.926649 -174.49749 
L 270.371058 -174.527428 
L 270.815467 -174.556287 
L 271.259876 -174.584074 
L 271.704284 -174.610796 
L 272.148693 -174.636461 
L 272.593102 -174.661075 
L 273.037511 -174.684646 
L 273.48192 -174.70718 
L 273.926329 -174.728685 
L 274.370737 -174.749167 
L 274.815146 -174.768632 
L 275.259555 -174.787089 
L 275.703964 -174.804542 
L 276.148373 -174.820998 
L 276.592781 -174.836465 
L 277.03719 -174.850948 
L 277.481599 -174.864454 
L 277.926008 -174.876988 
L 278.370417 -174.888557 
L 278.814826 -174.899168 
L 279.259234 -174.908825 
L 279.703643 -174.917536 
L 280.148052 -174.925305 
L 280.592461 -174.932139 
L 281.03687 -174.938044 
L 281.481278 -174.943025 
L 281.925687 -174.947088 
L 282.370096 -174.950238 
L 282.814505 -174.952482 
L 283.258914 -174.953824 
L 283.703323 -174.95427 
L 283.703323 -174.95427 
L 283.703323 -174.95427 
L 283.258914 -174.954717 
L 282.814505 -174.956059 
L 282.370096 -174.958302 
L 281.925687 -174.961453 
L 281.481278 -174.965516 
L 281.03687 -174.970497 
L 280.592461 -174.976402 
L 280.148052 -174.983236 
L 279.703643 -174.991005 
L 279.259234 -174.999716 
L 278.814826 -175.009373 
L 278.370417 -175.019983 
L 277.926008 -175.031553 
L 277.481599 -175.044087 
L 277.03719 -175.057593 
L 276.592781 -175.072076 
L 276.148373 -175.087542 
L 275.703964 -175.103999 
L 275.259555 -175.121452 
L 274.815146 -175.139908 
L 274.370737 -175.159374 
L 273.926329 -175.179856 
L 273.48192 -175.20136 
L 273.037511 -175.223895 
L 272.593102 -175.247465 
L 272.148693 -175.27208 
L 271.704284 -175.297744 
L 271.259876 -175.324467 
L 270.815467 -175.352254 
L 270.371058 -175.381112 
L 269.926649 -175.411051 
L 269.48224 -175.442076 
L 269.037832 -175.474195 
L 268.593423 -175.507416 
L 268.149014 -175.541746 
L 267.704605 -175.577194 
L 267.260196 -175.613766 
L 266.815787 -175.651472 
L 266.371379 -175.690319 
L 265.92697 -175.730315 
L 265.482561 -175.771469 
L 265.038152 -175.813788 
L 264.593743 -175.857282 
L 264.149335 -175.901959 
L 263.704926 -175.947827 
L 263.260517 -175.994895 
L 262.816108 -176.043172 
L 262.371699 -176.092667 
L 261.92729 -176.14339 
L 261.482882 -176.195348 
L 261.038473 -176.248552 
L 260.594064 -176.303012 
L 260.149655 -176.358735 
L 259.705246 -176.415734 
L 259.260838 -176.474016 
L 258.816429 -176.533592 
L 258.37202 -176.594472 
L 257.927611 -176.656666 
L 257.483202 -176.720184 
L 257.038793 -176.785038 
L 256.594385 -176.851237 
L 256.149976 -176.918792 
L 255.705567 -176.987714 
L 255.261158 -177.058014 
L 254.816749 -177.129704 
L 254.372341 -177.202794 
L 253.927932 -177.277296 
L 253.483523 -177.353222 
L 253.039114 -177.430583 
L 252.594705 -177.509391 
L 252.150296 -177.589659 
L 251.705888 -177.671399 
L 251.261479 -177.754623 
L 250.81707 -177.839344 
L 250.372661 -177.925574 
L 249.928252 -178.013327 
L 249.483844 -178.102616 
L 249.039435 -178.193454 
L 248.595026 -178.285855 
L 248.150617 -178.379833 
L 247.706208 -178.4754 
L 247.261799 -178.572573 
L 246.817391 -178.671365 
L 246.372982 -178.77179 
L 245.928573 -178.873864 
L 245.484164 -178.977602 
L 245.039755 -179.083018 
L 244.595347 -179.190129 
L 244.150938 -179.29895 
L 243.706529 -179.409497 
L 243.26212 -179.521786 
L 242.817711 -179.635835 
L 242.373302 -179.751659 
L 241.928894 -179.869276 
L 241.484485 -179.988703 
L 241.040076 -180.109958 
L 240.595667 -180.233058 
L 240.151258 -180.358022 
L 239.70685 -180.484868 
L 239.262441 -180.613615 
L 238.818032 -180.744283 
L 238.373623 -180.87689 
L 237.929214 -181.011456 
L 237.484805 -181.148002 
L 237.040397 -181.286547 
L 236.595988 -181.427114 
L 236.151579 -181.569722 
L 235.70717 -181.714393 
L 235.262761 -181.86115 
L 234.818353 -182.010014 
L 234.373944 -182.161009 
L 233.929535 -182.314156 
L 233.485126 -182.469481 
L 233.040717 -182.627007 
L 232.596308 -182.786758 
L 232.1519 -182.948759 
L 231.707491 -183.113035 
L 231.263082 -183.279613 
L 230.818673 -183.448519 
L 230.374264 -183.619779 
L 229.929856 -183.79342 
L 229.485447 -183.969472 
L 229.041038 -184.147961 
L 228.596629 -184.328917 
L 228.15222 -184.512369 
L 227.707811 -184.698349 
L 227.263403 -184.886885 
L 226.818994 -185.078011 
L 226.374585 -185.271757 
L 225.930176 -185.468157 
L 225.485767 -185.667243 
L 225.041359 -185.869051 
L 224.59695 -186.073614 
L 224.152541 -186.280968 
L 223.708132 -186.491151 
L 223.263723 -186.704198 
L 222.819314 -186.920147 
L 222.374906 -187.139038 
L 221.930497 -187.360911 
L 221.486088 -187.585805 
L 221.041679 -187.813762 
L 220.59727 -188.044825 
L 220.152862 -188.279037 
L 219.708453 -188.516443 
L 219.264044 -188.757088 
L 218.819635 -189.001018 
L 218.375226 -189.248282 
L 217.930817 -189.498928 
L 217.486409 -189.753007 
L 217.042 -190.010569 
L 216.597591 -190.271668 
L 216.153182 -190.536357 
L 215.708773 -190.804692 
L 215.264365 -191.07673 
L 214.819956 -191.352529 
L 214.375547 -191.632148 
L 213.931138 -191.91565 
L 213.486729 -192.203097 
L 213.04232 -192.494555 
L 212.597912 -192.790089 
L 212.153503 -193.089769 
L 211.709094 -193.393665 
L 211.264685 -193.701849 
L 210.820276 -194.014396 
L 210.375868 -194.331382 
L 209.931459 -194.652888 
L 209.48705 -194.978994 
L 209.042641 -195.309784 
L 208.598232 -195.645344 
L 208.153824 -195.985764 
L 207.709415 -196.331136 
L 207.265006 -196.681555 
L 206.820597 -197.037118 
L 206.376188 -197.397928 
L 205.931779 -197.764087 
L 205.487371 -198.135705 
L 205.042962 -198.512894 
L 204.598553 -198.895769 
L 204.154144 -199.284449 
L 203.709735 -199.679059 
L 203.265327 -200.079727 
L 202.820918 -200.486586 
L 202.376509 -200.899775 
L 201.9321 -201.319437 
L 201.487691 -201.74572 
L 201.043282 -202.178779 
L 200.598874 -202.618775 
L 200.154465 -203.065875 
L 199.710056 -203.520253 
L 199.265647 -203.98209 
L 198.821238 -204.451575 
L 198.37683 -204.928905 
L 197.932421 -205.414286 
L 197.488012 -205.907932 
L 197.043603 -206.410068 
L 196.599194 -206.920928 
L 196.154785 -207.440759 
L 195.710377 -207.969817 
L 195.265968 -208.508373 
L 194.821559 -209.056711 
L 194.37715 -209.615128 
L 193.932741 -210.183938 
L 193.488333 -210.763471 
L 193.043924 -211.354074 
L 192.599515 -211.956115 
L 192.155106 -212.569981 
L 191.710697 -213.196083 
L 191.266288 -213.834855 
L 190.82188 -214.486758 
L 190.377471 -215.152282 
L 189.933062 -215.831946 
L 189.488653 -216.526306 
L 189.044244 -217.235953 
L 188.599836 -217.961521 
L 188.155427 -218.703687 
L 187.711018 -219.463178 
L 187.266609 -220.240775 
L 186.8222 -221.037322 
L 186.377791 -221.853727 
L 185.933383 -222.690977 
L 185.488974 -223.550141 
L 185.044565 -224.432382 
L 184.600156 -225.338971 
L 184.155747 -226.2713 
L 183.711339 -227.230899 
L 183.26693 -228.219457 
L 182.822521 -229.238841 
L 182.378112 -230.291132 
L 181.933703 -231.378653 
L 181.489294 -232.504018 
L 181.044886 -233.670176 
L 180.600477 -234.880483 
L 180.156068 -236.138784 
L 179.711659 -237.449512 
L 179.26725 -238.817831 
L 178.822842 -240.249812 
L 178.378433 -241.752676 
L 177.934024 -243.335117 
L 177.489615 -245.007771 
L 177.045206 -246.783878 
L 176.600797 -248.68027 
L 176.156389 -250.71891 
L 175.71198 -252.929391 
L 175.267571 -255.353254 
L 174.823162 -258.052087 
L 174.378753 -261.124426 
L 173.934345 -264.747083 
L 173.489936 -269.306225 
L 173.045527 -276.129134 
L 172.601118 -73.779407 
L 172.156709 -80.602316 
L 171.7123 -85.161458 
L 171.267892 -88.784115 
L 170.823483 -91.856454 
L 170.379074 -94.555287 
L 169.934665 -96.97915 
L 169.490256 -99.189631 
L 169.045848 -101.228271 
L 168.601439 -103.124663 
L 168.15703 -104.900769 
L 167.712621 -106.573424 
L 167.268212 -108.155865 
L 166.823803 -109.658728 
L 166.379395 -111.09071 
L 165.934986 -112.459029 
L 165.490577 -113.769757 
L 165.046168 -115.028057 
L 164.601759 -116.238365 
L 164.157351 -117.404523 
L 163.712942 -118.529887 
L 163.268533 -119.617409 
L 162.824124 -120.6697 
L 162.379715 -121.689084 
L 161.935306 -122.677641 
L 161.490898 -123.637241 
L 161.046489 -124.56957 
L 160.60208 -125.476159 
L 160.157671 -126.3584 
L 159.713262 -127.217563 
L 159.268854 -128.054813 
L 158.824445 -128.871219 
L 158.380036 -129.667766 
L 157.935627 -130.445363 
L 157.491218 -131.204854 
L 157.046809 -131.947019 
L 156.602401 -132.672587 
L 156.157992 -133.382235 
L 155.713583 -134.076595 
L 155.269174 -134.756259 
L 154.824765 -135.421782 
L 154.380357 -136.073685 
L 153.935948 -136.712457 
L 153.491539 -137.338559 
L 153.04713 -137.952426 
L 152.602721 -138.554467 
L 152.158312 -139.14507 
L 151.713904 -139.724603 
L 151.269495 -140.293413 
L 150.825086 -140.85183 
L 150.380677 -141.400167 
L 149.936268 -141.938724 
L 149.49186 -142.467782 
L 149.047451 -142.987612 
L 148.603042 -143.498473 
L 148.158633 -144.000608 
L 147.714224 -144.494255 
L 147.269815 -144.979635 
L 146.825407 -145.456966 
L 146.380998 -145.926451 
L 145.936589 -146.388288 
L 145.49218 -146.842666 
L 145.047771 -147.289766 
L 144.603363 -147.729762 
L 144.158954 -148.162821 
L 143.714545 -148.589104 
L 143.270136 -149.008765 
L 142.825727 -149.421954 
L 142.381318 -149.828814 
L 141.93691 -150.229482 
L 141.492501 -150.624092 
L 141.048092 -151.012772 
L 140.603683 -151.395647 
L 140.159274 -151.772835 
L 139.714866 -152.144454 
L 139.270457 -152.510613 
L 138.826048 -152.871422 
L 138.381639 -153.226986 
L 137.93723 -153.577404 
L 137.492821 -153.922776 
L 137.048413 -154.263197 
L 136.604004 -154.598757 
L 136.159595 -154.929547 
L 135.715186 -155.255653 
L 135.270777 -155.577158 
L 134.826369 -155.894145 
L 134.38196 -156.206692 
L 133.937551 -156.514876 
L 133.493142 -156.818772 
L 133.048733 -157.118452 
L 132.604325 -157.413986 
L 132.159916 -157.705443 
L 131.715507 -157.992891 
L 131.271098 -158.276392 
L 130.826689 -158.556012 
L 130.38228 -158.831811 
L 129.937872 -159.103848 
L 129.493463 -159.372183 
L 129.049054 -159.636873 
L 128.604645 -159.897972 
L 128.160236 -160.155534 
L 127.715828 -160.409613 
L 127.271419 -160.660259 
L 126.82701 -160.907523 
L 126.382601 -161.151453 
L 125.938192 -161.392098 
L 125.493783 -161.629503 
L 125.049375 -161.863715 
L 124.604966 -162.094778 
L 124.160557 -162.322736 
L 123.716148 -162.54763 
L 123.271739 -162.769502 
L 122.827331 -162.988393 
L 122.382922 -163.204343 
L 121.938513 -163.41739 
L 121.494104 -163.627572 
L 121.049695 -163.834927 
L 120.605286 -164.03949 
L 120.160878 -164.241298 
L 119.716469 -164.440384 
L 119.27206 -164.636784 
L 118.827651 -164.83053 
L 118.383242 -165.021655 
L 117.938834 -165.210192 
L 117.494425 -165.396171 
L 117.050016 -165.579624 
L 116.605607 -165.76058 
L 116.161198 -165.939069 
L 115.716789 -166.11512 
L 115.272381 -166.288762 
L 114.827972 -166.460022 
L 114.383563 -166.628927 
L 113.939154 -166.795505 
L 113.494745 -166.959782 
L 113.050337 -167.121783 
L 112.605928 -167.281534 
L 112.161519 -167.43906 
L 111.71711 -167.594384 
L 111.272701 -167.747532 
L 110.828292 -167.898527 
L 110.383884 -168.047391 
L 109.939475 -168.194148 
L 109.495066 -168.338819 
L 109.050657 -168.481427 
L 108.606248 -168.621993 
L 108.16184 -168.760539 
L 107.717431 -168.897085 
L 107.273022 -169.031651 
L 106.828613 -169.164258 
L 106.384204 -169.294925 
L 105.939795 -169.423673 
L 105.495387 -169.550519 
L 105.050978 -169.675483 
L 104.606569 -169.798583 
L 104.16216 -169.919838 
L 103.717751 -170.039265 
L 103.273343 -170.156882 
L 102.828934 -170.272706 
L 102.384525 -170.386754 
L 101.940116 -170.499044 
L 101.495707 -170.609591 
L 101.051298 -170.718412 
L 100.60689 -170.825523 
L 100.162481 -170.930939 
L 99.718072 -171.034676 
L 99.273663 -171.13675 
L 98.829254 -171.237176 
L 98.384846 -171.335968 
L 97.940437 -171.43314 
L 97.496028 -171.528708 
L 97.051619 -171.622686 
L 96.60721 -171.715086 
L 96.162801 -171.805925 
L 95.718393 -171.895213 
L 95.273984 -171.982967 
L 94.829575 -172.069197 
L 94.385166 -172.153918 
L 93.940757 -172.237142 
L 93.496349 -172.318881 
L 93.05194 -172.399149 
L 92.607531 -172.477958 
L 92.163122 -172.555319 
L 91.718713 -172.631245 
L 91.274304 -172.705747 
L 90.829896 -172.778837 
L 90.385487 -172.850526 
L 89.941078 -172.920827 
L 89.496669 -172.989749 
L 89.05226 -173.057304 
L 88.607852 -173.123503 
L 88.163443 -173.188357 
L 87.719034 -173.251875 
L 87.274625 -173.314069 
L 86.830216 -173.374949 
L 86.385807 -173.434525 
L 85.941399 -173.492807 
L 85.49699 -173.549805 
L 85.052581 -173.605529 
L 84.608172 -173.659988 
L 84.163763 -173.713192 
L 83.719355 -173.765151 
L 83.274946 -173.815873 
L 82.830537 -173.865369 
L 82.386128 -173.913646 
L 81.941719 -173.960714 
L 81.49731 -174.006582 
L 81.052902 -174.051259 
L 80.608493 -174.094752 
L 80.164084 -174.137072 
L 79.719675 -174.178225 
L 79.275266 -174.218222 
L 78.830858 -174.257068 
L 78.386449 -174.294774 
L 77.94204 -174.331347 
L 77.497631 -174.366795 
L 77.053222 -174.401125 
L 76.608813 -174.434346 
L 76.164405 -174.466465 
L 75.719996 -174.49749 
L 75.275587 -174.527428 
L 74.831178 -174.556287 
L 74.386769 -174.584074 
L 73.942361 -174.610796 
L 73.497952 -174.636461 
L 73.053543 -174.661075 
L 72.609134 -174.684646 
L 72.164725 -174.70718 
L 71.720316 -174.728685 
L 71.275908 -174.749167 
L 70.831499 -174.768632 
L 70.38709 -174.787089 
L 69.942681 -174.804542 
L 69.498272 -174.820998 
L 69.053864 -174.836465 
L 68.609455 -174.850948 
L 68.165046 -174.864454 
L 67.720637 -174.876988 
L 67.276228 -174.888557 
L 66.831819 -174.899168 
L 66.387411 -174.908825 
L 65.943002 -174.917536 
L 65.498593 -174.925305 
L 65.054184 -174.932139 
L 64.609775 -174.938044 
L 64.165367 -174.943025 
L 63.720958 -174.947088 
L 63.276549 -174.950238 
L 62.83214 -174.952482 
L 62.387731 -174.953824 
L 61.943323 -174.95427 
z
" style="stroke: #87cefa; stroke-opacity: 0.4"/>
    </defs>
    <g clip-path="url(#p767fbced8c)">
     <use xlink:href="#meb1a81f8ca" x="0" y="346.809064" style="fill: #87cefa; fill-opacity: 0.4; stroke: #87cefa; stroke-opacity: 0.4"/>
    </g>
   </g>
   <g id="PolyCollection_3">
    <defs>
     <path id="m5f82c2be1b" d="M 117.383323 -174.95427 
L 117.383323 -174.95427 
L 117.605527 -175.176475 
L 117.827731 -175.398679 
L 118.049936 -175.620884 
L 118.27214 -175.843088 
L 118.494345 -176.065292 
L 118.716549 -176.287497 
L 118.938753 -176.509701 
L 119.160958 -176.731906 
L 119.383162 -176.95411 
L 119.605367 -177.176314 
L 119.827571 -177.398519 
L 120.049775 -177.620723 
L 120.27198 -177.842928 
L 120.494184 -178.065132 
L 120.716389 -178.287336 
L 120.938593 -178.509541 
L 121.160797 -178.731745 
L 121.383002 -178.95395 
L 121.605206 -179.176154 
L 121.827411 -179.398359 
L 122.049615 -179.620563 
L 122.271819 -179.842767 
L 122.494024 -180.064972 
L 122.716228 -180.287176 
L 122.938433 -180.509381 
L 123.160637 -180.731585 
L 123.382842 -180.953789 
L 123.605046 -181.175994 
L 123.82725 -181.398198 
L 124.049455 -181.620403 
L 124.271659 -181.842607 
L 124.493864 -182.064811 
L 124.716068 -182.287016 
L 124.938272 -182.50922 
L 125.160477 -182.731425 
L 125.382681 -182.953629 
L 125.604886 -183.175833 
L 125.82709 -183.398038 
L 126.049294 -183.620242 
L 126.271499 -183.842447 
L 126.493703 -184.064651 
L 126.715908 -184.286856 
L 126.938112 -184.50906 
L 127.160316 -184.731264 
L 127.382521 -184.953469 
L 127.604725 -185.175673 
L 127.82693 -185.397878 
L 128.049134 -185.620082 
L 128.271339 -185.842286 
L 128.493543 -186.064491 
L 128.715747 -186.286695 
L 128.937952 -186.5089 
L 129.160156 -186.731104 
L 129.382361 -186.953308 
L 129.604565 -187.175513 
L 129.826769 -187.397717 
L 130.048974 -187.619922 
L 130.271178 -187.842126 
L 130.493383 -188.06433 
L 130.715587 -188.286535 
L 130.937791 -188.508739 
L 131.159996 -188.730944 
L 131.3822 -188.953148 
L 131.604405 -189.175353 
L 131.826609 -189.397557 
L 132.048813 -189.619761 
L 132.271018 -189.841966 
L 132.493222 -190.06417 
L 132.715427 -190.286375 
L 132.937631 -190.508579 
L 133.159836 -190.730783 
L 133.38204 -190.952988 
L 133.604244 -191.175192 
L 133.826449 -191.397397 
L 134.048653 -191.619601 
L 134.270858 -191.841805 
L 134.493062 -192.06401 
L 134.715266 -192.286214 
L 134.937471 -192.508419 
L 135.159675 -192.730623 
L 135.38188 -192.952827 
L 135.604084 -193.175032 
L 135.826288 -193.397236 
L 136.048493 -193.619441 
L 136.270697 -193.841645 
L 136.492902 -194.06385 
L 136.715106 -194.286054 
L 136.93731 -194.508258 
L 137.159515 -194.730463 
L 137.381719 -194.952667 
L 137.603924 -195.174872 
L 137.826128 -195.397076 
L 138.048333 -195.61928 
L 138.270537 -195.841485 
L 138.492741 -196.063689 
L 138.714946 -196.285894 
L 138.93715 -196.508098 
L 139.159355 -196.730302 
L 139.381559 -196.952507 
L 139.603763 -197.174711 
L 139.825968 -197.396916 
L 140.048172 -197.61912 
L 140.270377 -197.841324 
L 140.492581 -198.063529 
L 140.714785 -198.285733 
L 140.93699 -198.507938 
L 141.159194 -198.730142 
L 141.381399 -198.952347 
L 141.603603 -199.174551 
L 141.825807 -199.396755 
L 142.048012 -199.61896 
L 142.270216 -199.841164 
L 142.492421 -200.063369 
L 142.714625 -200.285573 
L 142.93683 -200.507777 
L 143.159034 -200.729982 
L 143.381238 -200.952186 
L 143.603443 -201.174391 
L 143.825647 -201.396595 
L 144.047852 -201.618799 
L 144.270056 -201.841004 
L 144.49226 -202.063208 
L 144.714465 -202.285413 
L 144.936669 -202.507617 
L 145.158874 -202.729821 
L 145.381078 -202.952026 
L 145.603282 -203.17423 
L 145.825487 -203.396435 
L 146.047691 -203.618639 
L 146.269896 -203.840843 
L 146.4921 -204.063048 
L 146.714304 -204.285252 
L 146.936509 -204.507457 
L 147.158713 -204.729661 
L 147.380918 -204.951866 
L 147.603122 -205.17407 
L 147.825327 -205.396274 
L 148.047531 -205.618479 
L 148.269735 -205.840683 
L 148.49194 -206.062888 
L 148.714144 -206.285092 
L 148.936349 -206.507296 
L 149.158553 -206.729501 
L 149.380757 -206.951705 
L 149.602962 -207.17391 
L 149.825166 -207.396114 
L 150.047371 -207.618318 
L 150.269575 -207.840523 
L 150.491779 -208.062727 
L 150.713984 -208.284932 
L 150.936188 -208.507136 
L 151.158393 -208.72934 
L 151.380597 -208.951545 
L 151.602801 -209.173749 
L 151.825006 -209.395954 
L 152.04721 -209.618158 
L 152.269415 -209.840363 
L 152.491619 -210.062567 
L 152.713824 -210.284771 
L 152.936028 -210.506976 
L 153.158232 -210.72918 
L 153.380437 -210.951385 
L 153.602641 -211.173589 
L 153.824846 -211.395793 
L 154.04705 -211.617998 
L 154.269254 -211.840202 
L 154.491459 -212.062407 
L 154.713663 -212.284611 
L 154.935868 -212.506815 
L 155.158072 -212.72902 
L 155.380276 -212.951224 
L 155.602481 -213.173429 
L 155.824685 -213.395633 
L 156.04689 -213.617837 
L 156.269094 -213.840042 
L 156.491298 -214.062246 
L 156.713503 -214.284451 
L 156.935707 -214.506655 
L 157.157912 -214.72886 
L 157.380116 -214.951064 
L 157.60232 -215.173268 
L 157.824525 -215.395473 
L 158.046729 -215.617677 
L 158.268934 -215.839882 
L 158.491138 -216.062086 
L 158.713343 -216.28429 
L 158.935547 -216.506495 
L 159.157751 -216.728699 
L 159.379956 -216.950904 
L 159.60216 -217.173108 
L 159.824365 -217.395312 
L 160.046569 -217.617517 
L 160.268773 -217.839721 
L 160.490978 -218.061926 
L 160.713182 -218.28413 
L 160.935387 -218.506334 
L 161.157591 -218.728539 
L 161.379795 -218.950743 
L 161.602 -219.172948 
L 161.824204 -219.395152 
L 162.046409 -219.617357 
L 162.268613 -219.839561 
L 162.490817 -220.061765 
L 162.713022 -220.28397 
L 162.935226 -220.506174 
L 163.157431 -220.728379 
L 163.379635 -220.950583 
L 163.60184 -221.172787 
L 163.824044 -221.394992 
L 164.046248 -221.617196 
L 164.268453 -221.839401 
L 164.490657 -222.061605 
L 164.712862 -222.283809 
L 164.935066 -222.506014 
L 165.15727 -222.728218 
L 165.379475 -222.950423 
L 165.601679 -223.172627 
L 165.823884 -223.394831 
L 166.046088 -223.617036 
L 166.268292 -223.83924 
L 166.490497 -224.061445 
L 166.712701 -224.283649 
L 166.934906 -224.505854 
L 167.15711 -224.728058 
L 167.379314 -224.950262 
L 167.601519 -225.172467 
L 167.823723 -225.394671 
L 168.045928 -225.616876 
L 168.268132 -225.83908 
L 168.490337 -226.061284 
L 168.712541 -226.283489 
L 168.934745 -226.505693 
L 169.15695 -226.727898 
L 169.379154 -226.950102 
L 169.601359 -227.172306 
L 169.823563 -227.394511 
L 170.045767 -227.616715 
L 170.267972 -227.83892 
L 170.490176 -228.061124 
L 170.712381 -228.283328 
L 170.934585 -228.505533 
L 171.156789 -228.727737 
L 171.378994 -228.949942 
L 171.601198 -229.172146 
L 171.823403 -229.394351 
L 172.045607 -229.616555 
L 172.267811 -229.838759 
L 172.490016 -230.060964 
L 172.71222 -230.283168 
L 172.934425 -119.625373 
L 173.156629 -119.847577 
L 173.378834 -120.069781 
L 173.601038 -120.291986 
L 173.823242 -120.51419 
L 174.045447 -120.736395 
L 174.267651 -120.958599 
L 174.489856 -121.180803 
L 174.71206 -121.403008 
L 174.934264 -121.625212 
L 175.156469 -121.847417 
L 175.378673 -122.069621 
L 175.600878 -122.291825 
L 175.823082 -122.51403 
L 176.045286 -122.736234 
L 176.267491 -122.958439 
L 176.489695 -123.180643 
L 176.7119 -123.402848 
L 176.934104 -123.625052 
L 177.156308 -123.847256 
L 177.378513 -124.069461 
L 177.600717 -124.291665 
L 177.822922 -124.51387 
L 178.045126 -124.736074 
L 178.267331 -124.958278 
L 178.489535 -125.180483 
L 178.711739 -125.402687 
L 178.933944 -125.624892 
L 179.156148 -125.847096 
L 179.378353 -126.0693 
L 179.600557 -126.291505 
L 179.822761 -126.513709 
L 180.044966 -126.735914 
L 180.26717 -126.958118 
L 180.489375 -127.180322 
L 180.711579 -127.402527 
L 180.933783 -127.624731 
L 181.155988 -127.846936 
L 181.378192 -128.06914 
L 181.600397 -128.291344 
L 181.822601 -128.513549 
L 182.044805 -128.735753 
L 182.26701 -128.957958 
L 182.489214 -129.180162 
L 182.711419 -129.402367 
L 182.933623 -129.624571 
L 183.155828 -129.846775 
L 183.378032 -130.06898 
L 183.600236 -130.291184 
L 183.822441 -130.513389 
L 184.044645 -130.735593 
L 184.26685 -130.957797 
L 184.489054 -131.180002 
L 184.711258 -131.402206 
L 184.933463 -131.624411 
L 185.155667 -131.846615 
L 185.377872 -132.068819 
L 185.600076 -132.291024 
L 185.82228 -132.513228 
L 186.044485 -132.735433 
L 186.266689 -132.957637 
L 186.488894 -133.179841 
L 186.711098 -133.402046 
L 186.933302 -133.62425 
L 187.155507 -133.846455 
L 187.377711 -134.068659 
L 187.599916 -134.290864 
L 187.82212 -134.513068 
L 188.044325 -134.735272 
L 188.266529 -134.957477 
L 188.488733 -135.179681 
L 188.710938 -135.401886 
L 188.933142 -135.62409 
L 189.155347 -135.846294 
L 189.377551 -136.068499 
L 189.599755 -136.290703 
L 189.82196 -136.512908 
L 190.044164 -136.735112 
L 190.266369 -136.957316 
L 190.488573 -137.179521 
L 190.710777 -137.401725 
L 190.932982 -137.62393 
L 191.155186 -137.846134 
L 191.377391 -138.068338 
L 191.599595 -138.290543 
L 191.821799 -138.512747 
L 192.044004 -138.734952 
L 192.266208 -138.957156 
L 192.488413 -139.179361 
L 192.710617 -139.401565 
L 192.932821 -139.623769 
L 193.155026 -139.845974 
L 193.37723 -140.068178 
L 193.599435 -140.290383 
L 193.821639 -140.512587 
L 194.043844 -140.734791 
L 194.266048 -140.956996 
L 194.488252 -141.1792 
L 194.710457 -141.401405 
L 194.932661 -141.623609 
L 195.154866 -141.845813 
L 195.37707 -142.068018 
L 195.599274 -142.290222 
L 195.821479 -142.512427 
L 196.043683 -142.734631 
L 196.265888 -142.956835 
L 196.488092 -143.17904 
L 196.710296 -143.401244 
L 196.932501 -143.623449 
L 197.154705 -143.845653 
L 197.37691 -144.067858 
L 197.599114 -144.290062 
L 197.821318 -144.512266 
L 198.043523 -144.734471 
L 198.265727 -144.956675 
L 198.487932 -145.17888 
L 198.710136 -145.401084 
L 198.932341 -145.623288 
L 199.154545 -145.845493 
L 199.376749 -146.067697 
L 199.598954 -146.289902 
L 199.821158 -146.512106 
L 200.043363 -146.73431 
L 200.265567 -146.956515 
L 200.487771 -147.178719 
L 200.709976 -147.400924 
L 200.93218 -147.623128 
L 201.154385 -147.845332 
L 201.376589 -148.067537 
L 201.598793 -148.289741 
L 201.820998 -148.511946 
L 202.043202 -148.73415 
L 202.265407 -148.956355 
L 202.487611 -149.178559 
L 202.709815 -149.400763 
L 202.93202 -149.622968 
L 203.154224 -149.845172 
L 203.376429 -150.067377 
L 203.598633 -150.289581 
L 203.820838 -150.511785 
L 204.043042 -150.73399 
L 204.265246 -150.956194 
L 204.487451 -151.178399 
L 204.709655 -151.400603 
L 204.93186 -151.622807 
L 205.154064 -151.845012 
L 205.376268 -152.067216 
L 205.598473 -152.289421 
L 205.820677 -152.511625 
L 206.042882 -152.733829 
L 206.265086 -152.956034 
L 206.48729 -153.178238 
L 206.709495 -153.400443 
L 206.931699 -153.622647 
L 207.153904 -153.844852 
L 207.376108 -154.067056 
L 207.598312 -154.28926 
L 207.820517 -154.511465 
L 208.042721 -154.733669 
L 208.264926 -154.955874 
L 208.48713 -155.178078 
L 208.709335 -155.400282 
L 208.931539 -155.622487 
L 209.153743 -155.844691 
L 209.375948 -156.066896 
L 209.598152 -156.2891 
L 209.820357 -156.511304 
L 210.042561 -156.733509 
L 210.264765 -156.955713 
L 210.48697 -157.177918 
L 210.709174 -157.400122 
L 210.931379 -157.622326 
L 211.153583 -157.844531 
L 211.375787 -158.066735 
L 211.597992 -158.28894 
L 211.820196 -158.511144 
L 212.042401 -158.733349 
L 212.264605 -158.955553 
L 212.486809 -159.177757 
L 212.709014 -159.399962 
L 212.931218 -159.622166 
L 213.153423 -159.844371 
L 213.375627 -160.066575 
L 213.597832 -160.288779 
L 213.820036 -160.510984 
L 214.04224 -160.733188 
L 214.264445 -160.955393 
L 214.486649 -161.177597 
L 214.708854 -161.399801 
L 214.931058 -161.622006 
L 215.153262 -161.84421 
L 215.375467 -162.066415 
L 215.597671 -162.288619 
L 215.819876 -162.510823 
L 216.04208 -162.733028 
L 216.264284 -162.955232 
L 216.486489 -163.177437 
L 216.708693 -163.399641 
L 216.930898 -163.621846 
L 217.153102 -163.84405 
L 217.375306 -164.066254 
L 217.597511 -164.288459 
L 217.819715 -164.510663 
L 218.04192 -164.732868 
L 218.264124 -164.955072 
L 218.486329 -165.177276 
L 218.708533 -165.399481 
L 218.930737 -165.621685 
L 219.152942 -165.84389 
L 219.375146 -166.066094 
L 219.597351 -166.288298 
L 219.819555 -166.510503 
L 220.041759 -166.732707 
L 220.263964 -166.954912 
L 220.486168 -167.177116 
L 220.708373 -167.39932 
L 220.930577 -167.621525 
L 221.152781 -167.843729 
L 221.374986 -168.065934 
L 221.59719 -168.288138 
L 221.819395 -168.510342 
L 222.041599 -168.732547 
L 222.263803 -168.954751 
L 222.486008 -169.176956 
L 222.708212 -169.39916 
L 222.930417 -169.621365 
L 223.152621 -169.843569 
L 223.374826 -170.065773 
L 223.59703 -170.287978 
L 223.819234 -170.510182 
L 224.041439 -170.732387 
L 224.263643 -170.954591 
L 224.485848 -171.176795 
L 224.708052 -171.399 
L 224.930256 -171.621204 
L 225.152461 -171.843409 
L 225.374665 -172.065613 
L 225.59687 -172.287817 
L 225.819074 -172.510022 
L 226.041278 -172.732226 
L 226.263483 -172.954431 
L 226.485687 -173.176635 
L 226.707892 -173.398839 
L 226.930096 -173.621044 
L 227.1523 -173.843248 
L 227.374505 -174.065453 
L 227.596709 -174.287657 
L 227.818914 -174.509862 
L 228.041118 -174.732066 
L 228.263323 -174.95427 
L 228.263323 -174.95427 
L 228.263323 -174.95427 
L 228.041118 -175.176475 
L 227.818914 -175.398679 
L 227.596709 -175.620884 
L 227.374505 -175.843088 
L 227.1523 -176.065292 
L 226.930096 -176.287497 
L 226.707892 -176.509701 
L 226.485687 -176.731906 
L 226.263483 -176.95411 
L 226.041278 -177.176314 
L 225.819074 -177.398519 
L 225.59687 -177.620723 
L 225.374665 -177.842928 
L 225.152461 -178.065132 
L 224.930256 -178.287336 
L 224.708052 -178.509541 
L 224.485848 -178.731745 
L 224.263643 -178.95395 
L 224.041439 -179.176154 
L 223.819234 -179.398359 
L 223.59703 -179.620563 
L 223.374826 -179.842767 
L 223.152621 -180.064972 
L 222.930417 -180.287176 
L 222.708212 -180.509381 
L 222.486008 -180.731585 
L 222.263803 -180.953789 
L 222.041599 -181.175994 
L 221.819395 -181.398198 
L 221.59719 -181.620403 
L 221.374986 -181.842607 
L 221.152781 -182.064811 
L 220.930577 -182.287016 
L 220.708373 -182.50922 
L 220.486168 -182.731425 
L 220.263964 -182.953629 
L 220.041759 -183.175833 
L 219.819555 -183.398038 
L 219.597351 -183.620242 
L 219.375146 -183.842447 
L 219.152942 -184.064651 
L 218.930737 -184.286856 
L 218.708533 -184.50906 
L 218.486329 -184.731264 
L 218.264124 -184.953469 
L 218.04192 -185.175673 
L 217.819715 -185.397878 
L 217.597511 -185.620082 
L 217.375306 -185.842286 
L 217.153102 -186.064491 
L 216.930898 -186.286695 
L 216.708693 -186.5089 
L 216.486489 -186.731104 
L 216.264284 -186.953308 
L 216.04208 -187.175513 
L 215.819876 -187.397717 
L 215.597671 -187.619922 
L 215.375467 -187.842126 
L 215.153262 -188.06433 
L 214.931058 -188.286535 
L 214.708854 -188.508739 
L 214.486649 -188.730944 
L 214.264445 -188.953148 
L 214.04224 -189.175353 
L 213.820036 -189.397557 
L 213.597832 -189.619761 
L 213.375627 -189.841966 
L 213.153423 -190.06417 
L 212.931218 -190.286375 
L 212.709014 -190.508579 
L 212.486809 -190.730783 
L 212.264605 -190.952988 
L 212.042401 -191.175192 
L 211.820196 -191.397397 
L 211.597992 -191.619601 
L 211.375787 -191.841805 
L 211.153583 -192.06401 
L 210.931379 -192.286214 
L 210.709174 -192.508419 
L 210.48697 -192.730623 
L 210.264765 -192.952827 
L 210.042561 -193.175032 
L 209.820357 -193.397236 
L 209.598152 -193.619441 
L 209.375948 -193.841645 
L 209.153743 -194.06385 
L 208.931539 -194.286054 
L 208.709335 -194.508258 
L 208.48713 -194.730463 
L 208.264926 -194.952667 
L 208.042721 -195.174872 
L 207.820517 -195.397076 
L 207.598312 -195.61928 
L 207.376108 -195.841485 
L 207.153904 -196.063689 
L 206.931699 -196.285894 
L 206.709495 -196.508098 
L 206.48729 -196.730302 
L 206.265086 -196.952507 
L 206.042882 -197.174711 
L 205.820677 -197.396916 
L 205.598473 -197.61912 
L 205.376268 -197.841324 
L 205.154064 -198.063529 
L 204.93186 -198.285733 
L 204.709655 -198.507938 
L 204.487451 -198.730142 
L 204.265246 -198.952347 
L 204.043042 -199.174551 
L 203.820838 -199.396755 
L 203.598633 -199.61896 
L 203.376429 -199.841164 
L 203.154224 -200.063369 
L 202.93202 -200.285573 
L 202.709815 -200.507777 
L 202.487611 -200.729982 
L 202.265407 -200.952186 
L 202.043202 -201.174391 
L 201.820998 -201.396595 
L 201.598793 -201.618799 
L 201.376589 -201.841004 
L 201.154385 -202.063208 
L 200.93218 -202.285413 
L 200.709976 -202.507617 
L 200.487771 -202.729821 
L 200.265567 -202.952026 
L 200.043363 -203.17423 
L 199.821158 -203.396435 
L 199.598954 -203.618639 
L 199.376749 -203.840843 
L 199.154545 -204.063048 
L 198.932341 -204.285252 
L 198.710136 -204.507457 
L 198.487932 -204.729661 
L 198.265727 -204.951866 
L 198.043523 -205.17407 
L 197.821318 -205.396274 
L 197.599114 -205.618479 
L 197.37691 -205.840683 
L 197.154705 -206.062888 
L 196.932501 -206.285092 
L 196.710296 -206.507296 
L 196.488092 -206.729501 
L 196.265888 -206.951705 
L 196.043683 -207.17391 
L 195.821479 -207.396114 
L 195.599274 -207.618318 
L 195.37707 -207.840523 
L 195.154866 -208.062727 
L 194.932661 -208.284932 
L 194.710457 -208.507136 
L 194.488252 -208.72934 
L 194.266048 -208.951545 
L 194.043844 -209.173749 
L 193.821639 -209.395954 
L 193.599435 -209.618158 
L 193.37723 -209.840363 
L 193.155026 -210.062567 
L 192.932821 -210.284771 
L 192.710617 -210.506976 
L 192.488413 -210.72918 
L 192.266208 -210.951385 
L 192.044004 -211.173589 
L 191.821799 -211.395793 
L 191.599595 -211.617998 
L 191.377391 -211.840202 
L 191.155186 -212.062407 
L 190.932982 -212.284611 
L 190.710777 -212.506815 
L 190.488573 -212.72902 
L 190.266369 -212.951224 
L 190.044164 -213.173429 
L 189.82196 -213.395633 
L 189.599755 -213.617837 
L 189.377551 -213.840042 
L 189.155347 -214.062246 
L 188.933142 -214.284451 
L 188.710938 -214.506655 
L 188.488733 -214.72886 
L 188.266529 -214.951064 
L 188.044325 -215.173268 
L 187.82212 -215.395473 
L 187.599916 -215.617677 
L 187.377711 -215.839882 
L 187.155507 -216.062086 
L 186.933302 -216.28429 
L 186.711098 -216.506495 
L 186.488894 -216.728699 
L 186.266689 -216.950904 
L 186.044485 -217.173108 
L 185.82228 -217.395312 
L 185.600076 -217.617517 
L 185.377872 -217.839721 
L 185.155667 -218.061926 
L 184.933463 -218.28413 
L 184.711258 -218.506334 
L 184.489054 -218.728539 
L 184.26685 -218.950743 
L 184.044645 -219.172948 
L 183.822441 -219.395152 
L 183.600236 -219.617357 
L 183.378032 -219.839561 
L 183.155828 -220.061765 
L 182.933623 -220.28397 
L 182.711419 -220.506174 
L 182.489214 -220.728379 
L 182.26701 -220.950583 
L 182.044805 -221.172787 
L 181.822601 -221.394992 
L 181.600397 -221.617196 
L 181.378192 -221.839401 
L 181.155988 -222.061605 
L 180.933783 -222.283809 
L 180.711579 -222.506014 
L 180.489375 -222.728218 
L 180.26717 -222.950423 
L 180.044966 -223.172627 
L 179.822761 -223.394831 
L 179.600557 -223.617036 
L 179.378353 -223.83924 
L 179.156148 -224.061445 
L 178.933944 -224.283649 
L 178.711739 -224.505854 
L 178.489535 -224.728058 
L 178.267331 -224.950262 
L 178.045126 -225.172467 
L 177.822922 -225.394671 
L 177.600717 -225.616876 
L 177.378513 -225.83908 
L 177.156308 -226.061284 
L 176.934104 -226.283489 
L 176.7119 -226.505693 
L 176.489695 -226.727898 
L 176.267491 -226.950102 
L 176.045286 -227.172306 
L 175.823082 -227.394511 
L 175.600878 -227.616715 
L 175.378673 -227.83892 
L 175.156469 -228.061124 
L 174.934264 -228.283328 
L 174.71206 -228.505533 
L 174.489856 -228.727737 
L 174.267651 -228.949942 
L 174.045447 -229.172146 
L 173.823242 -229.394351 
L 173.601038 -229.616555 
L 173.378834 -229.838759 
L 173.156629 -230.060964 
L 172.934425 -230.283168 
L 172.71222 -119.625373 
L 172.490016 -119.847577 
L 172.267811 -120.069781 
L 172.045607 -120.291986 
L 171.823403 -120.51419 
L 171.601198 -120.736395 
L 171.378994 -120.958599 
L 171.156789 -121.180803 
L 170.934585 -121.403008 
L 170.712381 -121.625212 
L 170.490176 -121.847417 
L 170.267972 -122.069621 
L 170.045767 -122.291825 
L 169.823563 -122.51403 
L 169.601359 -122.736234 
L 169.379154 -122.958439 
L 169.15695 -123.180643 
L 168.934745 -123.402848 
L 168.712541 -123.625052 
L 168.490337 -123.847256 
L 168.268132 -124.069461 
L 168.045928 -124.291665 
L 167.823723 -124.51387 
L 167.601519 -124.736074 
L 167.379314 -124.958278 
L 167.15711 -125.180483 
L 166.934906 -125.402687 
L 166.712701 -125.624892 
L 166.490497 -125.847096 
L 166.268292 -126.0693 
L 166.046088 -126.291505 
L 165.823884 -126.513709 
L 165.601679 -126.735914 
L 165.379475 -126.958118 
L 165.15727 -127.180322 
L 164.935066 -127.402527 
L 164.712862 -127.624731 
L 164.490657 -127.846936 
L 164.268453 -128.06914 
L 164.046248 -128.291344 
L 163.824044 -128.513549 
L 163.60184 -128.735753 
L 163.379635 -128.957958 
L 163.157431 -129.180162 
L 162.935226 -129.402367 
L 162.713022 -129.624571 
L 162.490817 -129.846775 
L 162.268613 -130.06898 
L 162.046409 -130.291184 
L 161.824204 -130.513389 
L 161.602 -130.735593 
L 161.379795 -130.957797 
L 161.157591 -131.180002 
L 160.935387 -131.402206 
L 160.713182 -131.624411 
L 160.490978 -131.846615 
L 160.268773 -132.068819 
L 160.046569 -132.291024 
L 159.824365 -132.513228 
L 159.60216 -132.735433 
L 159.379956 -132.957637 
L 159.157751 -133.179841 
L 158.935547 -133.402046 
L 158.713343 -133.62425 
L 158.491138 -133.846455 
L 158.268934 -134.068659 
L 158.046729 -134.290864 
L 157.824525 -134.513068 
L 157.60232 -134.735272 
L 157.380116 -134.957477 
L 157.157912 -135.179681 
L 156.935707 -135.401886 
L 156.713503 -135.62409 
L 156.491298 -135.846294 
L 156.269094 -136.068499 
L 156.04689 -136.290703 
L 155.824685 -136.512908 
L 155.602481 -136.735112 
L 155.380276 -136.957316 
L 155.158072 -137.179521 
L 154.935868 -137.401725 
L 154.713663 -137.62393 
L 154.491459 -137.846134 
L 154.269254 -138.068338 
L 154.04705 -138.290543 
L 153.824846 -138.512747 
L 153.602641 -138.734952 
L 153.380437 -138.957156 
L 153.158232 -139.179361 
L 152.936028 -139.401565 
L 152.713824 -139.623769 
L 152.491619 -139.845974 
L 152.269415 -140.068178 
L 152.04721 -140.290383 
L 151.825006 -140.512587 
L 151.602801 -140.734791 
L 151.380597 -140.956996 
L 151.158393 -141.1792 
L 150.936188 -141.401405 
L 150.713984 -141.623609 
L 150.491779 -141.845813 
L 150.269575 -142.068018 
L 150.047371 -142.290222 
L 149.825166 -142.512427 
L 149.602962 -142.734631 
L 149.380757 -142.956835 
L 149.158553 -143.17904 
L 148.936349 -143.401244 
L 148.714144 -143.623449 
L 148.49194 -143.845653 
L 148.269735 -144.067858 
L 148.047531 -144.290062 
L 147.825327 -144.512266 
L 147.603122 -144.734471 
L 147.380918 -144.956675 
L 147.158713 -145.17888 
L 146.936509 -145.401084 
L 146.714304 -145.623288 
L 146.4921 -145.845493 
L 146.269896 -146.067697 
L 146.047691 -146.289902 
L 145.825487 -146.512106 
L 145.603282 -146.73431 
L 145.381078 -146.956515 
L 145.158874 -147.178719 
L 144.936669 -147.400924 
L 144.714465 -147.623128 
L 144.49226 -147.845332 
L 144.270056 -148.067537 
L 144.047852 -148.289741 
L 143.825647 -148.511946 
L 143.603443 -148.73415 
L 143.381238 -148.956355 
L 143.159034 -149.178559 
L 142.93683 -149.400763 
L 142.714625 -149.622968 
L 142.492421 -149.845172 
L 142.270216 -150.067377 
L 142.048012 -150.289581 
L 141.825807 -150.511785 
L 141.603603 -150.73399 
L 141.381399 -150.956194 
L 141.159194 -151.178399 
L 140.93699 -151.400603 
L 140.714785 -151.622807 
L 140.492581 -151.845012 
L 140.270377 -152.067216 
L 140.048172 -152.289421 
L 139.825968 -152.511625 
L 139.603763 -152.733829 
L 139.381559 -152.956034 
L 139.159355 -153.178238 
L 138.93715 -153.400443 
L 138.714946 -153.622647 
L 138.492741 -153.844852 
L 138.270537 -154.067056 
L 138.048333 -154.28926 
L 137.826128 -154.511465 
L 137.603924 -154.733669 
L 137.381719 -154.955874 
L 137.159515 -155.178078 
L 136.93731 -155.400282 
L 136.715106 -155.622487 
L 136.492902 -155.844691 
L 136.270697 -156.066896 
L 136.048493 -156.2891 
L 135.826288 -156.511304 
L 135.604084 -156.733509 
L 135.38188 -156.955713 
L 135.159675 -157.177918 
L 134.937471 -157.400122 
L 134.715266 -157.622326 
L 134.493062 -157.844531 
L 134.270858 -158.066735 
L 134.048653 -158.28894 
L 133.826449 -158.511144 
L 133.604244 -158.733349 
L 133.38204 -158.955553 
L 133.159836 -159.177757 
L 132.937631 -159.399962 
L 132.715427 -159.622166 
L 132.493222 -159.844371 
L 132.271018 -160.066575 
L 132.048813 -160.288779 
L 131.826609 -160.510984 
L 131.604405 -160.733188 
L 131.3822 -160.955393 
L 131.159996 -161.177597 
L 130.937791 -161.399801 
L 130.715587 -161.622006 
L 130.493383 -161.84421 
L 130.271178 -162.066415 
L 130.048974 -162.288619 
L 129.826769 -162.510823 
L 129.604565 -162.733028 
L 129.382361 -162.955232 
L 129.160156 -163.177437 
L 128.937952 -163.399641 
L 128.715747 -163.621846 
L 128.493543 -163.84405 
L 128.271339 -164.066254 
L 128.049134 -164.288459 
L 127.82693 -164.510663 
L 127.604725 -164.732868 
L 127.382521 -164.955072 
L 127.160316 -165.177276 
L 126.938112 -165.399481 
L 126.715908 -165.621685 
L 126.493703 -165.84389 
L 126.271499 -166.066094 
L 126.049294 -166.288298 
L 125.82709 -166.510503 
L 125.604886 -166.732707 
L 125.382681 -166.954912 
L 125.160477 -167.177116 
L 124.938272 -167.39932 
L 124.716068 -167.621525 
L 124.493864 -167.843729 
L 124.271659 -168.065934 
L 124.049455 -168.288138 
L 123.82725 -168.510342 
L 123.605046 -168.732547 
L 123.382842 -168.954751 
L 123.160637 -169.176956 
L 122.938433 -169.39916 
L 122.716228 -169.621365 
L 122.494024 -169.843569 
L 122.271819 -170.065773 
L 122.049615 -170.287978 
L 121.827411 -170.510182 
L 121.605206 -170.732387 
L 121.383002 -170.954591 
L 121.160797 -171.176795 
L 120.938593 -171.399 
L 120.716389 -171.621204 
L 120.494184 -171.843409 
L 120.27198 -172.065613 
L 120.049775 -172.287817 
L 119.827571 -172.510022 
L 119.605367 -172.732226 
L 119.383162 -172.954431 
L 119.160958 -173.176635 
L 118.938753 -173.398839 
L 118.716549 -173.621044 
L 118.494345 -173.843248 
L 118.27214 -174.065453 
L 118.049936 -174.287657 
L 117.827731 -174.509862 
L 117.605527 -174.732066 
L 117.383323 -174.95427 
z
" style="stroke: #808080; stroke-opacity: 0.4"/>
    </defs>
    <g clip-path="url(#p767fbced8c)">
     <use xlink:href="#m5f82c2be1b" x="0" y="346.809064" style="fill: #808080; fill-opacity: 0.4; stroke: #808080; stroke-opacity: 0.4"/>
    </g>
   </g>
   <g id="matplotlib.axis_1">
    <g id="xtick_1">
     <g id="text_1">
      <!-- -6 -->
      <g transform="translate(0 189.924382) scale(0.16 -0.16)">
       <defs>
        <path id="CMR17-2d" d="M 1632 1254 
L 1632 1536 
L 26 1536 
L 26 1254 
L 1632 1254 
z
" transform="scale(0.015625)"/>
        <path id="CMR17-36" d="M 678 2198 
C 678 3712 1395 4076 1811 4076 
C 1946 4076 2272 4049 2400 3782 
C 2298 3782 2106 3782 2106 3558 
C 2106 3385 2246 3328 2336 3328 
C 2394 3328 2566 3353 2566 3571 
C 2566 3987 2246 4224 1805 4224 
C 1043 4224 243 3411 243 2011 
C 243 257 966 -128 1478 -128 
C 2099 -128 2688 431 2688 1295 
C 2688 2101 2170 2688 1517 2688 
C 1126 2688 838 2430 678 1979 
L 678 2198 
z
M 1478 25 
C 691 25 691 1212 691 1450 
C 691 1914 909 2585 1504 2585 
C 1613 2585 1926 2585 2138 2140 
C 2253 1889 2253 1624 2253 1302 
C 2253 954 2253 696 2118 438 
C 1978 173 1773 25 1478 25 
z
" transform="scale(0.015625)"/>
       </defs>
       <use xlink:href="#CMR17-2d" transform="scale(0.996264)"/>
       <use xlink:href="#CMR17-36" transform="translate(30.075966 0) scale(0.996264)"/>
      </g>
     </g>
    </g>
    <g id="xtick_2">
     <g id="text_2">
      <!-- -4 -->
      <g transform="translate(55.44 189.924382) scale(0.16 -0.16)">
       <defs>
        <path id="CMR17-34" d="M 2150 4147 
C 2150 4281 2144 4288 2029 4288 
L 128 1254 
L 128 1088 
L 1779 1088 
L 1779 460 
C 1779 230 1766 166 1318 166 
L 1197 166 
L 1197 0 
C 1402 12 1747 12 1965 12 
C 2182 12 2528 12 2733 0 
L 2733 166 
L 2611 166 
C 2163 166 2150 230 2150 460 
L 2150 1088 
L 2803 1088 
L 2803 1254 
L 2150 1254 
L 2150 4147 
z
M 1798 3723 
L 1798 1254 
L 256 1254 
L 1798 3723 
z
" transform="scale(0.015625)"/>
       </defs>
       <use xlink:href="#CMR17-2d" transform="scale(0.996264)"/>
       <use xlink:href="#CMR17-34" transform="translate(30.075966 0) scale(0.996264)"/>
      </g>
     </g>
    </g>
    <g id="xtick_3">
     <g id="text_3">
      <!-- -2 -->
      <g transform="translate(110.88 189.924382) scale(0.16 -0.16)">
       <defs>
        <path id="CMR17-32" d="M 2669 990 
L 2554 990 
C 2490 537 2438 460 2413 422 
C 2381 371 1920 371 1830 371 
L 602 371 
C 832 620 1280 1073 1824 1596 
C 2214 1966 2669 2400 2669 3033 
C 2669 3788 2067 4224 1395 4224 
C 691 4224 262 3603 262 3027 
C 262 2777 448 2745 525 2745 
C 589 2745 781 2783 781 3007 
C 781 3206 614 3264 525 3264 
C 486 3264 448 3257 422 3244 
C 544 3788 915 4057 1306 4057 
C 1862 4057 2227 3616 2227 3033 
C 2227 2477 1901 1998 1536 1583 
L 262 147 
L 262 0 
L 2515 0 
L 2669 990 
z
" transform="scale(0.015625)"/>
       </defs>
       <use xlink:href="#CMR17-2d" transform="scale(0.996264)"/>
       <use xlink:href="#CMR17-32" transform="translate(30.075966 0) scale(0.996264)"/>
      </g>
     </g>
    </g>
    <g id="xtick_4">
     <g id="text_4">
      <!-- 2 -->
      <g transform="translate(224.361329 189.924382) scale(0.16 -0.16)">
       <use xlink:href="#CMR17-32" transform="scale(0.996264)"/>
      </g>
     </g>
    </g>
    <g id="xtick_5">
     <g id="text_5">
      <!-- 4 -->
      <g transform="translate(279.801329 189.924382) scale(0.16 -0.16)">
       <use xlink:href="#CMR17-34" transform="scale(0.996264)"/>
      </g>
     </g>
    </g>
    <g id="xtick_6">
     <g id="text_6">
      <!-- 6 -->
      <g transform="translate(335.241329 189.924382) scale(0.16 -0.16)">
       <use xlink:href="#CMR17-36" transform="scale(0.996264)"/>
      </g>
     </g>
    </g>
   </g>
   <g id="matplotlib.axis_2">
    <g id="ytick_1">
     <g id="text_7">
      <!-- -6 -->
      <g transform="translate(152.816677 343.709588) scale(0.16 -0.16)">
       <use xlink:href="#CMR17-2d" transform="scale(0.996264)"/>
       <use xlink:href="#CMR17-36" transform="translate(30.075966 0) scale(0.996264)"/>
      </g>
     </g>
    </g>
    <g id="ytick_2">
     <g id="text_8">
      <!-- -4 -->
      <g transform="translate(152.816677 288.269588) scale(0.16 -0.16)">
       <use xlink:href="#CMR17-2d" transform="scale(0.996264)"/>
       <use xlink:href="#CMR17-34" transform="translate(30.075966 0) scale(0.996264)"/>
      </g>
     </g>
    </g>
    <g id="ytick_3">
     <g id="text_9">
      <!-- -2 -->
      <g transform="translate(152.816677 232.829588) scale(0.16 -0.16)">
       <use xlink:href="#CMR17-2d" transform="scale(0.996264)"/>
       <use xlink:href="#CMR17-32" transform="translate(30.075966 0) scale(0.996264)"/>
      </g>
     </g>
    </g>
    <g id="ytick_4">
     <g id="text_10">
      <!-- 2 -->
      <g transform="translate(158.019335 121.949588) scale(0.16 -0.16)">
       <use xlink:href="#CMR17-32" transform="scale(0.996264)"/>
      </g>
     </g>
    </g>
    <g id="ytick_5">
     <g id="text_11">
      <!-- 4 -->
      <g transform="translate(158.019335 66.509588) scale(0.16 -0.16)">
       <use xlink:href="#CMR17-34" transform="scale(0.996264)"/>
      </g>
     </g>
    </g>
    <g id="ytick_6">
     <g id="text_12">
      <!-- 6 -->
      <g transform="translate(158.019335 11.069588) scale(0.16 -0.16)">
       <use xlink:href="#CMR17-36" transform="scale(0.996264)"/>
      </g>
     </g>
    </g>
   </g>
   <g id="patch_3">
    <path d="M 172.823323 338.174794 
L 172.823323 5.534794 
" style="fill: none; stroke: #000000; stroke-width: 0.8; stroke-linejoin: miter; stroke-linecap: square"/>
   </g>
   <g id="patch_4">
    <path d="M 6.503323 171.854794 
L 339.143323 171.854794 
" style="fill: none; stroke: #000000; stroke-width: 0.8; stroke-linejoin: miter; stroke-linecap: square"/>
   </g>
   <g id="legend_1">
    <g id="patch_5">
     <path d="M 241.469886 83.265546 
L 328.993323 83.265546 
Q 331.893323 83.265546 331.893323 80.365546 
L 331.893323 15.684794 
Q 331.893323 12.784794 328.993323 12.784794 
L 241.469886 12.784794 
Q 238.569886 12.784794 238.569886 15.684794 
L 238.569886 80.365546 
Q 238.569886 83.265546 241.469886 83.265546 
z
" style="fill: #ffffff; opacity: 0.8; stroke: #cccccc; stroke-linejoin: miter"/>
    </g>
    <g id="patch_6">
     <path d="M 244.369886 29.419165 
L 273.369886 29.419165 
L 273.369886 19.269165 
L 244.369886 19.269165 
z
" style="fill: #a52a2a; fill-opacity: 0.4; stroke: #a52a2a; stroke-opacity: 0.4; stroke-linejoin: miter"/>
    </g>
    <g id="text_13">
     <!-- $\mathbb{B}_{0,3}(2)$ -->
     <g transform="translate(284.969886 29.419165) scale(0.145 -0.145)">
      <defs>
       <path id="MSBM10-42" d="M 896 3828 
C 896 3912 896 4075 838 4191 
L 1536 4191 
C 1453 4088 1453 3958 1453 3860 
L 1453 551 
C 1453 455 1453 326 1536 224 
L 838 224 
C 896 339 896 500 896 583 
L 896 3828 
z
M 2637 2465 
C 2848 2672 2899 3003 2899 3283 
C 2899 3731 2758 4010 2611 4166 
C 3053 4114 3507 3951 3507 3309 
C 3507 2893 3059 2556 2637 2465 
z
M 1677 3841 
C 1677 3971 1677 4042 1766 4114 
C 1792 4127 1888 4191 2042 4191 
C 2323 4191 2675 3964 2675 3283 
C 2675 2556 2310 2400 1677 2387 
L 1677 3841 
z
M 3021 2355 
C 3379 2543 3731 2867 3731 3309 
C 3731 4211 2995 4416 2214 4416 
L 275 4416 
C 160 4416 58 4416 58 4300 
C 58 4191 166 4191 269 4191 
C 653 4191 672 4127 672 3815 
L 672 596 
C 672 275 646 224 243 224 
C 173 224 58 224 58 115 
C 58 0 160 0 275 0 
L 2176 0 
C 2963 0 3974 307 3974 1199 
C 3974 1867 3488 2227 3021 2355 
z
M 1677 570 
L 1677 2163 
C 2189 2163 2406 2163 2605 2015 
C 2854 1822 2874 1405 2874 1199 
C 2874 949 2854 224 2054 224 
C 1677 224 1677 448 1677 570 
z
M 2816 301 
C 3053 570 3098 911 3098 1199 
C 3098 1643 3002 1976 2746 2188 
C 3334 2092 3750 1758 3750 1199 
C 3750 712 3366 429 2816 301 
z
" transform="scale(0.015625)"/>
       <path id="CMR17-30" d="M 2688 2038 
C 2688 2430 2682 3099 2413 3613 
C 2176 4063 1798 4224 1466 4224 
C 1158 4224 768 4082 525 3620 
C 269 3137 243 2539 243 2038 
C 243 1671 250 1112 448 623 
C 723 -39 1216 -128 1466 -128 
C 1760 -128 2208 -7 2470 604 
C 2662 1048 2688 1568 2688 2038 
z
M 1466 -26 
C 1056 -26 813 328 723 816 
C 653 1196 653 1749 653 2109 
C 653 2604 653 3015 736 3407 
C 858 3954 1216 4121 1466 4121 
C 1728 4121 2067 3947 2189 3420 
C 2272 3054 2278 2623 2278 2109 
C 2278 1691 2278 1176 2202 797 
C 2067 96 1690 -26 1466 -26 
z
" transform="scale(0.015625)"/>
       <path id="CMMI12-3b" d="M 1248 -26 
C 1248 345 1126 620 864 620 
C 659 620 557 454 557 313 
C 557 172 653 0 870 0 
C 954 0 1024 25 1082 83 
C 1094 96 1101 96 1107 96 
C 1120 96 1120 6 1120 -26 
C 1120 -233 1082 -642 710 -1051 
C 640 -1127 640 -1140 640 -1152 
C 640 -1184 672 -1216 704 -1216 
C 755 -1216 1248 -749 1248 -26 
z
" transform="scale(0.015625)"/>
       <path id="CMR17-33" d="M 1414 2176 
C 1984 2176 2234 1673 2234 1094 
C 2234 322 1824 25 1453 25 
C 1114 25 563 193 390 691 
C 422 678 454 678 486 678 
C 640 678 755 780 755 947 
C 755 1132 614 1216 486 1216 
C 378 1216 211 1164 211 927 
C 211 335 787 -128 1466 -128 
C 2176 -128 2720 432 2720 1087 
C 2720 1718 2208 2176 1600 2246 
C 2086 2347 2554 2776 2554 3353 
C 2554 3856 2048 4224 1472 4224 
C 890 4224 378 3862 378 3347 
C 378 3123 544 3084 627 3084 
C 762 3084 877 3167 877 3334 
C 877 3500 762 3584 627 3584 
C 602 3584 570 3584 544 3571 
C 730 3999 1235 4076 1459 4076 
C 1683 4076 2106 3966 2106 3347 
C 2106 3167 2080 2851 1862 2574 
C 1670 2329 1453 2316 1242 2297 
C 1210 2297 1062 2284 1037 2284 
C 992 2278 966 2272 966 2227 
C 966 2182 973 2176 1101 2176 
L 1414 2176 
z
" transform="scale(0.015625)"/>
       <path id="CMR17-28" d="M 1958 -1562 
C 1958 -1556 1958 -1543 1939 -1524 
C 1645 -1223 858 -403 858 1596 
C 858 3595 1632 4408 1946 4729 
C 1946 4735 1958 4748 1958 4767 
C 1958 4787 1939 4800 1914 4800 
C 1843 4800 1299 4325 986 3620 
C 666 2909 576 2218 576 1603 
C 576 1141 621 360 1005 -467 
C 1312 -1133 1837 -1600 1914 -1600 
C 1946 -1600 1958 -1588 1958 -1562 
z
" transform="scale(0.015625)"/>
       <path id="CMR17-29" d="M 1683 1596 
C 1683 2057 1638 2839 1254 3665 
C 947 4332 422 4800 346 4800 
C 326 4800 301 4793 301 4761 
C 301 4748 307 4742 314 4729 
C 621 4408 1402 3595 1402 1603 
C 1402 -396 627 -1210 314 -1530 
C 307 -1543 301 -1549 301 -1562 
C 301 -1594 326 -1600 346 -1600 
C 416 -1600 960 -1127 1274 -422 
C 1594 289 1683 981 1683 1596 
z
" transform="scale(0.015625)"/>
      </defs>
      <use xlink:href="#MSBM10-42" transform="scale(0.996264)"/>
      <use xlink:href="#CMR17-30" transform="translate(66.417819 -14.943915) scale(0.697382)"/>
      <use xlink:href="#CMMI12-3b" transform="translate(98.401001 -14.943915) scale(0.697382)"/>
      <use xlink:href="#CMR17-33" transform="translate(117.368933 -14.943915) scale(0.697382)"/>
      <use xlink:href="#CMR17-28" transform="translate(149.850247 0) scale(0.996264)"/>
      <use xlink:href="#CMR17-32" transform="translate(185.131015 0) scale(0.996264)"/>
      <use xlink:href="#CMR17-29" transform="translate(230.821492 0) scale(0.996264)"/>
     </g>
    </g>
    <g id="patch_7">
     <path d="M 244.369886 51.636627 
L 273.369886 51.636627 
L 273.369886 41.486627 
L 244.369886 41.486627 
z
" style="fill: #87cefa; fill-opacity: 0.4; stroke: #87cefa; stroke-opacity: 0.4; stroke-linejoin: miter"/>
    </g>
    <g id="text_14">
     <!-- $\mathbb{B}_{0,5}(2)$ -->
     <g transform="translate(284.969886 51.636627) scale(0.145 -0.145)">
      <defs>
       <path id="CMR17-35" d="M 730 3750 
C 794 3724 1056 3641 1325 3641 
C 1920 3641 2246 3961 2432 4140 
C 2432 4191 2432 4224 2394 4224 
C 2387 4224 2374 4224 2323 4198 
C 2099 4102 1837 4032 1517 4032 
C 1325 4032 1037 4055 723 4191 
C 653 4224 640 4224 634 4224 
C 602 4224 595 4217 595 4090 
L 595 2231 
C 595 2113 595 2080 659 2080 
C 691 2080 704 2093 736 2139 
C 941 2435 1222 2560 1542 2560 
C 1766 2560 2246 2415 2246 1293 
C 2246 1087 2246 716 2054 422 
C 1894 159 1645 25 1370 25 
C 947 25 518 319 403 812 
C 429 806 480 793 506 793 
C 589 793 749 838 749 1036 
C 749 1209 627 1280 506 1280 
C 358 1280 262 1190 262 1011 
C 262 454 704 -128 1382 -128 
C 2042 -128 2669 441 2669 1267 
C 2669 2054 2170 2662 1549 2662 
C 1222 2662 947 2540 730 2304 
L 730 3750 
z
" transform="scale(0.015625)"/>
      </defs>
      <use xlink:href="#MSBM10-42" transform="scale(0.996264)"/>
      <use xlink:href="#CMR17-30" transform="translate(66.417819 -14.943915) scale(0.697382)"/>
      <use xlink:href="#CMMI12-3b" transform="translate(98.401001 -14.943915) scale(0.697382)"/>
      <use xlink:href="#CMR17-35" transform="translate(117.368933 -14.943915) scale(0.697382)"/>
      <use xlink:href="#CMR17-28" transform="translate(149.850247 0) scale(0.996264)"/>
      <use xlink:href="#CMR17-32" transform="translate(185.131015 0) scale(0.996264)"/>
      <use xlink:href="#CMR17-29" transform="translate(230.821492 0) scale(0.996264)"/>
     </g>
    </g>
    <g id="patch_8">
     <path d="M 244.369886 73.854089 
L 273.369886 73.854089 
L 273.369886 63.704089 
L 244.369886 63.704089 
z
" style="fill: #808080; fill-opacity: 0.4; stroke: #808080; stroke-opacity: 0.4; stroke-linejoin: miter"/>
    </g>
    <g id="text_15">
     <!-- $\mathbb{B}_{1}(2)$ -->
     <g transform="translate(284.969886 73.854089) scale(0.145 -0.145)">
      <defs>
       <path id="CMR17-31" d="M 1702 4083 
C 1702 4217 1696 4224 1606 4224 
C 1357 3927 979 3833 621 3820 
C 602 3820 570 3820 563 3808 
C 557 3795 557 3782 557 3648 
C 755 3648 1088 3686 1344 3839 
L 1344 467 
C 1344 243 1331 166 781 166 
L 589 166 
L 589 0 
C 896 6 1216 12 1523 12 
C 1830 12 2150 6 2458 0 
L 2458 166 
L 2266 166 
C 1715 166 1702 236 1702 467 
L 1702 4083 
z
" transform="scale(0.015625)"/>
      </defs>
      <use xlink:href="#MSBM10-42" transform="scale(0.996264)"/>
      <use xlink:href="#CMR17-31" transform="translate(66.417819 -14.943915) scale(0.697382)"/>
      <use xlink:href="#CMR17-28" transform="translate(98.899133 0) scale(0.996264)"/>
      <use xlink:href="#CMR17-32" transform="translate(134.1799 0) scale(0.996264)"/>
      <use xlink:href="#CMR17-29" transform="translate(179.870377 0) scale(0.996264)"/>
     </g>
    </g>
   </g>
  </g>
 </g>
 <defs>
  <clipPath id="p767fbced8c">
   <rect x="6.503323" y="5.534794" width="332.64" height="332.64"/>
  </clipPath>
 </defs>
</svg>
