<?xml version="1.0" encoding="utf-8" standalone="no"?>
<!DOCTYPE svg PUBLIC "-//W3C//DTD SVG 1.1//EN"
  "http://www.w3.org/Graphics/SVG/1.1/DTD/svg11.dtd">
<svg xmlns:xlink="http://www.w3.org/1999/xlink" width="432pt" height="432pt" viewBox="0 0 432 432" xmlns="http://www.w3.org/2000/svg" version="1.1">
 <metadata>
  <rdf:RDF xmlns:dc="http://purl.org/dc/elements/1.1/" xmlns:cc="http://creativecommons.org/ns#" xmlns:rdf="http://www.w3.org/1999/02/22-rdf-syntax-ns#">
   <cc:Work>
    <dc:type rdf:resource="http://purl.org/dc/dcmitype/StillImage"/>
    <dc:date>2025-05-31T18:30:38.870907</dc:date>
    <dc:format>image/svg+xml</dc:format>
    <dc:creator>
     <cc:Agent>
      <dc:title>Matplotlib v3.9.2, https://matplotlib.org/</dc:title>
     </cc:Agent>
    </dc:creator>
   </cc:Work>
  </rdf:RDF>
 </metadata>
 <defs>
  <style type="text/css">*{stroke-linejoin: round; stroke-linecap: butt}</style>
 </defs>
 <g id="figure_1">
  <g id="patch_1">
   <path d="M 0 432 
L 432 432 
L 432 0 
L 0 0 
z
" style="fill: #ffffff"/>
  </g>
  <g id="axes_1">
   <g id="patch_2">
    <path d="M 54 384.48 
L 388.8 384.48 
L 388.8 51.84 
L 54 51.84 
z
" style="fill: #ffffff"/>
   </g>
   <g id="patch_3">
    <path d="M 288.36 218.16 
L 221.4 151.632 
L 154.44 218.16 
L 221.4 284.688 
z
" clip-path="url(#pb0dcdff8b8)" style="fill: #add8e6; opacity: 0.5; stroke: #add8e6; stroke-linejoin: miter"/>
   </g>
   <g id="patch_4">
    <path d="M 288.36 284.688 
L 221.4 218.16 
L 154.44 284.688 
L 221.4 351.216 
z
" clip-path="url(#pb0dcdff8b8)" style="fill: #8fbc8f; opacity: 0.4; stroke: #8fbc8f; stroke-linejoin: miter"/>
   </g>
   <g id="matplotlib.axis_1">
    <g id="xtick_1">
     <g id="line2d_1">
      <defs>
       <path id="m27c289a2fd" d="M 0 0 
L 0 3.5 
" style="stroke: #000000; stroke-width: 0.8"/>
      </defs>
      <g>
       <use xlink:href="#m27c289a2fd" x="87.48" y="384.48" style="stroke: #000000; stroke-width: 0.8"/>
      </g>
     </g>
     <g id="text_1">
      <!-- $\mathdefault{−4}$ -->
      <g transform="translate(81.114961 398.398498) scale(0.1 -0.1)">
       <defs>
        <path id="CMSY10-0" d="M 4218 1472 
C 4326 1472 4442 1472 4442 1600 
C 4442 1728 4326 1728 4218 1728 
L 755 1728 
C 646 1728 531 1728 531 1600 
C 531 1472 646 1472 755 1472 
L 4218 1472 
z
" transform="scale(0.015625)"/>
        <path id="CMR17-34" d="M 2150 4147 
C 2150 4281 2144 4288 2029 4288 
L 128 1254 
L 128 1088 
L 1779 1088 
L 1779 460 
C 1779 230 1766 166 1318 166 
L 1197 166 
L 1197 0 
C 1402 12 1747 12 1965 12 
C 2182 12 2528 12 2733 0 
L 2733 166 
L 2611 166 
C 2163 166 2150 230 2150 460 
L 2150 1088 
L 2803 1088 
L 2803 1254 
L 2150 1254 
L 2150 4147 
z
M 1798 3723 
L 1798 1254 
L 256 1254 
L 1798 3723 
z
" transform="scale(0.015625)"/>
       </defs>
       <use xlink:href="#CMSY10-0" transform="scale(0.996264)"/>
       <use xlink:href="#CMR17-34" transform="translate(77.487468 0) scale(0.996264)"/>
      </g>
     </g>
    </g>
    <g id="xtick_2">
     <g id="line2d_2">
      <g>
       <use xlink:href="#m27c289a2fd" x="154.44" y="384.48" style="stroke: #000000; stroke-width: 0.8"/>
      </g>
     </g>
     <g id="text_2">
      <!-- $\mathdefault{−2}$ -->
      <g transform="translate(148.074961 398.398498) scale(0.1 -0.1)">
       <defs>
        <path id="CMR17-32" d="M 2669 990 
L 2554 990 
C 2490 537 2438 460 2413 422 
C 2381 371 1920 371 1830 371 
L 602 371 
C 832 620 1280 1073 1824 1596 
C 2214 1966 2669 2400 2669 3033 
C 2669 3788 2067 4224 1395 4224 
C 691 4224 262 3603 262 3027 
C 262 2777 448 2745 525 2745 
C 589 2745 781 2783 781 3007 
C 781 3206 614 3264 525 3264 
C 486 3264 448 3257 422 3244 
C 544 3788 915 4057 1306 4057 
C 1862 4057 2227 3616 2227 3033 
C 2227 2477 1901 1998 1536 1583 
L 262 147 
L 262 0 
L 2515 0 
L 2669 990 
z
" transform="scale(0.015625)"/>
       </defs>
       <use xlink:href="#CMSY10-0" transform="scale(0.996264)"/>
       <use xlink:href="#CMR17-32" transform="translate(77.487468 0) scale(0.996264)"/>
      </g>
     </g>
    </g>
    <g id="xtick_3">
     <g id="line2d_3">
      <g>
       <use xlink:href="#m27c289a2fd" x="221.4" y="384.48" style="stroke: #000000; stroke-width: 0.8"/>
      </g>
     </g>
     <g id="text_3">
      <!-- $\mathdefault{0}$ -->
      <g transform="translate(218.909332 398.398498) scale(0.1 -0.1)">
       <defs>
        <path id="CMR17-30" d="M 2688 2038 
C 2688 2430 2682 3099 2413 3613 
C 2176 4063 1798 4224 1466 4224 
C 1158 4224 768 4082 525 3620 
C 269 3137 243 2539 243 2038 
C 243 1671 250 1112 448 623 
C 723 -39 1216 -128 1466 -128 
C 1760 -128 2208 -7 2470 604 
C 2662 1048 2688 1568 2688 2038 
z
M 1466 -26 
C 1056 -26 813 328 723 816 
C 653 1196 653 1749 653 2109 
C 653 2604 653 3015 736 3407 
C 858 3954 1216 4121 1466 4121 
C 1728 4121 2067 3947 2189 3420 
C 2272 3054 2278 2623 2278 2109 
C 2278 1691 2278 1176 2202 797 
C 2067 96 1690 -26 1466 -26 
z
" transform="scale(0.015625)"/>
       </defs>
       <use xlink:href="#CMR17-30" transform="scale(0.996264)"/>
      </g>
     </g>
    </g>
    <g id="xtick_4">
     <g id="line2d_4">
      <g>
       <use xlink:href="#m27c289a2fd" x="288.36" y="384.48" style="stroke: #000000; stroke-width: 0.8"/>
      </g>
     </g>
     <g id="text_4">
      <!-- $\mathdefault{2}$ -->
      <g transform="translate(285.869332 398.398498) scale(0.1 -0.1)">
       <use xlink:href="#CMR17-32" transform="scale(0.996264)"/>
      </g>
     </g>
    </g>
    <g id="xtick_5">
     <g id="line2d_5">
      <g>
       <use xlink:href="#m27c289a2fd" x="355.32" y="384.48" style="stroke: #000000; stroke-width: 0.8"/>
      </g>
     </g>
     <g id="text_5">
      <!-- $\mathdefault{4}$ -->
      <g transform="translate(352.829332 398.398498) scale(0.1 -0.1)">
       <use xlink:href="#CMR17-34" transform="scale(0.996264)"/>
      </g>
     </g>
    </g>
    <g id="text_6">
     <!-- $x$ -->
     <g transform="translate(216.965275 415.405265) scale(0.16 -0.16)">
      <defs>
       <path id="CMMI12-78" d="M 3034 2624 
C 2829 2585 2752 2431 2752 2310 
C 2752 2156 2874 2105 2963 2105 
C 3155 2105 3290 2271 3290 2444 
C 3290 2694 2982 2816 2714 2816 
C 2323 2816 2106 2451 2048 2329 
C 1901 2790 1504 2816 1389 2816 
C 736 2816 390 1993 390 1849 
C 390 1823 416 1790 461 1790 
C 512 1790 525 1829 538 1855 
C 755 2572 1184 2687 1370 2687 
C 1658 2687 1715 2438 1715 2284 
C 1715 2143 1677 1993 1600 1678 
L 1382 778 
C 1286 390 1101 64 762 64 
C 730 64 570 64 435 126 
C 666 166 717 358 717 435 
C 717 563 621 640 499 640 
C 346 640 179 505 179 300 
C 179 57 480 -64 755 -64 
C 1062 -64 1280 153 1414 415 
C 1517 64 1837 -64 2074 -64 
C 2726 -64 3072 751 3072 896 
C 3072 929 3046 955 3008 955 
C 2950 955 2944 922 2925 870 
C 2752 300 2381 64 2093 64 
C 1869 64 1747 204 1747 467 
C 1747 607 1773 712 1875 1146 
L 2099 2039 
C 2195 2425 2413 2687 2707 2687 
C 2720 2687 2899 2687 3034 2624 
z
" transform="scale(0.015625)"/>
      </defs>
      <use xlink:href="#CMMI12-78" transform="scale(0.996264)"/>
     </g>
    </g>
   </g>
   <g id="matplotlib.axis_2">
    <g id="ytick_1">
     <g id="line2d_6">
      <defs>
       <path id="mbc14c5d094" d="M 0 0 
L -3.5 0 
" style="stroke: #000000; stroke-width: 0.8"/>
      </defs>
      <g>
       <use xlink:href="#mbc14c5d094" x="54" y="351.216" style="stroke: #000000; stroke-width: 0.8"/>
      </g>
     </g>
     <g id="text_7">
      <!-- $\mathdefault{−4}$ -->
      <g transform="translate(34.269921 354.675249) scale(0.1 -0.1)">
       <use xlink:href="#CMSY10-0" transform="scale(0.996264)"/>
       <use xlink:href="#CMR17-34" transform="translate(77.487468 0) scale(0.996264)"/>
      </g>
     </g>
    </g>
    <g id="ytick_2">
     <g id="line2d_7">
      <g>
       <use xlink:href="#mbc14c5d094" x="54" y="284.688" style="stroke: #000000; stroke-width: 0.8"/>
      </g>
     </g>
     <g id="text_8">
      <!-- $\mathdefault{−2}$ -->
      <g transform="translate(34.269921 288.147249) scale(0.1 -0.1)">
       <use xlink:href="#CMSY10-0" transform="scale(0.996264)"/>
       <use xlink:href="#CMR17-32" transform="translate(77.487468 0) scale(0.996264)"/>
      </g>
     </g>
    </g>
    <g id="ytick_3">
     <g id="line2d_8">
      <g>
       <use xlink:href="#mbc14c5d094" x="54" y="218.16" style="stroke: #000000; stroke-width: 0.8"/>
      </g>
     </g>
     <g id="text_9">
      <!-- $\mathdefault{0}$ -->
      <g transform="translate(42.018665 221.619249) scale(0.1 -0.1)">
       <use xlink:href="#CMR17-30" transform="scale(0.996264)"/>
      </g>
     </g>
    </g>
    <g id="ytick_4">
     <g id="line2d_9">
      <g>
       <use xlink:href="#mbc14c5d094" x="54" y="151.632" style="stroke: #000000; stroke-width: 0.8"/>
      </g>
     </g>
     <g id="text_10">
      <!-- $\mathdefault{2}$ -->
      <g transform="translate(42.018665 155.091249) scale(0.1 -0.1)">
       <use xlink:href="#CMR17-32" transform="scale(0.996264)"/>
      </g>
     </g>
    </g>
    <g id="ytick_5">
     <g id="line2d_10">
      <g>
       <use xlink:href="#mbc14c5d094" x="54" y="85.104" style="stroke: #000000; stroke-width: 0.8"/>
      </g>
     </g>
     <g id="text_11">
      <!-- $\mathdefault{4}$ -->
      <g transform="translate(42.018665 88.563249) scale(0.1 -0.1)">
       <use xlink:href="#CMR17-34" transform="scale(0.996264)"/>
      </g>
     </g>
    </g>
    <g id="text_12">
     <!-- $y$ -->
     <g transform="translate(27.170445 221.965135) rotate(-90) scale(0.16 -0.16)">
      <defs>
       <path id="CMMI12-79" d="M 1683 -673 
C 1510 -921 1261 -1152 947 -1152 
C 870 -1152 563 -1139 467 -826 
C 486 -833 518 -833 531 -833 
C 723 -833 851 -666 851 -519 
C 851 -372 730 -320 634 -320 
C 531 -320 307 -397 307 -711 
C 307 -1050 582 -1280 947 -1280 
C 1587 -1280 2234 -673 2413 -7 
L 3040 2483 
C 3046 2515 3059 2553 3059 2591 
C 3059 2687 2982 2752 2886 2752 
C 2829 2752 2694 2726 2643 2534 
L 2170 657 
C 2138 542 2138 530 2086 459 
C 1958 281 1747 64 1440 64 
C 1082 64 1050 415 1050 587 
C 1050 951 1222 1443 1395 1902 
C 1466 2087 1504 2177 1504 2305 
C 1504 2573 1312 2816 998 2816 
C 410 2816 173 1890 173 1838 
C 173 1813 198 1781 243 1781 
C 301 1781 307 1807 333 1896 
C 486 2432 730 2687 979 2687 
C 1037 2687 1146 2687 1146 2477 
C 1146 2311 1075 2126 979 1883 
C 666 1047 666 836 666 683 
C 666 76 1101 -64 1421 -64 
C 1606 -64 1837 -7 2061 230 
L 2067 223 
C 1971 -141 1907 -359 1683 -673 
z
" transform="scale(0.015625)"/>
      </defs>
      <use xlink:href="#CMMI12-79" transform="scale(0.996264)"/>
     </g>
    </g>
   </g>
   <g id="line2d_11">
    <path d="M 54 218.16 
L 388.8 218.16 
" clip-path="url(#pb0dcdff8b8)" style="fill: none; stroke: #000000; stroke-width: 0.5; stroke-linecap: square"/>
   </g>
   <g id="line2d_12">
    <path d="M 221.4 384.48 
L 221.4 51.84 
" clip-path="url(#pb0dcdff8b8)" style="fill: none; stroke: #000000; stroke-width: 0.5; stroke-linecap: square"/>
   </g>
   <g id="patch_5">
    <path d="M 54 384.48 
L 54 51.84 
" style="fill: none; stroke: #000000; stroke-width: 0.8; stroke-linejoin: miter; stroke-linecap: square"/>
   </g>
   <g id="patch_6">
    <path d="M 388.8 384.48 
L 388.8 51.84 
" style="fill: none; stroke: #000000; stroke-width: 0.8; stroke-linejoin: miter; stroke-linecap: square"/>
   </g>
   <g id="patch_7">
    <path d="M 54 384.48 
L 388.8 384.48 
" style="fill: none; stroke: #000000; stroke-width: 0.8; stroke-linejoin: miter; stroke-linecap: square"/>
   </g>
   <g id="patch_8">
    <path d="M 54 51.84 
L 388.8 51.84 
" style="fill: none; stroke: #000000; stroke-width: 0.8; stroke-linejoin: miter; stroke-linecap: square"/>
   </g>
   <g id="PathCollection_1">
    <defs>
     <path id="mf8d7bcb18b" d="M 0 3 
C 0.795609 3 1.55874 2.683901 2.12132 2.12132 
C 2.683901 1.55874 3 0.795609 3 0 
C 3 -0.795609 2.683901 -1.55874 2.12132 -2.12132 
C 1.55874 -2.683901 0.795609 -3 0 -3 
C -0.795609 -3 -1.55874 -2.683901 -2.12132 -2.12132 
C -2.683901 -1.55874 -3 -0.795609 -3 0 
C -3 0.795609 -2.683901 1.55874 -2.12132 2.12132 
C -1.55874 2.683901 -0.795609 3 0 3 
z
" style="stroke: #4169e1"/>
    </defs>
    <g clip-path="url(#pb0dcdff8b8)">
     <use xlink:href="#mf8d7bcb18b" x="221.4" y="151.632" style="fill: #4169e1; stroke: #4169e1"/>
    </g>
   </g>
   <g id="PathCollection_2">
    <defs>
     <path id="m9bccc8cd7d" d="M 0 3 
C 0.795609 3 1.55874 2.683901 2.12132 2.12132 
C 2.683901 1.55874 3 0.795609 3 0 
C 3 -0.795609 2.683901 -1.55874 2.12132 -2.12132 
C 1.55874 -2.683901 0.795609 -3 0 -3 
C -0.795609 -3 -1.55874 -2.683901 -2.12132 -2.12132 
C -2.683901 -1.55874 -3 -0.795609 -3 0 
C -3 0.795609 -2.683901 1.55874 -2.12132 2.12132 
C -1.55874 2.683901 -0.795609 3 0 3 
z
" style="stroke: #006400"/>
    </defs>
    <g clip-path="url(#pb0dcdff8b8)">
     <use xlink:href="#m9bccc8cd7d" x="254.88" y="284.688" style="fill: #006400; stroke: #006400"/>
    </g>
   </g>
   <g id="PathCollection_3">
    <defs>
     <path id="m82aef476b4" d="M 0 3 
C 0.795609 3 1.55874 2.683901 2.12132 2.12132 
C 2.683901 1.55874 3 0.795609 3 0 
C 3 -0.795609 2.683901 -1.55874 2.12132 -2.12132 
C 1.55874 -2.683901 0.795609 -3 0 -3 
C -0.795609 -3 -1.55874 -2.683901 -2.12132 -2.12132 
C -2.683901 -1.55874 -3 -0.795609 -3 0 
C -3 0.795609 -2.683901 1.55874 -2.12132 2.12132 
C -1.55874 2.683901 -0.795609 3 0 3 
z
" style="stroke: #ff8c00"/>
    </defs>
    <g clip-path="url(#pb0dcdff8b8)">
     <use xlink:href="#m82aef476b4" x="254.88" y="218.16" style="fill: #ff8c00; stroke: #ff8c00"/>
    </g>
   </g>
   <g id="legend_1">
    <g id="patch_9">
     <path d="M 261.754603 179.418877 
L 377.6 179.418877 
Q 380.8 179.418877 380.8 176.218877 
L 380.8 63.04 
Q 380.8 59.84 377.6 59.84 
L 261.754603 59.84 
Q 258.554603 59.84 258.554603 63.04 
L 258.554603 176.218877 
Q 258.554603 179.418877 261.754603 179.418877 
z
" style="fill: #ffffff; opacity: 0.8; stroke: #cccccc; stroke-linejoin: miter"/>
    </g>
    <g id="patch_10">
     <path d="M 264.954603 78.195168 
L 296.954603 78.195168 
L 296.954603 66.995168 
L 264.954603 66.995168 
z
" style="fill: #add8e6; opacity: 0.5; stroke: #add8e6; stroke-linejoin: miter"/>
    </g>
    <g id="text_13">
     <!-- $\mathbb{B}_1(\| \theta^* \|_1)$ -->
     <g transform="translate(309.754603 78.195168) scale(0.16 -0.16)">
      <defs>
       <path id="MSBM10-42" d="M 896 3828 
C 896 3912 896 4075 838 4191 
L 1536 4191 
C 1453 4088 1453 3958 1453 3860 
L 1453 551 
C 1453 455 1453 326 1536 224 
L 838 224 
C 896 339 896 500 896 583 
L 896 3828 
z
M 2637 2465 
C 2848 2672 2899 3003 2899 3283 
C 2899 3731 2758 4010 2611 4166 
C 3053 4114 3507 3951 3507 3309 
C 3507 2893 3059 2556 2637 2465 
z
M 1677 3841 
C 1677 3971 1677 4042 1766 4114 
C 1792 4127 1888 4191 2042 4191 
C 2323 4191 2675 3964 2675 3283 
C 2675 2556 2310 2400 1677 2387 
L 1677 3841 
z
M 3021 2355 
C 3379 2543 3731 2867 3731 3309 
C 3731 4211 2995 4416 2214 4416 
L 275 4416 
C 160 4416 58 4416 58 4300 
C 58 4191 166 4191 269 4191 
C 653 4191 672 4127 672 3815 
L 672 596 
C 672 275 646 224 243 224 
C 173 224 58 224 58 115 
C 58 0 160 0 275 0 
L 2176 0 
C 2963 0 3974 307 3974 1199 
C 3974 1867 3488 2227 3021 2355 
z
M 1677 570 
L 1677 2163 
C 2189 2163 2406 2163 2605 2015 
C 2854 1822 2874 1405 2874 1199 
C 2874 949 2854 224 2054 224 
C 1677 224 1677 448 1677 570 
z
M 2816 301 
C 3053 570 3098 911 3098 1199 
C 3098 1643 3002 1976 2746 2188 
C 3334 2092 3750 1758 3750 1199 
C 3750 712 3366 429 2816 301 
z
" transform="scale(0.015625)"/>
       <path id="CMR17-31" d="M 1702 4083 
C 1702 4217 1696 4224 1606 4224 
C 1357 3927 979 3833 621 3820 
C 602 3820 570 3820 563 3808 
C 557 3795 557 3782 557 3648 
C 755 3648 1088 3686 1344 3839 
L 1344 467 
C 1344 243 1331 166 781 166 
L 589 166 
L 589 0 
C 896 6 1216 12 1523 12 
C 1830 12 2150 6 2458 0 
L 2458 166 
L 2266 166 
C 1715 166 1702 236 1702 467 
L 1702 4083 
z
" transform="scale(0.015625)"/>
       <path id="CMR17-28" d="M 1958 -1562 
C 1958 -1556 1958 -1543 1939 -1524 
C 1645 -1223 858 -403 858 1596 
C 858 3595 1632 4408 1946 4729 
C 1946 4735 1958 4748 1958 4767 
C 1958 4787 1939 4800 1914 4800 
C 1843 4800 1299 4325 986 3620 
C 666 2909 576 2218 576 1603 
C 576 1141 621 360 1005 -467 
C 1312 -1133 1837 -1600 1914 -1600 
C 1946 -1600 1958 -1588 1958 -1562 
z
" transform="scale(0.015625)"/>
       <path id="CMSY10-6b" d="M 1101 4582 
C 1101 4684 1101 4800 973 4800 
C 845 4800 845 4659 845 4563 
L 845 -1364 
C 845 -1466 845 -1600 973 -1600 
C 1101 -1600 1101 -1485 1101 -1383 
L 1101 4582 
z
M 2349 4563 
C 2349 4665 2349 4800 2221 4800 
C 2093 4800 2093 4684 2093 4582 
L 2093 -1383 
C 2093 -1485 2093 -1600 2221 -1600 
C 2349 -1600 2349 -1460 2349 -1364 
L 2349 4563 
z
" transform="scale(0.015625)"/>
       <path id="CMMI12-12" d="M 2835 3200 
C 2835 3849 2630 4480 2106 4480 
C 1210 4480 256 2615 256 1215 
C 256 922 320 -64 992 -64 
C 1862 -64 2835 1755 2835 3200 
z
M 896 2304 
C 992 2679 1126 3213 1382 3665 
C 1594 4046 1818 4351 2099 4351 
C 2310 4351 2451 4173 2451 3563 
C 2451 3334 2432 3016 2246 2304 
L 896 2304 
z
M 2202 2112 
C 2042 1488 1907 1088 1677 687 
C 1491 362 1267 64 998 64 
C 800 64 640 216 640 846 
C 640 1259 742 1692 845 2112 
L 2202 2112 
z
" transform="scale(0.015625)"/>
       <path id="CMSY10-3" d="M 1760 2762 
C 1766 2853 1766 3008 1600 3008 
C 1498 3008 1414 2924 1434 2840 
L 1434 2755 
L 1523 1740 
L 704 2349 
C 646 2382 634 2395 589 2395 
C 499 2395 416 2303 416 2212 
C 416 2107 480 2081 544 2048 
L 1453 1603 
L 570 1164 
C 467 1112 416 1085 416 987 
C 416 889 499 804 589 804 
C 634 804 646 804 806 928 
L 1523 1459 
L 1427 359 
C 1427 224 1542 192 1594 192 
C 1670 192 1766 236 1766 359 
L 1670 1459 
L 2490 850 
C 2547 817 2560 804 2605 804 
C 2694 804 2778 896 2778 987 
C 2778 1085 2720 1118 2643 1157 
C 2259 1354 2246 1354 1741 1596 
L 2624 2035 
C 2726 2087 2778 2113 2778 2212 
C 2778 2310 2694 2395 2605 2395 
C 2560 2395 2547 2395 2387 2271 
L 1670 1740 
L 1760 2762 
z
" transform="scale(0.015625)"/>
       <path id="CMR17-29" d="M 1683 1596 
C 1683 2057 1638 2839 1254 3665 
C 947 4332 422 4800 346 4800 
C 326 4800 301 4793 301 4761 
C 301 4748 307 4742 314 4729 
C 621 4408 1402 3595 1402 1603 
C 1402 -396 627 -1210 314 -1530 
C 307 -1543 301 -1549 301 -1562 
C 301 -1594 326 -1600 346 -1600 
C 416 -1600 960 -1127 1274 -422 
C 1594 289 1683 981 1683 1596 
z
" transform="scale(0.015625)"/>
      </defs>
      <use xlink:href="#MSBM10-42" transform="scale(0.996264)"/>
      <use xlink:href="#CMR17-31" transform="translate(66.417819 -14.943915) scale(0.697382)"/>
      <use xlink:href="#CMR17-28" transform="translate(98.899133 0) scale(0.996264)"/>
      <use xlink:href="#CMSY10-6b" transform="translate(134.1799 0) scale(0.996264)"/>
      <use xlink:href="#CMMI12-12" transform="translate(183.993283 0) scale(0.996264)"/>
      <use xlink:href="#CMSY10-3" transform="translate(232.162791 36.153639) scale(0.697382)"/>
      <use xlink:href="#CMSY10-6b" transform="translate(267.530133 0) scale(0.996264)"/>
      <use xlink:href="#CMR17-31" transform="translate(317.343516 -14.943915) scale(0.697382)"/>
      <use xlink:href="#CMR17-29" transform="translate(349.82483 0) scale(0.996264)"/>
     </g>
    </g>
    <g id="patch_11">
     <path d="M 264.954603 102.135392 
L 296.954603 102.135392 
L 296.954603 90.935392 
L 264.954603 90.935392 
z
" style="fill: #8fbc8f; opacity: 0.4; stroke: #8fbc8f; stroke-linejoin: miter"/>
    </g>
    <g id="text_14">
     <!-- $\mathbb{T}(\theta^*)$ -->
     <g transform="translate(309.754603 102.135392) scale(0.16 -0.16)">
      <defs>
       <path id="MSBM10-54" d="M 2656 4185 
C 3494 4140 3808 3592 3834 3288 
C 3840 3192 3846 3095 3949 3095 
C 4064 3095 4064 3204 4064 3327 
L 4064 4185 
C 4064 4409 4038 4416 3846 4416 
L 422 4416 
C 224 4416 211 4403 211 4211 
L 211 3301 
C 211 3198 211 3095 320 3095 
C 429 3095 435 3211 435 3224 
C 461 3759 941 4146 1613 4185 
L 1613 598 
C 1613 275 1587 224 1184 224 
C 1107 224 992 224 992 115 
C 992 0 1094 0 1210 0 
L 3066 0 
C 3181 0 3277 0 3277 115 
C 3277 224 3168 224 3098 224 
C 2682 224 2656 269 2656 598 
L 2656 4185 
z
M 435 4191 
L 819 4191 
C 659 4095 525 3966 435 3856 
L 435 4191 
z
M 3840 4191 
L 3840 3850 
C 3770 3940 3622 4082 3450 4191 
L 3840 4191 
z
M 1779 224 
C 1837 340 1837 501 1837 585 
L 1837 4191 
L 2432 4191 
L 2432 585 
C 2432 501 2432 340 2490 224 
L 1779 224 
z
" transform="scale(0.015625)"/>
      </defs>
      <use xlink:href="#MSBM10-54" transform="scale(0.996264)"/>
      <use xlink:href="#CMR17-28" transform="translate(66.417819 0) scale(0.996264)"/>
      <use xlink:href="#CMMI12-12" transform="translate(101.698586 0) scale(0.996264)"/>
      <use xlink:href="#CMSY10-3" transform="translate(149.868094 36.153639) scale(0.697382)"/>
      <use xlink:href="#CMR17-29" transform="translate(185.235436 0) scale(0.996264)"/>
     </g>
    </g>
    <g id="PathCollection_4">
     <g>
      <use xlink:href="#mf8d7bcb18b" x="280.954603" y="121.120448" style="fill: #4169e1; stroke: #4169e1"/>
     </g>
    </g>
    <g id="text_15">
     <!-- $\theta^*$ -->
     <g transform="translate(309.754603 125.320448) scale(0.16 -0.16)">
      <use xlink:href="#CMMI12-12" transform="scale(0.996264)"/>
      <use xlink:href="#CMSY10-3" transform="translate(48.169508 36.153639) scale(0.697382)"/>
     </g>
    </g>
    <g id="PathCollection_5">
     <g>
      <use xlink:href="#m9bccc8cd7d" x="280.954603" y="143.419925" style="fill: #006400; stroke: #006400"/>
     </g>
    </g>
    <g id="text_16">
     <!-- $\Delta$ -->
     <g transform="translate(309.754603 147.619925) scale(0.16 -0.16)">
      <defs>
       <path id="CMR17-1" d="M 2598 4435 
C 2547 4544 2522 4544 2470 4544 
C 2394 4544 2387 4531 2342 4441 
L 269 108 
C 262 96 237 38 237 32 
C 237 6 243 0 358 0 
L 4576 0 
C 4691 0 4698 6 4698 32 
C 4698 38 4672 96 4666 108 
L 2598 4435 
z
M 2310 4056 
L 4083 358 
L 531 358 
L 2310 4056 
z
" transform="scale(0.015625)"/>
      </defs>
      <use xlink:href="#CMR17-1" transform="scale(0.996264)"/>
     </g>
    </g>
    <g id="PathCollection_6">
     <g>
      <use xlink:href="#m82aef476b4" x="280.954603" y="165.719401" style="fill: #ff8c00; stroke: #ff8c00"/>
     </g>
    </g>
    <g id="text_17">
     <!-- $\theta^* + t \Delta$ -->
     <g transform="translate(309.754603 169.919401) scale(0.16 -0.16)">
      <defs>
       <path id="CMR17-2b" d="M 2413 1472 
L 4109 1472 
C 4198 1472 4307 1472 4307 1580 
C 4307 1696 4205 1696 4109 1696 
L 2413 1696 
L 2413 3385 
C 2413 3475 2413 3584 2304 3584 
C 2189 3584 2189 3481 2189 3385 
L 2189 1696 
L 493 1696 
C 403 1696 294 1696 294 1587 
C 294 1472 397 1472 493 1472 
L 2189 1472 
L 2189 -194 
C 2189 -282 2189 -391 2298 -391 
C 2413 -391 2413 -289 2413 -194 
L 2413 1472 
z
" transform="scale(0.015625)"/>
       <path id="CMMI12-74" d="M 1286 2566 
L 1875 2566 
C 1997 2566 2061 2566 2061 2681 
C 2061 2752 2022 2752 1894 2752 
L 1331 2752 
L 1568 3664 
C 1594 3752 1594 3764 1594 3808 
C 1594 3910 1510 3968 1427 3968 
C 1376 3968 1229 3948 1178 3746 
L 928 2752 
L 326 2752 
C 198 2752 141 2752 141 2630 
C 141 2566 186 2566 307 2566 
L 877 2566 
L 454 881 
C 403 657 384 593 384 510 
C 384 210 595 -64 954 -64 
C 1600 -64 1946 868 1946 913 
C 1946 951 1920 970 1882 970 
C 1869 970 1843 970 1830 944 
C 1824 938 1818 932 1773 830 
C 1638 510 1344 64 973 64 
C 781 64 768 223 768 364 
C 768 370 768 491 787 568 
L 1286 2566 
z
" transform="scale(0.015625)"/>
      </defs>
      <use xlink:href="#CMMI12-12" transform="scale(0.996264)"/>
      <use xlink:href="#CMSY10-3" transform="translate(48.169508 36.153639) scale(0.697382)"/>
      <use xlink:href="#CMR17-2b" transform="translate(105.676057 0) scale(0.996264)"/>
      <use xlink:href="#CMMI12-74" transform="translate(199.530052 0) scale(0.996264)"/>
      <use xlink:href="#CMR17-1" transform="translate(234.756382 0) scale(0.996264)"/>
     </g>
    </g>
   </g>
  </g>
 </g>
 <defs>
  <clipPath id="pb0dcdff8b8">
   <rect x="54" y="51.84" width="334.8" height="332.64"/>
  </clipPath>
 </defs>
</svg>
