<?xml version="1.0" encoding="utf-8" standalone="no"?>
<!DOCTYPE svg PUBLIC "-//W3C//DTD SVG 1.1//EN"
  "http://www.w3.org/Graphics/SVG/1.1/DTD/svg11.dtd">
<svg xmlns:xlink="http://www.w3.org/1999/xlink" width="607.198993pt" height="375.119851pt" viewBox="0 0 607.198993 375.119851" xmlns="http://www.w3.org/2000/svg" version="1.1">
 <metadata>
  <rdf:RDF xmlns:dc="http://purl.org/dc/elements/1.1/" xmlns:cc="http://creativecommons.org/ns#" xmlns:rdf="http://www.w3.org/1999/02/22-rdf-syntax-ns#">
   <cc:Work>
    <dc:type rdf:resource="http://purl.org/dc/dcmitype/StillImage"/>
    <dc:date>2025-05-31T18:41:53.521976</dc:date>
    <dc:format>image/svg+xml</dc:format>
    <dc:creator>
     <cc:Agent>
      <dc:title>Matplotlib v3.9.2, https://matplotlib.org/</dc:title>
     </cc:Agent>
    </dc:creator>
   </cc:Work>
  </rdf:RDF>
 </metadata>
 <defs>
  <style type="text/css">*{stroke-linejoin: round; stroke-linecap: butt}</style>
 </defs>
 <g id="figure_1">
  <g id="patch_1">
   <path d="M 0 375.119851 
L 607.198993 375.119851 
L 607.198993 0 
L 0 0 
z
" style="fill: #ffffff"/>
  </g>
  <g id="axes_1">
   <g id="patch_2">
    <path d="M 49.198993 332.64 
L 607.198993 332.64 
L 607.198993 -0 
L 49.198993 -0 
z
" style="fill: #ffffff"/>
   </g>
   <g id="matplotlib.axis_1">
    <g id="xtick_1">
     <g id="line2d_1">
      <defs>
       <path id="m208f1e6d2a" d="M 0 0 
L 0 3.5 
" style="stroke: #000000; stroke-width: 0.8"/>
      </defs>
      <g>
       <use xlink:href="#m208f1e6d2a" x="74.56263" y="332.64" style="stroke: #000000; stroke-width: 0.8"/>
      </g>
     </g>
     <g id="text_1">
      <!-- $\mathdefault{1}$ -->
      <g transform="translate(70.907353 350.530648) scale(0.16 -0.16)">
       <defs>
        <path id="LMRoman17-Regular-31" d="M 2458 0 
L 2458 166 
L 2266 166 
C 1715 166 1702 236 1702 467 
L 1702 4085 
C 1702 4217 1696 4224 1606 4224 
C 1357 3927 979 3833 621 3820 
C 602 3820 570 3820 563 3808 
C 557 3795 557 3782 557 3648 
C 755 3648 1088 3686 1344 3839 
L 1344 467 
C 1344 243 1331 166 781 166 
L 589 166 
L 589 0 
L 1523 12 
L 2458 0 
z
" transform="scale(0.015625)"/>
       </defs>
       <use xlink:href="#LMRoman17-Regular-31" transform="scale(0.996264)"/>
      </g>
     </g>
    </g>
    <g id="xtick_2">
     <g id="line2d_2">
      <g>
       <use xlink:href="#m208f1e6d2a" x="130.926266" y="332.64" style="stroke: #000000; stroke-width: 0.8"/>
      </g>
     </g>
     <g id="text_2">
      <!-- $\mathdefault{2}$ -->
      <g transform="translate(127.27099 350.530648) scale(0.16 -0.16)">
       <defs>
        <path id="LMRoman17-Regular-32" d="M 2669 990 
L 2554 990 
C 2490 537 2438 460 2413 422 
C 2381 371 1920 371 1830 371 
L 602 371 
L 1824 1596 
C 2214 1966 2669 2400 2669 3033 
C 2669 3788 2067 4224 1395 4224 
C 691 4224 262 3603 262 3027 
C 262 2777 448 2745 525 2745 
C 589 2745 781 2783 781 3007 
C 781 3206 614 3264 525 3264 
C 486 3264 448 3257 422 3244 
C 544 3788 915 4057 1306 4057 
C 1862 4057 2227 3616 2227 3033 
C 2227 2477 1901 1998 1536 1583 
L 262 147 
L 262 0 
L 2515 0 
L 2669 990 
z
" transform="scale(0.015625)"/>
       </defs>
       <use xlink:href="#LMRoman17-Regular-32" transform="scale(0.996264)"/>
      </g>
     </g>
    </g>
    <g id="xtick_3">
     <g id="line2d_3">
      <g>
       <use xlink:href="#m208f1e6d2a" x="187.289902" y="332.64" style="stroke: #000000; stroke-width: 0.8"/>
      </g>
     </g>
     <g id="text_3">
      <!-- $\mathdefault{3}$ -->
      <g transform="translate(183.634626 350.530648) scale(0.16 -0.16)">
       <defs>
        <path id="LMRoman17-Regular-33" d="M 2720 1094 
C 2720 1715 2208 2163 1600 2233 
C 2086 2335 2554 2771 2554 3353 
C 2554 3856 2048 4224 1472 4224 
C 890 4224 378 3862 378 3347 
C 378 3123 544 3084 627 3084 
C 762 3084 877 3167 877 3334 
C 877 3500 762 3584 627 3584 
C 602 3596 570 3596 544 3584 
C 730 4006 1235 4083 1459 4083 
C 1683 4083 2106 3974 2106 3360 
C 2106 3180 2080 2860 1862 2579 
C 1670 2329 1453 2316 1242 2297 
C 1210 2297 1062 2284 1037 2284 
C 992 2278 966 2272 966 2227 
C 966 2182 973 2176 1101 2176 
L 1414 2176 
C 1984 2176 2234 1673 2234 1094 
C 2234 322 1824 25 1453 25 
C 1114 25 563 193 390 691 
C 422 678 454 678 486 678 
C 640 671 755 774 755 940 
C 755 1132 614 1216 486 1216 
C 378 1216 211 1164 211 926 
C 211 334 787 -128 1466 -128 
C 2176 -128 2720 431 2720 1087 
L 2720 1094 
z
" transform="scale(0.015625)"/>
       </defs>
       <use xlink:href="#LMRoman17-Regular-33" transform="scale(0.996264)"/>
      </g>
     </g>
    </g>
    <g id="xtick_4">
     <g id="line2d_4">
      <g>
       <use xlink:href="#m208f1e6d2a" x="243.653539" y="332.64" style="stroke: #000000; stroke-width: 0.8"/>
      </g>
     </g>
     <g id="text_4">
      <!-- $\mathdefault{4}$ -->
      <g transform="translate(239.998262 350.530648) scale(0.16 -0.16)">
       <defs>
        <path id="LMRoman17-Regular-34" d="M 2803 1088 
L 2803 1254 
L 2150 1254 
L 2150 4146 
C 2150 4281 2144 4288 2029 4288 
L 128 1254 
L 128 1088 
L 1779 1088 
L 1779 460 
C 1779 230 1766 166 1318 166 
L 1197 166 
L 1197 0 
C 1402 12 1747 12 1965 12 
C 2182 12 2528 12 2733 0 
L 2733 166 
L 2611 166 
C 2163 166 2150 230 2150 460 
L 2150 1088 
L 2803 1088 
z
M 1798 1254 
L 256 1254 
L 1798 3723 
L 1798 1254 
z
" transform="scale(0.015625)"/>
       </defs>
       <use xlink:href="#LMRoman17-Regular-34" transform="scale(0.996264)"/>
      </g>
     </g>
    </g>
    <g id="xtick_5">
     <g id="line2d_5">
      <g>
       <use xlink:href="#m208f1e6d2a" x="300.017175" y="332.64" style="stroke: #000000; stroke-width: 0.8"/>
      </g>
     </g>
     <g id="text_5">
      <!-- $\mathdefault{5}$ -->
      <g transform="translate(296.361899 350.530648) scale(0.16 -0.16)">
       <defs>
        <path id="LMRoman17-Regular-35" d="M 2669 1260 
C 2669 2028 2170 2624 1549 2624 
C 1222 2624 947 2502 730 2271 
L 730 3692 
C 794 3667 1056 3584 1325 3584 
C 1920 3584 2246 3904 2432 4119 
C 2432 4183 2432 4224 2394 4224 
C 2394 4224 2374 4224 2323 4191 
C 2099 4071 1837 3974 1517 3974 
C 1325 3993 1037 4019 723 4160 
C 653 4224 634 4224 634 4224 
C 602 4192 595 4185 595 4057 
L 595 2206 
C 595 2092 595 2061 659 2061 
C 691 2061 704 2074 736 2118 
C 941 2401 1222 2521 1542 2521 
C 1766 2521 2246 2382 2246 1304 
C 2246 1103 2246 735 2054 441 
C 1894 166 1645 25 1370 25 
C 947 25 518 334 403 832 
C 429 806 480 793 506 793 
C 589 793 749 838 749 1036 
C 749 1209 627 1280 506 1280 
C 358 1280 262 1190 262 1011 
C 262 454 704 -128 1382 -128 
C 2042 -128 2669 441 2669 1267 
L 2669 1260 
z
" transform="scale(0.015625)"/>
       </defs>
       <use xlink:href="#LMRoman17-Regular-35" transform="scale(0.996264)"/>
      </g>
     </g>
    </g>
    <g id="xtick_6">
     <g id="line2d_6">
      <g>
       <use xlink:href="#m208f1e6d2a" x="356.380811" y="332.64" style="stroke: #000000; stroke-width: 0.8"/>
      </g>
     </g>
     <g id="text_6">
      <!-- $\mathdefault{6}$ -->
      <g transform="translate(352.725535 350.530648) scale(0.16 -0.16)">
       <defs>
        <path id="LMRoman17-Regular-36" d="M 2688 1305 
C 2688 2105 2170 2688 1517 2688 
C 1126 2688 838 2431 678 1983 
L 678 2201 
C 678 3712 1395 4076 1811 4076 
C 1946 4076 2272 4049 2400 3782 
C 2298 3782 2106 3782 2106 3558 
C 2106 3385 2246 3328 2336 3328 
C 2394 3328 2566 3353 2566 3571 
C 2566 3993 2246 4224 1805 4224 
C 1043 4224 243 3427 243 2006 
C 243 257 966 -128 1478 -128 
C 2099 -135 2688 422 2688 1280 
L 2688 1305 
z
M 2253 1286 
C 2253 937 2253 684 2118 431 
C 1978 171 1773 25 1478 25 
C 691 25 691 1191 691 1427 
C 691 1901 909 2585 1504 2585 
C 1613 2585 1926 2585 2138 2131 
C 2253 1862 2253 1600 2253 1280 
L 2253 1286 
z
" transform="scale(0.015625)"/>
       </defs>
       <use xlink:href="#LMRoman17-Regular-36" transform="scale(0.996264)"/>
      </g>
     </g>
    </g>
    <g id="xtick_7">
     <g id="line2d_7">
      <g>
       <use xlink:href="#m208f1e6d2a" x="412.744448" y="332.64" style="stroke: #000000; stroke-width: 0.8"/>
      </g>
     </g>
     <g id="text_7">
      <!-- $\mathdefault{7}$ -->
      <g transform="translate(409.089172 350.530648) scale(0.16 -0.16)">
       <defs>
        <path id="LMRoman17-Regular-37" d="M 2886 4006 
L 2886 4147 
L 1382 4147 
C 634 4147 621 4230 595 4352 
L 480 4352 
L 294 3148 
L 410 3148 
C 429 3271 474 3601 550 3724 
C 589 3776 1062 3776 1171 3776 
L 2579 3776 
L 1869 2707 
C 1395 1989 1069 1018 1069 169 
C 1069 92 1069 -128 1299 -128 
C 1530 -128 1530 92 1530 176 
L 1530 474 
C 1530 1535 1709 2235 2003 2681 
L 2886 4006 
z
" transform="scale(0.015625)"/>
       </defs>
       <use xlink:href="#LMRoman17-Regular-37" transform="scale(0.996264)"/>
      </g>
     </g>
    </g>
    <g id="xtick_8">
     <g id="line2d_8">
      <g>
       <use xlink:href="#m208f1e6d2a" x="469.108084" y="332.64" style="stroke: #000000; stroke-width: 0.8"/>
      </g>
     </g>
     <g id="text_8">
      <!-- $\mathdefault{8}$ -->
      <g transform="translate(465.452808 350.530648) scale(0.16 -0.16)">
       <defs>
        <path id="LMRoman17-Regular-38" d="M 2720 1022 
C 2720 1607 2330 1877 2074 2051 
C 1984 2115 1933 2147 1741 2289 
C 2144 2494 2554 2803 2554 3298 
C 2554 3884 1990 4224 1472 4224 
C 890 4224 378 3800 378 3215 
C 378 3054 416 2777 666 2533 
C 730 2469 998 2276 1171 2154 
C 883 2006 211 1652 211 945 
C 211 282 838 -128 1459 -128 
C 2144 -128 2720 366 2720 1022 
z
M 2336 3298 
C 2336 2700 1670 2359 1638 2359 
C 1638 2359 1626 2359 1574 2398 
L 902 2855 
C 851 2887 595 3086 595 3388 
C 595 3781 998 4076 1459 4076 
C 1965 4076 2336 3716 2336 3298 
z
M 2483 861 
C 2483 385 2010 25 1472 25 
C 890 25 448 443 448 951 
C 448 1459 838 1884 1280 2083 
L 2080 1536 
C 2176 1466 2483 1253 2483 861 
z
" transform="scale(0.015625)"/>
       </defs>
       <use xlink:href="#LMRoman17-Regular-38" transform="scale(0.996264)"/>
      </g>
     </g>
    </g>
    <g id="xtick_9">
     <g id="line2d_9">
      <g>
       <use xlink:href="#m208f1e6d2a" x="525.47172" y="332.64" style="stroke: #000000; stroke-width: 0.8"/>
      </g>
     </g>
     <g id="text_9">
      <!-- $\mathdefault{9}$ -->
      <g transform="translate(521.816444 350.530648) scale(0.16 -0.16)">
       <defs>
        <path id="LMRoman17-Regular-39" d="M 2688 2112 
C 2688 3860 1971 4224 1485 4224 
C 851 4224 243 3669 243 2816 
C 243 2022 762 1433 1414 1433 
C 1952 1433 2189 1932 2253 2144 
L 2253 1894 
C 2253 479 1670 25 1190 25 
C 1043 25 685 46 538 313 
C 704 287 826 377 826 537 
C 826 710 685 768 595 768 
C 538 762 365 736 365 514 
C 365 71 742 -128 1203 -128 
C 1939 -128 2688 690 2688 2112 
z
M 2240 2668 
C 2240 2214 2035 1536 1427 1536 
C 1254 1536 1011 1568 813 1952 
C 678 2201 678 2495 678 2809 
C 678 3185 678 3446 858 3726 
C 947 3860 1114 4076 1485 4076 
C 2240 4076 2240 2924 2240 2668 
L 2240 2668 
z
" transform="scale(0.015625)"/>
       </defs>
       <use xlink:href="#LMRoman17-Regular-39" transform="scale(0.996264)"/>
      </g>
     </g>
    </g>
    <g id="xtick_10">
     <g id="line2d_10">
      <g>
       <use xlink:href="#m208f1e6d2a" x="581.835357" y="332.64" style="stroke: #000000; stroke-width: 0.8"/>
      </g>
     </g>
     <g id="text_10">
      <!-- $\mathdefault{10}$ -->
      <g transform="translate(574.524804 350.530648) scale(0.16 -0.16)">
       <defs>
        <path id="LMRoman17-Regular-30" d="M 2688 2038 
C 2688 2430 2682 3099 2413 3613 
C 2176 4063 1798 4224 1466 4224 
C 1158 4224 768 4082 525 3620 
C 269 3137 243 2539 243 2038 
C 243 1671 250 1112 448 623 
C 723 -39 1216 -128 1466 -128 
C 1760 -128 2208 -7 2470 604 
C 2662 1048 2688 1568 2688 2038 
z
M 2278 2109 
C 2278 1691 2278 1176 2202 797 
C 2067 96 1690 -26 1466 -26 
C 1056 -26 813 328 723 816 
C 653 1196 653 1749 653 2109 
C 653 2604 653 3015 736 3407 
C 858 3954 1216 4121 1466 4121 
C 1728 4121 2067 3947 2189 3420 
C 2272 3054 2278 2623 2278 2109 
z
" transform="scale(0.015625)"/>
       </defs>
       <use xlink:href="#LMRoman17-Regular-31" transform="scale(0.996264)"/>
       <use xlink:href="#LMRoman17-Regular-30" transform="translate(45.690948 0) scale(0.996264)"/>
      </g>
     </g>
    </g>
    <g id="text_11">
     <!-- Indeks $j$ -->
     <g transform="translate(295.254473 371.244354) scale(0.2 -0.2)">
      <defs>
       <path id="LMRoman17-Regular-49" d="M 1798 0 
L 1798 166 
C 1338 166 1261 166 1261 453 
L 1261 3898 
C 1261 4185 1338 4185 1798 4185 
L 1798 4352 
C 1594 4339 1267 4339 1050 4339 
C 832 4339 506 4339 301 4352 
L 301 4185 
C 762 4185 838 4185 838 3898 
L 838 453 
C 838 166 762 166 301 166 
L 301 0 
C 506 12 832 12 1050 12 
C 1267 12 1594 12 1798 0 
z
" transform="scale(0.015625)"/>
       <path id="LMRoman17-Regular-6e" d="M 3091 0 
L 3091 166 
C 2682 166 2656 192 2656 443 
L 2656 1954 
C 2656 2282 2592 2816 1837 2816 
C 1331 2816 1069 2424 973 2166 
L 966 2166 
L 966 2816 
L 211 2752 
L 211 2585 
C 589 2585 646 2546 646 2237 
L 646 443 
C 646 198 621 166 211 166 
L 211 0 
C 365 12 646 12 813 12 
C 979 12 1267 12 1421 0 
L 1421 166 
C 1011 166 986 192 986 443 
L 986 1682 
C 986 2269 1344 2713 1792 2713 
C 2266 2713 2317 2289 2317 1980 
L 2317 443 
C 2317 198 2291 166 1882 166 
L 1882 0 
C 2035 12 2317 12 2483 12 
C 2650 12 2938 12 3091 0 
z
" transform="scale(0.015625)"/>
       <path id="LMRoman17-Regular-64" d="M 3066 0 
L 3066 166 
C 2688 166 2630 204 2630 512 
L 2630 4416 
L 1869 4352 
L 1869 4185 
C 2246 4185 2304 4148 2304 3847 
L 2304 2371 
C 2278 2403 2016 2816 1498 2816 
C 845 2816 211 2228 211 1376 
C 211 529 806 -64 1434 -64 
C 1978 -64 2259 361 2291 406 
L 2291 -64 
L 3066 0 
z
M 2291 768 
C 2291 576 2176 403 2029 275 
C 1811 70 1594 38 1472 38 
C 1286 38 621 135 621 1369 
C 621 2636 1363 2713 1530 2713 
C 1824 2713 2061 2545 2208 2313 
C 2291 2177 2291 2157 2291 2041 
L 2291 768 
z
" transform="scale(0.015625)"/>
       <path id="LMRoman17-Regular-65" d="M 2464 1606 
C 2464 2251 2118 2816 1389 2816 
C 710 2816 173 2175 173 1394 
C 173 554 781 -64 1459 -64 
C 2176 -64 2458 619 2458 755 
C 2458 800 2406 800 2406 800 
C 2362 800 2355 787 2330 709 
C 2189 270 1837 51 1504 51 
C 1229 51 954 206 781 490 
C 582 819 582 1200 582 1503 
L 2438 1503 
C 2464 1523 2464 1535 2464 1600 
L 2464 1606 
z
M 2118 1593 
L 589 1600 
C 634 2511 1126 2713 1382 2713 
C 1818 2713 2112 2308 2118 1600 
L 2118 1593 
z
" transform="scale(0.015625)"/>
       <path id="LMRoman17-Regular-6b" d="M 3040 0 
L 3040 166 
C 2739 166 2669 224 2477 505 
L 1670 1689 
C 1664 1702 1632 1740 1632 1760 
L 2144 2240 
C 2509 2547 2739 2579 2906 2585 
L 2906 2752 
C 2867 2752 2848 2745 2848 2745 
L 2534 2739 
C 2355 2739 2080 2739 1907 2752 
L 1907 2585 
C 1997 2579 2061 2528 2061 2438 
C 2061 2310 1926 2188 1926 2188 
L 960 1305 
L 960 4416 
L 198 4352 
L 198 4185 
C 576 4185 634 4147 634 3841 
L 634 440 
C 634 198 608 166 198 166 
L 198 0 
C 352 12 634 12 794 12 
C 954 12 1235 12 1389 0 
L 1389 166 
C 979 166 954 191 954 440 
L 954 1140 
L 1395 1542 
L 2042 586 
C 2118 472 2182 382 2182 300 
C 2182 185 2067 166 1990 166 
L 1990 0 
C 2144 12 2419 12 2579 12 
L 3040 0 
z
" transform="scale(0.015625)"/>
       <path id="LMRoman17-Regular-73" d="M 2131 793 
C 2131 1119 1958 1292 1875 1369 
C 1683 1567 1459 1612 1190 1663 
C 838 1740 390 1830 390 2216 
C 390 2380 480 2726 1126 2726 
C 1811 2726 1850 2097 1862 1894 
C 1869 1862 1901 1855 1920 1855 
C 1978 1855 1978 1875 1978 1984 
L 1978 2688 
C 1978 2809 1971 2816 1933 2816 
C 1907 2816 1901 2809 1824 2713 
C 1805 2687 1747 2623 1728 2598 
C 1523 2809 1235 2816 1126 2816 
C 416 2816 160 2450 160 2086 
C 160 1507 813 1371 998 1333 
C 1402 1249 1542 1223 1677 1107 
C 1760 1030 1901 888 1901 656 
C 1901 386 1747 38 1158 38 
C 602 38 403 463 288 1030 
C 269 1126 269 1132 218 1132 
C 166 1132 160 1126 160 998 
L 160 76 
C 160 -39 166 -45 205 -45 
C 237 -45 243 -39 275 12 
L 448 275 
C 576 102 800 -64 1158 -64 
C 1792 -64 2131 281 2131 780 
L 2131 793 
z
" transform="scale(0.015625)"/>
       <path id="LMMathItalic12-Regular-6a" d="M 2240 2027 
C 2266 2129 2266 2218 2266 2243 
C 2266 2611 1990 2816 1702 2816 
C 1056 2816 710 1887 710 1843 
C 710 1811 736 1786 774 1786 
C 826 1786 832 1811 864 1875 
C 1120 2491 1440 2687 1683 2687 
C 1818 2687 1888 2618 1888 2395 
C 1888 2243 1869 2180 1843 2065 
L 1235 -328 
C 1114 -798 813 -1154 461 -1154 
C 435 -1154 301 -1154 179 -1090 
C 333 -1058 454 -938 454 -785 
C 454 -684 378 -582 237 -582 
C 70 -582 -83 -722 -83 -912 
C -83 -1173 198 -1280 461 -1280 
C 902 -1280 1485 -957 1645 -322 
L 2240 2027 
z
M 2502 4012 
C 2502 4172 2368 4224 2291 4224 
C 2118 4224 1971 4057 1971 3916 
C 1971 3820 2048 3705 2189 3705 
C 2336 3705 2502 3846 2502 4012 
z
" transform="scale(0.015625)"/>
      </defs>
      <use xlink:href="#LMRoman17-Regular-49" transform="scale(0.996264)"/>
      <use xlink:href="#LMRoman17-Regular-6e" transform="translate(32.638029 0) scale(0.996264)"/>
      <use xlink:href="#LMRoman17-Regular-64" transform="translate(83.535117 0) scale(0.996264)"/>
      <use xlink:href="#LMRoman17-Regular-65" transform="translate(134.432204 0) scale(0.996264)"/>
      <use xlink:href="#LMRoman17-Regular-6b" transform="translate(174.917013 0) scale(0.996264)"/>
      <use xlink:href="#LMRoman17-Regular-73" transform="translate(223.208227 0) scale(0.996264)"/>
      <use xlink:href="#LMMathItalic12-Regular-6a" transform="translate(289.087613 0) scale(0.996264)"/>
     </g>
    </g>
   </g>
   <g id="matplotlib.axis_2">
    <g id="ytick_1">
     <g id="line2d_11">
      <defs>
       <path id="m51a23b6738" d="M 0 0 
L -3.5 0 
" style="stroke: #000000; stroke-width: 0.8"/>
      </defs>
      <g>
       <use xlink:href="#m51a23b6738" x="49.198993" y="317.52" style="stroke: #000000; stroke-width: 0.8"/>
      </g>
     </g>
     <g id="text_12">
      <!-- $\mathdefault{0.0}$ -->
      <g transform="translate(23.24234 322.965324) scale(0.16 -0.16)">
       <defs>
        <path id="LMMathItalic12-Regular-3a" d="M 1178 307 
C 1178 492 1024 620 870 620 
C 685 620 557 467 557 313 
C 557 128 710 0 864 0 
C 1050 0 1178 153 1178 307 
z
" transform="scale(0.015625)"/>
       </defs>
       <use xlink:href="#LMRoman17-Regular-30" transform="scale(0.996264)"/>
       <use xlink:href="#LMMathItalic12-Regular-3a" transform="translate(45.690948 0) scale(0.996264)"/>
       <use xlink:href="#LMRoman17-Regular-30" transform="translate(72.788125 0) scale(0.996264)"/>
      </g>
     </g>
    </g>
    <g id="ytick_2">
     <g id="line2d_12">
      <g>
       <use xlink:href="#m51a23b6738" x="49.198993" y="257.04" style="stroke: #000000; stroke-width: 0.8"/>
      </g>
     </g>
     <g id="text_13">
      <!-- $\mathdefault{0.2}$ -->
      <g transform="translate(23.24234 262.485324) scale(0.16 -0.16)">
       <use xlink:href="#LMRoman17-Regular-30" transform="scale(0.996264)"/>
       <use xlink:href="#LMMathItalic12-Regular-3a" transform="translate(45.690948 0) scale(0.996264)"/>
       <use xlink:href="#LMRoman17-Regular-32" transform="translate(72.788125 0) scale(0.996264)"/>
      </g>
     </g>
    </g>
    <g id="ytick_3">
     <g id="line2d_13">
      <g>
       <use xlink:href="#m51a23b6738" x="49.198993" y="196.56" style="stroke: #000000; stroke-width: 0.8"/>
      </g>
     </g>
     <g id="text_14">
      <!-- $\mathdefault{0.4}$ -->
      <g transform="translate(23.24234 202.005324) scale(0.16 -0.16)">
       <use xlink:href="#LMRoman17-Regular-30" transform="scale(0.996264)"/>
       <use xlink:href="#LMMathItalic12-Regular-3a" transform="translate(45.690948 0) scale(0.996264)"/>
       <use xlink:href="#LMRoman17-Regular-34" transform="translate(72.788125 0) scale(0.996264)"/>
      </g>
     </g>
    </g>
    <g id="ytick_4">
     <g id="line2d_14">
      <g>
       <use xlink:href="#m51a23b6738" x="49.198993" y="136.08" style="stroke: #000000; stroke-width: 0.8"/>
      </g>
     </g>
     <g id="text_15">
      <!-- $\mathdefault{0.6}$ -->
      <g transform="translate(23.24234 141.525324) scale(0.16 -0.16)">
       <use xlink:href="#LMRoman17-Regular-30" transform="scale(0.996264)"/>
       <use xlink:href="#LMMathItalic12-Regular-3a" transform="translate(45.690948 0) scale(0.996264)"/>
       <use xlink:href="#LMRoman17-Regular-36" transform="translate(72.788125 0) scale(0.996264)"/>
      </g>
     </g>
    </g>
    <g id="ytick_5">
     <g id="line2d_15">
      <g>
       <use xlink:href="#m51a23b6738" x="49.198993" y="75.6" style="stroke: #000000; stroke-width: 0.8"/>
      </g>
     </g>
     <g id="text_16">
      <!-- $\mathdefault{0.8}$ -->
      <g transform="translate(23.24234 81.045324) scale(0.16 -0.16)">
       <use xlink:href="#LMRoman17-Regular-30" transform="scale(0.996264)"/>
       <use xlink:href="#LMMathItalic12-Regular-3a" transform="translate(45.690948 0) scale(0.996264)"/>
       <use xlink:href="#LMRoman17-Regular-38" transform="translate(72.788125 0) scale(0.996264)"/>
      </g>
     </g>
    </g>
    <g id="ytick_6">
     <g id="line2d_16">
      <g>
       <use xlink:href="#m51a23b6738" x="49.198993" y="15.12" style="stroke: #000000; stroke-width: 0.8"/>
      </g>
     </g>
     <g id="text_17">
      <!-- $\mathdefault{1.0}$ -->
      <g transform="translate(23.24234 20.565324) scale(0.16 -0.16)">
       <use xlink:href="#LMRoman17-Regular-31" transform="scale(0.996264)"/>
       <use xlink:href="#LMMathItalic12-Regular-3a" transform="translate(45.690948 0) scale(0.996264)"/>
       <use xlink:href="#LMRoman17-Regular-30" transform="translate(72.788125 0) scale(0.996264)"/>
      </g>
     </g>
    </g>
    <g id="text_18">
     <!-- Wartość ograniczenia $Cj^{-\alpha}$ -->
     <g transform="translate(15.366843 276.049331) rotate(-90) scale(0.2 -0.2)">
      <defs>
       <path id="LMRoman17-Regular-57" d="M 6048 4185 
L 6048 4352 
L 5600 4339 
C 5440 4339 5158 4339 5005 4352 
L 5005 4185 
C 5293 4178 5414 4011 5414 3852 
C 5414 3808 5408 3782 5382 3712 
L 4390 550 
L 3347 3878 
C 3328 3945 3322 3971 3322 3998 
C 3322 4185 3603 4185 3725 4185 
L 3725 4352 
C 3539 4339 3219 4339 3021 4339 
C 2861 4339 2573 4339 2426 4352 
L 2426 4185 
C 2720 4185 2797 4165 2861 4045 
C 2886 3985 2989 3647 2989 3628 
C 2989 3603 2976 3564 2970 3545 
L 2029 556 
L 986 3878 
C 954 3971 954 3998 954 3998 
C 954 4185 1235 4185 1363 4185 
L 1363 4352 
C 1178 4339 858 4339 659 4339 
C 493 4339 211 4339 58 4352 
L 58 4185 
C 442 4185 467 4147 531 3942 
L 1779 -20 
C 1811 -116 1811 -128 1869 -128 
C 1920 -128 1939 -116 1965 -26 
L 3053 3448 
L 4141 -26 
C 4166 -116 4186 -128 4237 -128 
C 4294 -128 4294 -116 4326 -20 
L 5523 3776 
C 5581 3948 5677 4172 6048 4185 
z
" transform="scale(0.015625)"/>
       <path id="LMRoman17-Regular-61" d="M 2874 569 
L 2874 928 
L 2758 928 
L 2758 563 
C 2758 172 2586 121 2502 121 
C 2240 121 2240 454 2240 736 
L 2240 1657 
C 2240 2080 2240 2304 1971 2553 
C 1734 2764 1459 2828 1242 2828 
C 736 2828 371 2432 371 2009 
C 371 1772 563 1760 602 1760 
C 685 1760 832 1811 832 1990 
C 832 2150 710 2220 602 2220 
C 576 2220 544 2214 525 2208 
C 659 2611 1005 2726 1229 2726 
C 1549 2726 1901 2444 1901 1907 
L 1901 1625 
C 1523 1612 1069 1561 710 1369 
C 307 1145 192 825 192 582 
C 192 89 768 -52 1107 -52 
C 1459 -52 1786 147 1926 512 
C 1939 230 2118 -26 2400 -26 
C 2534 -26 2874 64 2874 569 
z
M 1901 889 
C 1901 332 1504 51 1152 51 
C 832 51 582 288 582 582 
C 582 774 666 1113 1037 1318 
C 1344 1491 1696 1516 1901 1529 
L 1901 889 
z
" transform="scale(0.015625)"/>
       <path id="LMRoman17-Regular-72" d="M 2131 2483 
C 2131 2687 1926 2816 1709 2816 
C 1222 2816 1011 2342 947 2118 
L 941 2118 
L 941 2816 
L 198 2752 
L 198 2585 
C 576 2585 634 2546 634 2237 
L 634 443 
C 634 198 608 166 198 166 
L 198 0 
C 352 12 646 12 813 12 
C 998 12 1325 12 1498 0 
L 1498 166 
C 1037 159 960 159 960 447 
L 960 1503 
C 960 2118 1222 2713 1702 2713 
C 1747 2713 1792 2706 1837 2684 
C 1837 2684 1696 2633 1696 2457 
C 1696 2303 1818 2239 1914 2239 
C 1990 2239 2131 2284 2131 2463 
L 2131 2483 
z
" transform="scale(0.015625)"/>
       <path id="LMRoman17-Regular-74" d="M 1965 784 
L 1965 1151 
L 1850 1151 
L 1850 790 
C 1850 347 1677 51 1408 51 
C 1222 51 966 179 966 765 
L 966 2585 
L 1862 2585 
L 1862 2752 
L 966 2752 
L 966 3968 
L 851 3968 
C 838 3291 614 2700 70 2687 
L 70 2585 
L 627 2585 
L 627 778 
C 627 655 627 -64 1370 -64 
C 1747 -64 1965 308 1965 784 
z
" transform="scale(0.015625)"/>
       <path id="LMRoman17-Regular-6f" d="M 2758 1356 
C 2758 2176 2163 2816 1466 2816 
C 768 2816 173 2176 173 1356 
C 173 550 768 -64 1466 -64 
C 2163 -64 2758 550 2758 1356 
z
M 2349 1408 
C 2349 1158 2336 774 2163 467 
C 1984 172 1709 51 1466 51 
C 1165 51 909 230 762 480 
C 602 768 582 1126 582 1408 
C 582 1676 595 2009 762 2297 
C 890 2508 1139 2713 1466 2713 
C 1754 2713 1997 2553 2150 2329 
C 2349 2028 2349 1606 2349 1408 
z
" transform="scale(0.015625)"/>
       <path id="LMRoman17-Regular-b1" d="M 2131 793 
C 2131 1119 1958 1292 1875 1369 
C 1683 1567 1459 1612 1190 1663 
C 838 1740 390 1830 390 2216 
C 390 2380 480 2726 1126 2726 
C 1811 2726 1850 2097 1862 1894 
C 1869 1862 1901 1855 1920 1855 
C 1978 1855 1978 1875 1978 1984 
L 1978 2688 
C 1978 2809 1971 2816 1933 2816 
C 1907 2816 1901 2809 1824 2713 
C 1805 2687 1747 2623 1728 2598 
C 1523 2809 1235 2816 1126 2816 
C 416 2816 160 2450 160 2086 
C 160 1507 813 1371 998 1333 
C 1402 1249 1542 1223 1677 1107 
C 1760 1030 1901 888 1901 656 
C 1901 386 1747 38 1158 38 
C 602 38 403 463 288 1030 
C 269 1126 269 1132 218 1132 
C 166 1132 160 1126 160 998 
L 160 76 
C 160 -39 166 -45 205 -45 
C 237 -45 243 -39 275 12 
L 448 275 
C 576 102 800 -64 1158 -64 
C 1792 -64 2131 281 2131 780 
L 2131 793 
z
M 1888 4301 
C 1888 4400 1805 4480 1715 4480 
C 1638 4480 1613 4446 1549 4367 
L 826 3415 
C 781 3356 781 3343 781 3343 
L 851 3264 
L 1792 4142 
C 1869 4215 1888 4228 1888 4301 
z
" transform="scale(0.015625)"/>
       <path id="LMRoman17-Regular-a2" d="M 2458 742 
C 2458 768 2451 787 2406 787 
C 2362 787 2355 780 2330 697 
C 2163 179 1798 51 1523 51 
C 1114 51 621 428 621 1376 
C 621 2358 1094 2700 1472 2700 
C 1722 2700 2093 2582 2234 2240 
C 2112 2240 1933 2240 1933 2015 
C 1933 1836 2080 1785 2163 1785 
C 2208 1772 2394 1792 2394 2016 
C 2394 2470 1958 2816 1466 2816 
C 787 2816 211 2188 211 1369 
C 211 518 813 -64 1466 -64 
C 2259 -64 2458 672 2458 742 
z
M 2176 4301 
C 2176 4400 2093 4480 2003 4480 
C 1926 4480 1901 4446 1837 4367 
L 1114 3415 
C 1069 3356 1069 3343 1069 3343 
L 1139 3264 
L 2080 4142 
C 2157 4215 2176 4228 2176 4301 
z
" transform="scale(0.015625)"/>
       <path id="LMRoman17-Regular-67" d="M 2886 2630 
C 2886 2751 2790 2880 2586 2880 
C 2330 2867 2106 2745 1926 2560 
C 1734 2751 1504 2816 1299 2816 
C 794 2816 358 2399 358 1868 
C 358 1503 570 1273 634 1209 
C 442 1004 442 742 442 710 
C 442 544 506 300 723 166 
C 390 83 128 -171 128 -487 
C 128 -944 736 -1280 1466 -1280 
C 2170 -1280 2803 -956 2803 -481 
C 2803 384 1856 384 1363 384 
C 1216 390 954 390 922 396 
C 723 428 589 605 589 827 
C 589 884 589 1024 710 1165 
C 832 1068 1043 960 1299 960 
C 1805 960 2240 1358 2240 1891 
C 2240 2058 2189 2315 1997 2515 
C 2176 2707 2438 2771 2586 2771 
C 2611 2771 2650 2771 2682 2752 
C 2656 2745 2598 2720 2598 2617 
C 2598 2540 2656 2483 2739 2483 
C 2835 2476 2886 2540 2886 2624 
L 2886 2630 
z
M 1862 1891 
C 1862 1763 1862 1068 1299 1068 
C 736 1068 736 1763 736 1891 
C 736 2020 736 2707 1299 2707 
C 1862 2707 1862 2020 1862 1891 
z
M 2547 -485 
C 2547 -835 2106 -1172 1466 -1172 
C 826 -1178 384 -839 384 -487 
C 384 -289 493 -103 634 0 
C 794 102 858 102 1293 102 
C 1818 102 2547 102 2547 -493 
L 2547 -485 
z
" transform="scale(0.015625)"/>
       <path id="LMRoman17-Regular-69" d="M 1370 0 
L 1370 166 
C 992 166 979 205 979 436 
L 979 2816 
L 243 2752 
L 243 2585 
C 602 2585 653 2546 653 2237 
L 653 443 
C 653 198 627 166 218 166 
L 218 0 
C 371 12 646 12 806 12 
C 960 12 1222 12 1370 0 
z
M 1056 3897 
C 1056 4051 934 4160 800 4160 
C 646 4160 538 4038 538 3897 
C 538 3743 659 3635 794 3635 
C 947 3635 1056 3756 1056 3897 
z
" transform="scale(0.015625)"/>
       <path id="LMRoman17-Regular-63" d="M 2458 742 
C 2458 768 2451 787 2406 787 
C 2362 787 2355 780 2330 697 
C 2163 179 1798 51 1523 51 
C 1114 51 621 428 621 1376 
C 621 2358 1094 2700 1472 2700 
C 1722 2700 2093 2582 2234 2240 
C 2112 2240 1933 2240 1933 2015 
C 1933 1836 2080 1785 2163 1785 
C 2208 1772 2394 1792 2394 2016 
C 2394 2470 1958 2816 1466 2816 
C 787 2816 211 2188 211 1369 
C 211 518 813 -64 1466 -64 
C 2259 -64 2458 672 2458 742 
z
" transform="scale(0.015625)"/>
       <path id="LMRoman17-Regular-7a" d="M 2381 1152 
L 2266 1152 
C 2214 441 2131 115 1350 115 
L 531 115 
L 2310 2604 
C 2362 2668 2362 2694 2362 2694 
C 2362 2752 2336 2752 2221 2752 
L 275 2752 
L 211 1760 
L 326 1760 
C 371 2380 442 2649 1178 2649 
L 1958 2649 
L 128 96 
C 128 6 134 0 269 0 
L 2291 0 
L 2381 1152 
z
" transform="scale(0.015625)"/>
       <path id="LMMathItalic12-Regular-43" d="M 4058 1531 
C 4058 1588 4006 1588 3987 1588 
C 3930 1588 3923 1550 3910 1524 
C 3616 533 2752 57 2112 57 
C 1434 57 845 489 845 1391 
C 845 1594 909 2699 1632 3531 
C 1984 3938 2586 4294 3194 4294 
C 3898 4294 4211 3716 4211 3068 
C 4211 2903 4192 2763 4192 2737 
C 4192 2680 4256 2680 4275 2680 
C 4346 2680 4352 2687 4378 2801 
L 4781 4422 
C 4781 4480 4723 4480 4723 4480 
C 4723 4480 4685 4480 4634 4415 
L 4192 3881 
C 3968 4262 3616 4480 3136 4480 
C 1754 4480 320 3087 320 1594 
C 320 533 1069 -128 2003 -128 
C 2515 -128 2963 89 3334 400 
C 3891 864 4058 1480 4058 1531 
z
" transform="scale(0.015625)"/>
       <path id="LMMathSymbols10-Regular-0" d="M 4442 1600 
C 4442 1728 4320 1728 4230 1728 
L 742 1728 
C 653 1728 531 1728 531 1600 
C 531 1472 653 1472 742 1472 
L 4230 1472 
C 4320 1472 4442 1472 4442 1600 
z
" transform="scale(0.015625)"/>
       <path id="LMMathItalic12-Regular-b" d="M 3661 376 
C 3661 434 3616 434 3597 434 
C 3546 434 3539 414 3520 363 
C 3462 204 3315 63 3162 63 
C 2963 63 2963 472 2963 861 
C 3616 1640 3770 2451 3770 2451 
C 3770 2509 3718 2509 3699 2509 
C 3642 2509 3635 2490 3610 2375 
C 3526 2094 3360 1596 2963 1072 
L 2963 1615 
C 2963 2234 2611 2816 1933 2816 
C 1094 2816 256 1902 256 996 
C 256 440 602 -64 1254 -64 
C 1651 -64 2125 89 2579 472 
C 2669 114 2867 -64 3142 -64 
C 3488 -64 3661 293 3661 376 
z
M 2560 625 
C 1997 121 1491 63 1267 63 
C 813 63 685 466 685 766 
C 685 1040 826 1692 1024 2043 
C 1286 2490 1645 2688 1933 2688 
C 2554 2688 2554 1877 2554 1340 
L 2547 855 
C 2547 727 2554 695 2560 625 
z
" transform="scale(0.015625)"/>
      </defs>
      <use xlink:href="#LMRoman17-Regular-57" transform="scale(0.996264)"/>
      <use xlink:href="#LMRoman17-Regular-61" transform="translate(87.287768 0) scale(0.996264)"/>
      <use xlink:href="#LMRoman17-Regular-72" transform="translate(132.978716 0) scale(0.996264)"/>
      <use xlink:href="#LMRoman17-Regular-74" transform="translate(168.260244 0) scale(0.996264)"/>
      <use xlink:href="#LMRoman17-Regular-6f" transform="translate(203.541772 0) scale(0.996264)"/>
      <use xlink:href="#LMRoman17-Regular-b1" transform="translate(249.23272 0) scale(0.996264)"/>
      <use xlink:href="#LMRoman17-Regular-a2" transform="translate(285.035958 0) scale(0.996264)"/>
      <use xlink:href="#LMRoman17-Regular-6f" transform="translate(355.596916 0) scale(0.996264)"/>
      <use xlink:href="#LMRoman17-Regular-67" transform="translate(401.287865 0) scale(0.996264)"/>
      <use xlink:href="#LMRoman17-Regular-72" transform="translate(446.978813 0) scale(0.996264)"/>
      <use xlink:href="#LMRoman17-Regular-61" transform="translate(482.260341 0) scale(0.996264)"/>
      <use xlink:href="#LMRoman17-Regular-6e" transform="translate(527.951289 0) scale(0.996264)"/>
      <use xlink:href="#LMRoman17-Regular-69" transform="translate(578.848377 0) scale(0.996264)"/>
      <use xlink:href="#LMRoman17-Regular-63" transform="translate(603.720393 0) scale(0.996264)"/>
      <use xlink:href="#LMRoman17-Regular-7a" transform="translate(644.205202 0) scale(0.996264)"/>
      <use xlink:href="#LMRoman17-Regular-65" transform="translate(684.690011 0) scale(0.996264)"/>
      <use xlink:href="#LMRoman17-Regular-6e" transform="translate(725.17482 0) scale(0.996264)"/>
      <use xlink:href="#LMRoman17-Regular-69" transform="translate(776.071908 0) scale(0.996264)"/>
      <use xlink:href="#LMRoman17-Regular-61" transform="translate(800.943924 0) scale(0.996264)"/>
      <use xlink:href="#LMMathItalic12-Regular-43" transform="translate(876.711021 0) scale(0.996264)"/>
      <use xlink:href="#LMMathItalic12-Regular-6a" transform="translate(953.657868 0) scale(0.996264)"/>
      <use xlink:href="#LMMathSymbols10-Regular-0" transform="translate(999.620351 36.153639) scale(0.697382)"/>
      <use xlink:href="#LMMathItalic12-Regular-b" transform="translate(1053.861344 36.153639) scale(0.697382)"/>
     </g>
    </g>
   </g>
   <g id="line2d_17">
    <path d="M 74.56263 15.12 
L 130.926266 308.07 
L 187.289902 316.275556 
L 243.653539 317.224688 
L 300.017175 317.423232 
L 356.380811 317.481111 
L 412.744448 317.502008 
L 469.108084 317.510772 
L 525.47172 317.514879 
L 581.835357 317.516976 
" clip-path="url(#p206de411e3)" style="fill: none; stroke: #808080; stroke-linecap: square"/>
    <defs>
     <path id="mc281ab63ed" d="M -3 3 
L 3 3 
L 3 -3 
L -3 -3 
z
" style="stroke: #808080; stroke-linejoin: miter"/>
    </defs>
    <g clip-path="url(#p206de411e3)">
     <use xlink:href="#mc281ab63ed" x="74.56263" y="15.12" style="fill: #808080; stroke: #808080; stroke-linejoin: miter"/>
     <use xlink:href="#mc281ab63ed" x="130.926266" y="308.07" style="fill: #808080; stroke: #808080; stroke-linejoin: miter"/>
     <use xlink:href="#mc281ab63ed" x="187.289902" y="316.275556" style="fill: #808080; stroke: #808080; stroke-linejoin: miter"/>
     <use xlink:href="#mc281ab63ed" x="243.653539" y="317.224688" style="fill: #808080; stroke: #808080; stroke-linejoin: miter"/>
     <use xlink:href="#mc281ab63ed" x="300.017175" y="317.423232" style="fill: #808080; stroke: #808080; stroke-linejoin: miter"/>
     <use xlink:href="#mc281ab63ed" x="356.380811" y="317.481111" style="fill: #808080; stroke: #808080; stroke-linejoin: miter"/>
     <use xlink:href="#mc281ab63ed" x="412.744448" y="317.502008" style="fill: #808080; stroke: #808080; stroke-linejoin: miter"/>
     <use xlink:href="#mc281ab63ed" x="469.108084" y="317.510772" style="fill: #808080; stroke: #808080; stroke-linejoin: miter"/>
     <use xlink:href="#mc281ab63ed" x="525.47172" y="317.514879" style="fill: #808080; stroke: #808080; stroke-linejoin: miter"/>
     <use xlink:href="#mc281ab63ed" x="581.835357" y="317.516976" style="fill: #808080; stroke: #808080; stroke-linejoin: miter"/>
    </g>
   </g>
   <g id="line2d_18">
    <path d="M 74.56263 15.12 
L 130.926266 315.1575 
L 187.289902 317.381728 
L 243.653539 317.501543 
L 300.017175 317.516129 
L 356.380811 317.51892 
L 412.744448 317.519633 
L 469.108084 317.519856 
L 525.47172 317.519937 
L 581.835357 317.51997 
" clip-path="url(#p206de411e3)" style="fill: none; stroke: #808080; stroke-linecap: square"/>
    <defs>
     <path id="m8b5bdd31cb" d="M 0 3 
C 0.795609 3 1.55874 2.683901 2.12132 2.12132 
C 2.683901 1.55874 3 0.795609 3 0 
C 3 -0.795609 2.683901 -1.55874 2.12132 -2.12132 
C 1.55874 -2.683901 0.795609 -3 0 -3 
C -0.795609 -3 -1.55874 -2.683901 -2.12132 -2.12132 
C -2.683901 -1.55874 -3 -0.795609 -3 0 
C -3 0.795609 -2.683901 1.55874 -2.12132 2.12132 
C -1.55874 2.683901 -0.795609 3 0 3 
z
" style="stroke: #808080"/>
    </defs>
    <g clip-path="url(#p206de411e3)">
     <use xlink:href="#m8b5bdd31cb" x="74.56263" y="15.12" style="fill: #808080; stroke: #808080"/>
     <use xlink:href="#m8b5bdd31cb" x="130.926266" y="315.1575" style="fill: #808080; stroke: #808080"/>
     <use xlink:href="#m8b5bdd31cb" x="187.289902" y="317.381728" style="fill: #808080; stroke: #808080"/>
     <use xlink:href="#m8b5bdd31cb" x="243.653539" y="317.501543" style="fill: #808080; stroke: #808080"/>
     <use xlink:href="#m8b5bdd31cb" x="300.017175" y="317.516129" style="fill: #808080; stroke: #808080"/>
     <use xlink:href="#m8b5bdd31cb" x="356.380811" y="317.51892" style="fill: #808080; stroke: #808080"/>
     <use xlink:href="#m8b5bdd31cb" x="412.744448" y="317.519633" style="fill: #808080; stroke: #808080"/>
     <use xlink:href="#m8b5bdd31cb" x="469.108084" y="317.519856" style="fill: #808080; stroke: #808080"/>
     <use xlink:href="#m8b5bdd31cb" x="525.47172" y="317.519937" style="fill: #808080; stroke: #808080"/>
     <use xlink:href="#m8b5bdd31cb" x="581.835357" y="317.51997" style="fill: #808080; stroke: #808080"/>
    </g>
   </g>
   <g id="line2d_19">
    <path d="M 74.56263 15.12 
L 130.926266 317.224688 
L 187.289902 317.514879 
L 243.653539 317.519712 
L 300.017175 317.519969 
L 356.380811 317.519995 
L 412.744448 317.519999 
L 469.108084 317.52 
L 525.47172 317.52 
L 581.835357 317.52 
" clip-path="url(#p206de411e3)" style="fill: none; stroke: #808080; stroke-linecap: square"/>
    <defs>
     <path id="m0562fadb19" d="M 0 -3 
L -3 3 
L 3 3 
z
" style="stroke: #808080; stroke-linejoin: miter"/>
    </defs>
    <g clip-path="url(#p206de411e3)">
     <use xlink:href="#m0562fadb19" x="74.56263" y="15.12" style="fill: #808080; stroke: #808080; stroke-linejoin: miter"/>
     <use xlink:href="#m0562fadb19" x="130.926266" y="317.224688" style="fill: #808080; stroke: #808080; stroke-linejoin: miter"/>
     <use xlink:href="#m0562fadb19" x="187.289902" y="317.514879" style="fill: #808080; stroke: #808080; stroke-linejoin: miter"/>
     <use xlink:href="#m0562fadb19" x="243.653539" y="317.519712" style="fill: #808080; stroke: #808080; stroke-linejoin: miter"/>
     <use xlink:href="#m0562fadb19" x="300.017175" y="317.519969" style="fill: #808080; stroke: #808080; stroke-linejoin: miter"/>
     <use xlink:href="#m0562fadb19" x="356.380811" y="317.519995" style="fill: #808080; stroke: #808080; stroke-linejoin: miter"/>
     <use xlink:href="#m0562fadb19" x="412.744448" y="317.519999" style="fill: #808080; stroke: #808080; stroke-linejoin: miter"/>
     <use xlink:href="#m0562fadb19" x="469.108084" y="317.52" style="fill: #808080; stroke: #808080; stroke-linejoin: miter"/>
     <use xlink:href="#m0562fadb19" x="525.47172" y="317.52" style="fill: #808080; stroke: #808080; stroke-linejoin: miter"/>
     <use xlink:href="#m0562fadb19" x="581.835357" y="317.52" style="fill: #808080; stroke: #808080; stroke-linejoin: miter"/>
    </g>
   </g>
   <g id="patch_3">
    <path d="M 49.198993 332.64 
L 49.198993 0 
" style="fill: none; stroke: #000000; stroke-width: 0.8; stroke-linejoin: miter; stroke-linecap: square"/>
   </g>
   <g id="patch_4">
    <path d="M 607.198993 332.64 
L 607.198993 0 
" style="fill: none; stroke: #000000; stroke-width: 0.8; stroke-linejoin: miter; stroke-linecap: square"/>
   </g>
   <g id="patch_5">
    <path d="M 49.198993 332.64 
L 607.198993 332.64 
" style="fill: none; stroke: #000000; stroke-width: 0.8; stroke-linejoin: miter; stroke-linecap: square"/>
   </g>
   <g id="patch_6">
    <path d="M 49.198993 -0 
L 607.198993 -0 
" style="fill: none; stroke: #000000; stroke-width: 0.8; stroke-linejoin: miter; stroke-linecap: square"/>
   </g>
   <g id="legend_1">
    <g id="patch_7">
     <path d="M 472.973742 99.62649 
L 593.198993 99.62649 
Q 597.198993 99.62649 597.198993 95.62649 
L 597.198993 14 
Q 597.198993 10 593.198993 10 
L 472.973742 10 
Q 468.973742 10 468.973742 14 
L 468.973742 95.62649 
Q 468.973742 99.62649 472.973742 99.62649 
z
" style="fill: #ffffff; opacity: 0.8; stroke: #cccccc; stroke-linejoin: miter"/>
    </g>
    <g id="line2d_20">
     <path d="M 476.973742 25 
L 496.973742 25 
L 516.973742 25 
" style="fill: none; stroke: #808080; stroke-linecap: square"/>
     <g>
      <use xlink:href="#mc281ab63ed" x="496.973742" y="25" style="fill: #808080; stroke: #808080; stroke-linejoin: miter"/>
     </g>
    </g>
    <g id="text_19">
     <!-- $\alpha = 5$ -->
     <g transform="translate(532.973742 32) scale(0.2 -0.2)">
      <defs>
       <path id="LMRoman17-Regular-3d" d="M 4307 2156 
C 4307 2272 4198 2272 4090 2272 
L 512 2272 
C 403 2272 294 2272 294 2156 
C 294 2048 390 2048 486 2048 
L 4115 2048 
C 4211 2048 4307 2048 4307 2156 
z
M 4307 1043 
C 4307 1152 4211 1152 4115 1152 
L 486 1152 
C 390 1152 294 1152 294 1043 
C 294 927 403 927 512 927 
L 4090 927 
C 4198 927 4307 927 4307 1043 
z
" transform="scale(0.015625)"/>
      </defs>
      <use xlink:href="#LMMathItalic12-Regular-b" transform="scale(0.996264)"/>
      <use xlink:href="#LMRoman17-Regular-3d" transform="translate(90.355032 0) scale(0.996264)"/>
      <use xlink:href="#LMRoman17-Regular-35" transform="translate(189.74506 0) scale(0.996264)"/>
     </g>
    </g>
    <g id="line2d_21">
     <path d="M 476.973742 52.875497 
L 496.973742 52.875497 
L 516.973742 52.875497 
" style="fill: none; stroke: #808080; stroke-linecap: square"/>
     <g>
      <use xlink:href="#m8b5bdd31cb" x="496.973742" y="52.875497" style="fill: #808080; stroke: #808080"/>
     </g>
    </g>
    <g id="text_20">
     <!-- $\alpha = 7$ -->
     <g transform="translate(532.973742 59.875497) scale(0.2 -0.2)">
      <use xlink:href="#LMMathItalic12-Regular-b" transform="scale(0.996264)"/>
      <use xlink:href="#LMRoman17-Regular-3d" transform="translate(90.355032 0) scale(0.996264)"/>
      <use xlink:href="#LMRoman17-Regular-37" transform="translate(189.74506 0) scale(0.996264)"/>
     </g>
    </g>
    <g id="line2d_22">
     <path d="M 476.973742 80.750994 
L 496.973742 80.750994 
L 516.973742 80.750994 
" style="fill: none; stroke: #808080; stroke-linecap: square"/>
     <g>
      <use xlink:href="#m0562fadb19" x="496.973742" y="80.750994" style="fill: #808080; stroke: #808080; stroke-linejoin: miter"/>
     </g>
    </g>
    <g id="text_21">
     <!-- $\alpha = 10$ -->
     <g transform="translate(532.973742 87.750994) scale(0.2 -0.2)">
      <use xlink:href="#LMMathItalic12-Regular-b" transform="scale(0.996264)"/>
      <use xlink:href="#LMRoman17-Regular-3d" transform="translate(90.355032 0) scale(0.996264)"/>
      <use xlink:href="#LMRoman17-Regular-31" transform="translate(189.74506 0) scale(0.996264)"/>
      <use xlink:href="#LMRoman17-Regular-30" transform="translate(235.436008 0) scale(0.996264)"/>
     </g>
    </g>
   </g>
  </g>
 </g>
 <defs>
  <clipPath id="p206de411e3">
   <rect x="49.198993" y="-0" width="558" height="332.64"/>
  </clipPath>
 </defs>
</svg>
