<?xml version="1.0" encoding="utf-8" standalone="no"?>
<!DOCTYPE svg PUBLIC "-//W3C//DTD SVG 1.1//EN"
  "http://www.w3.org/Graphics/SVG/1.1/DTD/svg11.dtd">
<svg xmlns:xlink="http://www.w3.org/1999/xlink" width="316.013548pt" height="310.339146pt" viewBox="0 0 316.013548 310.339146" xmlns="http://www.w3.org/2000/svg" version="1.1">
 <metadata>
  <rdf:RDF xmlns:dc="http://purl.org/dc/elements/1.1/" xmlns:cc="http://creativecommons.org/ns#" xmlns:rdf="http://www.w3.org/1999/02/22-rdf-syntax-ns#">
   <cc:Work>
    <dc:type rdf:resource="http://purl.org/dc/dcmitype/StillImage"/>
    <dc:date>2025-03-23T11:52:35.357859</dc:date>
    <dc:format>image/svg+xml</dc:format>
    <dc:creator>
     <cc:Agent>
      <dc:title>Matplotlib v3.9.2, https://matplotlib.org/</dc:title>
     </cc:Agent>
    </dc:creator>
   </cc:Work>
  </rdf:RDF>
 </metadata>
 <defs>
  <style type="text/css">*{stroke-linejoin: round; stroke-linecap: butt}</style>
 </defs>
 <g id="figure_1">
  <g id="patch_1">
   <path d="M 0 310.339146 
L 316.013548 310.339146 
L 316.013548 0 
L 0 0 
z
" style="fill: #ffffff"/>
  </g>
  <g id="axes_1">
   <g id="patch_2">
    <path d="M 37.013548 277.2 
L 316.013548 277.2 
L 316.013548 0 
L 37.013548 0 
z
" style="fill: #ffffff"/>
   </g>
   <g id="PolyCollection_1">
    <defs>
     <path id="mc45e3a7d53" d="M 37.013548 -310.339146 
L 37.013548 -310.339146 
L 37.572667 -309.783635 
L 38.131785 -309.228124 
L 38.690903 -308.672613 
L 39.250021 -308.117102 
L 39.80914 -307.561591 
L 40.368258 -307.00608 
L 40.927376 -306.450569 
L 41.486494 -305.895058 
L 42.045613 -305.339547 
L 42.604731 -304.784036 
L 43.163849 -304.228525 
L 43.722967 -303.673014 
L 44.282086 -303.117503 
L 44.841204 -302.561992 
L 45.400322 -302.006481 
L 45.95944 -301.45097 
L 46.518558 -300.895459 
L 47.077677 -300.339948 
L 47.636795 -299.784437 
L 48.195913 -299.228926 
L 48.755031 -298.673415 
L 49.31415 -298.117904 
L 49.873268 -297.562393 
L 50.432386 -297.006882 
L 50.991504 -296.451371 
L 51.550623 -295.89586 
L 52.109741 -295.340349 
L 52.668859 -294.784838 
L 53.227977 -294.229327 
L 53.787096 -293.673816 
L 54.346214 -293.118304 
L 54.905332 -292.562793 
L 55.46445 -292.007282 
L 56.023568 -291.451771 
L 56.582687 -290.89626 
L 57.141805 -290.340749 
L 57.700923 -289.785238 
L 58.260041 -289.229727 
L 58.81916 -288.674216 
L 59.378278 -288.118705 
L 59.937396 -287.563194 
L 60.496514 -287.007683 
L 61.055633 -286.452172 
L 61.614751 -285.896661 
L 62.173869 -285.34115 
L 62.732987 -284.785639 
L 63.292106 -284.230128 
L 63.851224 -283.674617 
L 64.410342 -283.119106 
L 64.96946 -282.563595 
L 65.528578 -282.008084 
L 66.087697 -281.452573 
L 66.646815 -280.897062 
L 67.205933 -280.341551 
L 67.765051 -279.78604 
L 68.32417 -279.230529 
L 68.883288 -278.675018 
L 69.442406 -278.119507 
L 70.001524 -277.563996 
L 70.560643 -277.008485 
L 71.119761 -276.452974 
L 71.678879 -275.897463 
L 72.237997 -275.341952 
L 72.797116 -274.786441 
L 73.356234 -274.23093 
L 73.915352 -273.675419 
L 74.47447 -273.119908 
L 75.033589 -272.564397 
L 75.592707 -272.008886 
L 76.151825 -271.453375 
L 76.710943 -270.897864 
L 77.270061 -270.342353 
L 77.82918 -269.786842 
L 78.388298 -269.231331 
L 78.947416 -268.67582 
L 79.506534 -268.120308 
L 80.065653 -267.564797 
L 80.624771 -267.009286 
L 81.183889 -266.453775 
L 81.743007 -265.898264 
L 82.302126 -265.342753 
L 82.861244 -264.787242 
L 83.420362 -264.231731 
L 83.97948 -263.67622 
L 84.538599 -263.120709 
L 85.097717 -262.565198 
L 85.656835 -262.009687 
L 86.215953 -261.454176 
L 86.775071 -260.898665 
L 87.33419 -260.343154 
L 87.893308 -259.787643 
L 88.452426 -259.232132 
L 89.011544 -258.676621 
L 89.570663 -258.12111 
L 90.129781 -257.565599 
L 90.688899 -257.010088 
L 91.248017 -256.454577 
L 91.807136 -255.899066 
L 92.366254 -255.343555 
L 92.925372 -254.788044 
L 93.48449 -254.232533 
L 94.043609 -253.677022 
L 94.602727 -253.121511 
L 95.161845 -252.566 
L 95.720963 -252.010489 
L 96.280082 -251.454978 
L 96.8392 -250.899467 
L 97.398318 -250.343956 
L 97.957436 -249.788445 
L 98.516554 -249.232934 
L 99.075673 -248.677423 
L 99.634791 -248.121912 
L 100.193909 -247.566401 
L 100.753027 -247.01089 
L 101.312146 -246.455379 
L 101.871264 -245.899868 
L 102.430382 -245.344357 
L 102.9895 -244.788846 
L 103.548619 -244.233335 
L 104.107737 -243.677824 
L 104.666855 -243.122313 
L 105.225973 -242.566801 
L 105.785092 -242.01129 
L 106.34421 -241.455779 
L 106.903328 -240.900268 
L 107.462446 -240.344757 
L 108.021564 -239.789246 
L 108.580683 -239.233735 
L 109.139801 -238.678224 
L 109.698919 -238.122713 
L 110.258037 -237.567202 
L 110.817156 -237.011691 
L 111.376274 -236.45618 
L 111.935392 -235.900669 
L 112.49451 -235.345158 
L 113.053629 -234.789647 
L 113.612747 -234.234136 
L 114.171865 -233.678625 
L 114.730983 -233.123114 
L 115.290102 -232.567603 
L 115.84922 -232.012092 
L 116.408338 -231.456581 
L 116.967456 -230.90107 
L 117.526574 -230.345559 
L 118.085693 -229.790048 
L 118.644811 -229.234537 
L 119.203929 -228.679026 
L 119.763047 -228.123515 
L 120.322166 -227.568004 
L 120.881284 -227.012493 
L 121.440402 -226.456982 
L 121.99952 -225.901471 
L 122.558639 -225.34596 
L 123.117757 -224.790449 
L 123.676875 -224.234938 
L 124.235993 -223.679427 
L 124.795112 -223.123916 
L 125.35423 -222.568405 
L 125.913348 -222.012894 
L 126.472466 -221.457383 
L 127.031585 -220.901872 
L 127.590703 -220.346361 
L 128.149821 -219.79085 
L 128.708939 -219.235339 
L 129.268057 -218.679828 
L 129.827176 -218.124317 
L 130.386294 -217.568805 
L 130.945412 -217.013294 
L 131.50453 -216.457783 
L 132.063649 -215.902272 
L 132.622767 -215.346761 
L 133.181885 -214.79125 
L 133.741003 -214.235739 
L 134.300122 -213.680228 
L 134.85924 -213.124717 
L 135.418358 -212.569206 
L 135.977476 -212.013695 
L 136.536595 -211.458184 
L 137.095713 -210.902673 
L 137.654831 -210.347162 
L 138.213949 -209.791651 
L 138.773067 -209.23614 
L 139.332186 -208.680629 
L 139.891304 -208.125118 
L 140.450422 -207.569607 
L 141.00954 -207.014096 
L 141.568659 -206.458585 
L 142.127777 -205.903074 
L 142.686895 -205.347563 
L 143.246013 -204.792052 
L 143.805132 -204.236541 
L 144.36425 -203.68103 
L 144.923368 -203.125519 
L 145.482486 -202.570008 
L 146.041605 -202.014497 
L 146.600723 -201.458986 
L 147.159841 -200.903475 
L 147.718959 -200.347964 
L 148.278077 -199.792453 
L 148.837196 -199.236942 
L 149.396314 -198.681431 
L 149.955432 -198.12592 
L 150.51455 -197.570409 
L 151.073669 -197.014898 
L 151.632787 -196.459387 
L 152.191905 -195.903876 
L 152.751023 -195.348365 
L 153.310142 -194.792854 
L 153.86926 -194.237343 
L 154.428378 -193.681832 
L 154.987496 -193.126321 
L 155.546615 -192.570809 
L 156.105733 -192.015298 
L 156.664851 -191.459787 
L 157.223969 -190.904276 
L 157.783088 -190.348765 
L 158.342206 -189.793254 
L 158.901324 -189.237743 
L 159.460442 -188.682232 
L 160.01956 -188.126721 
L 160.578679 -187.57121 
L 161.137797 -187.015699 
L 161.696915 -186.460188 
L 162.256033 -185.904677 
L 162.815152 -185.349166 
L 163.37427 -184.793655 
L 163.933388 -184.238144 
L 164.492506 -183.682633 
L 165.051625 -183.127122 
L 165.610743 -182.571611 
L 166.169861 -182.0161 
L 166.728979 -181.460589 
L 167.288098 -180.905078 
L 167.847216 -180.349567 
L 168.406334 -179.794056 
L 168.965452 -179.238545 
L 169.52457 -178.683034 
L 170.083689 -178.127523 
L 170.642807 -177.572012 
L 171.201925 -177.016501 
L 171.761043 -176.46099 
L 172.320162 -175.905479 
L 172.87928 -175.349968 
L 173.438398 -174.794457 
L 173.997516 -174.238946 
L 174.556635 -173.683435 
L 175.115753 -173.127924 
L 175.674871 -172.572413 
L 176.233989 -172.016902 
L 176.793108 -172.016902 
L 177.352226 -172.572413 
L 177.911344 -173.127924 
L 178.470462 -173.683435 
L 179.029581 -174.238946 
L 179.588699 -174.794457 
L 180.147817 -175.349968 
L 180.706935 -175.905479 
L 181.266053 -176.46099 
L 181.825172 -177.016501 
L 182.38429 -177.572012 
L 182.943408 -178.127523 
L 183.502526 -178.683034 
L 184.061645 -179.238545 
L 184.620763 -179.794056 
L 185.179881 -180.349567 
L 185.738999 -180.905078 
L 186.298118 -181.460589 
L 186.857236 -182.0161 
L 187.416354 -182.571611 
L 187.975472 -183.127122 
L 188.534591 -183.682633 
L 189.093709 -184.238144 
L 189.652827 -184.793655 
L 190.211945 -185.349166 
L 190.771063 -185.904677 
L 191.330182 -186.460188 
L 191.8893 -187.015699 
L 192.448418 -187.57121 
L 193.007536 -188.126721 
L 193.566655 -188.682232 
L 194.125773 -189.237743 
L 194.684891 -189.793254 
L 195.244009 -190.348765 
L 195.803128 -190.904276 
L 196.362246 -191.459787 
L 196.921364 -192.015298 
L 197.480482 -192.570809 
L 198.039601 -193.126321 
L 198.598719 -193.681832 
L 199.157837 -194.237343 
L 199.716955 -194.792854 
L 200.276073 -195.348365 
L 200.835192 -195.903876 
L 201.39431 -196.459387 
L 201.953428 -197.014898 
L 202.512546 -197.570409 
L 203.071665 -198.12592 
L 203.630783 -198.681431 
L 204.189901 -199.236942 
L 204.749019 -199.792453 
L 205.308138 -200.347964 
L 205.867256 -200.903475 
L 206.426374 -201.458986 
L 206.985492 -202.014497 
L 207.544611 -202.570008 
L 208.103729 -203.125519 
L 208.662847 -203.68103 
L 209.221965 -204.236541 
L 209.781084 -204.792052 
L 210.340202 -205.347563 
L 210.89932 -205.903074 
L 211.458438 -206.458585 
L 212.017556 -207.014096 
L 212.576675 -207.569607 
L 213.135793 -208.125118 
L 213.694911 -208.680629 
L 214.254029 -209.23614 
L 214.813148 -209.791651 
L 215.372266 -210.347162 
L 215.931384 -210.902673 
L 216.490502 -211.458184 
L 217.049621 -212.013695 
L 217.608739 -212.569206 
L 218.167857 -213.124717 
L 218.726975 -213.680228 
L 219.286094 -214.235739 
L 219.845212 -214.79125 
L 220.40433 -215.346761 
L 220.963448 -215.902272 
L 221.522566 -216.457783 
L 222.081685 -217.013294 
L 222.640803 -217.568805 
L 223.199921 -218.124317 
L 223.759039 -218.679828 
L 224.318158 -219.235339 
L 224.877276 -219.79085 
L 225.436394 -220.346361 
L 225.995512 -220.901872 
L 226.554631 -221.457383 
L 227.113749 -222.012894 
L 227.672867 -222.568405 
L 228.231985 -223.123916 
L 228.791104 -223.679427 
L 229.350222 -224.234938 
L 229.90934 -224.790449 
L 230.468458 -225.34596 
L 231.027576 -225.901471 
L 231.586695 -226.456982 
L 232.145813 -227.012493 
L 232.704931 -227.568004 
L 233.264049 -228.123515 
L 233.823168 -228.679026 
L 234.382286 -229.234537 
L 234.941404 -229.790048 
L 235.500522 -230.345559 
L 236.059641 -230.90107 
L 236.618759 -231.456581 
L 237.177877 -232.012092 
L 237.736995 -232.567603 
L 238.296114 -233.123114 
L 238.855232 -233.678625 
L 239.41435 -234.234136 
L 239.973468 -234.789647 
L 240.532587 -235.345158 
L 241.091705 -235.900669 
L 241.650823 -236.45618 
L 242.209941 -237.011691 
L 242.769059 -237.567202 
L 243.328178 -238.122713 
L 243.887296 -238.678224 
L 244.446414 -239.233735 
L 245.005532 -239.789246 
L 245.564651 -240.344757 
L 246.123769 -240.900268 
L 246.682887 -241.455779 
L 247.242005 -242.01129 
L 247.801124 -242.566801 
L 248.360242 -243.122313 
L 248.91936 -243.677824 
L 249.478478 -244.233335 
L 250.037597 -244.788846 
L 250.596715 -245.344357 
L 251.155833 -245.899868 
L 251.714951 -246.455379 
L 252.274069 -247.01089 
L 252.833188 -247.566401 
L 253.392306 -248.121912 
L 253.951424 -248.677423 
L 254.510542 -249.232934 
L 255.069661 -249.788445 
L 255.628779 -250.343956 
L 256.187897 -250.899467 
L 256.747015 -251.454978 
L 257.306134 -252.010489 
L 257.865252 -252.566 
L 258.42437 -253.121511 
L 258.983488 -253.677022 
L 259.542607 -254.232533 
L 260.101725 -254.788044 
L 260.660843 -255.343555 
L 261.219961 -255.899066 
L 261.779079 -256.454577 
L 262.338198 -257.010088 
L 262.897316 -257.565599 
L 263.456434 -258.12111 
L 264.015552 -258.676621 
L 264.574671 -259.232132 
L 265.133789 -259.787643 
L 265.692907 -260.343154 
L 266.252025 -260.898665 
L 266.811144 -261.454176 
L 267.370262 -262.009687 
L 267.92938 -262.565198 
L 268.488498 -263.120709 
L 269.047617 -263.67622 
L 269.606735 -264.231731 
L 270.165853 -264.787242 
L 270.724971 -265.342753 
L 271.28409 -265.898264 
L 271.843208 -266.453775 
L 272.402326 -267.009286 
L 272.961444 -267.564797 
L 273.520562 -268.120308 
L 274.079681 -268.67582 
L 274.638799 -269.231331 
L 275.197917 -269.786842 
L 275.757035 -270.342353 
L 276.316154 -270.897864 
L 276.875272 -271.453375 
L 277.43439 -272.008886 
L 277.993508 -272.564397 
L 278.552627 -273.119908 
L 279.111745 -273.675419 
L 279.670863 -274.23093 
L 280.229981 -274.786441 
L 280.7891 -275.341952 
L 281.348218 -275.897463 
L 281.907336 -276.452974 
L 282.466454 -277.008485 
L 283.025572 -277.563996 
L 283.584691 -278.119507 
L 284.143809 -278.675018 
L 284.702927 -279.230529 
L 285.262045 -279.78604 
L 285.821164 -280.341551 
L 286.380282 -280.897062 
L 286.9394 -281.452573 
L 287.498518 -282.008084 
L 288.057637 -282.563595 
L 288.616755 -283.119106 
L 289.175873 -283.674617 
L 289.734991 -284.230128 
L 290.29411 -284.785639 
L 290.853228 -285.34115 
L 291.412346 -285.896661 
L 291.971464 -286.452172 
L 292.530583 -287.007683 
L 293.089701 -287.563194 
L 293.648819 -288.118705 
L 294.207937 -288.674216 
L 294.767055 -289.229727 
L 295.326174 -289.785238 
L 295.885292 -290.340749 
L 296.44441 -290.89626 
L 297.003528 -291.451771 
L 297.562647 -292.007282 
L 298.121765 -292.562793 
L 298.680883 -293.118304 
L 299.240001 -293.673816 
L 299.79912 -294.229327 
L 300.358238 -294.784838 
L 300.917356 -295.340349 
L 301.476474 -295.89586 
L 302.035593 -296.451371 
L 302.594711 -297.006882 
L 303.153829 -297.562393 
L 303.712947 -298.117904 
L 304.272065 -298.673415 
L 304.831184 -299.228926 
L 305.390302 -299.784437 
L 305.94942 -300.339948 
L 306.508538 -300.895459 
L 307.067657 -301.45097 
L 307.626775 -302.006481 
L 308.185893 -302.561992 
L 308.745011 -303.117503 
L 309.30413 -303.673014 
L 309.863248 -304.228525 
L 310.422366 -304.784036 
L 310.981484 -305.339547 
L 311.540603 -305.895058 
L 312.099721 -306.450569 
L 312.658839 -307.00608 
L 313.217957 -307.561591 
L 313.777075 -308.117102 
L 314.336194 -308.672613 
L 314.895312 -309.228124 
L 315.45443 -309.783635 
L 316.013548 -310.339146 
L 316.013548 -310.339146 
L 316.013548 -310.339146 
L 315.45443 -310.339146 
L 314.895312 -310.339146 
L 314.336194 -310.339146 
L 313.777075 -310.339146 
L 313.217957 -310.339146 
L 312.658839 -310.339146 
L 312.099721 -310.339146 
L 311.540603 -310.339146 
L 310.981484 -310.339146 
L 310.422366 -310.339146 
L 309.863248 -310.339146 
L 309.30413 -310.339146 
L 308.745011 -310.339146 
L 308.185893 -310.339146 
L 307.626775 -310.339146 
L 307.067657 -310.339146 
L 306.508538 -310.339146 
L 305.94942 -310.339146 
L 305.390302 -310.339146 
L 304.831184 -310.339146 
L 304.272065 -310.339146 
L 303.712947 -310.339146 
L 303.153829 -310.339146 
L 302.594711 -310.339146 
L 302.035593 -310.339146 
L 301.476474 -310.339146 
L 300.917356 -310.339146 
L 300.358238 -310.339146 
L 299.79912 -310.339146 
L 299.240001 -310.339146 
L 298.680883 -310.339146 
L 298.121765 -310.339146 
L 297.562647 -310.339146 
L 297.003528 -310.339146 
L 296.44441 -310.339146 
L 295.885292 -310.339146 
L 295.326174 -310.339146 
L 294.767055 -310.339146 
L 294.207937 -310.339146 
L 293.648819 -310.339146 
L 293.089701 -310.339146 
L 292.530583 -310.339146 
L 291.971464 -310.339146 
L 291.412346 -310.339146 
L 290.853228 -310.339146 
L 290.29411 -310.339146 
L 289.734991 -310.339146 
L 289.175873 -310.339146 
L 288.616755 -310.339146 
L 288.057637 -310.339146 
L 287.498518 -310.339146 
L 286.9394 -310.339146 
L 286.380282 -310.339146 
L 285.821164 -310.339146 
L 285.262045 -310.339146 
L 284.702927 -310.339146 
L 284.143809 -310.339146 
L 283.584691 -310.339146 
L 283.025572 -310.339146 
L 282.466454 -310.339146 
L 281.907336 -310.339146 
L 281.348218 -310.339146 
L 280.7891 -310.339146 
L 280.229981 -310.339146 
L 279.670863 -310.339146 
L 279.111745 -310.339146 
L 278.552627 -310.339146 
L 277.993508 -310.339146 
L 277.43439 -310.339146 
L 276.875272 -310.339146 
L 276.316154 -310.339146 
L 275.757035 -310.339146 
L 275.197917 -310.339146 
L 274.638799 -310.339146 
L 274.079681 -310.339146 
L 273.520562 -310.339146 
L 272.961444 -310.339146 
L 272.402326 -310.339146 
L 271.843208 -310.339146 
L 271.28409 -310.339146 
L 270.724971 -310.339146 
L 270.165853 -310.339146 
L 269.606735 -310.339146 
L 269.047617 -310.339146 
L 268.488498 -310.339146 
L 267.92938 -310.339146 
L 267.370262 -310.339146 
L 266.811144 -310.339146 
L 266.252025 -310.339146 
L 265.692907 -310.339146 
L 265.133789 -310.339146 
L 264.574671 -310.339146 
L 264.015552 -310.339146 
L 263.456434 -310.339146 
L 262.897316 -310.339146 
L 262.338198 -310.339146 
L 261.779079 -310.339146 
L 261.219961 -310.339146 
L 260.660843 -310.339146 
L 260.101725 -310.339146 
L 259.542607 -310.339146 
L 258.983488 -310.339146 
L 258.42437 -310.339146 
L 257.865252 -310.339146 
L 257.306134 -310.339146 
L 256.747015 -310.339146 
L 256.187897 -310.339146 
L 255.628779 -310.339146 
L 255.069661 -310.339146 
L 254.510542 -310.339146 
L 253.951424 -310.339146 
L 253.392306 -310.339146 
L 252.833188 -310.339146 
L 252.274069 -310.339146 
L 251.714951 -310.339146 
L 251.155833 -310.339146 
L 250.596715 -310.339146 
L 250.037597 -310.339146 
L 249.478478 -310.339146 
L 248.91936 -310.339146 
L 248.360242 -310.339146 
L 247.801124 -310.339146 
L 247.242005 -310.339146 
L 246.682887 -310.339146 
L 246.123769 -310.339146 
L 245.564651 -310.339146 
L 245.005532 -310.339146 
L 244.446414 -310.339146 
L 243.887296 -310.339146 
L 243.328178 -310.339146 
L 242.769059 -310.339146 
L 242.209941 -310.339146 
L 241.650823 -310.339146 
L 241.091705 -310.339146 
L 240.532587 -310.339146 
L 239.973468 -310.339146 
L 239.41435 -310.339146 
L 238.855232 -310.339146 
L 238.296114 -310.339146 
L 237.736995 -310.339146 
L 237.177877 -310.339146 
L 236.618759 -310.339146 
L 236.059641 -310.339146 
L 235.500522 -310.339146 
L 234.941404 -310.339146 
L 234.382286 -310.339146 
L 233.823168 -310.339146 
L 233.264049 -310.339146 
L 232.704931 -310.339146 
L 232.145813 -310.339146 
L 231.586695 -310.339146 
L 231.027576 -310.339146 
L 230.468458 -310.339146 
L 229.90934 -310.339146 
L 229.350222 -310.339146 
L 228.791104 -310.339146 
L 228.231985 -310.339146 
L 227.672867 -310.339146 
L 227.113749 -310.339146 
L 226.554631 -310.339146 
L 225.995512 -310.339146 
L 225.436394 -310.339146 
L 224.877276 -310.339146 
L 224.318158 -310.339146 
L 223.759039 -310.339146 
L 223.199921 -310.339146 
L 222.640803 -310.339146 
L 222.081685 -310.339146 
L 221.522566 -310.339146 
L 220.963448 -310.339146 
L 220.40433 -310.339146 
L 219.845212 -310.339146 
L 219.286094 -310.339146 
L 218.726975 -310.339146 
L 218.167857 -310.339146 
L 217.608739 -310.339146 
L 217.049621 -310.339146 
L 216.490502 -310.339146 
L 215.931384 -310.339146 
L 215.372266 -310.339146 
L 214.813148 -310.339146 
L 214.254029 -310.339146 
L 213.694911 -310.339146 
L 213.135793 -310.339146 
L 212.576675 -310.339146 
L 212.017556 -310.339146 
L 211.458438 -310.339146 
L 210.89932 -310.339146 
L 210.340202 -310.339146 
L 209.781084 -310.339146 
L 209.221965 -310.339146 
L 208.662847 -310.339146 
L 208.103729 -310.339146 
L 207.544611 -310.339146 
L 206.985492 -310.339146 
L 206.426374 -310.339146 
L 205.867256 -310.339146 
L 205.308138 -310.339146 
L 204.749019 -310.339146 
L 204.189901 -310.339146 
L 203.630783 -310.339146 
L 203.071665 -310.339146 
L 202.512546 -310.339146 
L 201.953428 -310.339146 
L 201.39431 -310.339146 
L 200.835192 -310.339146 
L 200.276073 -310.339146 
L 199.716955 -310.339146 
L 199.157837 -310.339146 
L 198.598719 -310.339146 
L 198.039601 -310.339146 
L 197.480482 -310.339146 
L 196.921364 -310.339146 
L 196.362246 -310.339146 
L 195.803128 -310.339146 
L 195.244009 -310.339146 
L 194.684891 -310.339146 
L 194.125773 -310.339146 
L 193.566655 -310.339146 
L 193.007536 -310.339146 
L 192.448418 -310.339146 
L 191.8893 -310.339146 
L 191.330182 -310.339146 
L 190.771063 -310.339146 
L 190.211945 -310.339146 
L 189.652827 -310.339146 
L 189.093709 -310.339146 
L 188.534591 -310.339146 
L 187.975472 -310.339146 
L 187.416354 -310.339146 
L 186.857236 -310.339146 
L 186.298118 -310.339146 
L 185.738999 -310.339146 
L 185.179881 -310.339146 
L 184.620763 -310.339146 
L 184.061645 -310.339146 
L 183.502526 -310.339146 
L 182.943408 -310.339146 
L 182.38429 -310.339146 
L 181.825172 -310.339146 
L 181.266053 -310.339146 
L 180.706935 -310.339146 
L 180.147817 -310.339146 
L 179.588699 -310.339146 
L 179.029581 -310.339146 
L 178.470462 -310.339146 
L 177.911344 -310.339146 
L 177.352226 -310.339146 
L 176.793108 -310.339146 
L 176.233989 -310.339146 
L 175.674871 -310.339146 
L 175.115753 -310.339146 
L 174.556635 -310.339146 
L 173.997516 -310.339146 
L 173.438398 -310.339146 
L 172.87928 -310.339146 
L 172.320162 -310.339146 
L 171.761043 -310.339146 
L 171.201925 -310.339146 
L 170.642807 -310.339146 
L 170.083689 -310.339146 
L 169.52457 -310.339146 
L 168.965452 -310.339146 
L 168.406334 -310.339146 
L 167.847216 -310.339146 
L 167.288098 -310.339146 
L 166.728979 -310.339146 
L 166.169861 -310.339146 
L 165.610743 -310.339146 
L 165.051625 -310.339146 
L 164.492506 -310.339146 
L 163.933388 -310.339146 
L 163.37427 -310.339146 
L 162.815152 -310.339146 
L 162.256033 -310.339146 
L 161.696915 -310.339146 
L 161.137797 -310.339146 
L 160.578679 -310.339146 
L 160.01956 -310.339146 
L 159.460442 -310.339146 
L 158.901324 -310.339146 
L 158.342206 -310.339146 
L 157.783088 -310.339146 
L 157.223969 -310.339146 
L 156.664851 -310.339146 
L 156.105733 -310.339146 
L 155.546615 -310.339146 
L 154.987496 -310.339146 
L 154.428378 -310.339146 
L 153.86926 -310.339146 
L 153.310142 -310.339146 
L 152.751023 -310.339146 
L 152.191905 -310.339146 
L 151.632787 -310.339146 
L 151.073669 -310.339146 
L 150.51455 -310.339146 
L 149.955432 -310.339146 
L 149.396314 -310.339146 
L 148.837196 -310.339146 
L 148.278077 -310.339146 
L 147.718959 -310.339146 
L 147.159841 -310.339146 
L 146.600723 -310.339146 
L 146.041605 -310.339146 
L 145.482486 -310.339146 
L 144.923368 -310.339146 
L 144.36425 -310.339146 
L 143.805132 -310.339146 
L 143.246013 -310.339146 
L 142.686895 -310.339146 
L 142.127777 -310.339146 
L 141.568659 -310.339146 
L 141.00954 -310.339146 
L 140.450422 -310.339146 
L 139.891304 -310.339146 
L 139.332186 -310.339146 
L 138.773067 -310.339146 
L 138.213949 -310.339146 
L 137.654831 -310.339146 
L 137.095713 -310.339146 
L 136.536595 -310.339146 
L 135.977476 -310.339146 
L 135.418358 -310.339146 
L 134.85924 -310.339146 
L 134.300122 -310.339146 
L 133.741003 -310.339146 
L 133.181885 -310.339146 
L 132.622767 -310.339146 
L 132.063649 -310.339146 
L 131.50453 -310.339146 
L 130.945412 -310.339146 
L 130.386294 -310.339146 
L 129.827176 -310.339146 
L 129.268057 -310.339146 
L 128.708939 -310.339146 
L 128.149821 -310.339146 
L 127.590703 -310.339146 
L 127.031585 -310.339146 
L 126.472466 -310.339146 
L 125.913348 -310.339146 
L 125.35423 -310.339146 
L 124.795112 -310.339146 
L 124.235993 -310.339146 
L 123.676875 -310.339146 
L 123.117757 -310.339146 
L 122.558639 -310.339146 
L 121.99952 -310.339146 
L 121.440402 -310.339146 
L 120.881284 -310.339146 
L 120.322166 -310.339146 
L 119.763047 -310.339146 
L 119.203929 -310.339146 
L 118.644811 -310.339146 
L 118.085693 -310.339146 
L 117.526574 -310.339146 
L 116.967456 -310.339146 
L 116.408338 -310.339146 
L 115.84922 -310.339146 
L 115.290102 -310.339146 
L 114.730983 -310.339146 
L 114.171865 -310.339146 
L 113.612747 -310.339146 
L 113.053629 -310.339146 
L 112.49451 -310.339146 
L 111.935392 -310.339146 
L 111.376274 -310.339146 
L 110.817156 -310.339146 
L 110.258037 -310.339146 
L 109.698919 -310.339146 
L 109.139801 -310.339146 
L 108.580683 -310.339146 
L 108.021564 -310.339146 
L 107.462446 -310.339146 
L 106.903328 -310.339146 
L 106.34421 -310.339146 
L 105.785092 -310.339146 
L 105.225973 -310.339146 
L 104.666855 -310.339146 
L 104.107737 -310.339146 
L 103.548619 -310.339146 
L 102.9895 -310.339146 
L 102.430382 -310.339146 
L 101.871264 -310.339146 
L 101.312146 -310.339146 
L 100.753027 -310.339146 
L 100.193909 -310.339146 
L 99.634791 -310.339146 
L 99.075673 -310.339146 
L 98.516554 -310.339146 
L 97.957436 -310.339146 
L 97.398318 -310.339146 
L 96.8392 -310.339146 
L 96.280082 -310.339146 
L 95.720963 -310.339146 
L 95.161845 -310.339146 
L 94.602727 -310.339146 
L 94.043609 -310.339146 
L 93.48449 -310.339146 
L 92.925372 -310.339146 
L 92.366254 -310.339146 
L 91.807136 -310.339146 
L 91.248017 -310.339146 
L 90.688899 -310.339146 
L 90.129781 -310.339146 
L 89.570663 -310.339146 
L 89.011544 -310.339146 
L 88.452426 -310.339146 
L 87.893308 -310.339146 
L 87.33419 -310.339146 
L 86.775071 -310.339146 
L 86.215953 -310.339146 
L 85.656835 -310.339146 
L 85.097717 -310.339146 
L 84.538599 -310.339146 
L 83.97948 -310.339146 
L 83.420362 -310.339146 
L 82.861244 -310.339146 
L 82.302126 -310.339146 
L 81.743007 -310.339146 
L 81.183889 -310.339146 
L 80.624771 -310.339146 
L 80.065653 -310.339146 
L 79.506534 -310.339146 
L 78.947416 -310.339146 
L 78.388298 -310.339146 
L 77.82918 -310.339146 
L 77.270061 -310.339146 
L 76.710943 -310.339146 
L 76.151825 -310.339146 
L 75.592707 -310.339146 
L 75.033589 -310.339146 
L 74.47447 -310.339146 
L 73.915352 -310.339146 
L 73.356234 -310.339146 
L 72.797116 -310.339146 
L 72.237997 -310.339146 
L 71.678879 -310.339146 
L 71.119761 -310.339146 
L 70.560643 -310.339146 
L 70.001524 -310.339146 
L 69.442406 -310.339146 
L 68.883288 -310.339146 
L 68.32417 -310.339146 
L 67.765051 -310.339146 
L 67.205933 -310.339146 
L 66.646815 -310.339146 
L 66.087697 -310.339146 
L 65.528578 -310.339146 
L 64.96946 -310.339146 
L 64.410342 -310.339146 
L 63.851224 -310.339146 
L 63.292106 -310.339146 
L 62.732987 -310.339146 
L 62.173869 -310.339146 
L 61.614751 -310.339146 
L 61.055633 -310.339146 
L 60.496514 -310.339146 
L 59.937396 -310.339146 
L 59.378278 -310.339146 
L 58.81916 -310.339146 
L 58.260041 -310.339146 
L 57.700923 -310.339146 
L 57.141805 -310.339146 
L 56.582687 -310.339146 
L 56.023568 -310.339146 
L 55.46445 -310.339146 
L 54.905332 -310.339146 
L 54.346214 -310.339146 
L 53.787096 -310.339146 
L 53.227977 -310.339146 
L 52.668859 -310.339146 
L 52.109741 -310.339146 
L 51.550623 -310.339146 
L 50.991504 -310.339146 
L 50.432386 -310.339146 
L 49.873268 -310.339146 
L 49.31415 -310.339146 
L 48.755031 -310.339146 
L 48.195913 -310.339146 
L 47.636795 -310.339146 
L 47.077677 -310.339146 
L 46.518558 -310.339146 
L 45.95944 -310.339146 
L 45.400322 -310.339146 
L 44.841204 -310.339146 
L 44.282086 -310.339146 
L 43.722967 -310.339146 
L 43.163849 -310.339146 
L 42.604731 -310.339146 
L 42.045613 -310.339146 
L 41.486494 -310.339146 
L 40.927376 -310.339146 
L 40.368258 -310.339146 
L 39.80914 -310.339146 
L 39.250021 -310.339146 
L 38.690903 -310.339146 
L 38.131785 -310.339146 
L 37.572667 -310.339146 
L 37.013548 -310.339146 
z
" style="stroke: #5f9ea0; stroke-opacity: 0.5"/>
    </defs>
    <g clip-path="url(#pc214de5c26)">
     <use xlink:href="#mc45e3a7d53" x="0" y="310.339146" style="fill: #5f9ea0; fill-opacity: 0.5; stroke: #5f9ea0; stroke-opacity: 0.5"/>
    </g>
   </g>
   <g id="PolyCollection_2">
    <defs>
     <path id="m82efc3915a" d="M 37.013548 -33.139146 
L 37.013548 -33.139146 
L 37.572667 -33.139146 
L 38.131785 -33.139146 
L 38.690903 -33.139146 
L 39.250021 -33.139146 
L 39.80914 -33.139146 
L 40.368258 -33.139146 
L 40.927376 -33.139146 
L 41.486494 -33.139146 
L 42.045613 -33.139146 
L 42.604731 -33.139146 
L 43.163849 -33.139146 
L 43.722967 -33.139146 
L 44.282086 -33.139146 
L 44.841204 -33.139146 
L 45.400322 -33.139146 
L 45.95944 -33.139146 
L 46.518558 -33.139146 
L 47.077677 -33.139146 
L 47.636795 -33.139146 
L 48.195913 -33.139146 
L 48.755031 -33.139146 
L 49.31415 -33.139146 
L 49.873268 -33.139146 
L 50.432386 -33.139146 
L 50.991504 -33.139146 
L 51.550623 -33.139146 
L 52.109741 -33.139146 
L 52.668859 -33.139146 
L 53.227977 -33.139146 
L 53.787096 -33.139146 
L 54.346214 -33.139146 
L 54.905332 -33.139146 
L 55.46445 -33.139146 
L 56.023568 -33.139146 
L 56.582687 -33.139146 
L 57.141805 -33.139146 
L 57.700923 -33.139146 
L 58.260041 -33.139146 
L 58.81916 -33.139146 
L 59.378278 -33.139146 
L 59.937396 -33.139146 
L 60.496514 -33.139146 
L 61.055633 -33.139146 
L 61.614751 -33.139146 
L 62.173869 -33.139146 
L 62.732987 -33.139146 
L 63.292106 -33.139146 
L 63.851224 -33.139146 
L 64.410342 -33.139146 
L 64.96946 -33.139146 
L 65.528578 -33.139146 
L 66.087697 -33.139146 
L 66.646815 -33.139146 
L 67.205933 -33.139146 
L 67.765051 -33.139146 
L 68.32417 -33.139146 
L 68.883288 -33.139146 
L 69.442406 -33.139146 
L 70.001524 -33.139146 
L 70.560643 -33.139146 
L 71.119761 -33.139146 
L 71.678879 -33.139146 
L 72.237997 -33.139146 
L 72.797116 -33.139146 
L 73.356234 -33.139146 
L 73.915352 -33.139146 
L 74.47447 -33.139146 
L 75.033589 -33.139146 
L 75.592707 -33.139146 
L 76.151825 -33.139146 
L 76.710943 -33.139146 
L 77.270061 -33.139146 
L 77.82918 -33.139146 
L 78.388298 -33.139146 
L 78.947416 -33.139146 
L 79.506534 -33.139146 
L 80.065653 -33.139146 
L 80.624771 -33.139146 
L 81.183889 -33.139146 
L 81.743007 -33.139146 
L 82.302126 -33.139146 
L 82.861244 -33.139146 
L 83.420362 -33.139146 
L 83.97948 -33.139146 
L 84.538599 -33.139146 
L 85.097717 -33.139146 
L 85.656835 -33.139146 
L 86.215953 -33.139146 
L 86.775071 -33.139146 
L 87.33419 -33.139146 
L 87.893308 -33.139146 
L 88.452426 -33.139146 
L 89.011544 -33.139146 
L 89.570663 -33.139146 
L 90.129781 -33.139146 
L 90.688899 -33.139146 
L 91.248017 -33.139146 
L 91.807136 -33.139146 
L 92.366254 -33.139146 
L 92.925372 -33.139146 
L 93.48449 -33.139146 
L 94.043609 -33.139146 
L 94.602727 -33.139146 
L 95.161845 -33.139146 
L 95.720963 -33.139146 
L 96.280082 -33.139146 
L 96.8392 -33.139146 
L 97.398318 -33.139146 
L 97.957436 -33.139146 
L 98.516554 -33.139146 
L 99.075673 -33.139146 
L 99.634791 -33.139146 
L 100.193909 -33.139146 
L 100.753027 -33.139146 
L 101.312146 -33.139146 
L 101.871264 -33.139146 
L 102.430382 -33.139146 
L 102.9895 -33.139146 
L 103.548619 -33.139146 
L 104.107737 -33.139146 
L 104.666855 -33.139146 
L 105.225973 -33.139146 
L 105.785092 -33.139146 
L 106.34421 -33.139146 
L 106.903328 -33.139146 
L 107.462446 -33.139146 
L 108.021564 -33.139146 
L 108.580683 -33.139146 
L 109.139801 -33.139146 
L 109.698919 -33.139146 
L 110.258037 -33.139146 
L 110.817156 -33.139146 
L 111.376274 -33.139146 
L 111.935392 -33.139146 
L 112.49451 -33.139146 
L 113.053629 -33.139146 
L 113.612747 -33.139146 
L 114.171865 -33.139146 
L 114.730983 -33.139146 
L 115.290102 -33.139146 
L 115.84922 -33.139146 
L 116.408338 -33.139146 
L 116.967456 -33.139146 
L 117.526574 -33.139146 
L 118.085693 -33.139146 
L 118.644811 -33.139146 
L 119.203929 -33.139146 
L 119.763047 -33.139146 
L 120.322166 -33.139146 
L 120.881284 -33.139146 
L 121.440402 -33.139146 
L 121.99952 -33.139146 
L 122.558639 -33.139146 
L 123.117757 -33.139146 
L 123.676875 -33.139146 
L 124.235993 -33.139146 
L 124.795112 -33.139146 
L 125.35423 -33.139146 
L 125.913348 -33.139146 
L 126.472466 -33.139146 
L 127.031585 -33.139146 
L 127.590703 -33.139146 
L 128.149821 -33.139146 
L 128.708939 -33.139146 
L 129.268057 -33.139146 
L 129.827176 -33.139146 
L 130.386294 -33.139146 
L 130.945412 -33.139146 
L 131.50453 -33.139146 
L 132.063649 -33.139146 
L 132.622767 -33.139146 
L 133.181885 -33.139146 
L 133.741003 -33.139146 
L 134.300122 -33.139146 
L 134.85924 -33.139146 
L 135.418358 -33.139146 
L 135.977476 -33.139146 
L 136.536595 -33.139146 
L 137.095713 -33.139146 
L 137.654831 -33.139146 
L 138.213949 -33.139146 
L 138.773067 -33.139146 
L 139.332186 -33.139146 
L 139.891304 -33.139146 
L 140.450422 -33.139146 
L 141.00954 -33.139146 
L 141.568659 -33.139146 
L 142.127777 -33.139146 
L 142.686895 -33.139146 
L 143.246013 -33.139146 
L 143.805132 -33.139146 
L 144.36425 -33.139146 
L 144.923368 -33.139146 
L 145.482486 -33.139146 
L 146.041605 -33.139146 
L 146.600723 -33.139146 
L 147.159841 -33.139146 
L 147.718959 -33.139146 
L 148.278077 -33.139146 
L 148.837196 -33.139146 
L 149.396314 -33.139146 
L 149.955432 -33.139146 
L 150.51455 -33.139146 
L 151.073669 -33.139146 
L 151.632787 -33.139146 
L 152.191905 -33.139146 
L 152.751023 -33.139146 
L 153.310142 -33.139146 
L 153.86926 -33.139146 
L 154.428378 -33.139146 
L 154.987496 -33.139146 
L 155.546615 -33.139146 
L 156.105733 -33.139146 
L 156.664851 -33.139146 
L 157.223969 -33.139146 
L 157.783088 -33.139146 
L 158.342206 -33.139146 
L 158.901324 -33.139146 
L 159.460442 -33.139146 
L 160.01956 -33.139146 
L 160.578679 -33.139146 
L 161.137797 -33.139146 
L 161.696915 -33.139146 
L 162.256033 -33.139146 
L 162.815152 -33.139146 
L 163.37427 -33.139146 
L 163.933388 -33.139146 
L 164.492506 -33.139146 
L 165.051625 -33.139146 
L 165.610743 -33.139146 
L 166.169861 -33.139146 
L 166.728979 -33.139146 
L 167.288098 -33.139146 
L 167.847216 -33.139146 
L 168.406334 -33.139146 
L 168.965452 -33.139146 
L 169.52457 -33.139146 
L 170.083689 -33.139146 
L 170.642807 -33.139146 
L 171.201925 -33.139146 
L 171.761043 -33.139146 
L 172.320162 -33.139146 
L 172.87928 -33.139146 
L 173.438398 -33.139146 
L 173.997516 -33.139146 
L 174.556635 -33.139146 
L 175.115753 -33.139146 
L 175.674871 -33.139146 
L 176.233989 -33.139146 
L 176.793108 -33.139146 
L 177.352226 -33.139146 
L 177.911344 -33.139146 
L 178.470462 -33.139146 
L 179.029581 -33.139146 
L 179.588699 -33.139146 
L 180.147817 -33.139146 
L 180.706935 -33.139146 
L 181.266053 -33.139146 
L 181.825172 -33.139146 
L 182.38429 -33.139146 
L 182.943408 -33.139146 
L 183.502526 -33.139146 
L 184.061645 -33.139146 
L 184.620763 -33.139146 
L 185.179881 -33.139146 
L 185.738999 -33.139146 
L 186.298118 -33.139146 
L 186.857236 -33.139146 
L 187.416354 -33.139146 
L 187.975472 -33.139146 
L 188.534591 -33.139146 
L 189.093709 -33.139146 
L 189.652827 -33.139146 
L 190.211945 -33.139146 
L 190.771063 -33.139146 
L 191.330182 -33.139146 
L 191.8893 -33.139146 
L 192.448418 -33.139146 
L 193.007536 -33.139146 
L 193.566655 -33.139146 
L 194.125773 -33.139146 
L 194.684891 -33.139146 
L 195.244009 -33.139146 
L 195.803128 -33.139146 
L 196.362246 -33.139146 
L 196.921364 -33.139146 
L 197.480482 -33.139146 
L 198.039601 -33.139146 
L 198.598719 -33.139146 
L 199.157837 -33.139146 
L 199.716955 -33.139146 
L 200.276073 -33.139146 
L 200.835192 -33.139146 
L 201.39431 -33.139146 
L 201.953428 -33.139146 
L 202.512546 -33.139146 
L 203.071665 -33.139146 
L 203.630783 -33.139146 
L 204.189901 -33.139146 
L 204.749019 -33.139146 
L 205.308138 -33.139146 
L 205.867256 -33.139146 
L 206.426374 -33.139146 
L 206.985492 -33.139146 
L 207.544611 -33.139146 
L 208.103729 -33.139146 
L 208.662847 -33.139146 
L 209.221965 -33.139146 
L 209.781084 -33.139146 
L 210.340202 -33.139146 
L 210.89932 -33.139146 
L 211.458438 -33.139146 
L 212.017556 -33.139146 
L 212.576675 -33.139146 
L 213.135793 -33.139146 
L 213.694911 -33.139146 
L 214.254029 -33.139146 
L 214.813148 -33.139146 
L 215.372266 -33.139146 
L 215.931384 -33.139146 
L 216.490502 -33.139146 
L 217.049621 -33.139146 
L 217.608739 -33.139146 
L 218.167857 -33.139146 
L 218.726975 -33.139146 
L 219.286094 -33.139146 
L 219.845212 -33.139146 
L 220.40433 -33.139146 
L 220.963448 -33.139146 
L 221.522566 -33.139146 
L 222.081685 -33.139146 
L 222.640803 -33.139146 
L 223.199921 -33.139146 
L 223.759039 -33.139146 
L 224.318158 -33.139146 
L 224.877276 -33.139146 
L 225.436394 -33.139146 
L 225.995512 -33.139146 
L 226.554631 -33.139146 
L 227.113749 -33.139146 
L 227.672867 -33.139146 
L 228.231985 -33.139146 
L 228.791104 -33.139146 
L 229.350222 -33.139146 
L 229.90934 -33.139146 
L 230.468458 -33.139146 
L 231.027576 -33.139146 
L 231.586695 -33.139146 
L 232.145813 -33.139146 
L 232.704931 -33.139146 
L 233.264049 -33.139146 
L 233.823168 -33.139146 
L 234.382286 -33.139146 
L 234.941404 -33.139146 
L 235.500522 -33.139146 
L 236.059641 -33.139146 
L 236.618759 -33.139146 
L 237.177877 -33.139146 
L 237.736995 -33.139146 
L 238.296114 -33.139146 
L 238.855232 -33.139146 
L 239.41435 -33.139146 
L 239.973468 -33.139146 
L 240.532587 -33.139146 
L 241.091705 -33.139146 
L 241.650823 -33.139146 
L 242.209941 -33.139146 
L 242.769059 -33.139146 
L 243.328178 -33.139146 
L 243.887296 -33.139146 
L 244.446414 -33.139146 
L 245.005532 -33.139146 
L 245.564651 -33.139146 
L 246.123769 -33.139146 
L 246.682887 -33.139146 
L 247.242005 -33.139146 
L 247.801124 -33.139146 
L 248.360242 -33.139146 
L 248.91936 -33.139146 
L 249.478478 -33.139146 
L 250.037597 -33.139146 
L 250.596715 -33.139146 
L 251.155833 -33.139146 
L 251.714951 -33.139146 
L 252.274069 -33.139146 
L 252.833188 -33.139146 
L 253.392306 -33.139146 
L 253.951424 -33.139146 
L 254.510542 -33.139146 
L 255.069661 -33.139146 
L 255.628779 -33.139146 
L 256.187897 -33.139146 
L 256.747015 -33.139146 
L 257.306134 -33.139146 
L 257.865252 -33.139146 
L 258.42437 -33.139146 
L 258.983488 -33.139146 
L 259.542607 -33.139146 
L 260.101725 -33.139146 
L 260.660843 -33.139146 
L 261.219961 -33.139146 
L 261.779079 -33.139146 
L 262.338198 -33.139146 
L 262.897316 -33.139146 
L 263.456434 -33.139146 
L 264.015552 -33.139146 
L 264.574671 -33.139146 
L 265.133789 -33.139146 
L 265.692907 -33.139146 
L 266.252025 -33.139146 
L 266.811144 -33.139146 
L 267.370262 -33.139146 
L 267.92938 -33.139146 
L 268.488498 -33.139146 
L 269.047617 -33.139146 
L 269.606735 -33.139146 
L 270.165853 -33.139146 
L 270.724971 -33.139146 
L 271.28409 -33.139146 
L 271.843208 -33.139146 
L 272.402326 -33.139146 
L 272.961444 -33.139146 
L 273.520562 -33.139146 
L 274.079681 -33.139146 
L 274.638799 -33.139146 
L 275.197917 -33.139146 
L 275.757035 -33.139146 
L 276.316154 -33.139146 
L 276.875272 -33.139146 
L 277.43439 -33.139146 
L 277.993508 -33.139146 
L 278.552627 -33.139146 
L 279.111745 -33.139146 
L 279.670863 -33.139146 
L 280.229981 -33.139146 
L 280.7891 -33.139146 
L 281.348218 -33.139146 
L 281.907336 -33.139146 
L 282.466454 -33.139146 
L 283.025572 -33.139146 
L 283.584691 -33.139146 
L 284.143809 -33.139146 
L 284.702927 -33.139146 
L 285.262045 -33.139146 
L 285.821164 -33.139146 
L 286.380282 -33.139146 
L 286.9394 -33.139146 
L 287.498518 -33.139146 
L 288.057637 -33.139146 
L 288.616755 -33.139146 
L 289.175873 -33.139146 
L 289.734991 -33.139146 
L 290.29411 -33.139146 
L 290.853228 -33.139146 
L 291.412346 -33.139146 
L 291.971464 -33.139146 
L 292.530583 -33.139146 
L 293.089701 -33.139146 
L 293.648819 -33.139146 
L 294.207937 -33.139146 
L 294.767055 -33.139146 
L 295.326174 -33.139146 
L 295.885292 -33.139146 
L 296.44441 -33.139146 
L 297.003528 -33.139146 
L 297.562647 -33.139146 
L 298.121765 -33.139146 
L 298.680883 -33.139146 
L 299.240001 -33.139146 
L 299.79912 -33.139146 
L 300.358238 -33.139146 
L 300.917356 -33.139146 
L 301.476474 -33.139146 
L 302.035593 -33.139146 
L 302.594711 -33.139146 
L 303.153829 -33.139146 
L 303.712947 -33.139146 
L 304.272065 -33.139146 
L 304.831184 -33.139146 
L 305.390302 -33.139146 
L 305.94942 -33.139146 
L 306.508538 -33.139146 
L 307.067657 -33.139146 
L 307.626775 -33.139146 
L 308.185893 -33.139146 
L 308.745011 -33.139146 
L 309.30413 -33.139146 
L 309.863248 -33.139146 
L 310.422366 -33.139146 
L 310.981484 -33.139146 
L 311.540603 -33.139146 
L 312.099721 -33.139146 
L 312.658839 -33.139146 
L 313.217957 -33.139146 
L 313.777075 -33.139146 
L 314.336194 -33.139146 
L 314.895312 -33.139146 
L 315.45443 -33.139146 
L 316.013548 -33.139146 
L 316.013548 -33.139146 
L 316.013548 -33.139146 
L 315.45443 -33.694657 
L 314.895312 -34.250168 
L 314.336194 -34.805679 
L 313.777075 -35.36119 
L 313.217957 -35.916701 
L 312.658839 -36.472212 
L 312.099721 -37.027723 
L 311.540603 -37.583234 
L 310.981484 -38.138745 
L 310.422366 -38.694256 
L 309.863248 -39.249767 
L 309.30413 -39.805278 
L 308.745011 -40.360789 
L 308.185893 -40.9163 
L 307.626775 -41.471812 
L 307.067657 -42.027323 
L 306.508538 -42.582834 
L 305.94942 -43.138345 
L 305.390302 -43.693856 
L 304.831184 -44.249367 
L 304.272065 -44.804878 
L 303.712947 -45.360389 
L 303.153829 -45.9159 
L 302.594711 -46.471411 
L 302.035593 -47.026922 
L 301.476474 -47.582433 
L 300.917356 -48.137944 
L 300.358238 -48.693455 
L 299.79912 -49.248966 
L 299.240001 -49.804477 
L 298.680883 -50.359988 
L 298.121765 -50.915499 
L 297.562647 -51.47101 
L 297.003528 -52.026521 
L 296.44441 -52.582032 
L 295.885292 -53.137543 
L 295.326174 -53.693054 
L 294.767055 -54.248565 
L 294.207937 -54.804076 
L 293.648819 -55.359587 
L 293.089701 -55.915098 
L 292.530583 -56.470609 
L 291.971464 -57.02612 
L 291.412346 -57.581631 
L 290.853228 -58.137142 
L 290.29411 -58.692653 
L 289.734991 -59.248164 
L 289.175873 -59.803675 
L 288.616755 -60.359186 
L 288.057637 -60.914697 
L 287.498518 -61.470208 
L 286.9394 -62.025719 
L 286.380282 -62.58123 
L 285.821164 -63.136741 
L 285.262045 -63.692252 
L 284.702927 -64.247763 
L 284.143809 -64.803274 
L 283.584691 -65.358785 
L 283.025572 -65.914296 
L 282.466454 -66.469807 
L 281.907336 -67.025319 
L 281.348218 -67.58083 
L 280.7891 -68.136341 
L 280.229981 -68.691852 
L 279.670863 -69.247363 
L 279.111745 -69.802874 
L 278.552627 -70.358385 
L 277.993508 -70.913896 
L 277.43439 -71.469407 
L 276.875272 -72.024918 
L 276.316154 -72.580429 
L 275.757035 -73.13594 
L 275.197917 -73.691451 
L 274.638799 -74.246962 
L 274.079681 -74.802473 
L 273.520562 -75.357984 
L 272.961444 -75.913495 
L 272.402326 -76.469006 
L 271.843208 -77.024517 
L 271.28409 -77.580028 
L 270.724971 -78.135539 
L 270.165853 -78.69105 
L 269.606735 -79.246561 
L 269.047617 -79.802072 
L 268.488498 -80.357583 
L 267.92938 -80.913094 
L 267.370262 -81.468605 
L 266.811144 -82.024116 
L 266.252025 -82.579627 
L 265.692907 -83.135138 
L 265.133789 -83.690649 
L 264.574671 -84.24616 
L 264.015552 -84.801671 
L 263.456434 -85.357182 
L 262.897316 -85.912693 
L 262.338198 -86.468204 
L 261.779079 -87.023715 
L 261.219961 -87.579226 
L 260.660843 -88.134737 
L 260.101725 -88.690248 
L 259.542607 -89.245759 
L 258.983488 -89.80127 
L 258.42437 -90.356781 
L 257.865252 -90.912292 
L 257.306134 -91.467803 
L 256.747015 -92.023315 
L 256.187897 -92.578826 
L 255.628779 -93.134337 
L 255.069661 -93.689848 
L 254.510542 -94.245359 
L 253.951424 -94.80087 
L 253.392306 -95.356381 
L 252.833188 -95.911892 
L 252.274069 -96.467403 
L 251.714951 -97.022914 
L 251.155833 -97.578425 
L 250.596715 -98.133936 
L 250.037597 -98.689447 
L 249.478478 -99.244958 
L 248.91936 -99.800469 
L 248.360242 -100.35598 
L 247.801124 -100.911491 
L 247.242005 -101.467002 
L 246.682887 -102.022513 
L 246.123769 -102.578024 
L 245.564651 -103.133535 
L 245.005532 -103.689046 
L 244.446414 -104.244557 
L 243.887296 -104.800068 
L 243.328178 -105.355579 
L 242.769059 -105.91109 
L 242.209941 -106.466601 
L 241.650823 -107.022112 
L 241.091705 -107.577623 
L 240.532587 -108.133134 
L 239.973468 -108.688645 
L 239.41435 -109.244156 
L 238.855232 -109.799667 
L 238.296114 -110.355178 
L 237.736995 -110.910689 
L 237.177877 -111.4662 
L 236.618759 -112.021711 
L 236.059641 -112.577222 
L 235.500522 -113.132733 
L 234.941404 -113.688244 
L 234.382286 -114.243755 
L 233.823168 -114.799266 
L 233.264049 -115.354777 
L 232.704931 -115.910288 
L 232.145813 -116.465799 
L 231.586695 -117.02131 
L 231.027576 -117.576822 
L 230.468458 -118.132333 
L 229.90934 -118.687844 
L 229.350222 -119.243355 
L 228.791104 -119.798866 
L 228.231985 -120.354377 
L 227.672867 -120.909888 
L 227.113749 -121.465399 
L 226.554631 -122.02091 
L 225.995512 -122.576421 
L 225.436394 -123.131932 
L 224.877276 -123.687443 
L 224.318158 -124.242954 
L 223.759039 -124.798465 
L 223.199921 -125.353976 
L 222.640803 -125.909487 
L 222.081685 -126.464998 
L 221.522566 -127.020509 
L 220.963448 -127.57602 
L 220.40433 -128.131531 
L 219.845212 -128.687042 
L 219.286094 -129.242553 
L 218.726975 -129.798064 
L 218.167857 -130.353575 
L 217.608739 -130.909086 
L 217.049621 -131.464597 
L 216.490502 -132.020108 
L 215.931384 -132.575619 
L 215.372266 -133.13113 
L 214.813148 -133.686641 
L 214.254029 -134.242152 
L 213.694911 -134.797663 
L 213.135793 -135.353174 
L 212.576675 -135.908685 
L 212.017556 -136.464196 
L 211.458438 -137.019707 
L 210.89932 -137.575218 
L 210.340202 -138.130729 
L 209.781084 -138.68624 
L 209.221965 -139.241751 
L 208.662847 -139.797262 
L 208.103729 -140.352773 
L 207.544611 -140.908284 
L 206.985492 -141.463795 
L 206.426374 -142.019306 
L 205.867256 -142.574818 
L 205.308138 -143.130329 
L 204.749019 -143.68584 
L 204.189901 -144.241351 
L 203.630783 -144.796862 
L 203.071665 -145.352373 
L 202.512546 -145.907884 
L 201.953428 -146.463395 
L 201.39431 -147.018906 
L 200.835192 -147.574417 
L 200.276073 -148.129928 
L 199.716955 -148.685439 
L 199.157837 -149.24095 
L 198.598719 -149.796461 
L 198.039601 -150.351972 
L 197.480482 -150.907483 
L 196.921364 -151.462994 
L 196.362246 -152.018505 
L 195.803128 -152.574016 
L 195.244009 -153.129527 
L 194.684891 -153.685038 
L 194.125773 -154.240549 
L 193.566655 -154.79606 
L 193.007536 -155.351571 
L 192.448418 -155.907082 
L 191.8893 -156.462593 
L 191.330182 -157.018104 
L 190.771063 -157.573615 
L 190.211945 -158.129126 
L 189.652827 -158.684637 
L 189.093709 -159.240148 
L 188.534591 -159.795659 
L 187.975472 -160.35117 
L 187.416354 -160.906681 
L 186.857236 -161.462192 
L 186.298118 -162.017703 
L 185.738999 -162.573214 
L 185.179881 -163.128725 
L 184.620763 -163.684236 
L 184.061645 -164.239747 
L 183.502526 -164.795258 
L 182.943408 -165.350769 
L 182.38429 -165.90628 
L 181.825172 -166.461791 
L 181.266053 -167.017302 
L 180.706935 -167.572814 
L 180.147817 -168.128325 
L 179.588699 -168.683836 
L 179.029581 -169.239347 
L 178.470462 -169.794858 
L 177.911344 -170.350369 
L 177.352226 -170.90588 
L 176.793108 -171.461391 
L 176.233989 -171.461391 
L 175.674871 -170.90588 
L 175.115753 -170.350369 
L 174.556635 -169.794858 
L 173.997516 -169.239347 
L 173.438398 -168.683836 
L 172.87928 -168.128325 
L 172.320162 -167.572814 
L 171.761043 -167.017302 
L 171.201925 -166.461791 
L 170.642807 -165.90628 
L 170.083689 -165.350769 
L 169.52457 -164.795258 
L 168.965452 -164.239747 
L 168.406334 -163.684236 
L 167.847216 -163.128725 
L 167.288098 -162.573214 
L 166.728979 -162.017703 
L 166.169861 -161.462192 
L 165.610743 -160.906681 
L 165.051625 -160.35117 
L 164.492506 -159.795659 
L 163.933388 -159.240148 
L 163.37427 -158.684637 
L 162.815152 -158.129126 
L 162.256033 -157.573615 
L 161.696915 -157.018104 
L 161.137797 -156.462593 
L 160.578679 -155.907082 
L 160.01956 -155.351571 
L 159.460442 -154.79606 
L 158.901324 -154.240549 
L 158.342206 -153.685038 
L 157.783088 -153.129527 
L 157.223969 -152.574016 
L 156.664851 -152.018505 
L 156.105733 -151.462994 
L 155.546615 -150.907483 
L 154.987496 -150.351972 
L 154.428378 -149.796461 
L 153.86926 -149.24095 
L 153.310142 -148.685439 
L 152.751023 -148.129928 
L 152.191905 -147.574417 
L 151.632787 -147.018906 
L 151.073669 -146.463395 
L 150.51455 -145.907884 
L 149.955432 -145.352373 
L 149.396314 -144.796862 
L 148.837196 -144.241351 
L 148.278077 -143.68584 
L 147.718959 -143.130329 
L 147.159841 -142.574818 
L 146.600723 -142.019306 
L 146.041605 -141.463795 
L 145.482486 -140.908284 
L 144.923368 -140.352773 
L 144.36425 -139.797262 
L 143.805132 -139.241751 
L 143.246013 -138.68624 
L 142.686895 -138.130729 
L 142.127777 -137.575218 
L 141.568659 -137.019707 
L 141.00954 -136.464196 
L 140.450422 -135.908685 
L 139.891304 -135.353174 
L 139.332186 -134.797663 
L 138.773067 -134.242152 
L 138.213949 -133.686641 
L 137.654831 -133.13113 
L 137.095713 -132.575619 
L 136.536595 -132.020108 
L 135.977476 -131.464597 
L 135.418358 -130.909086 
L 134.85924 -130.353575 
L 134.300122 -129.798064 
L 133.741003 -129.242553 
L 133.181885 -128.687042 
L 132.622767 -128.131531 
L 132.063649 -127.57602 
L 131.50453 -127.020509 
L 130.945412 -126.464998 
L 130.386294 -125.909487 
L 129.827176 -125.353976 
L 129.268057 -124.798465 
L 128.708939 -124.242954 
L 128.149821 -123.687443 
L 127.590703 -123.131932 
L 127.031585 -122.576421 
L 126.472466 -122.02091 
L 125.913348 -121.465399 
L 125.35423 -120.909888 
L 124.795112 -120.354377 
L 124.235993 -119.798866 
L 123.676875 -119.243355 
L 123.117757 -118.687844 
L 122.558639 -118.132333 
L 121.99952 -117.576822 
L 121.440402 -117.02131 
L 120.881284 -116.465799 
L 120.322166 -115.910288 
L 119.763047 -115.354777 
L 119.203929 -114.799266 
L 118.644811 -114.243755 
L 118.085693 -113.688244 
L 117.526574 -113.132733 
L 116.967456 -112.577222 
L 116.408338 -112.021711 
L 115.84922 -111.4662 
L 115.290102 -110.910689 
L 114.730983 -110.355178 
L 114.171865 -109.799667 
L 113.612747 -109.244156 
L 113.053629 -108.688645 
L 112.49451 -108.133134 
L 111.935392 -107.577623 
L 111.376274 -107.022112 
L 110.817156 -106.466601 
L 110.258037 -105.91109 
L 109.698919 -105.355579 
L 109.139801 -104.800068 
L 108.580683 -104.244557 
L 108.021564 -103.689046 
L 107.462446 -103.133535 
L 106.903328 -102.578024 
L 106.34421 -102.022513 
L 105.785092 -101.467002 
L 105.225973 -100.911491 
L 104.666855 -100.35598 
L 104.107737 -99.800469 
L 103.548619 -99.244958 
L 102.9895 -98.689447 
L 102.430382 -98.133936 
L 101.871264 -97.578425 
L 101.312146 -97.022914 
L 100.753027 -96.467403 
L 100.193909 -95.911892 
L 99.634791 -95.356381 
L 99.075673 -94.80087 
L 98.516554 -94.245359 
L 97.957436 -93.689848 
L 97.398318 -93.134337 
L 96.8392 -92.578826 
L 96.280082 -92.023315 
L 95.720963 -91.467803 
L 95.161845 -90.912292 
L 94.602727 -90.356781 
L 94.043609 -89.80127 
L 93.48449 -89.245759 
L 92.925372 -88.690248 
L 92.366254 -88.134737 
L 91.807136 -87.579226 
L 91.248017 -87.023715 
L 90.688899 -86.468204 
L 90.129781 -85.912693 
L 89.570663 -85.357182 
L 89.011544 -84.801671 
L 88.452426 -84.24616 
L 87.893308 -83.690649 
L 87.33419 -83.135138 
L 86.775071 -82.579627 
L 86.215953 -82.024116 
L 85.656835 -81.468605 
L 85.097717 -80.913094 
L 84.538599 -80.357583 
L 83.97948 -79.802072 
L 83.420362 -79.246561 
L 82.861244 -78.69105 
L 82.302126 -78.135539 
L 81.743007 -77.580028 
L 81.183889 -77.024517 
L 80.624771 -76.469006 
L 80.065653 -75.913495 
L 79.506534 -75.357984 
L 78.947416 -74.802473 
L 78.388298 -74.246962 
L 77.82918 -73.691451 
L 77.270061 -73.13594 
L 76.710943 -72.580429 
L 76.151825 -72.024918 
L 75.592707 -71.469407 
L 75.033589 -70.913896 
L 74.47447 -70.358385 
L 73.915352 -69.802874 
L 73.356234 -69.247363 
L 72.797116 -68.691852 
L 72.237997 -68.136341 
L 71.678879 -67.58083 
L 71.119761 -67.025319 
L 70.560643 -66.469807 
L 70.001524 -65.914296 
L 69.442406 -65.358785 
L 68.883288 -64.803274 
L 68.32417 -64.247763 
L 67.765051 -63.692252 
L 67.205933 -63.136741 
L 66.646815 -62.58123 
L 66.087697 -62.025719 
L 65.528578 -61.470208 
L 64.96946 -60.914697 
L 64.410342 -60.359186 
L 63.851224 -59.803675 
L 63.292106 -59.248164 
L 62.732987 -58.692653 
L 62.173869 -58.137142 
L 61.614751 -57.581631 
L 61.055633 -57.02612 
L 60.496514 -56.470609 
L 59.937396 -55.915098 
L 59.378278 -55.359587 
L 58.81916 -54.804076 
L 58.260041 -54.248565 
L 57.700923 -53.693054 
L 57.141805 -53.137543 
L 56.582687 -52.582032 
L 56.023568 -52.026521 
L 55.46445 -51.47101 
L 54.905332 -50.915499 
L 54.346214 -50.359988 
L 53.787096 -49.804477 
L 53.227977 -49.248966 
L 52.668859 -48.693455 
L 52.109741 -48.137944 
L 51.550623 -47.582433 
L 50.991504 -47.026922 
L 50.432386 -46.471411 
L 49.873268 -45.9159 
L 49.31415 -45.360389 
L 48.755031 -44.804878 
L 48.195913 -44.249367 
L 47.636795 -43.693856 
L 47.077677 -43.138345 
L 46.518558 -42.582834 
L 45.95944 -42.027323 
L 45.400322 -41.471812 
L 44.841204 -40.9163 
L 44.282086 -40.360789 
L 43.722967 -39.805278 
L 43.163849 -39.249767 
L 42.604731 -38.694256 
L 42.045613 -38.138745 
L 41.486494 -37.583234 
L 40.927376 -37.027723 
L 40.368258 -36.472212 
L 39.80914 -35.916701 
L 39.250021 -35.36119 
L 38.690903 -34.805679 
L 38.131785 -34.250168 
L 37.572667 -33.694657 
L 37.013548 -33.139146 
z
" style="stroke: #5f9ea0; stroke-opacity: 0.5"/>
    </defs>
    <g clip-path="url(#pc214de5c26)">
     <use xlink:href="#m82efc3915a" x="0" y="310.339146" style="fill: #5f9ea0; fill-opacity: 0.5; stroke: #5f9ea0; stroke-opacity: 0.5"/>
    </g>
   </g>
   <g id="matplotlib.axis_1">
    <g id="xtick_1">
     <g id="line2d_1">
      <defs>
       <path id="md6371e9421" d="M 0 0 
L 0 3.5 
" style="stroke: #000000; stroke-width: 0.8"/>
      </defs>
      <g>
       <use xlink:href="#md6371e9421" x="64.913548" y="277.2" style="stroke: #000000; stroke-width: 0.8"/>
      </g>
     </g>
     <g id="text_1">
      <!-- $\mathdefault{4}$ -->
      <g transform="translate(58.548509 291.118498) scale(0.1 -0.1)">
       <defs>
        <path id="CMSY10-0" d="M 4218 1472 
C 4326 1472 4442 1472 4442 1600 
C 4442 1728 4326 1728 4218 1728 
L 755 1728 
C 646 1728 531 1728 531 1600 
C 531 1472 646 1472 755 1472 
L 4218 1472 
z
" transform="scale(0.015625)"/>
        <path id="CMR17-34" d="M 2150 4147 
C 2150 4281 2144 4288 2029 4288 
L 128 1254 
L 128 1088 
L 1779 1088 
L 1779 460 
C 1779 230 1766 166 1318 166 
L 1197 166 
L 1197 0 
C 1402 12 1747 12 1965 12 
C 2182 12 2528 12 2733 0 
L 2733 166 
L 2611 166 
C 2163 166 2150 230 2150 460 
L 2150 1088 
L 2803 1088 
L 2803 1254 
L 2150 1254 
L 2150 4147 
z
M 1798 3723 
L 1798 1254 
L 256 1254 
L 1798 3723 
z
" transform="scale(0.015625)"/>
       </defs>
       <use xlink:href="#CMSY10-0" transform="scale(0.996264)"/>
       <use xlink:href="#CMR17-34" transform="translate(77.487468 0) scale(0.996264)"/>
      </g>
     </g>
    </g>
    <g id="xtick_2">
     <g id="line2d_2">
      <g>
       <use xlink:href="#md6371e9421" x="120.713548" y="277.2" style="stroke: #000000; stroke-width: 0.8"/>
      </g>
     </g>
     <g id="text_2">
      <!-- $\mathdefault{2}$ -->
      <g transform="translate(114.348509 291.118498) scale(0.1 -0.1)">
       <defs>
        <path id="CMR17-32" d="M 2669 990 
L 2554 990 
C 2490 537 2438 460 2413 422 
C 2381 371 1920 371 1830 371 
L 602 371 
C 832 620 1280 1073 1824 1596 
C 2214 1966 2669 2400 2669 3033 
C 2669 3788 2067 4224 1395 4224 
C 691 4224 262 3603 262 3027 
C 262 2777 448 2745 525 2745 
C 589 2745 781 2783 781 3007 
C 781 3206 614 3264 525 3264 
C 486 3264 448 3257 422 3244 
C 544 3788 915 4057 1306 4057 
C 1862 4057 2227 3616 2227 3033 
C 2227 2477 1901 1998 1536 1583 
L 262 147 
L 262 0 
L 2515 0 
L 2669 990 
z
" transform="scale(0.015625)"/>
       </defs>
       <use xlink:href="#CMSY10-0" transform="scale(0.996264)"/>
       <use xlink:href="#CMR17-32" transform="translate(77.487468 0) scale(0.996264)"/>
      </g>
     </g>
    </g>
    <g id="xtick_3">
     <g id="line2d_3">
      <g>
       <use xlink:href="#md6371e9421" x="176.513548" y="277.2" style="stroke: #000000; stroke-width: 0.8"/>
      </g>
     </g>
     <g id="text_3">
      <!-- $\mathdefault{0}$ -->
      <g transform="translate(174.022881 291.118498) scale(0.1 -0.1)">
       <defs>
        <path id="CMR17-30" d="M 2688 2038 
C 2688 2430 2682 3099 2413 3613 
C 2176 4063 1798 4224 1466 4224 
C 1158 4224 768 4082 525 3620 
C 269 3137 243 2539 243 2038 
C 243 1671 250 1112 448 623 
C 723 -39 1216 -128 1466 -128 
C 1760 -128 2208 -7 2470 604 
C 2662 1048 2688 1568 2688 2038 
z
M 1466 -26 
C 1056 -26 813 328 723 816 
C 653 1196 653 1749 653 2109 
C 653 2604 653 3015 736 3407 
C 858 3954 1216 4121 1466 4121 
C 1728 4121 2067 3947 2189 3420 
C 2272 3054 2278 2623 2278 2109 
C 2278 1691 2278 1176 2202 797 
C 2067 96 1690 -26 1466 -26 
z
" transform="scale(0.015625)"/>
       </defs>
       <use xlink:href="#CMR17-30" transform="scale(0.996264)"/>
      </g>
     </g>
    </g>
    <g id="xtick_4">
     <g id="line2d_4">
      <g>
       <use xlink:href="#md6371e9421" x="232.313548" y="277.2" style="stroke: #000000; stroke-width: 0.8"/>
      </g>
     </g>
     <g id="text_4">
      <!-- $\mathdefault{2}$ -->
      <g transform="translate(229.822881 291.118498) scale(0.1 -0.1)">
       <use xlink:href="#CMR17-32" transform="scale(0.996264)"/>
      </g>
     </g>
    </g>
    <g id="xtick_5">
     <g id="line2d_5">
      <g>
       <use xlink:href="#md6371e9421" x="288.113548" y="277.2" style="stroke: #000000; stroke-width: 0.8"/>
      </g>
     </g>
     <g id="text_5">
      <!-- $\mathdefault{4}$ -->
      <g transform="translate(285.622881 291.118498) scale(0.1 -0.1)">
       <use xlink:href="#CMR17-34" transform="scale(0.996264)"/>
      </g>
     </g>
    </g>
    <g id="text_6">
     <!-- $x$ -->
     <g transform="translate(172.355998 307.433401) scale(0.15 -0.15)">
      <defs>
       <path id="CMMI12-78" d="M 3034 2624 
C 2829 2585 2752 2431 2752 2310 
C 2752 2156 2874 2105 2963 2105 
C 3155 2105 3290 2271 3290 2444 
C 3290 2694 2982 2816 2714 2816 
C 2323 2816 2106 2451 2048 2329 
C 1901 2790 1504 2816 1389 2816 
C 736 2816 390 1993 390 1849 
C 390 1823 416 1790 461 1790 
C 512 1790 525 1829 538 1855 
C 755 2572 1184 2687 1370 2687 
C 1658 2687 1715 2438 1715 2284 
C 1715 2143 1677 1993 1600 1678 
L 1382 778 
C 1286 390 1101 64 762 64 
C 730 64 570 64 435 126 
C 666 166 717 358 717 435 
C 717 563 621 640 499 640 
C 346 640 179 505 179 300 
C 179 57 480 -64 755 -64 
C 1062 -64 1280 153 1414 415 
C 1517 64 1837 -64 2074 -64 
C 2726 -64 3072 751 3072 896 
C 3072 929 3046 955 3008 955 
C 2950 955 2944 922 2925 870 
C 2752 300 2381 64 2093 64 
C 1869 64 1747 204 1747 467 
C 1747 607 1773 712 1875 1146 
L 2099 2039 
C 2195 2425 2413 2687 2707 2687 
C 2720 2687 2899 2687 3034 2624 
z
" transform="scale(0.015625)"/>
      </defs>
      <use xlink:href="#CMMI12-78" transform="scale(0.996264)"/>
     </g>
    </g>
   </g>
   <g id="matplotlib.axis_2">
    <g id="ytick_1">
     <g id="line2d_6">
      <defs>
       <path id="md20e07fa26" d="M 0 0 
L -3.5 0 
" style="stroke: #000000; stroke-width: 0.8"/>
      </defs>
      <g>
       <use xlink:href="#md20e07fa26" x="37.013548" y="249.48" style="stroke: #000000; stroke-width: 0.8"/>
      </g>
     </g>
     <g id="text_7">
      <!-- $\mathdefault{4}$ -->
      <g transform="translate(17.283469 252.939249) scale(0.1 -0.1)">
       <use xlink:href="#CMSY10-0" transform="scale(0.996264)"/>
       <use xlink:href="#CMR17-34" transform="translate(77.487468 0) scale(0.996264)"/>
      </g>
     </g>
    </g>
    <g id="ytick_2">
     <g id="line2d_7">
      <g>
       <use xlink:href="#md20e07fa26" x="37.013548" y="194.04" style="stroke: #000000; stroke-width: 0.8"/>
      </g>
     </g>
     <g id="text_8">
      <!-- $\mathdefault{2}$ -->
      <g transform="translate(17.283469 197.499249) scale(0.1 -0.1)">
       <use xlink:href="#CMSY10-0" transform="scale(0.996264)"/>
       <use xlink:href="#CMR17-32" transform="translate(77.487468 0) scale(0.996264)"/>
      </g>
     </g>
    </g>
    <g id="ytick_3">
     <g id="line2d_8">
      <g>
       <use xlink:href="#md20e07fa26" x="37.013548" y="138.6" style="stroke: #000000; stroke-width: 0.8"/>
      </g>
     </g>
     <g id="text_9">
      <!-- $\mathdefault{0}$ -->
      <g transform="translate(25.032213 142.059249) scale(0.1 -0.1)">
       <use xlink:href="#CMR17-30" transform="scale(0.996264)"/>
      </g>
     </g>
    </g>
    <g id="ytick_4">
     <g id="line2d_9">
      <g>
       <use xlink:href="#md20e07fa26" x="37.013548" y="83.16" style="stroke: #000000; stroke-width: 0.8"/>
      </g>
     </g>
     <g id="text_10">
      <!-- $\mathdefault{2}$ -->
      <g transform="translate(25.032213 86.619249) scale(0.1 -0.1)">
       <use xlink:href="#CMR17-32" transform="scale(0.996264)"/>
      </g>
     </g>
    </g>
    <g id="ytick_5">
     <g id="line2d_10">
      <g>
       <use xlink:href="#md20e07fa26" x="37.013548" y="27.72" style="stroke: #000000; stroke-width: 0.8"/>
      </g>
     </g>
     <g id="text_11">
      <!-- $\mathdefault{4}$ -->
      <g transform="translate(25.032213 31.179249) scale(0.1 -0.1)">
       <use xlink:href="#CMR17-34" transform="scale(0.996264)"/>
      </g>
     </g>
    </g>
    <g id="text_12">
     <!-- $y$ -->
     <g transform="translate(10.377725 142.167311) rotate(-90) scale(0.15 -0.15)">
      <defs>
       <path id="CMMI12-79" d="M 1683 -673 
C 1510 -921 1261 -1152 947 -1152 
C 870 -1152 563 -1139 467 -826 
C 486 -833 518 -833 531 -833 
C 723 -833 851 -666 851 -519 
C 851 -372 730 -320 634 -320 
C 531 -320 307 -397 307 -711 
C 307 -1050 582 -1280 947 -1280 
C 1587 -1280 2234 -673 2413 -7 
L 3040 2483 
C 3046 2515 3059 2553 3059 2591 
C 3059 2687 2982 2752 2886 2752 
C 2829 2752 2694 2726 2643 2534 
L 2170 657 
C 2138 542 2138 530 2086 459 
C 1958 281 1747 64 1440 64 
C 1082 64 1050 415 1050 587 
C 1050 951 1222 1443 1395 1902 
C 1466 2087 1504 2177 1504 2305 
C 1504 2573 1312 2816 998 2816 
C 410 2816 173 1890 173 1838 
C 173 1813 198 1781 243 1781 
C 301 1781 307 1807 333 1896 
C 486 2432 730 2687 979 2687 
C 1037 2687 1146 2687 1146 2477 
C 1146 2311 1075 2126 979 1883 
C 666 1047 666 836 666 683 
C 666 76 1101 -64 1421 -64 
C 1606 -64 1837 -7 2061 230 
L 2067 223 
C 1971 -141 1907 -359 1683 -673 
z
" transform="scale(0.015625)"/>
      </defs>
      <use xlink:href="#CMMI12-79" transform="scale(0.996264)"/>
     </g>
    </g>
   </g>
   <g id="line2d_11">
    <path d="M 37.013548 138.6 
L 316.013548 138.6 
" clip-path="url(#pc214de5c26)" style="fill: none; stroke: #000000; stroke-width: 0.5; stroke-linecap: square"/>
   </g>
   <g id="line2d_12">
    <path d="M 176.513548 277.2 
L 176.513548 0 
" clip-path="url(#pc214de5c26)" style="fill: none; stroke: #000000; stroke-width: 0.5; stroke-linecap: square"/>
   </g>
   <g id="patch_3">
    <path d="M 37.013548 277.2 
L 37.013548 0 
" style="fill: none; stroke: #000000; stroke-width: 0.8; stroke-linejoin: miter; stroke-linecap: square"/>
   </g>
   <g id="patch_4">
    <path d="M 316.013548 277.2 
L 316.013548 0 
" style="fill: none; stroke: #000000; stroke-width: 0.8; stroke-linejoin: miter; stroke-linecap: square"/>
   </g>
   <g id="patch_5">
    <path d="M 37.013548 277.2 
L 316.013548 277.2 
" style="fill: none; stroke: #000000; stroke-width: 0.8; stroke-linejoin: miter; stroke-linecap: square"/>
   </g>
   <g id="patch_6">
    <path d="M 37.013548 0 
L 316.013548 0 
" style="fill: none; stroke: #000000; stroke-width: 0.8; stroke-linejoin: miter; stroke-linecap: square"/>
   </g>
   <g id="legend_1">
    <g id="patch_7">
     <path d="M 225.470699 152.07198 
L 305.513548 152.07198 
Q 308.513548 152.07198 308.513548 149.07198 
L 308.513548 128.12802 
Q 308.513548 125.12802 305.513548 125.12802 
L 225.470699 125.12802 
Q 222.470699 125.12802 222.470699 128.12802 
L 222.470699 149.07198 
Q 222.470699 152.07198 225.470699 152.07198 
z
" style="fill: #ffffff; opacity: 0.8; stroke: #cccccc; stroke-linejoin: miter"/>
    </g>
    <g id="patch_8">
     <path d="M 228.470699 142.33599 
L 258.470699 142.33599 
L 258.470699 131.83599 
L 228.470699 131.83599 
z
" style="fill: #5f9ea0; fill-opacity: 0.5; stroke: #5f9ea0; stroke-opacity: 0.5; stroke-linejoin: miter"/>
    </g>
    <g id="text_13">
     <!-- $\mathbb{C}(S)$ -->
     <g transform="translate(270.470699 142.33599) scale(0.15 -0.15)">
      <defs>
       <path id="MSBM10-43" d="M 4205 4268 
C 4205 4377 4205 4480 4096 4480 
C 4090 4480 3994 4480 3981 4364 
C 3962 4186 3814 4186 3770 4186 
C 3546 4186 3322 4281 3194 4339 
C 2867 4480 2592 4480 2490 4480 
C 1421 4480 237 3810 237 2179 
C 237 555 1395 -128 2502 -128 
C 2842 -128 3296 -58 3763 223 
C 4058 408 4384 727 4384 816 
C 4384 905 4288 943 4250 943 
C 4205 943 4179 924 4115 854 
C 3744 434 3174 179 2605 179 
C 1613 179 1363 1179 1363 2166 
C 1363 3421 1824 4255 2509 4255 
C 2989 4255 3757 3791 3974 3115 
C 3994 3058 4013 2994 4096 2994 
C 4205 2994 4205 3096 4205 3205 
L 4205 4268 
z
M 3981 3612 
C 3904 3721 3821 3803 3661 3969 
C 3693 3963 3744 3963 3776 3963 
C 3846 3963 3930 3975 3981 4007 
L 3981 3612 
z
M 1709 4109 
C 1562 3963 1139 3415 1139 2166 
C 1139 1536 1235 656 1811 198 
C 762 535 461 1395 461 2173 
C 461 3345 1107 3912 1709 4115 
L 1709 4109 
z
" transform="scale(0.015625)"/>
       <path id="CMR17-28" d="M 1958 -1562 
C 1958 -1556 1958 -1543 1939 -1524 
C 1645 -1223 858 -403 858 1596 
C 858 3595 1632 4408 1946 4729 
C 1946 4735 1958 4748 1958 4767 
C 1958 4787 1939 4800 1914 4800 
C 1843 4800 1299 4325 986 3620 
C 666 2909 576 2218 576 1603 
C 576 1141 621 360 1005 -467 
C 1312 -1133 1837 -1600 1914 -1600 
C 1946 -1600 1958 -1588 1958 -1562 
z
" transform="scale(0.015625)"/>
       <path id="CMMI12-53" d="M 4064 4422 
C 4064 4480 4019 4480 4006 4480 
C 3981 4480 3974 4473 3898 4377 
C 3859 4332 3597 4002 3590 3996 
C 3379 4409 2957 4480 2688 4480 
C 1875 4480 1139 3742 1139 3024 
C 1139 2547 1427 2268 1741 2160 
C 1811 2134 2189 2033 2381 1988 
C 2707 1899 2790 1874 2925 1734 
C 2950 1702 3078 1556 3078 1258 
C 3078 667 2528 57 1888 57 
C 1363 57 781 279 781 991 
C 781 1112 806 1264 826 1328 
C 826 1347 832 1378 832 1391 
C 832 1417 819 1448 768 1448 
C 710 1448 704 1436 678 1328 
L 352 25 
C 352 19 326 -64 326 -71 
C 326 -128 378 -128 390 -128 
C 416 -128 422 -122 499 -26 
L 794 356 
C 947 127 1280 -128 1875 -128 
C 2701 -128 3456 667 3456 1461 
C 3456 1728 3392 1963 3149 2198 
C 3014 2331 2899 2363 2310 2516 
C 1882 2630 1824 2649 1709 2751 
C 1600 2859 1517 3011 1517 3227 
C 1517 3761 2061 4307 2669 4307 
C 3296 4307 3590 3926 3590 3322 
C 3590 3157 3558 2986 3558 2960 
C 3558 2903 3610 2903 3629 2903 
C 3686 2903 3693 2922 3718 3024 
L 4064 4422 
z
" transform="scale(0.015625)"/>
       <path id="CMR17-29" d="M 1683 1596 
C 1683 2057 1638 2839 1254 3665 
C 947 4332 422 4800 346 4800 
C 326 4800 301 4793 301 4761 
C 301 4748 307 4742 314 4729 
C 621 4408 1402 3595 1402 1603 
C 1402 -396 627 -1210 314 -1530 
C 307 -1543 301 -1549 301 -1562 
C 301 -1594 326 -1600 346 -1600 
C 416 -1600 960 -1127 1274 -422 
C 1594 289 1683 981 1683 1596 
z
" transform="scale(0.015625)"/>
      </defs>
      <use xlink:href="#MSBM10-43" transform="scale(0.996264)"/>
      <use xlink:href="#CMR17-28" transform="translate(71.95259 0) scale(0.996264)"/>
      <use xlink:href="#CMMI12-53" transform="translate(107.233358 0) scale(0.996264)"/>
      <use xlink:href="#CMR17-29" transform="translate(173.027797 0) scale(0.996264)"/>
     </g>
    </g>
   </g>
  </g>
 </g>
 <defs>
  <clipPath id="pc214de5c26">
   <rect x="37.013548" y="0" width="279" height="277.2"/>
  </clipPath>
 </defs>
</svg>
