<?xml version="1.0" encoding="utf-8" standalone="no"?>
<!DOCTYPE svg PUBLIC "-//W3C//DTD SVG 1.1//EN"
  "http://www.w3.org/Graphics/SVG/1.1/DTD/svg11.dtd">
<svg xmlns:xlink="http://www.w3.org/1999/xlink" width="316.013548pt" height="310.339146pt" viewBox="0 0 316.013548 310.339146" xmlns="http://www.w3.org/2000/svg" version="1.1">
 <metadata>
  <rdf:RDF xmlns:dc="http://purl.org/dc/elements/1.1/" xmlns:cc="http://creativecommons.org/ns#" xmlns:rdf="http://www.w3.org/1999/02/22-rdf-syntax-ns#">
   <cc:Work>
    <dc:type rdf:resource="http://purl.org/dc/dcmitype/StillImage"/>
    <dc:date>2025-05-18T10:49:28.629866</dc:date>
    <dc:format>image/svg+xml</dc:format>
    <dc:creator>
     <cc:Agent>
      <dc:title>Matplotlib v3.9.2, https://matplotlib.org/</dc:title>
     </cc:Agent>
    </dc:creator>
   </cc:Work>
  </rdf:RDF>
 </metadata>
 <defs>
  <style type="text/css">*{stroke-linejoin: round; stroke-linecap: butt}</style>
 </defs>
 <g id="figure_1">
  <g id="patch_1">
   <path d="M 0 310.339146 
L 316.013548 310.339146 
L 316.013548 0 
L 0 0 
z
" style="fill: #ffffff"/>
  </g>
  <g id="axes_1">
   <g id="patch_2">
    <path d="M 37.013548 277.2 
L 316.013548 277.2 
L 316.013548 0 
L 37.013548 0 
z
" style="fill: #ffffff"/>
   </g>
   <g id="PolyCollection_1">
    <defs>
     <path id="mdba73e2a33" d="M 37.013548 -241.039146 
L 37.013548 -102.439146 
L 37.572667 -102.716902 
L 38.131785 -102.994657 
L 38.690903 -103.272413 
L 39.250021 -103.550168 
L 39.80914 -103.827924 
L 40.368258 -104.105679 
L 40.927376 -104.383435 
L 41.486494 -104.66119 
L 42.045613 -104.938946 
L 42.604731 -105.216701 
L 43.163849 -105.494457 
L 43.722967 -105.772212 
L 44.282086 -106.049968 
L 44.841204 -106.327723 
L 45.400322 -106.605479 
L 45.95944 -106.883234 
L 46.518558 -107.16099 
L 47.077677 -107.438745 
L 47.636795 -107.716501 
L 48.195913 -107.994256 
L 48.755031 -108.272012 
L 49.31415 -108.549767 
L 49.873268 -108.827523 
L 50.432386 -109.105278 
L 50.991504 -109.383034 
L 51.550623 -109.660789 
L 52.109741 -109.938545 
L 52.668859 -110.2163 
L 53.227977 -110.494056 
L 53.787096 -110.771812 
L 54.346214 -111.049567 
L 54.905332 -111.327323 
L 55.46445 -111.605078 
L 56.023568 -111.882834 
L 56.582687 -112.160589 
L 57.141805 -112.438345 
L 57.700923 -112.7161 
L 58.260041 -112.993856 
L 58.81916 -113.271611 
L 59.378278 -113.549367 
L 59.937396 -113.827122 
L 60.496514 -114.104878 
L 61.055633 -114.382633 
L 61.614751 -114.660389 
L 62.173869 -114.938144 
L 62.732987 -115.2159 
L 63.292106 -115.493655 
L 63.851224 -115.771411 
L 64.410342 -116.049166 
L 64.96946 -116.326922 
L 65.528578 -116.604677 
L 66.087697 -116.882433 
L 66.646815 -117.160188 
L 67.205933 -117.437944 
L 67.765051 -117.715699 
L 68.32417 -117.993455 
L 68.883288 -118.27121 
L 69.442406 -118.548966 
L 70.001524 -118.826721 
L 70.560643 -119.104477 
L 71.119761 -119.382232 
L 71.678879 -119.659988 
L 72.237997 -119.937743 
L 72.797116 -120.215499 
L 73.356234 -120.493254 
L 73.915352 -120.77101 
L 74.47447 -121.048765 
L 75.033589 -121.326521 
L 75.592707 -121.604276 
L 76.151825 -121.882032 
L 76.710943 -122.159787 
L 77.270061 -122.437543 
L 77.82918 -122.715298 
L 78.388298 -122.993054 
L 78.947416 -123.270809 
L 79.506534 -123.548565 
L 80.065653 -123.826321 
L 80.624771 -124.104076 
L 81.183889 -124.381832 
L 81.743007 -124.659587 
L 82.302126 -124.937343 
L 82.861244 -125.215098 
L 83.420362 -125.492854 
L 83.97948 -125.770609 
L 84.538599 -126.048365 
L 85.097717 -126.32612 
L 85.656835 -126.603876 
L 86.215953 -126.881631 
L 86.775071 -127.159387 
L 87.33419 -127.437142 
L 87.893308 -127.714898 
L 88.452426 -127.992653 
L 89.011544 -128.270409 
L 89.570663 -128.548164 
L 90.129781 -128.82592 
L 90.688899 -129.103675 
L 91.248017 -129.381431 
L 91.807136 -129.659186 
L 92.366254 -129.936942 
L 92.925372 -130.214697 
L 93.48449 -130.492453 
L 94.043609 -130.770208 
L 94.602727 -131.047964 
L 95.161845 -131.325719 
L 95.720963 -131.603475 
L 96.280082 -131.88123 
L 96.8392 -132.158986 
L 97.398318 -132.436741 
L 97.957436 -132.714497 
L 98.516554 -132.992252 
L 99.075673 -133.270008 
L 99.634791 -133.547763 
L 100.193909 -133.825519 
L 100.753027 -134.103274 
L 101.312146 -134.38103 
L 101.871264 -134.658785 
L 102.430382 -134.936541 
L 102.9895 -135.214296 
L 103.548619 -135.492052 
L 104.107737 -135.769807 
L 104.666855 -136.047563 
L 105.225973 -136.325319 
L 105.785092 -136.603074 
L 106.34421 -136.88083 
L 106.903328 -137.158585 
L 107.462446 -137.436341 
L 108.021564 -137.714096 
L 108.580683 -137.991852 
L 109.139801 -138.269607 
L 109.698919 -138.547363 
L 110.258037 -138.825118 
L 110.817156 -139.102874 
L 111.376274 -139.380629 
L 111.935392 -139.658385 
L 112.49451 -139.93614 
L 113.053629 -140.213896 
L 113.612747 -140.491651 
L 114.171865 -140.769407 
L 114.730983 -141.047162 
L 115.290102 -141.324918 
L 115.84922 -141.602673 
L 116.408338 -141.880429 
L 116.967456 -142.158184 
L 117.526574 -142.43594 
L 118.085693 -142.713695 
L 118.644811 -142.991451 
L 119.203929 -143.269206 
L 119.763047 -143.546962 
L 120.322166 -143.824717 
L 120.881284 -144.102473 
L 121.440402 -144.380228 
L 121.99952 -144.657984 
L 122.558639 -144.935739 
L 123.117757 -145.213495 
L 123.676875 -145.49125 
L 124.235993 -145.769006 
L 124.795112 -146.046761 
L 125.35423 -146.324517 
L 125.913348 -146.602272 
L 126.472466 -146.880028 
L 127.031585 -147.157783 
L 127.590703 -147.435539 
L 128.149821 -147.713294 
L 128.708939 -147.99105 
L 129.268057 -148.268805 
L 129.827176 -148.546561 
L 130.386294 -148.824317 
L 130.945412 -149.102072 
L 131.50453 -149.379828 
L 132.063649 -149.657583 
L 132.622767 -149.935339 
L 133.181885 -150.213094 
L 133.741003 -150.49085 
L 134.300122 -150.768605 
L 134.85924 -151.046361 
L 135.418358 -151.324116 
L 135.977476 -151.601872 
L 136.536595 -151.879627 
L 137.095713 -152.157383 
L 137.654831 -152.435138 
L 138.213949 -152.712894 
L 138.773067 -152.990649 
L 139.332186 -153.268405 
L 139.891304 -153.54616 
L 140.450422 -153.823916 
L 141.00954 -154.101671 
L 141.568659 -154.379427 
L 142.127777 -154.657182 
L 142.686895 -154.934938 
L 143.246013 -155.212693 
L 143.805132 -155.490449 
L 144.36425 -155.768204 
L 144.923368 -156.04596 
L 145.482486 -156.323715 
L 146.041605 -156.601471 
L 146.600723 -156.879226 
L 147.159841 -157.156982 
L 147.718959 -157.434737 
L 148.278077 -157.712493 
L 148.837196 -157.990248 
L 149.396314 -158.268004 
L 149.955432 -158.545759 
L 150.51455 -158.823515 
L 151.073669 -159.10127 
L 151.632787 -159.379026 
L 152.191905 -159.656781 
L 152.751023 -159.934537 
L 153.310142 -160.212292 
L 153.86926 -160.490048 
L 154.428378 -160.767803 
L 154.987496 -161.045559 
L 155.546615 -161.323315 
L 156.105733 -161.60107 
L 156.664851 -161.878826 
L 157.223969 -162.156581 
L 157.783088 -162.434337 
L 158.342206 -162.712092 
L 158.901324 -162.989848 
L 159.460442 -163.267603 
L 160.01956 -163.545359 
L 160.578679 -163.823114 
L 161.137797 -164.10087 
L 161.696915 -164.378625 
L 162.256033 -164.656381 
L 162.815152 -164.934136 
L 163.37427 -165.211892 
L 163.933388 -165.489647 
L 164.492506 -165.767403 
L 165.051625 -166.045158 
L 165.610743 -166.322914 
L 166.169861 -166.600669 
L 166.728979 -166.878425 
L 167.288098 -167.15618 
L 167.847216 -167.433936 
L 168.406334 -167.711691 
L 168.965452 -167.989447 
L 169.52457 -168.267202 
L 170.083689 -168.544958 
L 170.642807 -168.822713 
L 171.201925 -169.100469 
L 171.761043 -169.378224 
L 172.320162 -169.65598 
L 172.87928 -169.933735 
L 173.438398 -170.211491 
L 173.997516 -170.489246 
L 174.556635 -170.767002 
L 175.115753 -171.044757 
L 175.674871 -171.322513 
L 176.233989 -171.600268 
L 176.793108 -171.600268 
L 177.352226 -171.322513 
L 177.911344 -171.044757 
L 178.470462 -170.767002 
L 179.029581 -170.489246 
L 179.588699 -170.211491 
L 180.147817 -169.933735 
L 180.706935 -169.65598 
L 181.266053 -169.378224 
L 181.825172 -169.100469 
L 182.38429 -168.822713 
L 182.943408 -168.544958 
L 183.502526 -168.267202 
L 184.061645 -167.989447 
L 184.620763 -167.711691 
L 185.179881 -167.433936 
L 185.738999 -167.15618 
L 186.298118 -166.878425 
L 186.857236 -166.600669 
L 187.416354 -166.322914 
L 187.975472 -166.045158 
L 188.534591 -165.767403 
L 189.093709 -165.489647 
L 189.652827 -165.211892 
L 190.211945 -164.934136 
L 190.771063 -164.656381 
L 191.330182 -164.378625 
L 191.8893 -164.10087 
L 192.448418 -163.823114 
L 193.007536 -163.545359 
L 193.566655 -163.267603 
L 194.125773 -162.989848 
L 194.684891 -162.712092 
L 195.244009 -162.434337 
L 195.803128 -162.156581 
L 196.362246 -161.878826 
L 196.921364 -161.60107 
L 197.480482 -161.323315 
L 198.039601 -161.045559 
L 198.598719 -160.767803 
L 199.157837 -160.490048 
L 199.716955 -160.212292 
L 200.276073 -159.934537 
L 200.835192 -159.656781 
L 201.39431 -159.379026 
L 201.953428 -159.10127 
L 202.512546 -158.823515 
L 203.071665 -158.545759 
L 203.630783 -158.268004 
L 204.189901 -157.990248 
L 204.749019 -157.712493 
L 205.308138 -157.434737 
L 205.867256 -157.156982 
L 206.426374 -156.879226 
L 206.985492 -156.601471 
L 207.544611 -156.323715 
L 208.103729 -156.04596 
L 208.662847 -155.768204 
L 209.221965 -155.490449 
L 209.781084 -155.212693 
L 210.340202 -154.934938 
L 210.89932 -154.657182 
L 211.458438 -154.379427 
L 212.017556 -154.101671 
L 212.576675 -153.823916 
L 213.135793 -153.54616 
L 213.694911 -153.268405 
L 214.254029 -152.990649 
L 214.813148 -152.712894 
L 215.372266 -152.435138 
L 215.931384 -152.157383 
L 216.490502 -151.879627 
L 217.049621 -151.601872 
L 217.608739 -151.324116 
L 218.167857 -151.046361 
L 218.726975 -150.768605 
L 219.286094 -150.49085 
L 219.845212 -150.213094 
L 220.40433 -149.935339 
L 220.963448 -149.657583 
L 221.522566 -149.379828 
L 222.081685 -149.102072 
L 222.640803 -148.824317 
L 223.199921 -148.546561 
L 223.759039 -148.268805 
L 224.318158 -147.99105 
L 224.877276 -147.713294 
L 225.436394 -147.435539 
L 225.995512 -147.157783 
L 226.554631 -146.880028 
L 227.113749 -146.602272 
L 227.672867 -146.324517 
L 228.231985 -146.046761 
L 228.791104 -145.769006 
L 229.350222 -145.49125 
L 229.90934 -145.213495 
L 230.468458 -144.935739 
L 231.027576 -144.657984 
L 231.586695 -144.380228 
L 232.145813 -144.102473 
L 232.704931 -143.824717 
L 233.264049 -143.546962 
L 233.823168 -143.269206 
L 234.382286 -142.991451 
L 234.941404 -142.713695 
L 235.500522 -142.43594 
L 236.059641 -142.158184 
L 236.618759 -141.880429 
L 237.177877 -141.602673 
L 237.736995 -141.324918 
L 238.296114 -141.047162 
L 238.855232 -140.769407 
L 239.41435 -140.491651 
L 239.973468 -140.213896 
L 240.532587 -139.93614 
L 241.091705 -139.658385 
L 241.650823 -139.380629 
L 242.209941 -139.102874 
L 242.769059 -138.825118 
L 243.328178 -138.547363 
L 243.887296 -138.269607 
L 244.446414 -137.991852 
L 245.005532 -137.714096 
L 245.564651 -137.436341 
L 246.123769 -137.158585 
L 246.682887 -136.88083 
L 247.242005 -136.603074 
L 247.801124 -136.325319 
L 248.360242 -136.047563 
L 248.91936 -135.769807 
L 249.478478 -135.492052 
L 250.037597 -135.214296 
L 250.596715 -134.936541 
L 251.155833 -134.658785 
L 251.714951 -134.38103 
L 252.274069 -134.103274 
L 252.833188 -133.825519 
L 253.392306 -133.547763 
L 253.951424 -133.270008 
L 254.510542 -132.992252 
L 255.069661 -132.714497 
L 255.628779 -132.436741 
L 256.187897 -132.158986 
L 256.747015 -131.88123 
L 257.306134 -131.603475 
L 257.865252 -131.325719 
L 258.42437 -131.047964 
L 258.983488 -130.770208 
L 259.542607 -130.492453 
L 260.101725 -130.214697 
L 260.660843 -129.936942 
L 261.219961 -129.659186 
L 261.779079 -129.381431 
L 262.338198 -129.103675 
L 262.897316 -128.82592 
L 263.456434 -128.548164 
L 264.015552 -128.270409 
L 264.574671 -127.992653 
L 265.133789 -127.714898 
L 265.692907 -127.437142 
L 266.252025 -127.159387 
L 266.811144 -126.881631 
L 267.370262 -126.603876 
L 267.92938 -126.32612 
L 268.488498 -126.048365 
L 269.047617 -125.770609 
L 269.606735 -125.492854 
L 270.165853 -125.215098 
L 270.724971 -124.937343 
L 271.28409 -124.659587 
L 271.843208 -124.381832 
L 272.402326 -124.104076 
L 272.961444 -123.826321 
L 273.520562 -123.548565 
L 274.079681 -123.270809 
L 274.638799 -122.993054 
L 275.197917 -122.715298 
L 275.757035 -122.437543 
L 276.316154 -122.159787 
L 276.875272 -121.882032 
L 277.43439 -121.604276 
L 277.993508 -121.326521 
L 278.552627 -121.048765 
L 279.111745 -120.77101 
L 279.670863 -120.493254 
L 280.229981 -120.215499 
L 280.7891 -119.937743 
L 281.348218 -119.659988 
L 281.907336 -119.382232 
L 282.466454 -119.104477 
L 283.025572 -118.826721 
L 283.584691 -118.548966 
L 284.143809 -118.27121 
L 284.702927 -117.993455 
L 285.262045 -117.715699 
L 285.821164 -117.437944 
L 286.380282 -117.160188 
L 286.9394 -116.882433 
L 287.498518 -116.604677 
L 288.057637 -116.326922 
L 288.616755 -116.049166 
L 289.175873 -115.771411 
L 289.734991 -115.493655 
L 290.29411 -115.2159 
L 290.853228 -114.938144 
L 291.412346 -114.660389 
L 291.971464 -114.382633 
L 292.530583 -114.104878 
L 293.089701 -113.827122 
L 293.648819 -113.549367 
L 294.207937 -113.271611 
L 294.767055 -112.993856 
L 295.326174 -112.7161 
L 295.885292 -112.438345 
L 296.44441 -112.160589 
L 297.003528 -111.882834 
L 297.562647 -111.605078 
L 298.121765 -111.327323 
L 298.680883 -111.049567 
L 299.240001 -110.771812 
L 299.79912 -110.494056 
L 300.358238 -110.2163 
L 300.917356 -109.938545 
L 301.476474 -109.660789 
L 302.035593 -109.383034 
L 302.594711 -109.105278 
L 303.153829 -108.827523 
L 303.712947 -108.549767 
L 304.272065 -108.272012 
L 304.831184 -107.994256 
L 305.390302 -107.716501 
L 305.94942 -107.438745 
L 306.508538 -107.16099 
L 307.067657 -106.883234 
L 307.626775 -106.605479 
L 308.185893 -106.327723 
L 308.745011 -106.049968 
L 309.30413 -105.772212 
L 309.863248 -105.494457 
L 310.422366 -105.216701 
L 310.981484 -104.938946 
L 311.540603 -104.66119 
L 312.099721 -104.383435 
L 312.658839 -104.105679 
L 313.217957 -103.827924 
L 313.777075 -103.550168 
L 314.336194 -103.272413 
L 314.895312 -102.994657 
L 315.45443 -102.716902 
L 316.013548 -102.439146 
L 316.013548 -241.039146 
L 316.013548 -241.039146 
L 315.45443 -240.761391 
L 314.895312 -240.483635 
L 314.336194 -240.20588 
L 313.777075 -239.928124 
L 313.217957 -239.650369 
L 312.658839 -239.372613 
L 312.099721 -239.094858 
L 311.540603 -238.817102 
L 310.981484 -238.539347 
L 310.422366 -238.261591 
L 309.863248 -237.983836 
L 309.30413 -237.70608 
L 308.745011 -237.428325 
L 308.185893 -237.150569 
L 307.626775 -236.872814 
L 307.067657 -236.595058 
L 306.508538 -236.317302 
L 305.94942 -236.039547 
L 305.390302 -235.761791 
L 304.831184 -235.484036 
L 304.272065 -235.20628 
L 303.712947 -234.928525 
L 303.153829 -234.650769 
L 302.594711 -234.373014 
L 302.035593 -234.095258 
L 301.476474 -233.817503 
L 300.917356 -233.539747 
L 300.358238 -233.261992 
L 299.79912 -232.984236 
L 299.240001 -232.706481 
L 298.680883 -232.428725 
L 298.121765 -232.15097 
L 297.562647 -231.873214 
L 297.003528 -231.595459 
L 296.44441 -231.317703 
L 295.885292 -231.039948 
L 295.326174 -230.762192 
L 294.767055 -230.484437 
L 294.207937 -230.206681 
L 293.648819 -229.928926 
L 293.089701 -229.65117 
L 292.530583 -229.373415 
L 291.971464 -229.095659 
L 291.412346 -228.817904 
L 290.853228 -228.540148 
L 290.29411 -228.262393 
L 289.734991 -227.984637 
L 289.175873 -227.706882 
L 288.616755 -227.429126 
L 288.057637 -227.151371 
L 287.498518 -226.873615 
L 286.9394 -226.59586 
L 286.380282 -226.318104 
L 285.821164 -226.040349 
L 285.262045 -225.762593 
L 284.702927 -225.484838 
L 284.143809 -225.207082 
L 283.584691 -224.929327 
L 283.025572 -224.651571 
L 282.466454 -224.373816 
L 281.907336 -224.09606 
L 281.348218 -223.818304 
L 280.7891 -223.540549 
L 280.229981 -223.262793 
L 279.670863 -222.985038 
L 279.111745 -222.707282 
L 278.552627 -222.429527 
L 277.993508 -222.151771 
L 277.43439 -221.874016 
L 276.875272 -221.59626 
L 276.316154 -221.318505 
L 275.757035 -221.040749 
L 275.197917 -220.762994 
L 274.638799 -220.485238 
L 274.079681 -220.207483 
L 273.520562 -219.929727 
L 272.961444 -219.651972 
L 272.402326 -219.374216 
L 271.843208 -219.096461 
L 271.28409 -218.818705 
L 270.724971 -218.54095 
L 270.165853 -218.263194 
L 269.606735 -217.985439 
L 269.047617 -217.707683 
L 268.488498 -217.429928 
L 267.92938 -217.152172 
L 267.370262 -216.874417 
L 266.811144 -216.596661 
L 266.252025 -216.318906 
L 265.692907 -216.04115 
L 265.133789 -215.763395 
L 264.574671 -215.485639 
L 264.015552 -215.207884 
L 263.456434 -214.930128 
L 262.897316 -214.652373 
L 262.338198 -214.374617 
L 261.779079 -214.096862 
L 261.219961 -213.819106 
L 260.660843 -213.541351 
L 260.101725 -213.263595 
L 259.542607 -212.98584 
L 258.983488 -212.708084 
L 258.42437 -212.430329 
L 257.865252 -212.152573 
L 257.306134 -211.874818 
L 256.747015 -211.597062 
L 256.187897 -211.319306 
L 255.628779 -211.041551 
L 255.069661 -210.763795 
L 254.510542 -210.48604 
L 253.951424 -210.208284 
L 253.392306 -209.930529 
L 252.833188 -209.652773 
L 252.274069 -209.375018 
L 251.714951 -209.097262 
L 251.155833 -208.819507 
L 250.596715 -208.541751 
L 250.037597 -208.263996 
L 249.478478 -207.98624 
L 248.91936 -207.708485 
L 248.360242 -207.430729 
L 247.801124 -207.152974 
L 247.242005 -206.875218 
L 246.682887 -206.597463 
L 246.123769 -206.319707 
L 245.564651 -206.041952 
L 245.005532 -205.764196 
L 244.446414 -205.486441 
L 243.887296 -205.208685 
L 243.328178 -204.93093 
L 242.769059 -204.653174 
L 242.209941 -204.375419 
L 241.650823 -204.097663 
L 241.091705 -203.819908 
L 240.532587 -203.542152 
L 239.973468 -203.264397 
L 239.41435 -202.986641 
L 238.855232 -202.708886 
L 238.296114 -202.43113 
L 237.736995 -202.153375 
L 237.177877 -201.875619 
L 236.618759 -201.597864 
L 236.059641 -201.320108 
L 235.500522 -201.042353 
L 234.941404 -200.764597 
L 234.382286 -200.486842 
L 233.823168 -200.209086 
L 233.264049 -199.931331 
L 232.704931 -199.653575 
L 232.145813 -199.37582 
L 231.586695 -199.098064 
L 231.027576 -198.820308 
L 230.468458 -198.542553 
L 229.90934 -198.264797 
L 229.350222 -197.987042 
L 228.791104 -197.709286 
L 228.231985 -197.431531 
L 227.672867 -197.153775 
L 227.113749 -196.87602 
L 226.554631 -196.598264 
L 225.995512 -196.320509 
L 225.436394 -196.042753 
L 224.877276 -195.764998 
L 224.318158 -195.487242 
L 223.759039 -195.209487 
L 223.199921 -194.931731 
L 222.640803 -194.653976 
L 222.081685 -194.37622 
L 221.522566 -194.098465 
L 220.963448 -193.820709 
L 220.40433 -193.542954 
L 219.845212 -193.265198 
L 219.286094 -192.987443 
L 218.726975 -192.709687 
L 218.167857 -192.431932 
L 217.608739 -192.154176 
L 217.049621 -191.876421 
L 216.490502 -191.598665 
L 215.931384 -191.32091 
L 215.372266 -191.043154 
L 214.813148 -190.765399 
L 214.254029 -190.487643 
L 213.694911 -190.209888 
L 213.135793 -189.932132 
L 212.576675 -189.654377 
L 212.017556 -189.376621 
L 211.458438 -189.098866 
L 210.89932 -188.82111 
L 210.340202 -188.543355 
L 209.781084 -188.265599 
L 209.221965 -187.987844 
L 208.662847 -187.710088 
L 208.103729 -187.432333 
L 207.544611 -187.154577 
L 206.985492 -186.876822 
L 206.426374 -186.599066 
L 205.867256 -186.32131 
L 205.308138 -186.043555 
L 204.749019 -185.765799 
L 204.189901 -185.488044 
L 203.630783 -185.210288 
L 203.071665 -184.932533 
L 202.512546 -184.654777 
L 201.953428 -184.377022 
L 201.39431 -184.099266 
L 200.835192 -183.821511 
L 200.276073 -183.543755 
L 199.716955 -183.266 
L 199.157837 -182.988244 
L 198.598719 -182.710489 
L 198.039601 -182.432733 
L 197.480482 -182.154978 
L 196.921364 -181.877222 
L 196.362246 -181.599467 
L 195.803128 -181.321711 
L 195.244009 -181.043956 
L 194.684891 -180.7662 
L 194.125773 -180.488445 
L 193.566655 -180.210689 
L 193.007536 -179.932934 
L 192.448418 -179.655178 
L 191.8893 -179.377423 
L 191.330182 -179.099667 
L 190.771063 -178.821912 
L 190.211945 -178.544156 
L 189.652827 -178.266401 
L 189.093709 -177.988645 
L 188.534591 -177.71089 
L 187.975472 -177.433134 
L 187.416354 -177.155379 
L 186.857236 -176.877623 
L 186.298118 -176.599868 
L 185.738999 -176.322112 
L 185.179881 -176.044357 
L 184.620763 -175.766601 
L 184.061645 -175.488846 
L 183.502526 -175.21109 
L 182.943408 -174.933335 
L 182.38429 -174.655579 
L 181.825172 -174.377824 
L 181.266053 -174.100068 
L 180.706935 -173.822313 
L 180.147817 -173.544557 
L 179.588699 -173.266801 
L 179.029581 -172.989046 
L 178.470462 -172.71129 
L 177.911344 -172.433535 
L 177.352226 -172.155779 
L 176.793108 -171.878024 
L 176.233989 -171.878024 
L 175.674871 -172.155779 
L 175.115753 -172.433535 
L 174.556635 -172.71129 
L 173.997516 -172.989046 
L 173.438398 -173.266801 
L 172.87928 -173.544557 
L 172.320162 -173.822313 
L 171.761043 -174.100068 
L 171.201925 -174.377824 
L 170.642807 -174.655579 
L 170.083689 -174.933335 
L 169.52457 -175.21109 
L 168.965452 -175.488846 
L 168.406334 -175.766601 
L 167.847216 -176.044357 
L 167.288098 -176.322112 
L 166.728979 -176.599868 
L 166.169861 -176.877623 
L 165.610743 -177.155379 
L 165.051625 -177.433134 
L 164.492506 -177.71089 
L 163.933388 -177.988645 
L 163.37427 -178.266401 
L 162.815152 -178.544156 
L 162.256033 -178.821912 
L 161.696915 -179.099667 
L 161.137797 -179.377423 
L 160.578679 -179.655178 
L 160.01956 -179.932934 
L 159.460442 -180.210689 
L 158.901324 -180.488445 
L 158.342206 -180.7662 
L 157.783088 -181.043956 
L 157.223969 -181.321711 
L 156.664851 -181.599467 
L 156.105733 -181.877222 
L 155.546615 -182.154978 
L 154.987496 -182.432733 
L 154.428378 -182.710489 
L 153.86926 -182.988244 
L 153.310142 -183.266 
L 152.751023 -183.543755 
L 152.191905 -183.821511 
L 151.632787 -184.099266 
L 151.073669 -184.377022 
L 150.51455 -184.654777 
L 149.955432 -184.932533 
L 149.396314 -185.210288 
L 148.837196 -185.488044 
L 148.278077 -185.765799 
L 147.718959 -186.043555 
L 147.159841 -186.32131 
L 146.600723 -186.599066 
L 146.041605 -186.876822 
L 145.482486 -187.154577 
L 144.923368 -187.432333 
L 144.36425 -187.710088 
L 143.805132 -187.987844 
L 143.246013 -188.265599 
L 142.686895 -188.543355 
L 142.127777 -188.82111 
L 141.568659 -189.098866 
L 141.00954 -189.376621 
L 140.450422 -189.654377 
L 139.891304 -189.932132 
L 139.332186 -190.209888 
L 138.773067 -190.487643 
L 138.213949 -190.765399 
L 137.654831 -191.043154 
L 137.095713 -191.32091 
L 136.536595 -191.598665 
L 135.977476 -191.876421 
L 135.418358 -192.154176 
L 134.85924 -192.431932 
L 134.300122 -192.709687 
L 133.741003 -192.987443 
L 133.181885 -193.265198 
L 132.622767 -193.542954 
L 132.063649 -193.820709 
L 131.50453 -194.098465 
L 130.945412 -194.37622 
L 130.386294 -194.653976 
L 129.827176 -194.931731 
L 129.268057 -195.209487 
L 128.708939 -195.487242 
L 128.149821 -195.764998 
L 127.590703 -196.042753 
L 127.031585 -196.320509 
L 126.472466 -196.598264 
L 125.913348 -196.87602 
L 125.35423 -197.153775 
L 124.795112 -197.431531 
L 124.235993 -197.709286 
L 123.676875 -197.987042 
L 123.117757 -198.264797 
L 122.558639 -198.542553 
L 121.99952 -198.820308 
L 121.440402 -199.098064 
L 120.881284 -199.37582 
L 120.322166 -199.653575 
L 119.763047 -199.931331 
L 119.203929 -200.209086 
L 118.644811 -200.486842 
L 118.085693 -200.764597 
L 117.526574 -201.042353 
L 116.967456 -201.320108 
L 116.408338 -201.597864 
L 115.84922 -201.875619 
L 115.290102 -202.153375 
L 114.730983 -202.43113 
L 114.171865 -202.708886 
L 113.612747 -202.986641 
L 113.053629 -203.264397 
L 112.49451 -203.542152 
L 111.935392 -203.819908 
L 111.376274 -204.097663 
L 110.817156 -204.375419 
L 110.258037 -204.653174 
L 109.698919 -204.93093 
L 109.139801 -205.208685 
L 108.580683 -205.486441 
L 108.021564 -205.764196 
L 107.462446 -206.041952 
L 106.903328 -206.319707 
L 106.34421 -206.597463 
L 105.785092 -206.875218 
L 105.225973 -207.152974 
L 104.666855 -207.430729 
L 104.107737 -207.708485 
L 103.548619 -207.98624 
L 102.9895 -208.263996 
L 102.430382 -208.541751 
L 101.871264 -208.819507 
L 101.312146 -209.097262 
L 100.753027 -209.375018 
L 100.193909 -209.652773 
L 99.634791 -209.930529 
L 99.075673 -210.208284 
L 98.516554 -210.48604 
L 97.957436 -210.763795 
L 97.398318 -211.041551 
L 96.8392 -211.319306 
L 96.280082 -211.597062 
L 95.720963 -211.874818 
L 95.161845 -212.152573 
L 94.602727 -212.430329 
L 94.043609 -212.708084 
L 93.48449 -212.98584 
L 92.925372 -213.263595 
L 92.366254 -213.541351 
L 91.807136 -213.819106 
L 91.248017 -214.096862 
L 90.688899 -214.374617 
L 90.129781 -214.652373 
L 89.570663 -214.930128 
L 89.011544 -215.207884 
L 88.452426 -215.485639 
L 87.893308 -215.763395 
L 87.33419 -216.04115 
L 86.775071 -216.318906 
L 86.215953 -216.596661 
L 85.656835 -216.874417 
L 85.097717 -217.152172 
L 84.538599 -217.429928 
L 83.97948 -217.707683 
L 83.420362 -217.985439 
L 82.861244 -218.263194 
L 82.302126 -218.54095 
L 81.743007 -218.818705 
L 81.183889 -219.096461 
L 80.624771 -219.374216 
L 80.065653 -219.651972 
L 79.506534 -219.929727 
L 78.947416 -220.207483 
L 78.388298 -220.485238 
L 77.82918 -220.762994 
L 77.270061 -221.040749 
L 76.710943 -221.318505 
L 76.151825 -221.59626 
L 75.592707 -221.874016 
L 75.033589 -222.151771 
L 74.47447 -222.429527 
L 73.915352 -222.707282 
L 73.356234 -222.985038 
L 72.797116 -223.262793 
L 72.237997 -223.540549 
L 71.678879 -223.818304 
L 71.119761 -224.09606 
L 70.560643 -224.373816 
L 70.001524 -224.651571 
L 69.442406 -224.929327 
L 68.883288 -225.207082 
L 68.32417 -225.484838 
L 67.765051 -225.762593 
L 67.205933 -226.040349 
L 66.646815 -226.318104 
L 66.087697 -226.59586 
L 65.528578 -226.873615 
L 64.96946 -227.151371 
L 64.410342 -227.429126 
L 63.851224 -227.706882 
L 63.292106 -227.984637 
L 62.732987 -228.262393 
L 62.173869 -228.540148 
L 61.614751 -228.817904 
L 61.055633 -229.095659 
L 60.496514 -229.373415 
L 59.937396 -229.65117 
L 59.378278 -229.928926 
L 58.81916 -230.206681 
L 58.260041 -230.484437 
L 57.700923 -230.762192 
L 57.141805 -231.039948 
L 56.582687 -231.317703 
L 56.023568 -231.595459 
L 55.46445 -231.873214 
L 54.905332 -232.15097 
L 54.346214 -232.428725 
L 53.787096 -232.706481 
L 53.227977 -232.984236 
L 52.668859 -233.261992 
L 52.109741 -233.539747 
L 51.550623 -233.817503 
L 50.991504 -234.095258 
L 50.432386 -234.373014 
L 49.873268 -234.650769 
L 49.31415 -234.928525 
L 48.755031 -235.20628 
L 48.195913 -235.484036 
L 47.636795 -235.761791 
L 47.077677 -236.039547 
L 46.518558 -236.317302 
L 45.95944 -236.595058 
L 45.400322 -236.872814 
L 44.841204 -237.150569 
L 44.282086 -237.428325 
L 43.722967 -237.70608 
L 43.163849 -237.983836 
L 42.604731 -238.261591 
L 42.045613 -238.539347 
L 41.486494 -238.817102 
L 40.927376 -239.094858 
L 40.368258 -239.372613 
L 39.80914 -239.650369 
L 39.250021 -239.928124 
L 38.690903 -240.20588 
L 38.131785 -240.483635 
L 37.572667 -240.761391 
L 37.013548 -241.039146 
z
" style="stroke: #5f9ea0; stroke-opacity: 0.5"/>
    </defs>
    <g clip-path="url(#pcbcaa60dc1)">
     <use xlink:href="#mdba73e2a33" x="0" y="310.339146" style="fill: #5f9ea0; fill-opacity: 0.5; stroke: #5f9ea0; stroke-opacity: 0.5"/>
    </g>
   </g>
   <g id="matplotlib.axis_1">
    <g id="xtick_1">
     <g id="line2d_1">
      <defs>
       <path id="m414de4fced" d="M 0 0 
L 0 3.5 
" style="stroke: #000000; stroke-width: 0.8"/>
      </defs>
      <g>
       <use xlink:href="#m414de4fced" x="64.913548" y="277.2" style="stroke: #000000; stroke-width: 0.8"/>
      </g>
     </g>
     <g id="text_1">
      <!-- $\mathdefault{−4}$ -->
      <g transform="translate(58.548509 291.118498) scale(0.1 -0.1)">
       <defs>
        <path id="CMSY10-0" d="M 4218 1472 
C 4326 1472 4442 1472 4442 1600 
C 4442 1728 4326 1728 4218 1728 
L 755 1728 
C 646 1728 531 1728 531 1600 
C 531 1472 646 1472 755 1472 
L 4218 1472 
z
" transform="scale(0.015625)"/>
        <path id="CMR17-34" d="M 2150 4147 
C 2150 4281 2144 4288 2029 4288 
L 128 1254 
L 128 1088 
L 1779 1088 
L 1779 460 
C 1779 230 1766 166 1318 166 
L 1197 166 
L 1197 0 
C 1402 12 1747 12 1965 12 
C 2182 12 2528 12 2733 0 
L 2733 166 
L 2611 166 
C 2163 166 2150 230 2150 460 
L 2150 1088 
L 2803 1088 
L 2803 1254 
L 2150 1254 
L 2150 4147 
z
M 1798 3723 
L 1798 1254 
L 256 1254 
L 1798 3723 
z
" transform="scale(0.015625)"/>
       </defs>
       <use xlink:href="#CMSY10-0" transform="scale(0.996264)"/>
       <use xlink:href="#CMR17-34" transform="translate(77.487468 0) scale(0.996264)"/>
      </g>
     </g>
    </g>
    <g id="xtick_2">
     <g id="line2d_2">
      <g>
       <use xlink:href="#m414de4fced" x="120.713548" y="277.2" style="stroke: #000000; stroke-width: 0.8"/>
      </g>
     </g>
     <g id="text_2">
      <!-- $\mathdefault{−2}$ -->
      <g transform="translate(114.348509 291.118498) scale(0.1 -0.1)">
       <defs>
        <path id="CMR17-32" d="M 2669 990 
L 2554 990 
C 2490 537 2438 460 2413 422 
C 2381 371 1920 371 1830 371 
L 602 371 
C 832 620 1280 1073 1824 1596 
C 2214 1966 2669 2400 2669 3033 
C 2669 3788 2067 4224 1395 4224 
C 691 4224 262 3603 262 3027 
C 262 2777 448 2745 525 2745 
C 589 2745 781 2783 781 3007 
C 781 3206 614 3264 525 3264 
C 486 3264 448 3257 422 3244 
C 544 3788 915 4057 1306 4057 
C 1862 4057 2227 3616 2227 3033 
C 2227 2477 1901 1998 1536 1583 
L 262 147 
L 262 0 
L 2515 0 
L 2669 990 
z
" transform="scale(0.015625)"/>
       </defs>
       <use xlink:href="#CMSY10-0" transform="scale(0.996264)"/>
       <use xlink:href="#CMR17-32" transform="translate(77.487468 0) scale(0.996264)"/>
      </g>
     </g>
    </g>
    <g id="xtick_3">
     <g id="line2d_3">
      <g>
       <use xlink:href="#m414de4fced" x="176.513548" y="277.2" style="stroke: #000000; stroke-width: 0.8"/>
      </g>
     </g>
     <g id="text_3">
      <!-- $\mathdefault{0}$ -->
      <g transform="translate(174.022881 291.118498) scale(0.1 -0.1)">
       <defs>
        <path id="CMR17-30" d="M 2688 2038 
C 2688 2430 2682 3099 2413 3613 
C 2176 4063 1798 4224 1466 4224 
C 1158 4224 768 4082 525 3620 
C 269 3137 243 2539 243 2038 
C 243 1671 250 1112 448 623 
C 723 -39 1216 -128 1466 -128 
C 1760 -128 2208 -7 2470 604 
C 2662 1048 2688 1568 2688 2038 
z
M 1466 -26 
C 1056 -26 813 328 723 816 
C 653 1196 653 1749 653 2109 
C 653 2604 653 3015 736 3407 
C 858 3954 1216 4121 1466 4121 
C 1728 4121 2067 3947 2189 3420 
C 2272 3054 2278 2623 2278 2109 
C 2278 1691 2278 1176 2202 797 
C 2067 96 1690 -26 1466 -26 
z
" transform="scale(0.015625)"/>
       </defs>
       <use xlink:href="#CMR17-30" transform="scale(0.996264)"/>
      </g>
     </g>
    </g>
    <g id="xtick_4">
     <g id="line2d_4">
      <g>
       <use xlink:href="#m414de4fced" x="232.313548" y="277.2" style="stroke: #000000; stroke-width: 0.8"/>
      </g>
     </g>
     <g id="text_4">
      <!-- $\mathdefault{2}$ -->
      <g transform="translate(229.822881 291.118498) scale(0.1 -0.1)">
       <use xlink:href="#CMR17-32" transform="scale(0.996264)"/>
      </g>
     </g>
    </g>
    <g id="xtick_5">
     <g id="line2d_5">
      <g>
       <use xlink:href="#m414de4fced" x="288.113548" y="277.2" style="stroke: #000000; stroke-width: 0.8"/>
      </g>
     </g>
     <g id="text_5">
      <!-- $\mathdefault{4}$ -->
      <g transform="translate(285.622881 291.118498) scale(0.1 -0.1)">
       <use xlink:href="#CMR17-34" transform="scale(0.996264)"/>
      </g>
     </g>
    </g>
    <g id="text_6">
     <!-- $x$ -->
     <g transform="translate(172.355998 307.433401) scale(0.15 -0.15)">
      <defs>
       <path id="CMMI12-78" d="M 3034 2624 
C 2829 2585 2752 2431 2752 2310 
C 2752 2156 2874 2105 2963 2105 
C 3155 2105 3290 2271 3290 2444 
C 3290 2694 2982 2816 2714 2816 
C 2323 2816 2106 2451 2048 2329 
C 1901 2790 1504 2816 1389 2816 
C 736 2816 390 1993 390 1849 
C 390 1823 416 1790 461 1790 
C 512 1790 525 1829 538 1855 
C 755 2572 1184 2687 1370 2687 
C 1658 2687 1715 2438 1715 2284 
C 1715 2143 1677 1993 1600 1678 
L 1382 778 
C 1286 390 1101 64 762 64 
C 730 64 570 64 435 126 
C 666 166 717 358 717 435 
C 717 563 621 640 499 640 
C 346 640 179 505 179 300 
C 179 57 480 -64 755 -64 
C 1062 -64 1280 153 1414 415 
C 1517 64 1837 -64 2074 -64 
C 2726 -64 3072 751 3072 896 
C 3072 929 3046 955 3008 955 
C 2950 955 2944 922 2925 870 
C 2752 300 2381 64 2093 64 
C 1869 64 1747 204 1747 467 
C 1747 607 1773 712 1875 1146 
L 2099 2039 
C 2195 2425 2413 2687 2707 2687 
C 2720 2687 2899 2687 3034 2624 
z
" transform="scale(0.015625)"/>
      </defs>
      <use xlink:href="#CMMI12-78" transform="scale(0.996264)"/>
     </g>
    </g>
   </g>
   <g id="matplotlib.axis_2">
    <g id="ytick_1">
     <g id="line2d_6">
      <defs>
       <path id="mb489d34864" d="M 0 0 
L -3.5 0 
" style="stroke: #000000; stroke-width: 0.8"/>
      </defs>
      <g>
       <use xlink:href="#mb489d34864" x="37.013548" y="249.48" style="stroke: #000000; stroke-width: 0.8"/>
      </g>
     </g>
     <g id="text_7">
      <!-- $\mathdefault{−4}$ -->
      <g transform="translate(17.283469 252.939249) scale(0.1 -0.1)">
       <use xlink:href="#CMSY10-0" transform="scale(0.996264)"/>
       <use xlink:href="#CMR17-34" transform="translate(77.487468 0) scale(0.996264)"/>
      </g>
     </g>
    </g>
    <g id="ytick_2">
     <g id="line2d_7">
      <g>
       <use xlink:href="#mb489d34864" x="37.013548" y="194.04" style="stroke: #000000; stroke-width: 0.8"/>
      </g>
     </g>
     <g id="text_8">
      <!-- $\mathdefault{−2}$ -->
      <g transform="translate(17.283469 197.499249) scale(0.1 -0.1)">
       <use xlink:href="#CMSY10-0" transform="scale(0.996264)"/>
       <use xlink:href="#CMR17-32" transform="translate(77.487468 0) scale(0.996264)"/>
      </g>
     </g>
    </g>
    <g id="ytick_3">
     <g id="line2d_8">
      <g>
       <use xlink:href="#mb489d34864" x="37.013548" y="138.6" style="stroke: #000000; stroke-width: 0.8"/>
      </g>
     </g>
     <g id="text_9">
      <!-- $\mathdefault{0}$ -->
      <g transform="translate(25.032213 142.059249) scale(0.1 -0.1)">
       <use xlink:href="#CMR17-30" transform="scale(0.996264)"/>
      </g>
     </g>
    </g>
    <g id="ytick_4">
     <g id="line2d_9">
      <g>
       <use xlink:href="#mb489d34864" x="37.013548" y="83.16" style="stroke: #000000; stroke-width: 0.8"/>
      </g>
     </g>
     <g id="text_10">
      <!-- $\mathdefault{2}$ -->
      <g transform="translate(25.032213 86.619249) scale(0.1 -0.1)">
       <use xlink:href="#CMR17-32" transform="scale(0.996264)"/>
      </g>
     </g>
    </g>
    <g id="ytick_5">
     <g id="line2d_10">
      <g>
       <use xlink:href="#mb489d34864" x="37.013548" y="27.72" style="stroke: #000000; stroke-width: 0.8"/>
      </g>
     </g>
     <g id="text_11">
      <!-- $\mathdefault{4}$ -->
      <g transform="translate(25.032213 31.179249) scale(0.1 -0.1)">
       <use xlink:href="#CMR17-34" transform="scale(0.996264)"/>
      </g>
     </g>
    </g>
    <g id="text_12">
     <!-- $y$ -->
     <g transform="translate(10.377725 142.167311) rotate(-90) scale(0.15 -0.15)">
      <defs>
       <path id="CMMI12-79" d="M 1683 -673 
C 1510 -921 1261 -1152 947 -1152 
C 870 -1152 563 -1139 467 -826 
C 486 -833 518 -833 531 -833 
C 723 -833 851 -666 851 -519 
C 851 -372 730 -320 634 -320 
C 531 -320 307 -397 307 -711 
C 307 -1050 582 -1280 947 -1280 
C 1587 -1280 2234 -673 2413 -7 
L 3040 2483 
C 3046 2515 3059 2553 3059 2591 
C 3059 2687 2982 2752 2886 2752 
C 2829 2752 2694 2726 2643 2534 
L 2170 657 
C 2138 542 2138 530 2086 459 
C 1958 281 1747 64 1440 64 
C 1082 64 1050 415 1050 587 
C 1050 951 1222 1443 1395 1902 
C 1466 2087 1504 2177 1504 2305 
C 1504 2573 1312 2816 998 2816 
C 410 2816 173 1890 173 1838 
C 173 1813 198 1781 243 1781 
C 301 1781 307 1807 333 1896 
C 486 2432 730 2687 979 2687 
C 1037 2687 1146 2687 1146 2477 
C 1146 2311 1075 2126 979 1883 
C 666 1047 666 836 666 683 
C 666 76 1101 -64 1421 -64 
C 1606 -64 1837 -7 2061 230 
L 2067 223 
C 1971 -141 1907 -359 1683 -673 
z
" transform="scale(0.015625)"/>
      </defs>
      <use xlink:href="#CMMI12-79" transform="scale(0.996264)"/>
     </g>
    </g>
   </g>
   <g id="line2d_11">
    <path d="M 37.013548 138.6 
L 316.013548 138.6 
" clip-path="url(#pcbcaa60dc1)" style="fill: none; stroke: #000000; stroke-width: 0.5; stroke-linecap: square"/>
   </g>
   <g id="line2d_12">
    <path d="M 176.513548 277.2 
L 176.513548 0 
" clip-path="url(#pcbcaa60dc1)" style="fill: none; stroke: #000000; stroke-width: 0.5; stroke-linecap: square"/>
   </g>
   <g id="patch_3">
    <path d="M 37.013548 277.2 
L 37.013548 0 
" style="fill: none; stroke: #000000; stroke-width: 0.8; stroke-linejoin: miter; stroke-linecap: square"/>
   </g>
   <g id="patch_4">
    <path d="M 316.013548 277.2 
L 316.013548 0 
" style="fill: none; stroke: #000000; stroke-width: 0.8; stroke-linejoin: miter; stroke-linecap: square"/>
   </g>
   <g id="patch_5">
    <path d="M 37.013548 277.2 
L 316.013548 277.2 
" style="fill: none; stroke: #000000; stroke-width: 0.8; stroke-linejoin: miter; stroke-linecap: square"/>
   </g>
   <g id="patch_6">
    <path d="M 37.013548 0 
L 316.013548 0 
" style="fill: none; stroke: #000000; stroke-width: 0.8; stroke-linejoin: miter; stroke-linecap: square"/>
   </g>
   <g id="legend_1">
    <g id="patch_7">
     <path d="M 132.877832 34.44396 
L 220.149265 34.44396 
Q 223.149265 34.44396 223.149265 31.44396 
L 223.149265 10.5 
Q 223.149265 7.5 220.149265 7.5 
L 132.877832 7.5 
Q 129.877832 7.5 129.877832 10.5 
L 129.877832 31.44396 
Q 129.877832 34.44396 132.877832 34.44396 
z
" style="fill: #ffffff; opacity: 0.8; stroke: #cccccc; stroke-linejoin: miter"/>
    </g>
    <g id="patch_8">
     <path d="M 135.877832 24.70797 
L 165.877832 24.70797 
L 165.877832 14.20797 
L 135.877832 14.20797 
z
" style="fill: #5f9ea0; fill-opacity: 0.5; stroke: #5f9ea0; stroke-opacity: 0.5; stroke-linejoin: miter"/>
    </g>
    <g id="text_13">
     <!-- $\mathbb{C}_{\alpha}(S)$ -->
     <g transform="translate(177.877832 24.70797) scale(0.15 -0.15)">
      <defs>
       <path id="MSBM10-43" d="M 4205 4268 
C 4205 4377 4205 4480 4096 4480 
C 4090 4480 3994 4480 3981 4364 
C 3962 4186 3814 4186 3770 4186 
C 3546 4186 3322 4281 3194 4339 
C 2867 4480 2592 4480 2490 4480 
C 1421 4480 237 3810 237 2179 
C 237 555 1395 -128 2502 -128 
C 2842 -128 3296 -58 3763 223 
C 4058 408 4384 727 4384 816 
C 4384 905 4288 943 4250 943 
C 4205 943 4179 924 4115 854 
C 3744 434 3174 179 2605 179 
C 1613 179 1363 1179 1363 2166 
C 1363 3421 1824 4255 2509 4255 
C 2989 4255 3757 3791 3974 3115 
C 3994 3058 4013 2994 4096 2994 
C 4205 2994 4205 3096 4205 3205 
L 4205 4268 
z
M 3981 3612 
C 3904 3721 3821 3803 3661 3969 
C 3693 3963 3744 3963 3776 3963 
C 3846 3963 3930 3975 3981 4007 
L 3981 3612 
z
M 1709 4109 
C 1562 3963 1139 3415 1139 2166 
C 1139 1536 1235 656 1811 198 
C 762 535 461 1395 461 2173 
C 461 3345 1107 3912 1709 4115 
L 1709 4109 
z
" transform="scale(0.015625)"/>
       <path id="CMMI12-b" d="M 2963 1615 
C 2963 2234 2611 2816 1933 2816 
C 1094 2816 256 1902 256 996 
C 256 440 602 -64 1254 -64 
C 1651 -64 2125 89 2579 472 
C 2669 115 2867 -64 3142 -64 
C 3488 -64 3661 293 3661 376 
C 3661 434 3616 434 3597 434 
C 3546 434 3539 415 3520 364 
C 3462 204 3315 64 3162 64 
C 2963 64 2963 472 2963 862 
C 3616 1641 3770 2445 3770 2451 
C 3770 2509 3718 2509 3699 2509 
C 3642 2509 3635 2490 3610 2375 
C 3526 2094 3360 1596 2963 1072 
L 2963 1615 
z
M 2560 625 
C 1997 121 1491 64 1267 64 
C 813 64 685 466 685 766 
C 685 1040 826 1692 1024 2043 
C 1286 2490 1645 2687 1933 2687 
C 2554 2687 2554 1877 2554 1340 
C 2554 1181 2547 1015 2547 855 
C 2547 728 2554 696 2560 625 
z
" transform="scale(0.015625)"/>
       <path id="CMR17-28" d="M 1958 -1562 
C 1958 -1556 1958 -1543 1939 -1524 
C 1645 -1223 858 -403 858 1596 
C 858 3595 1632 4408 1946 4729 
C 1946 4735 1958 4748 1958 4767 
C 1958 4787 1939 4800 1914 4800 
C 1843 4800 1299 4325 986 3620 
C 666 2909 576 2218 576 1603 
C 576 1141 621 360 1005 -467 
C 1312 -1133 1837 -1600 1914 -1600 
C 1946 -1600 1958 -1588 1958 -1562 
z
" transform="scale(0.015625)"/>
       <path id="CMMI12-53" d="M 4064 4422 
C 4064 4480 4019 4480 4006 4480 
C 3981 4480 3974 4473 3898 4377 
C 3859 4332 3597 4002 3590 3996 
C 3379 4409 2957 4480 2688 4480 
C 1875 4480 1139 3742 1139 3024 
C 1139 2547 1427 2268 1741 2160 
C 1811 2134 2189 2033 2381 1988 
C 2707 1899 2790 1874 2925 1734 
C 2950 1702 3078 1556 3078 1258 
C 3078 667 2528 57 1888 57 
C 1363 57 781 279 781 991 
C 781 1112 806 1264 826 1328 
C 826 1347 832 1378 832 1391 
C 832 1417 819 1448 768 1448 
C 710 1448 704 1436 678 1328 
L 352 25 
C 352 19 326 -64 326 -71 
C 326 -128 378 -128 390 -128 
C 416 -128 422 -122 499 -26 
L 794 356 
C 947 127 1280 -128 1875 -128 
C 2701 -128 3456 667 3456 1461 
C 3456 1728 3392 1963 3149 2198 
C 3014 2331 2899 2363 2310 2516 
C 1882 2630 1824 2649 1709 2751 
C 1600 2859 1517 3011 1517 3227 
C 1517 3761 2061 4307 2669 4307 
C 3296 4307 3590 3926 3590 3322 
C 3590 3157 3558 2986 3558 2960 
C 3558 2903 3610 2903 3629 2903 
C 3686 2903 3693 2922 3718 3024 
L 4064 4422 
z
" transform="scale(0.015625)"/>
       <path id="CMR17-29" d="M 1683 1596 
C 1683 2057 1638 2839 1254 3665 
C 947 4332 422 4800 346 4800 
C 326 4800 301 4793 301 4761 
C 301 4748 307 4742 314 4729 
C 621 4408 1402 3595 1402 1603 
C 1402 -396 627 -1210 314 -1530 
C 307 -1543 301 -1549 301 -1562 
C 301 -1594 326 -1600 346 -1600 
C 416 -1600 960 -1127 1274 -422 
C 1594 289 1683 981 1683 1596 
z
" transform="scale(0.015625)"/>
      </defs>
      <use xlink:href="#MSBM10-43" transform="scale(0.996264)"/>
      <use xlink:href="#CMMI12-b" transform="translate(71.95259 -14.943915) scale(0.697382)"/>
      <use xlink:href="#CMR17-28" transform="translate(116.327246 0) scale(0.996264)"/>
      <use xlink:href="#CMMI12-53" transform="translate(151.608014 0) scale(0.996264)"/>
      <use xlink:href="#CMR17-29" transform="translate(217.402453 0) scale(0.996264)"/>
     </g>
    </g>
   </g>
  </g>
 </g>
 <defs>
  <clipPath id="pcbcaa60dc1">
   <rect x="37.013548" y="0" width="279" height="277.2"/>
  </clipPath>
 </defs>
</svg>
